<svg width="31" height="25" viewBox="0 0 31 25" fill="none" xmlns="http://www.w3.org/2000/svg">
<path d="M20.7384 16.7285C20.4429 16.7285 20.2064 16.9023 20.1736 17.1324C19.9175 19.1057 17.7765 20.6445 15.1692 20.6445C12.5685 20.6445 10.4275 19.1057 10.1648 17.1324C10.132 16.9074 9.89557 16.7285 9.60004 16.7285H2.76991C1.33822 16.7285 0.175781 17.6334 0.175781 18.7479V22.9808C0.175781 24.0953 1.33822 25.0001 2.76991 25.0001H27.5816C29.0133 25.0001 30.1758 24.0953 30.1758 22.9808V18.753C30.1758 17.6385 29.0133 16.7336 27.5816 16.7336H20.7384V16.7285Z" fill="#8E7D7D"/>
<path d="M19.0502 10.1529L17.0209 11.7326V1.43654C17.0209 0.644143 16.1934 0 15.1754 0C14.1575 0 13.33 0.644143 13.33 1.43654V11.7326L11.3006 10.1529C10.6767 9.66725 9.6785 9.54456 8.94295 9.92797C7.93813 10.4494 7.83962 11.5179 8.64741 12.1467L14.0852 16.3796C14.6894 16.85 15.668 16.85 16.2722 16.3796L21.71 12.1467C22.5178 11.5179 22.4193 10.4494 21.4145 9.92797C20.6723 9.53944 19.6741 9.66214 19.0502 10.1529Z" fill="#8E7D7D"/>
</svg>
