<svg width="30" height="40" viewBox="0 0 30 40" fill="none" xmlns="http://www.w3.org/2000/svg">
<path d="M20.1426 9.82119V0H15V16.9231H23.8234V20.4396H15V23.0769H23.8234V26.5934H15V29.2308H23.8234V32.7473H15V40H29.9997V9.82119H20.1426Z" fill="#8E7D7D" fill-opacity="0.8"/>
<path d="M6.17636 32.7473V29.2308H14.9997V26.5934H6.17636V23.0769H14.9997V20.4396H6.17636V16.9231H14.9997V0H0V40H14.9997V32.7473H6.17636Z" fill="#8E7D7D" fill-opacity="0.4"/>
<path d="M29.9997 9.82119L20.1426 0V9.82119H29.9997Z" fill="#8E7D7D"/>
<path d="M23.8225 16.9219H6.17578V20.4384H23.8225V16.9219Z" fill="#005ECE"/>
<path d="M23.8225 29.2305H6.17578V32.747H23.8225V29.2305Z" fill="#005ECE"/>
<path d="M23.8225 23.0781H6.17578V26.5946H23.8225V23.0781Z" fill="#005ECE"/>
</svg>
