<svg width="20" height="20" viewBox="0 0 20 20" fill="none" xmlns="http://www.w3.org/2000/svg">
<path d="M9.99994 20C15.5228 20 19.9999 15.5228 19.9999 10C19.9999 4.47715 15.5228 0 9.99994 0C4.47713 0 0 4.47715 0 10C0 15.5228 4.47713 20 9.99994 20Z" fill="#B3DAFE"/>
<path d="M9.99816 0C9.79543 0 9.5943 0.00675781 9.39453 0.0186719C14.6362 0.33082 18.7909 4.67988 18.7909 10C18.7909 15.3201 14.6362 19.6692 9.39457 19.9813C9.5943 19.9932 9.79543 20 9.99816 20C15.521 20 19.9981 15.5229 19.9981 10C19.9981 4.47715 15.521 0 9.99816 0Z" fill="#8AC9FE"/>
<path d="M10.0051 18.7337C9.90417 18.7337 9.80104 18.7917 9.70073 18.7884C7.56562 18.7169 5.56255 17.8871 4.00217 16.428C3.92885 16.3594 3.94862 16.2291 3.87729 16.1578C3.80596 16.0864 3.64389 16.0744 3.5753 16.0011C2.11613 14.4408 1.2864 12.4377 1.21488 10.3025C1.21152 10.2022 1.4341 10.1016 1.4341 10.0007C1.4341 9.89979 1.21152 9.7992 1.21488 9.69885C1.2864 7.56373 2.11609 5.56064 3.5753 4.00025C3.64385 3.92693 3.80643 3.99244 3.87776 3.92111C3.94908 3.84979 3.92885 3.64197 4.00217 3.57338C5.56251 2.1142 7.56559 1.28451 9.70073 1.21295C9.80104 1.20959 9.90952 1.35189 10.0104 1.35189C10.1113 1.35189 10.2041 1.20959 10.3044 1.21295C12.4395 1.28447 14.4426 2.1142 16.003 3.57338C16.0763 3.64193 16.0984 3.80006 16.1698 3.87139C16.2411 3.94271 16.3613 3.92693 16.4298 4.00025C17.889 5.56061 18.7187 7.56369 18.7902 9.69885C18.7936 9.79916 18.611 9.89979 18.611 10.0007C18.611 10.1016 18.7936 10.2022 18.7902 10.3025C18.7154 12.538 17.8094 14.6287 16.22 16.2181C14.6306 17.8075 12.5399 18.7135 10.3044 18.7884C10.204 18.7917 10.106 18.7337 10.0051 18.7337Z" fill="#EAF6FF"/>
<path d="M10.0049 10.3011C9.8382 10.3011 9.70312 10.166 9.70312 9.99934V3.92289C9.70312 3.75621 9.83824 3.62109 10.0049 3.62109C10.1716 3.62109 10.3067 3.75621 10.3067 3.92289V9.99934C10.3067 10.166 10.1716 10.3011 10.0049 10.3011Z" fill="#3D6D90"/>
<path d="M6.31254 12.5888C6.21684 12.4524 6.24989 12.2641 6.38633 12.1684L9.82936 9.75395C9.96588 9.65825 10.1541 9.69129 10.2498 9.82778C10.3455 9.96422 10.3124 10.1525 10.176 10.2482L6.73297 12.6627C6.59797 12.7574 6.40918 12.7266 6.31254 12.5888Z" fill="#3D6D90"/>
<path d="M10.001 1.20703C9.90012 1.20703 9.79957 1.20934 9.69922 1.2127V2.25871C9.69922 2.42539 9.83434 2.56051 10.001 2.56051C10.1677 2.56051 10.3028 2.42539 10.3028 2.25871V1.21273C10.2025 1.20937 10.1019 1.20703 10.001 1.20703Z" fill="#3D6D90"/>
<path d="M10.001 17.4395C9.8343 17.4395 9.69922 17.5746 9.69922 17.7412V18.7873C9.79957 18.7906 9.90012 18.7929 10.001 18.7929C10.1019 18.7929 10.2025 18.7906 10.3028 18.7873V17.7412C10.3028 17.5746 10.1677 17.4395 10.001 17.4395Z" fill="#3D6D90"/>
<path d="M3.57422 3.9991L4.31386 4.73875C4.43175 4.85664 4.62285 4.85664 4.74074 4.73875C4.85859 4.62086 4.85859 4.4298 4.74074 4.31191L4.00105 3.57227C3.92769 3.64086 3.85496 3.71031 3.78363 3.78168C3.71226 3.85305 3.64281 3.92578 3.57422 3.9991Z" fill="#3D6D90"/>
<path d="M16.2213 3.78168C16.1499 3.71031 16.0772 3.64086 16.0039 3.57227L15.2642 4.31191C15.1463 4.42977 15.1463 4.62086 15.2642 4.73875C15.382 4.85664 15.5731 4.8566 15.691 4.73875L16.4307 3.9991C16.3621 3.92578 16.2926 3.85305 16.2213 3.78168Z" fill="#3D6D90"/>
<path d="M4.31386 15.2603L3.57422 15.9999C3.64281 16.0733 3.71226 16.146 3.78363 16.2174C3.855 16.2887 3.92773 16.3582 4.00105 16.4268L4.74074 15.6871C4.85859 15.5693 4.85859 15.3782 4.74074 15.2603C4.62288 15.1424 4.43183 15.1424 4.31386 15.2603Z" fill="#3D6D90"/>
<path d="M18.7892 9.69727H17.7432C17.5765 9.69727 17.4414 9.83238 17.4414 9.99906C17.4414 10.1657 17.5765 10.3009 17.7432 10.3009H18.7892C18.7926 10.2005 18.7949 10.1 18.7949 9.99906C18.7949 9.89816 18.7926 9.79762 18.7892 9.69727Z" fill="#3D6D90"/>
<path d="M1.2166 10.3009H2.26261C2.42933 10.3009 2.56441 10.1657 2.56441 9.99906C2.56441 9.83238 2.42929 9.69727 2.26261 9.69727H1.2166C1.21324 9.79762 1.21094 9.89816 1.21094 9.99906C1.21094 10.1 1.21324 10.2005 1.2166 10.3009Z" fill="#3D6D90"/>
<path d="M10.0005 10.8448C10.4668 10.8448 10.8448 10.4668 10.8448 10.0005C10.8448 9.53425 10.4668 9.15625 10.0005 9.15625C9.53425 9.15625 9.15625 9.53425 9.15625 10.0005C9.15625 10.4668 9.53425 10.8448 10.0005 10.8448Z" fill="#B3DAFE"/>
<path d="M10.0003 9.15625C9.84629 9.15625 9.70238 9.19812 9.57812 9.27012C9.83023 9.41617 10.0003 9.6882 10.0003 10.0005C10.0003 10.3129 9.83023 10.5849 9.57812 10.731C9.70242 10.803 9.84629 10.8448 10.0003 10.8448C10.4666 10.8448 10.8446 10.4668 10.8446 10.0005C10.8446 9.53426 10.4666 9.15625 10.0003 9.15625Z" fill="#8AC9FE"/>
</svg>
