<svg width="25" height="28" viewBox="0 0 25 28" fill="none" xmlns="http://www.w3.org/2000/svg">
<path d="M13.2324 2.52345C13.1158 2.52345 11.6105 2.52345 11.0351 2.52345C11.0351 1.64969 10.3793 0.941406 9.5703 0.941406C8.76127 0.941406 8.10546 1.64969 8.10546 2.52345C7.57402 2.52345 7.2746 2.52345 5.9082 2.52345C5.50371 2.52345 5.17578 2.93035 5.17578 3.3672V4.15823C5.17578 5.03199 5.83159 5.74027 6.64062 5.74027H12.5C13.309 5.74027 13.9648 5.03199 13.9648 4.15823V3.3672C13.9648 2.93035 13.6369 2.52345 13.2324 2.52345Z" fill="#8E7D7D"/>
<path d="M16.9433 4.1582H15.4785C15.4785 5.90325 14.1157 7.32229 12.5 7.32229H6.6406C5.02484 7.32229 3.71093 5.90325 3.71093 4.1582H2.24609C1.03447 4.1582 0 5.22271 0 6.53127V25.5158C0 26.8243 1.03447 27.9416 2.24609 27.9416H16.9433C18.1549 27.9416 19.1406 26.8243 19.1406 25.5158V6.53127C19.1406 5.22271 18.1549 4.1582 16.9433 4.1582ZM3.1931 10.2546C2.90702 9.94563 2.90702 9.44502 3.1931 9.13605C3.47919 8.82707 3.94271 8.82707 4.2288 9.13605L5.17576 10.1588L6.12278 9.13605C6.40887 8.82707 6.87239 8.82707 7.15847 9.13605C7.44456 9.44502 7.44456 9.94563 7.15847 10.2546L6.21145 11.2774L7.15847 12.3002C7.44456 12.6092 7.44456 13.1098 7.15847 13.4187C6.87239 13.7277 6.40887 13.7277 6.12278 13.4187L5.17576 12.396L4.22875 13.4187C3.94266 13.7277 3.47914 13.7277 3.19306 13.4187C2.90697 13.1098 2.90697 12.6092 3.19306 12.3002L4.14007 11.2774L3.1931 10.2546ZM8.62331 21.3289L5.69363 24.493C5.55057 24.6475 5.36317 24.7248 5.17581 24.7248C4.98846 24.7248 4.80101 24.6475 4.65799 24.493L3.19315 22.9109C2.90697 22.602 2.90697 22.1014 3.1931 21.7924C3.47919 21.4835 3.94271 21.4835 4.2288 21.7924L5.17576 22.8152L7.58762 20.2103C7.8737 19.9014 8.33723 19.9014 8.62331 20.2103C8.9094 20.5193 8.9094 21.0199 8.62331 21.3289ZM8.62331 15.7918L5.69363 18.9558C5.55057 19.1104 5.36317 19.1876 5.17581 19.1876C4.98846 19.1876 4.80101 19.1104 4.65799 18.9558L3.19315 17.3738C2.90697 17.0648 2.90697 16.5643 3.1931 16.2553C3.47919 15.9463 3.94271 15.9463 4.2288 16.2553L5.17576 17.278L7.58762 14.6732C7.8737 14.3642 8.33723 14.3642 8.62331 14.6732C8.9094 14.9822 8.9094 15.4828 8.62331 15.7918ZM15.4785 23.1427H11.0351C10.6303 23.1427 10.3027 22.7889 10.3027 22.3517C10.3027 21.9145 10.6303 21.5607 11.0351 21.5607H15.4785C15.8833 21.5607 16.2109 21.9145 16.2109 22.3517C16.2109 22.7889 15.8833 23.1427 15.4785 23.1427ZM15.4785 17.6056H11.0351C10.6303 17.6056 10.3027 17.2518 10.3027 16.8145C10.3027 16.3773 10.6303 16.0235 11.0351 16.0235H15.4785C15.8833 16.0235 16.2109 16.3773 16.2109 16.8145C16.2109 17.2518 15.8833 17.6056 15.4785 17.6056ZM15.4785 12.0684H11.0351C10.6303 12.0684 10.3027 11.7146 10.3027 11.2774C10.3027 10.8402 10.6303 10.4864 11.0351 10.4864H15.4785C15.8833 10.4864 16.2109 10.8402 16.2109 11.2774C16.2109 11.7146 15.8833 12.0684 15.4785 12.0684Z" fill="#8E7D7D"/>
<path d="M22.8027 5.74023C21.5911 5.74023 20.6055 6.80474 20.6055 8.1133V10.4864H25V8.1133C25 6.80474 24.0143 5.74023 22.8027 5.74023Z" fill="#8E7D7D"/>
<path d="M20.6055 12.0684V20.442L20.82 20.2103C21.9129 19.0299 23.6925 19.0299 24.7854 20.2103L25 20.4421V12.0684H20.6055Z" fill="#8E7D7D"/>
<path d="M23.7513 21.3272C23.2291 20.7633 22.3794 20.7633 21.8573 21.3272L21.0195 22.232L22.1098 25.7644C22.2092 26.0873 22.4888 26.3051 22.8042 26.3051C23.1197 26.3051 23.3994 26.0873 23.4988 25.7644L24.589 22.232L23.7513 21.3272Z" fill="#8E7D7D"/>
</svg>
