<svg width="50" height="70" viewBox="0 0 50 70" fill="none" xmlns="http://www.w3.org/2000/svg">
<path d="M49.0464 70H1.7909C1.2646 70 0.837891 69.616 0.837891 69.1424V6.7072C0.837891 6.23358 1.2646 5.84957 1.7909 5.84957H49.0464C49.573 5.84957 49.9994 6.23358 49.9994 6.7072V69.1424C49.9994 69.616 49.573 70 49.0464 70Z" fill="#313057"/>
<path d="M48.2088 70H0.953011C0.426711 70 0 69.616 0 69.1424V6.7072C0 6.23357 0.426711 5.84957 0.953011 5.84957H48.2088C48.7351 5.84957 49.1618 6.23357 49.1618 6.7072V69.1424C49.1618 69.616 48.7351 70 48.2088 70Z" fill="#457CC2"/>
<path d="M4.1582 67.2227H46.682V8.6269H4.1582V67.2227Z" fill="#C1CAE3"/>
<path d="M3.31641 67.2227H45.84V8.6269H3.31641V67.2227Z" fill="white"/>
<path d="M34.9038 9.94922H14.2559V5.39798C14.2559 4.806 14.7891 4.32595 15.4471 4.32595H33.7125C34.3703 4.32595 34.9038 4.806 34.9038 5.39798V9.94922Z" fill="#313057"/>
<path d="M24.5802 6.48766C23.2526 6.48766 22.1767 5.51918 22.1767 4.32472C22.1767 3.13025 23.2526 2.16198 24.5802 2.16198C25.9075 2.16198 26.9834 3.13025 26.9834 4.32472C26.9834 5.51918 25.9075 6.48766 24.5802 6.48766ZM24.5802 -0.000965118C21.9253 -0.000965118 19.7734 1.93557 19.7734 4.32472C19.7734 6.71365 21.9253 8.65039 24.5802 8.65039C27.2348 8.65039 29.3867 6.71365 29.3867 4.32472C29.3867 1.93557 27.2348 -0.000965118 24.5802 -0.000965118Z" fill="#313057"/>
<path d="M39.2555 25.1194V25.0122H35.037C34.8395 25.0117 34.6799 24.8681 34.6797 24.6905V20.8942C34.6799 20.7167 34.8395 20.5728 35.037 20.5726H39.2555C39.4528 20.5728 39.6124 20.7167 39.6129 20.8942V24.6905C39.6124 24.8681 39.4528 25.0117 39.2555 25.0122V25.1194V25.2266C39.5846 25.2266 39.8509 24.9866 39.8512 24.6905V20.8942C39.8509 20.5981 39.5846 20.3582 39.2555 20.3582H35.037C34.7078 20.3582 34.4414 20.5981 34.4414 20.8942V24.6905C34.4414 24.9866 34.7078 25.2266 35.037 25.2266H39.2555V25.1194Z" fill="#D5DAEA"/>
<path d="M33.1029 22.1462C33.9563 22.914 34.8095 23.682 35.6629 24.4498C35.8902 24.6545 36.2772 24.655 36.5052 24.4498C38.5043 22.6509 40.5033 20.8518 42.5025 19.0529C43.0452 18.5643 42.203 17.8061 41.66 18.2948C39.6611 20.0937 37.6619 21.8928 35.6629 23.6919C35.9436 23.6919 36.2243 23.6919 36.5052 23.6919C35.652 22.9238 34.7988 22.156 33.9454 21.388C33.4026 20.8996 32.5602 21.6576 33.1029 22.1462Z" fill="#E46261"/>
<path d="M39.2555 34.1487V34.0415H35.037C34.8395 34.041 34.6799 33.8974 34.6797 33.7198V29.9235C34.6799 29.7458 34.8395 29.6021 35.037 29.6019H39.2555C39.4528 29.6021 39.6124 29.746 39.6129 29.9235V33.7198C39.6124 33.8974 39.4528 34.041 39.2555 34.0415V34.1487V34.2559C39.5846 34.2556 39.8509 34.0159 39.8512 33.7198V29.9235C39.8509 29.6274 39.5846 29.3875 39.2555 29.3875H35.037C34.7078 29.3875 34.4414 29.6274 34.4414 29.9235V33.7198C34.4414 34.0159 34.7078 34.2559 35.037 34.2559H39.2555V34.1487Z" fill="#D5DAEA"/>
<path d="M33.1029 31.1755C33.9563 31.9433 34.8095 32.7113 35.6629 33.4791C35.8902 33.6838 36.2772 33.6843 36.5052 33.4791C38.5043 31.6802 40.5033 29.8811 42.5025 28.082C43.0452 27.5936 42.203 26.8354 41.66 27.3241C39.6611 29.123 37.6619 30.9221 35.6629 32.7211C35.9436 32.7211 36.2243 32.7211 36.5052 32.7211C35.652 31.9531 34.7988 31.1853 33.9454 30.4173C33.4026 29.9289 32.5602 30.6868 33.1029 31.1755Z" fill="#E46261"/>
<path d="M39.2555 42.758V42.6508H35.037C34.8395 42.6506 34.6799 42.5067 34.6797 42.3292V38.5329C34.6799 38.3554 34.8395 38.2117 35.037 38.2113H39.2555C39.4528 38.2117 39.6124 38.3554 39.6129 38.5329V42.3292C39.6124 42.5067 39.4528 42.6506 39.2555 42.6508V42.758V42.8652C39.5846 42.8652 39.8509 42.6253 39.8512 42.3292V38.5329C39.8509 38.2368 39.5846 37.9969 39.2555 37.9969H35.037C34.7078 37.9969 34.4414 38.2368 34.4414 38.5329V42.3292C34.4414 42.6253 34.7078 42.8652 35.037 42.8652H39.2555V42.758Z" fill="#D5DAEA"/>
<path d="M33.1029 39.7851C33.9563 40.5529 34.8095 41.3207 35.6629 42.0885C35.8902 42.2932 36.2772 42.2936 36.5052 42.0885C38.5043 40.2894 40.5033 38.4905 42.5025 36.6916C43.0452 36.203 42.203 35.4448 41.66 35.9335C39.6611 37.7325 37.6619 39.5314 35.6629 41.3305C35.9436 41.3305 36.2243 41.3305 36.5052 41.3305C35.652 40.5627 34.7988 39.7947 33.9454 39.0269C33.4026 38.5385 32.5602 39.2962 33.1029 39.7851Z" fill="#E46261"/>
<path d="M39.2555 51.508V51.4008H35.037C34.8395 51.4004 34.6799 51.2567 34.6797 51.0792V47.2829C34.6799 47.1052 34.8395 46.9615 35.037 46.9613H39.2555C39.4528 46.9615 39.6124 47.1054 39.6129 47.2829V51.0792C39.6124 51.2567 39.4528 51.4004 39.2555 51.4008V51.508V51.6152C39.5846 51.615 39.8509 51.3753 39.8512 51.0792V47.2829C39.8509 46.9868 39.5846 46.7469 39.2555 46.7469H35.037C34.7078 46.7469 34.4414 46.9868 34.4414 47.2829V51.0792C34.4414 51.3751 34.7078 51.615 35.037 51.6152H39.2555V51.508Z" fill="#D5DAEA"/>
<path d="M33.1029 48.5346C33.9563 49.3027 34.8095 50.0707 35.6629 50.8385C35.8902 51.0432 36.2772 51.0436 36.5052 50.8385C38.5043 49.0394 40.5033 47.2403 42.5025 45.4414C43.0452 44.953 42.203 44.1946 41.66 44.6834C39.6611 46.4823 37.6619 48.2814 35.6629 50.0803C35.9436 50.0803 36.2243 50.0803 36.5052 50.0803C35.652 49.3123 34.7988 48.5445 33.9454 47.7767C33.4026 47.2883 32.5602 48.046 33.1029 48.5346Z" fill="#E46261"/>
<path d="M30.5974 21.0234H9.24997C9.11846 21.0234 9.01172 20.9274 9.01172 20.809V20.4703C9.01172 20.3517 9.11846 20.2559 9.24997 20.2559H30.5974C30.7292 20.2559 30.8357 20.3517 30.8357 20.4703V20.809C30.8357 20.9274 30.7292 21.0234 30.5974 21.0234Z" fill="#C1CAE3"/>
<path d="M30.5974 23.002H9.24997C9.11846 23.002 9.01172 22.9059 9.01172 22.7875V22.4488C9.01172 22.3304 9.11846 22.2344 9.24997 22.2344H30.5974C30.7292 22.2344 30.8357 22.3304 30.8357 22.4488V22.7875C30.8357 22.9059 30.7292 23.002 30.5974 23.002Z" fill="#C1CAE3"/>
<path d="M25.4519 24.9785H9.24997C9.11846 24.9785 9.01172 24.8825 9.01172 24.7641V24.4253C9.01172 24.3068 9.11846 24.2109 9.24997 24.2109H25.4519C25.5834 24.2109 25.6901 24.3068 25.6901 24.4253V24.7641C25.6901 24.8825 25.5834 24.9785 25.4519 24.9785Z" fill="#C1CAE3"/>
<path d="M30.5974 30.0508H9.24997C9.11846 30.0508 9.01172 29.9547 9.01172 29.8364V29.4976C9.01172 29.379 9.11846 29.2832 9.24997 29.2832H30.5974C30.7292 29.2832 30.8357 29.379 30.8357 29.4976V29.8364C30.8357 29.9547 30.7292 30.0508 30.5974 30.0508Z" fill="#C1CAE3"/>
<path d="M30.5974 32.0293H9.24997C9.11846 32.0293 9.01172 31.9332 9.01172 31.8149V31.4761C9.01172 31.3578 9.11846 31.2617 9.24997 31.2617H30.5974C30.7292 31.2617 30.8357 31.3578 30.8357 31.4761V31.8149C30.8357 31.9332 30.7292 32.0293 30.5974 32.0293Z" fill="#C1CAE3"/>
<path d="M25.4519 34.0078H9.24997C9.11846 34.0078 9.01172 33.912 9.01172 33.7934V33.4546C9.01172 33.3363 9.11846 33.2402 9.24997 33.2402H25.4519C25.5834 33.2402 25.6901 33.3363 25.6901 33.4546V33.7934C25.6901 33.912 25.5834 34.0078 25.4519 34.0078Z" fill="#C1CAE3"/>
<path d="M30.5974 38.6621H9.24997C9.11846 38.6621 9.01172 38.5661 9.01172 38.4477V38.1087C9.01172 37.9904 9.11846 37.8943 9.24997 37.8943H30.5974C30.7292 37.8943 30.8357 37.9904 30.8357 38.1087V38.4477C30.8357 38.5661 30.7292 38.6621 30.5974 38.6621Z" fill="#C1CAE3"/>
<path d="M30.5974 40.6406H9.24997C9.11846 40.6406 9.01172 40.5446 9.01172 40.4262V40.0875C9.01172 39.9689 9.11846 39.873 9.24997 39.873H30.5974C30.7292 39.873 30.8357 39.9689 30.8357 40.0875V40.4262C30.8357 40.5446 30.7292 40.6406 30.5974 40.6406Z" fill="#C1CAE3"/>
<path d="M25.4519 42.6191H9.24997C9.11846 42.6191 9.01172 42.5231 9.01172 42.4047V42.066C9.01172 41.9476 9.11846 41.8516 9.24997 41.8516H25.4519C25.5834 41.8516 25.6901 41.9476 25.6901 42.066V42.4047C25.6901 42.5231 25.5834 42.6191 25.4519 42.6191Z" fill="#C1CAE3"/>
<path d="M30.5974 47.4121H9.24997C9.11846 47.4121 9.01172 47.3161 9.01172 47.1977V46.8589C9.01172 46.7404 9.11846 46.6445 9.24997 46.6445H30.5974C30.7292 46.6445 30.8357 46.7404 30.8357 46.8589V47.1977C30.8357 47.3161 30.7292 47.4121 30.5974 47.4121Z" fill="#C1CAE3"/>
<path d="M30.5974 49.3906H9.24997C9.11846 49.3906 9.01172 49.2944 9.01172 49.1762V48.8375C9.01172 48.7189 9.11846 48.623 9.24997 48.623H30.5974C30.7292 48.623 30.8357 48.7189 30.8357 48.8375V49.1762C30.8357 49.2944 30.7292 49.3906 30.5974 49.3906Z" fill="#C1CAE3"/>
<path d="M25.4519 51.3672H9.24997C9.11846 51.3672 9.01172 51.2713 9.01172 51.1528V50.814C9.01172 50.6957 9.11846 50.5996 9.24997 50.5996H25.4519C25.5834 50.5996 25.6901 50.6957 25.6901 50.814V51.1528C25.6901 51.2713 25.5834 51.3672 25.4519 51.3672Z" fill="#C1CAE3"/>
<path d="M2.5629 23.1956C3.64219 23.2733 5.56822 23.9467 5.18511 25.2396C5.16819 25.2966 5.14413 25.3549 5.09481 25.3938C5.02786 25.4467 4.93113 25.4527 4.84202 25.4549C4.36052 25.4669 3.83755 25.4371 3.46921 25.1577C3.23787 24.9823 3.09277 24.725 2.84713 24.5661C2.70537 24.4746 2.53788 24.4214 2.37325 24.3693C2.08782 24.279 1.8024 24.189 1.51697 24.0989C1.36592 24.0513 1.19533 23.9857 1.14958 23.8479C1.09955 23.6967 1.22988 23.5456 1.3714 23.4525C1.70853 23.2314 2.14715 23.1656 2.5629 23.1956Z" fill="#313057"/>
</svg>
