<svg width="61" height="55" viewBox="0 0 61 55" fill="none" xmlns="http://www.w3.org/2000/svg">
<path d="M26.5396 0H3.79595C1.69947 0 0 1.77288 0 3.95965V23.6493C0 25.8189 1.67311 27.5801 3.74674 27.6076V27.6088L4.80441 28.2332H10.8392L12.2551 27.6089H26.5392C28.6357 27.6089 30.3352 25.8361 30.3352 23.6493V3.95965C30.3352 1.77301 28.6358 0.000244468 26.5396 0Z" fill="#6B61B1"/>
<path d="M33.8185 0H26.207C28.3035 0 30.003 1.77276 30.003 3.95965V23.6493C30.003 25.8361 28.3035 27.6089 26.207 27.6089H33.8185C35.915 27.6089 37.6145 25.8361 37.6145 23.6493V3.95965C37.6145 1.77288 35.915 0 33.8185 0Z" fill="#126AA0"/>
<path d="M3.74609 36.8074C3.74609 37.3843 4.44414 37.6372 4.78701 37.1845L11.5815 28.2117C11.8695 27.8314 12.3087 27.6094 12.7735 27.6094H3.74609V36.8074Z" fill="#126AA0"/>
<path d="M46.6919 44.4266L48.0554 46.2274C48.2894 46.2183 48.4792 46.0327 48.5099 45.7905C48.6469 44.7086 49.3079 43.7778 50.2755 43.303C51.7564 42.5764 52.7816 41.0064 52.7816 39.1861V16.5681C52.7816 14.0561 50.8294 12.0195 48.4211 12.0195H21.1535C18.7452 12.0195 16.793 14.056 16.793 16.5681V39.1861C16.793 41.6982 18.7452 43.7347 21.1535 43.7347H45.3224C45.8565 43.7347 46.361 43.9896 46.6919 44.4266Z" fill="#E49542"/>
<path d="M55.641 12.0195H48.0039C50.4121 12.0195 52.3644 14.056 52.3644 16.5681V39.1861C52.3644 41.0064 51.3392 42.5764 49.8583 43.303C48.7673 43.8383 48.0605 44.9698 48.0605 46.2273L54.5019 54.7338C54.8958 55.2539 55.6976 54.9633 55.6976 54.3006V43.7331C58.0797 43.7014 60.0017 41.6783 60.0017 39.186V16.5681C60.0016 14.056 58.0493 12.0195 55.641 12.0195Z" fill="#E27D47"/>
<path d="M52.7572 21.2247H24.0264C23.5264 21.2247 23.1211 20.8019 23.1211 20.2803C23.1211 19.7587 23.5264 19.3359 24.0264 19.3359H52.7572C53.2572 19.3359 53.6625 19.7587 53.6625 20.2803C53.6625 20.8019 53.2572 21.2247 52.7572 21.2247Z" fill="#F0F7FF"/>
<path d="M52.7572 28.4454H24.0264C23.5264 28.4454 23.1211 28.0226 23.1211 27.501C23.1211 26.9794 23.5264 26.5566 24.0264 26.5566H52.7572C53.2572 26.5566 53.6625 26.9794 53.6625 27.501C53.6625 28.0225 53.2572 28.4454 52.7572 28.4454Z" fill="#F0F7FF"/>
<path d="M52.7572 35.6622H24.0264C23.5264 35.6622 23.1211 35.2394 23.1211 34.7178C23.1211 34.1962 23.5264 33.7734 24.0264 33.7734H52.7572C53.2572 33.7734 53.6625 34.1962 53.6625 34.7178C53.6625 35.2394 53.2572 35.6622 52.7572 35.6622Z" fill="#F0F7FF"/>
</svg>
