<svg width="190" height="173" viewBox="0 0 190 173" fill="none" xmlns="http://www.w3.org/2000/svg">
<path d="M0.681641 151.98H189.87V151.865H0.681641V151.98Z" fill="#E7E8E5"/>
<path d="M26.6043 156.398H20.5273V156.283H26.6043V156.398Z" fill="#E7E8E5"/>
<path d="M85.6948 155.143H65.4414V155.027H85.6948V155.143Z" fill="#E7E8E5"/>
<path d="M26.9941 160.705H40.7116V160.59H26.9941V160.705Z" fill="#E7E8E5"/>
<path d="M144.139 155.082H160.482V154.967H144.139V155.082Z" fill="#E7E8E5"/>
<path d="M163.854 154.967H166.25V155.082H163.854V154.967Z" fill="#E7E8E5"/>
<path d="M141.017 157.971H120.627V157.855H141.017V157.971Z" fill="#E7E8E5"/>
<path d="M17.2985 0.115387C16.1596 0.115387 15.2333 1.25076 15.2333 2.64632V128.534C15.2333 129.93 16.1596 131.066 17.2985 131.066H90.3627C91.5009 131.066 92.4275 129.93 92.4275 128.534V2.64632C92.4275 1.25076 91.5009 0.115387 90.3627 0.115387H17.2985ZM90.3627 131.182H17.2985C16.1075 131.182 15.1387 129.994 15.1387 128.534V2.64632C15.1387 1.18723 16.1075 -0.000564575 17.2985 -0.000564575H90.3627C91.5531 -0.000564575 92.5221 1.18723 92.5221 2.64632V128.534C92.5221 129.994 91.5531 131.182 90.3627 131.182Z" fill="#E7E8E5"/>
<path d="M99.1399 0.115387C98.0013 0.115387 97.0751 1.25076 97.0751 2.64632V128.534C97.0751 129.93 98.0013 131.066 99.1399 131.066H172.204C173.343 131.066 174.269 129.93 174.269 128.534V2.64632C174.269 1.25076 173.343 0.115387 172.204 0.115387H99.1399ZM172.204 131.182H99.1399C97.9491 131.182 96.9805 129.994 96.9805 128.534V2.64632C96.9805 1.18723 97.9491 -0.000564575 99.1399 -0.000564575H172.204C173.395 -0.000564575 174.364 1.18723 174.364 2.64632V128.534C174.364 129.994 173.395 131.182 172.204 131.182Z" fill="#E7E8E5"/>
<path d="M148.139 151.865H150.651V113.095H148.139V151.865Z" fill="#F3F2F1"/>
<path d="M149.561 151.865H151.747V113.095H149.561V151.865Z" fill="#EDEDEB"/>
<path d="M89.5352 151.865H92.048V113.095H89.5352V151.865Z" fill="#F3F2F1"/>
<path d="M90.9531 151.865H93.1393V113.095H90.9531V151.865Z" fill="#EDEDEB"/>
<path d="M157.662 151.865H160.175V113.095H157.662V151.865Z" fill="#F3F2F1"/>
<path d="M159.086 151.865H161.272V113.095H159.086V151.865Z" fill="#EDEDEB"/>
<path d="M99.0605 151.865H101.573V113.095H99.0605V151.865Z" fill="#F3F2F1"/>
<path d="M89.5352 113.832H161.265V112.364H89.5352V113.832Z" fill="#EDEDEB"/>
<path d="M89.5352 113.832H100.477V112.364H89.5352V113.832Z" fill="#E2E2E0"/>
<path d="M100.479 151.865H102.665V113.095H100.479V151.865Z" fill="#EDEDEB"/>
<path d="M118.635 112.363H125.421V84.1276H118.635V112.363Z" fill="#E7E8E5"/>
<path d="M143.811 112.363H121.29L117.889 79.3158H140.41L143.811 112.363Z" fill="#DADBD8"/>
<path d="M145.131 112.363H121.868L118.467 79.3158H141.729L145.131 112.363Z" fill="#EDEDEB"/>
<path d="M132.078 112.363H127.564L128.836 79.3158H133.349L132.078 112.363Z" fill="#FAFAF9"/>
<path d="M137.254 112.363H132.811L134.082 79.3158H138.525L137.254 112.363Z" fill="#FAFAF9"/>
<path d="M105.234 64.2559H163.744V8.14348H105.234V64.2559Z" fill="#E2E2E0"/>
<path d="M106.051 64.2559H165.495V8.14348H106.051V64.2559Z" fill="#EDEDEB"/>
<path d="M163.744 64.2549H105.234V66.1328H163.744V64.2549Z" fill="#E2E2E0"/>
<path d="M166.441 64.2549H106.996V66.1328H166.441V64.2549Z" fill="#EDEDEB"/>
<path d="M108.512 61.2422H163.041V11.1545H108.512V61.2422Z" fill="#FAFAF9"/>
<path d="M138.357 61.2422L142.293 11.1545H149.102L145.166 61.2422H138.357Z" fill="white"/>
<path d="M121.168 61.2422L125.103 11.1545H131.912L127.977 61.2422H121.168Z" fill="white"/>
<path d="M109.651 44.2656C109.547 44.2656 109.463 44.1627 109.463 44.0351V13.1164C109.463 12.9889 109.547 12.8859 109.651 12.8859C109.755 12.8859 109.839 12.9889 109.839 13.1164V44.0351C109.839 44.1627 109.755 44.2656 109.651 44.2656Z" fill="#EDEDEB"/>
<path d="M146.623 61.2422L150.559 11.1545H153.213L149.278 61.2422H146.623Z" fill="white"/>
<path d="M162.727 61.2422H163.039V11.1545H162.727V61.2422Z" fill="#E2E2E0"/>
<path d="M166.075 16.6172H165.89L165.849 15.8533H165.494V12.3271H165.849L166.075 16.6172Z" fill="#ECECEA"/>
<path d="M165.5 15.8535H163.042V12.3273H165.5V15.8535ZM108.513 15.8535H107.531L107.346 12.3273H108.513V15.8535Z" fill="#E4E4E2"/>
<path d="M162.729 15.8535H152.846L153.123 12.3273H162.729V15.8535ZM150.191 15.8535H148.729L149.006 12.3273H150.468L150.191 15.8535ZM141.92 15.8535H131.543L131.82 12.3273H142.197L141.92 15.8535ZM124.734 15.8535H109.838V13.1162C109.838 12.9887 109.754 12.8857 109.649 12.8857C109.545 12.8857 109.461 12.9887 109.461 13.1162V15.8535H108.512V12.3273H125.011L124.734 15.8535Z" fill="#EAEAE7"/>
<path d="M148.733 15.8535H141.924L142.201 12.3273H149.01L148.733 15.8535Z" fill="#ECECEA"/>
<path d="M131.553 15.8535H124.744L125.021 12.3273H131.83L131.553 15.8535Z" fill="#ECECEA"/>
<path d="M109.839 15.8535H109.463V13.1162C109.463 12.9887 109.547 12.8857 109.651 12.8857C109.755 12.8857 109.839 12.9887 109.839 13.1162V15.8535Z" fill="#E4E4E2"/>
<path d="M152.848 15.8535H150.193L150.471 12.3273H153.125L152.848 15.8535Z" fill="#ECECEA"/>
<path d="M162.727 15.8535H163.039V12.3271H162.727V15.8535Z" fill="#DDDEDB"/>
<path d="M166.075 23.6699H165.89L165.849 22.9061H165.494V20.1432H165.89L166.075 23.6699Z" fill="#ECECEA"/>
<path d="M165.5 22.9062H163.042V20.1434H165.5V22.9062ZM108.513 22.9062H107.531L107.346 19.3796H107.531L107.572 20.1434H108.513V22.9062Z" fill="#E4E4E2"/>
<path d="M162.729 22.9062H152.291L152.509 20.1434H162.729V22.9062ZM149.637 22.9062H148.174L148.392 20.1434H149.854L149.637 22.9062ZM141.365 22.9062H130.988L131.206 20.1434H141.583L141.365 22.9062ZM124.18 22.9062H109.838V20.1434H124.397L124.18 22.9062ZM109.461 22.9062H108.512V20.1434H109.461V22.9062Z" fill="#EAEAE7"/>
<path d="M148.178 22.9062H141.369L141.586 20.1434H148.395L148.178 22.9062Z" fill="#ECECEA"/>
<path d="M130.992 22.9062H124.184L124.401 20.1434H131.21L130.992 22.9062Z" fill="#ECECEA"/>
<path d="M109.463 22.9062H109.839V20.1436H109.463V22.9062Z" fill="#E4E4E2"/>
<path d="M152.293 22.9062H149.639L149.855 20.1434H152.51L152.293 22.9062Z" fill="#ECECEA"/>
<path d="M162.727 22.9062H163.039V20.1436H162.727V22.9062Z" fill="#DDDEDB"/>
<path d="M166.075 30.7227H165.89L165.849 29.9583H165.494V27.196H165.89L166.075 30.7227Z" fill="#ECECEA"/>
<path d="M165.5 29.959H163.042V27.1966H165.5V29.959ZM108.513 29.959H107.531L107.346 26.4328H107.531L107.572 27.1966H108.513V29.959Z" fill="#E4E4E2"/>
<path d="M162.729 29.959H151.738L151.954 27.1966H162.729V29.959ZM149.083 29.959H147.62L147.837 27.1966H149.3L149.083 29.959ZM140.811 29.959H130.434L130.651 27.1966H141.028L140.811 29.959ZM123.625 29.959H109.838V27.1966H123.842L123.625 29.959ZM109.461 29.959H108.512V27.1966H109.461V29.959Z" fill="#EAEAE7"/>
<path d="M147.625 29.959H140.816L141.034 27.1966H147.842L147.625 29.959Z" fill="#ECECEA"/>
<path d="M130.438 29.959H123.629L123.846 27.1966H130.655L130.438 29.959Z" fill="#ECECEA"/>
<path d="M109.463 29.959H109.839V27.1965H109.463V29.959Z" fill="#E4E4E2"/>
<path d="M151.737 29.959H149.082L149.299 27.1966H151.954L151.737 29.959Z" fill="#ECECEA"/>
<path d="M162.727 29.959H163.039V27.1965H162.727V29.959Z" fill="#DDDEDB"/>
<path d="M166.075 37.7773H165.89L165.849 37.0135H165.494V34.2511H165.89L166.075 37.7773Z" fill="#ECECEA"/>
<path d="M165.5 37.0137H163.042V34.2513H165.5V37.0137ZM108.513 37.0137H107.531L107.346 33.487H107.531L107.572 34.2513H108.513V37.0137Z" fill="#E4E4E2"/>
<path d="M162.729 37.0137H151.183L151.4 34.2513H162.729V37.0137ZM148.528 37.0137H147.066L147.283 34.2513H148.746L148.528 37.0137ZM140.257 37.0137H129.88L130.097 34.2513H140.474L140.257 37.0137ZM123.071 37.0137H109.838V34.2513H123.288L123.071 37.0137ZM109.461 37.0137H108.512V34.2513H109.461V37.0137Z" fill="#EAEAE7"/>
<path d="M147.069 37.0137H140.26L140.477 34.2513H147.285L147.069 37.0137Z" fill="#ECECEA"/>
<path d="M129.885 37.0137H123.076L123.293 34.2513H130.102L129.885 37.0137Z" fill="#ECECEA"/>
<path d="M109.463 37.0137H109.839V34.251H109.463V37.0137Z" fill="#E4E4E2"/>
<path d="M151.19 37.0137H148.535L148.752 34.2513H151.407L151.19 37.0137Z" fill="#ECECEA"/>
<path d="M162.727 37.0137H163.039V34.251H162.727V37.0137Z" fill="#DDDEDB"/>
<path d="M166.075 44.8281H165.89L165.849 44.0643H165.494V41.3014H165.89L166.075 44.8281Z" fill="#ECECEA"/>
<path d="M165.5 44.0664H163.042V41.3036H165.5V44.0664ZM108.488 43.9481C108.465 43.9481 108.441 43.9458 108.418 43.9421C108.191 43.9059 107.961 43.8869 107.73 43.886C107.656 43.8855 107.585 43.8674 107.519 43.8327L107.346 40.5397H107.531L107.572 41.3036H108.513V43.9472C108.505 43.9477 108.497 43.9481 108.488 43.9481Z" fill="#E4E4E2"/>
<path d="M162.729 44.0664H150.629L150.846 41.3036H162.729V44.0664ZM147.975 44.0664H146.512L146.729 41.3036H148.192L147.975 44.0664ZM139.703 44.0664H129.326L129.543 41.3036H139.92L139.703 44.0664ZM122.517 44.0664H110.544L109.838 43.6379V41.3036H122.734L122.517 44.0664ZM108.512 43.9472V41.3036H109.461V43.4472C109.439 43.4435 109.416 43.4412 109.393 43.4412C109.288 43.4412 109.183 43.4816 109.094 43.5595L108.783 43.8331C108.703 43.9041 108.609 43.9416 108.512 43.9472Z" fill="#EAEAE7"/>
<path d="M146.514 44.0664H139.705L139.922 41.3036H146.731L146.514 44.0664Z" fill="#ECECEA"/>
<path d="M129.332 44.0664H122.523L122.741 41.3036H129.55L129.332 44.0664Z" fill="#ECECEA"/>
<path d="M109.839 43.6367L109.622 43.5055C109.571 43.4749 109.517 43.4549 109.463 43.4461V41.3024H109.839V43.6367Z" fill="#E4E4E2"/>
<path d="M150.629 44.0664H147.975L148.192 41.3036H150.846L150.629 44.0664Z" fill="#ECECEA"/>
<path d="M162.727 44.0664H163.039V41.3038H162.727V44.0664Z" fill="#DDDEDB"/>
<path d="M166.075 51.8828H165.89L165.849 51.1185H165.494V48.3561H165.89L166.075 51.8828Z" fill="#ECECEA"/>
<path d="M165.499 51.1191H163.042V48.3568H165.499V51.1191ZM108.512 51.1191H107.531L107.389 48.4185C107.493 48.3967 107.599 48.386 107.703 48.386C107.986 48.386 108.262 48.4644 108.512 48.6096V51.1191Z" fill="#E4E4E2"/>
<path d="M162.729 51.1191H150.075L150.292 48.3568H162.729V51.1191ZM147.42 51.1191H145.958L146.175 48.3568H147.637L147.42 51.1191ZM139.149 51.1191H128.772L128.989 48.3568H139.366L139.149 51.1191ZM121.963 51.1191H113.26C113.266 50.9944 113.27 50.8687 113.27 50.743C113.271 50.583 113.317 50.4281 113.407 50.3117L113.669 49.9703C113.761 49.8516 113.81 49.6958 113.809 49.5371C113.809 49.4704 113.8 49.4031 113.783 49.3377L113.512 48.3568H122.18L121.963 51.1191ZM109.569 51.1191H108.512V48.6096C108.961 48.8697 109.327 49.3442 109.498 49.9661C109.566 50.2133 109.599 50.4643 109.598 50.7115C109.598 50.8492 109.589 50.9856 109.569 51.1191Z" fill="#EAEAE7"/>
<path d="M145.961 51.1191H139.152L139.369 48.3568H146.178L145.961 51.1191Z" fill="#ECECEA"/>
<path d="M128.778 51.1191H121.969L122.186 48.3568H128.994L128.778 51.1191Z" fill="#ECECEA"/>
<path d="M150.079 51.1191H147.424L147.641 48.3568H150.296L150.079 51.1191Z" fill="#ECECEA"/>
<path d="M162.727 51.1191H163.039V48.3567H162.727V51.1191Z" fill="#DDDEDB"/>
<path d="M166.075 20.1445H165.89L165.849 19.3807H165.494V16.6179H165.89L166.075 20.1445Z" fill="#ECECEA"/>
<path d="M165.5 19.3809H163.042V16.618H165.5V19.3809ZM108.513 19.3809H107.531L107.346 15.8542H107.531L107.572 16.618H108.513V19.3809Z" fill="#E4E4E2"/>
<path d="M162.729 19.3809H152.569L152.786 16.618H162.729V19.3809ZM149.914 19.3809H148.451L148.668 16.618H150.131L149.914 19.3809ZM141.642 19.3809H131.265L131.483 16.618H141.86L141.642 19.3809ZM124.457 19.3809H109.838V16.618H124.674L124.457 19.3809ZM109.461 19.3809H108.512V16.618H109.461V19.3809Z" fill="#EAEAE7"/>
<path d="M148.453 19.3809H141.645L141.862 16.618H148.671L148.453 19.3809Z" fill="#ECECEA"/>
<path d="M131.264 19.3809H124.455L124.672 16.618H131.481L131.264 19.3809Z" fill="#ECECEA"/>
<path d="M109.463 19.3809H109.839V16.6182H109.463V19.3809Z" fill="#E4E4E2"/>
<path d="M152.569 19.3809H149.914L150.131 16.618H152.786L152.569 19.3809Z" fill="#ECECEA"/>
<path d="M162.727 19.3809H163.039V16.6182H162.727V19.3809Z" fill="#DDDEDB"/>
<path d="M165.89 16.6172H165.494V15.8533H165.849L165.89 16.6172Z" fill="#E3E4E1"/>
<path d="M165.496 16.6172H163.038V15.8533H165.496V16.6172ZM108.509 16.6172H107.568L107.527 15.8533H108.509V16.6172Z" fill="#DEDFDC"/>
<path d="M162.729 16.6172H152.786L152.846 15.8533H162.729V16.6172ZM150.131 16.6172H148.668L148.729 15.8533H150.191L150.131 16.6172ZM141.86 16.6172H131.483L131.543 15.8533H141.92L141.86 16.6172ZM124.674 16.6172H109.838V15.8533H124.734L124.674 16.6172ZM109.461 16.6172H108.512V15.8533H109.461V16.6172Z" fill="#E2E2E0"/>
<path d="M148.67 16.6172H141.861L141.921 15.8533H148.73L148.67 16.6172Z" fill="#E3E3E1"/>
<path d="M131.491 16.6172H124.682L124.742 15.8533H131.551L131.491 16.6172Z" fill="#E3E3E1"/>
<path d="M109.463 16.6172H109.839V15.8532H109.463V16.6172Z" fill="#DEDFDC"/>
<path d="M152.789 16.6172H150.135L150.195 15.8533H152.849L152.789 16.6172Z" fill="#E3E3E1"/>
<path d="M162.727 16.6172H163.039V15.8532H162.727V16.6172Z" fill="#DBDCD9"/>
<path d="M165.89 20.1445H165.494V19.3807H165.849L165.89 20.1445Z" fill="#E3E4E1"/>
<path d="M165.496 20.1445H163.038V19.3807H165.496V20.1445ZM108.509 20.1445H107.568L107.527 19.3807H108.509V20.1445Z" fill="#DEDFDC"/>
<path d="M162.729 20.1445H152.509L152.569 19.3807H162.729V20.1445ZM149.854 20.1445H148.392L148.451 19.3807H149.914L149.854 20.1445ZM141.583 20.1445H131.206L131.265 19.3807H141.642L141.583 20.1445ZM124.397 20.1445H109.838V19.3807H124.457L124.397 20.1445ZM109.461 20.1445H108.512V19.3807H109.461V20.1445Z" fill="#E2E2E0"/>
<path d="M148.391 20.1445H141.582L141.642 19.3807H148.451L148.391 20.1445Z" fill="#E3E3E1"/>
<path d="M131.201 20.1445H124.393L124.452 19.3807H131.261L131.201 20.1445Z" fill="#E3E3E1"/>
<path d="M109.463 20.1445H109.839V19.3805H109.463V20.1445Z" fill="#DEDFDC"/>
<path d="M152.51 20.1445H149.855L149.916 19.3807H152.57L152.51 20.1445Z" fill="#E3E3E1"/>
<path d="M162.727 20.1445H163.039V19.3805H162.727V20.1445Z" fill="#DBDCD9"/>
<path d="M166.075 27.1953H165.89L165.849 26.4314H165.494V23.6686H165.89L166.075 27.1953Z" fill="#ECECEA"/>
<path d="M165.5 26.4316H163.042V23.6688H165.5V26.4316ZM108.513 26.4316H107.531L107.346 22.905H107.531L107.572 23.6688H108.513V26.4316Z" fill="#E4E4E2"/>
<path d="M162.729 26.4316H152.014L152.232 23.6688H162.729V26.4316ZM149.36 26.4316H147.897L148.114 23.6688H149.577L149.36 26.4316ZM141.088 26.4316H130.711L130.928 23.6688H141.305L141.088 26.4316ZM123.903 26.4316H109.838V23.6688H124.119L123.903 26.4316ZM109.461 26.4316H108.512V23.6688H109.461V26.4316Z" fill="#EAEAE7"/>
<path d="M147.897 26.4316H141.088L141.305 23.6688H148.114L147.897 26.4316Z" fill="#ECECEA"/>
<path d="M130.713 26.4316H123.904L124.121 23.6688H130.93L130.713 26.4316Z" fill="#ECECEA"/>
<path d="M109.463 26.4316H109.839V23.6692H109.463V26.4316Z" fill="#E4E4E2"/>
<path d="M152.02 26.4316H149.365L149.582 23.6688H152.237L152.02 26.4316Z" fill="#ECECEA"/>
<path d="M162.727 26.4316H163.039V23.6692H162.727V26.4316Z" fill="#DDDEDB"/>
<path d="M165.89 23.6699H165.494V22.9061H165.849L165.89 23.6699Z" fill="#E3E4E1"/>
<path d="M165.496 23.6699H163.038V22.9061H165.496V23.6699ZM108.509 23.6699H107.568L107.527 22.9061H108.509V23.6699Z" fill="#DEDFDC"/>
<path d="M162.729 23.6699H152.232L152.291 22.9061H162.729V23.6699ZM149.577 23.6699H148.114L148.174 22.9061H149.637L149.577 23.6699ZM141.305 23.6699H130.928L130.988 22.9061H141.365L141.305 23.6699ZM124.119 23.6699H109.838V22.9061H124.18L124.119 23.6699ZM109.461 23.6699H108.512V22.9061H109.461V23.6699Z" fill="#E2E2E0"/>
<path d="M148.119 23.6699H141.311L141.371 22.9061H148.18L148.119 23.6699Z" fill="#E3E3E1"/>
<path d="M130.93 23.6699H124.121L124.181 22.9061H130.99L130.93 23.6699Z" fill="#E3E3E1"/>
<path d="M109.463 23.6699H109.839V22.9059H109.463V23.6699Z" fill="#DEDFDC"/>
<path d="M152.231 23.6699H149.576L149.636 22.9061H152.291L152.231 23.6699Z" fill="#E3E3E1"/>
<path d="M162.727 23.6699H163.039V22.9059H162.727V23.6699Z" fill="#DBDCD9"/>
<path d="M165.89 27.1953H165.494V26.4314H165.849L165.89 27.1953Z" fill="#E3E4E1"/>
<path d="M165.496 27.1953H163.038V26.4314H165.496V27.1953ZM108.509 27.1953H107.568L107.527 26.4314H108.509V27.1953Z" fill="#DEDFDC"/>
<path d="M162.729 27.1953H151.954L152.014 26.4314H162.729V27.1953ZM149.3 27.1953H147.837L147.897 26.4314H149.36L149.3 27.1953ZM141.028 27.1953H130.651L130.711 26.4314H141.088L141.028 27.1953ZM123.842 27.1953H109.838V26.4314H123.903L123.842 27.1953ZM109.461 27.1953H108.512V26.4314H109.461V27.1953Z" fill="#E2E2E0"/>
<path d="M147.834 27.1953H141.025L141.086 26.4314H147.894L147.834 27.1953Z" fill="#E3E3E1"/>
<path d="M130.647 27.1953H123.838L123.898 26.4314H130.707L130.647 27.1953Z" fill="#E3E3E1"/>
<path d="M109.463 27.1953H109.839V26.4311H109.463V27.1953Z" fill="#DEDFDC"/>
<path d="M151.959 27.1953H149.305L149.364 26.4314H152.019L151.959 27.1953Z" fill="#E3E3E1"/>
<path d="M162.727 27.1953H163.039V26.4311H162.727V27.1953Z" fill="#DBDCD9"/>
<path d="M166.075 34.248H165.89L165.849 33.4837H165.494V30.7214H165.89L166.075 34.248Z" fill="#ECECEA"/>
<path d="M165.5 33.4863H163.042V30.724H165.5V33.4863ZM108.513 33.4863H107.531L107.346 29.9596H107.531L107.572 30.724H108.513V33.4863Z" fill="#E4E4E2"/>
<path d="M162.729 33.4863H151.46L151.677 30.724H162.729V33.4863ZM148.806 33.4863H147.343L147.56 30.724H149.023L148.806 33.4863ZM140.534 33.4863H130.157L130.374 30.724H140.751L140.534 33.4863ZM123.348 33.4863H109.838V30.724H123.565L123.348 33.4863ZM109.461 33.4863H108.512V30.724H109.461V33.4863Z" fill="#EAEAE7"/>
<path d="M147.346 33.4863H140.537L140.754 30.724H147.563L147.346 33.4863Z" fill="#ECECEA"/>
<path d="M130.16 33.4863H123.352L123.569 30.724H130.378L130.16 33.4863Z" fill="#ECECEA"/>
<path d="M109.463 33.4863H109.839V30.7237H109.463V33.4863Z" fill="#E4E4E2"/>
<path d="M151.465 33.4863H148.811L149.027 30.724H151.682L151.465 33.4863Z" fill="#ECECEA"/>
<path d="M162.727 33.4863H163.039V30.7237H162.727V33.4863Z" fill="#DDDEDB"/>
<path d="M165.89 30.7227H165.494V29.9583H165.849L165.89 30.7227Z" fill="#E3E4E1"/>
<path d="M165.496 30.7227H163.038V29.9583H165.496V30.7227ZM108.509 30.7227H107.568L107.527 29.9583H108.509V30.7227Z" fill="#DEDFDC"/>
<path d="M162.729 30.7227H151.677L151.738 29.9583H162.729V30.7227ZM149.023 30.7227H147.56L147.62 29.9583H149.083L149.023 30.7227ZM140.751 30.7227H130.374L130.434 29.9583H140.811L140.751 30.7227ZM123.565 30.7227H109.838V29.9583H123.625L123.565 30.7227ZM109.461 30.7227H108.512V29.9583H109.461V30.7227Z" fill="#E2E2E0"/>
<path d="M147.563 30.7227H140.754L140.814 29.9583H147.623L147.563 30.7227Z" fill="#E3E3E1"/>
<path d="M130.375 30.7227H123.566L123.626 29.9583H130.435L130.375 30.7227Z" fill="#E3E3E1"/>
<path d="M109.463 30.7227H109.839V29.9587H109.463V30.7227Z" fill="#DEDFDC"/>
<path d="M151.678 30.7227H149.023L149.084 29.9583H151.738L151.678 30.7227Z" fill="#E3E3E1"/>
<path d="M162.727 30.7227H163.039V29.9587H162.727V30.7227Z" fill="#DBDCD9"/>
<path d="M165.89 34.248H165.494V33.4837H165.849L165.89 34.248Z" fill="#E3E4E1"/>
<path d="M165.496 34.248H163.038V33.4837H165.496V34.248ZM108.509 34.248H107.568L107.527 33.4837H108.509V34.248Z" fill="#DEDFDC"/>
<path d="M162.729 34.248H151.4L151.46 33.4837H162.729V34.248ZM148.746 34.248H147.283L147.343 33.4837H148.806L148.746 34.248ZM140.474 34.248H130.097L130.157 33.4837H140.534L140.474 34.248ZM123.288 34.248H109.838V33.4837H123.348L123.288 34.248ZM109.461 34.248H108.512V33.4837H109.461V34.248Z" fill="#E2E2E0"/>
<path d="M147.287 34.248H140.479L140.538 33.4837H147.347L147.287 34.248Z" fill="#E3E3E1"/>
<path d="M130.098 34.248H123.289L123.349 33.4837H130.158L130.098 34.248Z" fill="#E3E3E1"/>
<path d="M109.463 34.248H109.839V33.4841H109.463V34.248Z" fill="#DEDFDC"/>
<path d="M151.403 34.248H148.748L148.808 33.4837H151.463L151.403 34.248Z" fill="#E3E3E1"/>
<path d="M162.727 34.248H163.039V33.4841H162.727V34.248Z" fill="#DBDCD9"/>
<path d="M166.075 41.3027H165.89L165.849 40.5389H165.494V37.7761H165.89L166.075 41.3027Z" fill="#ECECEA"/>
<path d="M165.5 40.5391H163.042V37.7762H165.5V40.5391ZM108.513 40.5391H107.531L107.346 37.0124H107.531L107.572 37.7762H108.513V40.5391Z" fill="#E4E4E2"/>
<path d="M162.729 40.5391H150.906L151.123 37.7762H162.729V40.5391ZM148.252 40.5391H146.789L147.006 37.7762H148.469L148.252 40.5391ZM139.98 40.5391H129.603L129.82 37.7762H140.197L139.98 40.5391ZM122.794 40.5391H109.838V37.7762H123.011L122.794 40.5391ZM109.461 40.5391H108.512V37.7762H109.461V40.5391Z" fill="#EAEAE7"/>
<path d="M146.789 40.5391H139.98L140.197 37.7762H147.006L146.789 40.5391Z" fill="#ECECEA"/>
<path d="M129.606 40.5391H122.797L123.014 37.7762H129.823L129.606 40.5391Z" fill="#ECECEA"/>
<path d="M109.463 40.5391H109.839V37.7764H109.463V40.5391Z" fill="#E4E4E2"/>
<path d="M150.909 40.5391H148.254L148.471 37.7762H151.125L150.909 40.5391Z" fill="#ECECEA"/>
<path d="M162.727 40.5391H163.039V37.7764H162.727V40.5391Z" fill="#DDDEDB"/>
<path d="M165.89 37.7773H165.494V37.0135H165.849L165.89 37.7773Z" fill="#E3E4E1"/>
<path d="M165.496 37.7773H163.038V37.0135H165.496V37.7773ZM108.509 37.7773H107.568L107.527 37.0135H108.509V37.7773Z" fill="#DEDFDC"/>
<path d="M162.729 37.7773H151.123L151.183 37.0135H162.729V37.7773ZM148.469 37.7773H147.006L147.066 37.0135H148.528L148.469 37.7773ZM140.197 37.7773H129.82L129.88 37.0135H140.257L140.197 37.7773ZM123.011 37.7773H109.838V37.0135H123.071L123.011 37.7773ZM109.461 37.7773H108.512V37.0135H109.461V37.7773Z" fill="#E2E2E0"/>
<path d="M147.008 37.7773H140.199L140.259 37.0135H147.068L147.008 37.7773Z" fill="#E3E3E1"/>
<path d="M129.819 37.7773H123.01L123.07 37.0135H129.879L129.819 37.7773Z" fill="#E3E3E1"/>
<path d="M109.463 37.7773H109.839V37.0135H109.463V37.7773Z" fill="#DEDFDC"/>
<path d="M151.127 37.7773H148.473L148.532 37.0135H151.187L151.127 37.7773Z" fill="#E3E3E1"/>
<path d="M162.727 37.7773H163.039V37.0135H162.727V37.7773Z" fill="#DBDCD9"/>
<path d="M165.89 41.3027H165.494V40.5389H165.849L165.89 41.3027Z" fill="#E3E4E1"/>
<path d="M165.496 41.3027H163.038V40.5389H165.496V41.3027ZM108.509 41.3027H107.568L107.527 40.5389H108.509V41.3027Z" fill="#DEDFDC"/>
<path d="M162.729 41.3027H150.846L150.906 40.5389H162.729V41.3027ZM148.192 41.3027H146.729L146.789 40.5389H148.252L148.192 41.3027ZM139.92 41.3027H129.543L129.603 40.5389H139.98L139.92 41.3027ZM122.734 41.3027H109.838V40.5389H122.794L122.734 41.3027ZM109.461 41.3027H108.512V40.5389H109.461V41.3027Z" fill="#E2E2E0"/>
<path d="M146.731 41.3027H139.922L139.982 40.5389H146.791L146.731 41.3027Z" fill="#E3E3E1"/>
<path d="M129.543 41.3027H122.734L122.794 40.5389H129.603L129.543 41.3027Z" fill="#E3E3E1"/>
<path d="M109.463 41.3027H109.839V40.5387H109.463V41.3027Z" fill="#DEDFDC"/>
<path d="M150.85 41.3027H148.195L148.255 40.5389H150.91L150.85 41.3027Z" fill="#E3E3E1"/>
<path d="M162.727 41.3027H163.039V40.5387H162.727V41.3027Z" fill="#DBDCD9"/>
<path d="M166.075 48.3574H165.89L165.849 47.5931H165.494V44.8307H165.89L166.075 48.3574Z" fill="#ECECEA"/>
<path d="M163.041 47.5938H165.499V44.8316H163.041V47.5938Z" fill="#E4E4E2"/>
<path d="M162.731 47.5938H150.353L150.571 44.8314H162.731V47.5938ZM147.699 47.5938H146.236L146.453 44.8314H147.916L147.699 47.5938ZM139.427 47.5938H129.05L129.268 44.8314H139.645L139.427 47.5938ZM122.242 47.5938H113.303L113.216 47.2812C113.156 47.0609 113 46.8995 112.814 46.8619L112.436 46.7863C112.307 46.7603 112.193 46.6717 112.114 46.5446C111.972 46.3202 111.82 46.1078 111.659 45.9088C111.567 45.7947 111.511 45.6454 111.507 45.4849L111.496 45.016C111.494 44.9524 111.485 44.8903 111.469 44.8314H122.458L122.242 47.5938Z" fill="#EAEAE7"/>
<path d="M146.235 47.5938H139.426L139.643 44.8314H146.451L146.235 47.5938Z" fill="#ECECEA"/>
<path d="M129.049 47.5938H122.24L122.457 44.8314H129.266L129.049 47.5938Z" fill="#ECECEA"/>
<path d="M150.354 47.5938H147.699L147.916 44.8314H150.571L150.354 47.5938Z" fill="#ECECEA"/>
<path d="M162.727 47.5938H163.039V44.8316H162.727V47.5938Z" fill="#DDDEDB"/>
<path d="M165.89 44.8281H165.494V44.0643H165.849L165.89 44.8281Z" fill="#E3E4E1"/>
<path d="M163.041 44.8281H165.499V44.064H163.041V44.8281Z" fill="#DEDFDC"/>
<path d="M162.728 44.8281H150.568L150.629 44.0643H162.728V44.8281ZM147.914 44.8281H146.451L146.511 44.0643H147.974L147.914 44.8281ZM139.642 44.8281H129.265L129.325 44.0643H139.702L139.642 44.8281ZM122.456 44.8281H111.467C111.423 44.6732 111.332 44.5424 111.209 44.4678L110.543 44.0643H122.516L122.456 44.8281Z" fill="#E2E2E0"/>
<path d="M146.451 44.8281H139.643L139.702 44.0643H146.511L146.451 44.8281Z" fill="#E3E3E1"/>
<path d="M129.272 44.8281H122.463L122.523 44.0643H129.332L129.272 44.8281Z" fill="#E3E3E1"/>
<path d="M150.571 44.8281H147.916L147.976 44.0643H150.631L150.571 44.8281Z" fill="#E3E3E1"/>
<path d="M162.727 44.8281H163.039V44.064H162.727V44.8281Z" fill="#DBDCD9"/>
<path d="M165.89 48.3574H165.494V47.5931H165.849L165.89 48.3574Z" fill="#E3E4E1"/>
<path d="M163.041 48.3574H165.499V47.5931H163.041V48.3574Z" fill="#DEDFDC"/>
<path d="M162.727 48.3574H150.29L150.35 47.5931H162.727V48.3574ZM147.635 48.3574H146.172L146.232 47.5931H147.695L147.635 48.3574ZM139.363 48.3574H128.986L129.047 47.5931H139.424L139.363 48.3574ZM122.177 48.3574H113.51L113.299 47.5931H122.238L122.177 48.3574Z" fill="#E2E2E0"/>
<path d="M146.176 48.3574H139.367L139.427 47.5931H146.236L146.176 48.3574Z" fill="#E3E3E1"/>
<path d="M128.983 48.3574H122.174L122.234 47.5931H129.043L128.983 48.3574Z" fill="#E3E3E1"/>
<path d="M150.291 48.3574H147.637L147.697 47.5931H150.351L150.291 48.3574Z" fill="#E3E3E1"/>
<path d="M162.727 48.3574H163.039V47.5931H162.727V48.3574Z" fill="#DBDCD9"/>
<path d="M166.075 55.4102H165.494V51.884H165.89L166.075 55.4102Z" fill="#ECECEA"/>
<path d="M165.5 55.4102H163.042V51.884H165.5V55.4102ZM107.703 53.036C107.616 53.036 107.53 53.0286 107.446 53.0142L107.346 51.1196H107.531L107.572 51.884H108.513V52.8129C108.448 52.8505 108.381 52.8839 108.311 52.9126C108.109 52.9966 107.904 53.036 107.703 53.036Z" fill="#E4E4E2"/>
<path d="M162.729 55.4102H149.738L150.015 51.884H162.729V55.4102ZM147.083 55.4102H145.621L145.898 51.884H147.36L147.083 55.4102ZM138.812 55.4102H128.435L128.712 51.884H139.089L138.812 55.4102ZM121.626 55.4102H111.811C111.86 55.3884 111.913 55.3758 111.966 55.374L112.349 55.3601C112.538 55.3536 112.71 55.2191 112.794 55.0104L113.579 53.0634C113.615 52.9757 113.633 52.8806 113.633 52.7856C113.633 52.6562 113.6 52.5268 113.536 52.4178L113.313 52.0365C113.285 51.9892 113.264 51.9378 113.248 51.884H121.903L121.626 55.4102ZM108.512 52.8129V51.884H109.339C109.151 52.2791 108.867 52.6079 108.512 52.8129Z" fill="#EAEAE7"/>
<path d="M145.623 55.4102H138.814L139.091 51.884H145.9L145.623 55.4102Z" fill="#ECECEA"/>
<path d="M128.432 55.4102H121.623L121.9 51.884H128.709L128.432 55.4102Z" fill="#ECECEA"/>
<path d="M149.743 55.4102H147.088L147.365 51.884H150.02L149.743 55.4102Z" fill="#ECECEA"/>
<path d="M162.727 55.4102H163.039V51.8841H162.727V55.4102Z" fill="#DDDEDB"/>
<path d="M165.89 51.8828H165.494V51.1185H165.849L165.89 51.8828Z" fill="#E3E4E1"/>
<path d="M165.496 51.8828H163.038V51.1185H165.496V51.8828ZM108.509 51.8828H107.568L107.527 51.1185H108.509V51.8828Z" fill="#DEDFDC"/>
<path d="M162.729 51.8828H150.015L150.075 51.1185H162.729V51.8828ZM147.36 51.8828H145.898L145.958 51.1185H147.42L147.36 51.8828ZM139.089 51.8828H128.712L128.772 51.1185H139.149L139.089 51.8828ZM121.903 51.8828H113.248C113.229 51.8151 113.219 51.7437 113.219 51.6718C113.219 51.643 113.221 51.6143 113.224 51.586C113.24 51.4311 113.252 51.2752 113.26 51.1185H121.963L121.903 51.8828ZM109.339 51.8828H108.512V51.1185H109.569C109.529 51.3889 109.451 51.6472 109.339 51.8828Z" fill="#E2E2E0"/>
<path d="M145.901 51.8828H139.092L139.152 51.1185H145.961L145.901 51.8828Z" fill="#E3E3E1"/>
<path d="M128.715 51.8828H121.906L121.966 51.1185H128.775L128.715 51.8828Z" fill="#E3E3E1"/>
<path d="M150.016 51.8828H147.361L147.421 51.1185H150.076L150.016 51.8828Z" fill="#E3E3E1"/>
<path d="M162.727 51.8828H163.039V51.1184H162.727V51.8828Z" fill="#DBDCD9"/>
<path d="M38.2212 35.9902H46.1643C47.1708 35.9902 47.987 34.9898 47.987 33.7562V30.0138C47.987 28.7801 47.1708 27.7802 46.1643 27.7802H38.2212C37.2143 27.7802 36.3984 28.7801 36.3984 30.0138V33.7562C36.3984 34.9898 37.2143 35.9902 38.2212 35.9902Z" fill="#F3F2F1"/>
<path d="M38.2212 27.7812H46.1643C47.1708 27.7812 47.987 26.7809 47.987 25.5472V21.8048C47.987 20.5711 47.1708 19.5707 46.1643 19.5707H38.2212C37.2143 19.5707 36.3984 20.5711 36.3984 21.8048V25.5472C36.3984 26.7809 37.2143 27.7812 38.2212 27.7812Z" fill="#F3F2F1"/>
<path d="M40.8112 19.5703H43.5639C43.9128 19.5703 44.1954 19.2239 44.1954 18.7962V17.4995C44.1954 17.0719 43.9128 16.7254 43.5639 16.7254H40.8112C40.4623 16.7254 40.1797 17.0719 40.1797 17.4995V18.7962C40.1797 19.2239 40.4623 19.5703 40.8112 19.5703Z" fill="#DADBD8"/>
<path d="M38.2212 44.2012H46.1643C47.1708 44.2012 47.987 43.2012 47.987 41.9676V38.2252C47.987 36.9911 47.1708 35.9911 46.1643 35.9911H38.2212C37.2143 35.9911 36.3984 36.9911 36.3984 38.2252V41.9676C36.3984 43.2012 37.2143 44.2012 38.2212 44.2012Z" fill="#F3F2F1"/>
<path d="M80.3395 38.4988C80.3395 38.4988 79.9559 44.2012 65.2438 44.2012C50.5321 44.2012 50.1484 38.4988 50.1484 38.4988H80.3395Z" fill="#EDEDEB"/>
<path d="M23.543 146.57H35.2033V45.3565H23.543V146.57Z" fill="#EDEDEB"/>
<path d="M25.7793 151.865H83.2832V146.568H25.7793V151.865Z" fill="#EDEDEB"/>
<path d="M35.2031 146.57H85.5246V45.3565H35.2031V146.57Z" fill="#F3F2F1"/>
<path d="M39.7871 105.207H80.9398V81.3223H39.7871V105.207Z" fill="#EDEDEB"/>
<path d="M39.7871 134.422H80.9398V110.537H39.7871V134.422Z" fill="#EDEDEB"/>
<path d="M39.7871 143.035H80.9398V139.394H39.7871V143.035Z" fill="#EDEDEB"/>
<path d="M70.8215 83.2148H49.9018C49.0031 83.2148 48.2676 82.3132 48.2676 81.2117C48.2676 80.1098 49.0031 79.2086 49.9018 79.2086H70.8215C71.7201 79.2086 72.4553 80.1098 72.4553 81.2117C72.4553 82.3132 71.7201 83.2148 70.8215 83.2148Z" fill="#F3F2F1"/>
<path d="M39.7871 75.9961H80.9398V52.1112H39.7871V75.9961Z" fill="#EDEDEB"/>
<path d="M70.8215 54.002H49.9018C49.0031 54.002 48.2676 53.1003 48.2676 51.9988C48.2676 50.8969 49.0031 49.9957 49.9018 49.9957H70.8215C71.7201 49.9957 72.4553 50.8969 72.4553 51.9988C72.4553 53.1003 71.7201 54.002 70.8215 54.002Z" fill="#F3F2F1"/>
<path d="M70.8215 112.428H49.9018C49.0031 112.428 48.2676 111.526 48.2676 110.425C48.2676 109.323 49.0031 108.421 49.9018 108.421H70.8215C71.7201 108.421 72.4553 109.323 72.4553 110.425C72.4553 111.526 71.7201 112.428 70.8215 112.428Z" fill="#F3F2F1"/>
<path d="M87.0781 44.2015H35.2031V45.3555H87.0781V44.2015Z" fill="#EDEDEB"/>
<path d="M21.916 44.2015H35.2059V45.3555H21.916V44.2015Z" fill="#E2E2E0"/>
<path d="M168.642 167.561C168.642 170.461 135.797 172.812 95.2792 172.812C54.7618 172.812 21.916 170.461 21.916 167.561C21.916 164.66 54.7618 162.309 95.2792 162.309C135.797 162.309 168.642 164.66 168.642 167.561Z" fill="#F3F2F1"/>
<path d="M167.947 121.586H22.6073L19.9258 118.477H170.629L167.947 121.586Z" fill="#406FBF"/>
<path d="M19.9219 121.586H170.625V118.477H19.9219V121.586Z" fill="#90B4E3"/>
<path d="M155.482 123.262H35.0652L32.8438 121.587H157.704L155.482 123.262Z" fill="#406FBF"/>
<path d="M155.482 123.262H35.0652L32.8438 121.587H157.704L157.659 121.62L155.482 123.262Z" fill="#254583"/>
<path d="M34.1127 167.561H32.3848L37.7477 123.261H41.6017L34.1127 167.561Z" fill="#406FBF"/>
<path d="M34.1127 167.561H32.3848L37.7477 123.261H41.6017L39.7854 134.006L37.6615 146.569L36.766 151.866L36.7465 151.982L35.2913 160.59L35.2717 160.706L34.1127 167.561Z" fill="#254583"/>
<path d="M43.4741 167.561H41.7461L47.1088 123.261H50.963L43.4741 167.561Z" fill="#406FBF"/>
<path d="M43.4741 167.561H41.7461L47.1088 123.261H50.963L49.0768 134.42L48.236 139.393L47.6204 143.034L47.0229 146.569L46.1273 151.866L46.1076 151.982L43.4741 167.561Z" fill="#254583"/>
<path d="M156.434 167.561H158.162L152.799 123.261H148.945L156.434 167.561Z" fill="#406FBF"/>
<path d="M158.162 167.561H156.434L151.741 139.801L149.555 126.869L148.945 123.261H152.799L158.162 167.561Z" fill="#254583"/>
<path d="M147.073 167.561H148.801L143.438 123.261H139.584L147.073 167.561Z" fill="#406FBF"/>
<path d="M148.801 167.561H147.073L139.584 123.261H143.438L148.801 167.561Z" fill="#254583"/>
<path d="M77.6953 37.3625C77.3544 43.6182 81.213 49.0325 86.3223 49.4508C91.4262 49.8682 95.8437 45.132 96.1843 38.8759C96.5252 32.6198 92.6608 27.2055 87.5569 26.7876C82.4473 26.3693 78.0362 31.1064 77.6953 37.3625ZM85.5466 18.6402L90.4326 19.0399C90.8185 19.0715 91.1587 19.3618 91.3172 19.7941L91.8314 21.1989C91.9419 21.5004 92.1451 21.7318 92.3945 21.8575C93.0112 22.1678 93.6057 22.5291 94.174 22.9363C94.4067 23.1037 94.6799 23.1607 94.9428 23.0856L96.1657 22.7341C96.5422 22.626 96.9369 22.7814 97.1915 23.1385L100.416 27.6558C100.67 28.0125 100.744 28.5129 100.606 28.9558L100.16 30.3945C100.063 30.7039 100.074 31.0434 100.178 31.3485C100.432 32.0934 100.645 32.8637 100.814 33.654C100.883 33.9736 101.042 34.2519 101.272 34.4258L102.339 35.2374C102.667 35.4869 102.857 35.9391 102.831 36.4122L102.505 42.4012C102.479 42.8742 102.242 43.2912 101.889 43.4855L100.743 44.1158C100.497 44.2512 100.309 44.5003 100.206 44.8059C99.9529 45.5619 99.6585 46.2901 99.326 46.9871C99.1897 47.2728 99.1428 47.6077 99.2041 47.9296L99.4909 49.4285C99.5791 49.8905 99.4523 50.3738 99.1614 50.6859L95.4756 54.6383C95.1846 54.9505 94.7767 55.04 94.415 54.8716L93.2405 54.3239C92.9885 54.2061 92.7112 54.2186 92.4626 54.3461C91.8549 54.6573 91.2272 54.918 90.5824 55.1253C90.3217 55.2092 90.0951 55.4054 89.9528 55.686L89.2906 56.9953C89.0867 57.3984 88.7181 57.6302 88.3322 57.5987L83.4458 57.1989C83.0599 57.1674 82.7197 56.877 82.5616 56.4443L82.047 55.039C81.9365 54.7376 81.7329 54.5061 81.4836 54.3804C80.8672 54.0702 80.2732 53.7093 79.7048 53.3021C79.4721 53.1352 79.1986 53.0777 78.9364 53.1528L77.7127 53.5044C77.3362 53.6124 76.9415 53.457 76.6869 53.1004L73.4627 48.5826C73.2077 48.2259 73.1347 47.726 73.2724 47.2826L73.7185 45.8453C73.8143 45.5359 73.8044 45.1964 73.7004 44.8913C73.4457 44.1455 73.2327 43.3747 73.0636 42.5834C72.9951 42.2643 72.835 41.9861 72.6057 41.8121L71.5398 41.0014C71.211 40.7515 71.0218 40.2997 71.0472 39.8266L71.3737 33.8377C71.3995 33.3646 71.6359 32.9477 71.989 32.7534L73.1336 32.124C73.3795 31.9886 73.5683 31.739 73.6708 31.4334C73.924 30.6765 74.2191 29.9474 74.5521 29.2494C74.6883 28.9642 74.7352 28.6293 74.6735 28.3074L74.3875 26.8099C74.2993 26.3484 74.4261 25.8647 74.7171 25.5525L78.4028 21.6005C78.6938 21.2884 79.1021 21.1984 79.4634 21.3673L80.6375 21.9145C80.8895 22.0319 81.1665 22.0198 81.4155 21.8923C82.0231 21.5811 82.6513 21.3199 83.296 21.1126C83.5567 21.0291 83.7837 20.833 83.926 20.5519L84.5882 19.2436C84.7917 18.8405 85.1607 18.6086 85.5466 18.6402Z" fill="#406FBF"/>
<path d="M105.909 51.455C106.244 52.6706 107.32 53.3241 108.313 52.9123C109.304 52.5013 109.837 51.1819 109.501 49.9663C109.166 48.7511 108.09 48.0981 107.098 48.509C106.105 48.9204 105.574 50.2399 105.909 51.455ZM104.906 43.9537L106.585 43.258C106.765 43.1838 106.963 43.2366 107.101 43.3962L107.38 43.7181C107.474 43.828 107.601 43.885 107.732 43.8859C107.963 43.8869 108.193 43.9059 108.42 43.9421C108.549 43.9629 108.68 43.9268 108.786 43.8331L109.097 43.5594C109.251 43.424 109.454 43.4036 109.624 43.5066L111.212 44.4699C111.382 44.5728 111.492 44.7825 111.498 45.0148L111.509 45.4837C111.513 45.6442 111.569 45.7935 111.661 45.9076C111.822 46.1066 111.974 46.319 112.115 46.5435C112.195 46.6705 112.309 46.7591 112.438 46.7851L112.815 46.8607C113.002 46.8983 113.157 47.0597 113.218 47.28L113.786 49.3378C113.846 49.5581 113.803 49.8016 113.673 49.9704L113.41 50.3118C113.32 50.4282 113.274 50.5831 113.273 50.7431C113.272 51.027 113.257 51.3085 113.227 51.5867C113.21 51.7458 113.24 51.9058 113.316 52.0362L113.539 52.4174C113.65 52.6062 113.667 52.8548 113.583 53.063L112.797 55.01C112.713 55.2187 112.542 55.3532 112.352 55.3597L111.969 55.3736C111.839 55.3783 111.717 55.4469 111.624 55.5596C111.461 55.7572 111.288 55.9432 111.105 56.1161C111.001 56.214 110.929 56.3531 110.908 56.5113L110.846 56.9742C110.816 57.2037 110.684 57.3939 110.505 57.4686L108.826 58.1643C108.646 58.2385 108.447 58.1856 108.309 58.0256L108.031 57.7037C107.936 57.5938 107.809 57.5367 107.678 57.5358C107.448 57.5349 107.218 57.5159 106.991 57.4797C106.861 57.4588 106.73 57.495 106.624 57.5887L106.313 57.8623C106.159 57.9982 105.956 58.0182 105.786 57.9152L104.198 56.9524C104.028 56.8489 103.918 56.6393 103.912 56.4069L103.901 55.9385C103.898 55.778 103.842 55.6287 103.749 55.5151C103.588 55.3156 103.436 55.1032 103.295 54.8783C103.215 54.7512 103.102 54.6631 102.972 54.6371L102.595 54.5611C102.408 54.5235 102.253 54.3625 102.192 54.1422L101.625 52.0844C101.564 51.8641 101.607 51.6206 101.738 51.4513L102 51.1109C102.089 50.994 102.136 50.8396 102.136 50.6791C102.137 50.3953 102.153 50.1133 102.182 49.8345C102.2 49.6755 102.17 49.5155 102.094 49.3851L101.871 49.0048C101.76 48.8156 101.744 48.5675 101.828 48.3588L102.613 46.4122C102.697 46.2035 102.869 46.069 103.058 46.0621L103.441 46.0486C103.572 46.044 103.693 45.9753 103.786 45.8622C103.949 45.665 104.122 45.4786 104.305 45.3056C104.409 45.2078 104.481 45.0686 104.502 44.9105L104.564 44.4476C104.595 44.218 104.726 44.0279 104.906 43.9537Z" fill="#406FBF"/>
<path d="M108.662 58.1973C108.612 58.1973 108.562 58.1885 108.515 58.1713C108.439 58.1435 108.369 58.0948 108.309 58.0257L108.031 57.7038C107.936 57.5939 107.809 57.5368 107.679 57.5359C107.448 57.535 107.218 57.516 106.991 57.4798C106.968 57.4761 106.944 57.4742 106.92 57.4742C106.814 57.4742 106.711 57.5123 106.624 57.5888L106.313 57.8624C106.237 57.9301 106.148 57.9686 106.058 57.9784C106.043 57.9797 106.028 57.9807 106.014 57.9807C105.937 57.9807 105.859 57.9589 105.786 57.9153L104.198 56.9524C104.028 56.849 103.918 56.6394 103.913 56.407L103.902 55.9386C103.898 55.7781 103.842 55.6288 103.749 55.5152C103.588 55.3157 103.436 55.1033 103.295 54.8784C103.215 54.7513 103.102 54.6632 102.972 54.6372L102.595 54.5611C102.408 54.5236 102.253 54.3626 102.192 54.1423L101.625 52.0845C101.607 52.0191 101.598 51.9514 101.598 51.8846C101.598 51.726 101.646 51.5706 101.738 51.4514L102 51.111C102.09 50.9941 102.136 50.8397 102.136 50.6792C102.138 50.3953 102.153 50.1134 102.183 49.8346C102.186 49.8063 102.187 49.7776 102.188 49.7493C102.188 49.619 102.157 49.4919 102.094 49.3852L101.871 49.0049C101.807 48.8954 101.774 48.7665 101.775 48.6367C101.775 48.542 101.792 48.447 101.828 48.3588L102.614 46.4123C102.698 46.2036 102.869 46.0691 103.059 46.0621L103.441 46.0487C103.572 46.0441 103.693 45.9754 103.787 45.8622C103.949 45.6651 104.122 45.4787 104.305 45.3057C104.409 45.2078 104.481 45.0687 104.502 44.9105L104.564 44.4477C104.595 44.2181 104.726 44.028 104.906 43.9537L106.585 43.2581C106.639 43.2358 106.694 43.2247 106.749 43.2247C106.878 43.2247 107.005 43.2845 107.102 43.3963L107.38 43.7181C107.475 43.8281 107.601 43.8851 107.732 43.886C107.963 43.887 108.193 43.906 108.42 43.9422C108.443 43.9459 108.467 43.9482 108.491 43.9482C108.596 43.9482 108.699 43.9097 108.786 43.8332L109.097 43.5595C109.186 43.4816 109.291 43.4413 109.397 43.4413C109.474 43.4413 109.552 43.463 109.624 43.5066L111.213 44.4699C111.382 44.5729 111.492 44.7825 111.498 45.0149L111.509 45.4838C111.513 45.6443 111.569 45.7936 111.661 45.9077C111.822 46.1067 111.974 46.3191 112.115 46.5436C112.195 46.6706 112.309 46.7592 112.438 46.7852L112.815 46.8608C113.002 46.8984 113.157 47.0598 113.218 47.2801L113.786 49.3379C113.804 49.4033 113.813 49.4706 113.813 49.5373C113.813 49.696 113.764 49.8518 113.673 49.9705L113.41 50.3119C113.321 50.4283 113.274 50.5832 113.274 50.7432C113.272 51.027 113.257 51.3086 113.227 51.5868C113.224 51.6151 113.223 51.6439 113.223 51.6726C113.223 51.8025 113.254 51.9296 113.316 52.0362L113.54 52.4175C113.604 52.5265 113.636 52.6559 113.636 52.7853C113.636 52.8804 113.618 52.9754 113.583 53.0631L112.797 55.0101C112.713 55.2188 112.542 55.3533 112.352 55.3598L111.969 55.3737C111.916 55.3756 111.864 55.3881 111.815 55.4099C111.744 55.4419 111.679 55.4929 111.624 55.5597C111.462 55.7573 111.288 55.9432 111.105 56.1162C111.001 56.2141 110.93 56.3532 110.908 56.5114L110.846 56.9743C110.816 57.2038 110.684 57.394 110.505 57.4686L108.826 58.1643C108.772 58.1866 108.716 58.1973 108.662 58.1973ZM105.809 50.7103C105.809 50.957 105.841 51.2084 105.909 51.4551C106.176 52.424 106.914 53.0357 107.705 53.0357C107.906 53.0357 108.111 52.9963 108.313 52.9124C109.103 52.5849 109.602 51.6805 109.602 50.7117C109.602 50.4645 109.57 50.2135 109.502 49.9663C109.33 49.3444 108.964 48.8699 108.515 48.6098C108.265 48.4646 107.988 48.3862 107.705 48.3862C107.601 48.3862 107.496 48.3969 107.391 48.4187C107.293 48.4391 107.195 48.4688 107.098 48.5091C106.64 48.6993 106.279 49.0833 106.058 49.561C105.897 49.9074 105.809 50.3031 105.809 50.7103Z" fill="#90B4E3"/>
<path d="M95.2408 66.2216L97.3227 61.8021C97.664 61.0772 97.2372 60.1705 96.5542 60.1705H92.3905C91.7075 60.1705 91.2807 61.0772 91.622 61.8021L93.7039 66.2216C94.0455 66.947 94.8995 66.947 95.2408 66.2216Z" fill="#406FBF"/>
<path d="M27.0518 116.631H78.058C78.8004 116.631 79.3876 115.886 79.363 114.976L78.156 70.279C78.1314 69.3686 77.504 68.6242 76.7617 68.6242H25.7554C25.0128 68.6242 24.4254 69.3686 24.45 70.279L25.6571 114.976C25.6816 115.886 26.3092 116.631 27.0518 116.631Z" fill="#406FBF"/>
<path d="M27.4714 116.631H78.4775C79.2202 116.631 79.8075 115.886 79.7829 114.976L78.5758 70.279C78.5512 69.3686 77.9235 68.6242 77.1811 68.6242H26.175C25.4327 68.6242 24.8452 69.3686 24.8699 70.279L26.0767 114.976C26.1014 115.886 26.7289 116.631 27.4714 116.631Z" fill="#406FBF"/>
<path d="M27.6672 116.631H27.4714C26.7289 116.631 26.1014 115.886 26.0767 114.976L24.8699 70.279C24.8694 70.2609 24.8691 70.2433 24.8691 70.2257C24.8681 69.3398 25.4472 68.6242 26.175 68.6242H41.5021C41.1714 69.498 40.8626 70.3894 40.5819 71.2506H26.5968C26.3077 71.2506 26.0789 71.5405 26.0885 71.8953L27.2081 113.36C27.2177 113.714 27.4622 114.004 27.7513 114.004H30.171L30.1707 114.006H37.1074L37.1077 114.004H39.0305L39.0301 114.006H41.5259L41.5263 114.004H64.543V114.006H67.0387L67.0391 114.004H78.056C78.345 114.004 78.574 113.714 78.5641 113.36L77.9356 90.0811C78.1778 90.21 78.4158 90.3195 78.6538 90.4229C78.8123 90.4892 78.969 90.5504 79.1249 90.6075L79.7829 114.976C79.7832 114.994 79.7836 115.012 79.7836 115.029C79.7844 115.738 79.414 116.338 78.8929 116.549H28.1284C27.9683 116.549 27.8134 116.578 27.6672 116.631ZM78.9421 83.85C78.5338 83.4196 78.1294 82.9456 77.7294 82.4461L77.4445 71.8953C77.435 71.5405 77.1906 71.2506 76.9015 71.2506H72.3553C71.9266 70.4404 71.4385 69.5434 70.9145 68.6242H77.1811C77.9235 68.6242 78.5513 69.3686 78.5759 70.279L78.9421 83.85Z" fill="#265396"/>
<path d="M28.1264 116.55H89.7284C90.3701 116.55 90.9271 117.008 91.184 117.665C91.3316 118.043 91.1057 118.479 90.758 118.479H27.0968C26.7491 118.479 26.5233 118.043 26.6709 117.665C26.9275 117.008 27.4846 116.55 28.1264 116.55Z" fill="#406FBF"/>
<path d="M90.7532 118.479H73.7009C73.7009 118.092 73.4432 117.776 73.1284 117.776H60.3392C60.0244 117.776 59.7668 118.092 59.7668 118.479H39.5361C39.1883 118.479 38.9628 118.043 39.1104 117.665C39.3669 117.008 39.9239 116.55 40.5656 116.55H89.7236C90.3654 116.55 90.9223 117.008 91.1793 117.665C91.2103 117.745 91.2247 117.827 91.225 117.907C91.2258 118.128 91.1187 118.332 90.953 118.426C90.8932 118.46 90.8258 118.479 90.7532 118.479Z" fill="#265396"/>
<path d="M73.7017 118.479H59.7676C59.7676 118.092 60.0253 117.776 60.3401 117.776H73.1292C73.444 117.776 73.7017 118.092 73.7017 118.479Z" fill="#6080B0"/>
<path d="M78.0536 114.002H67.0368L72.5063 84.7492C72.6489 84.9333 72.7931 85.117 72.9384 85.2997C73.952 86.5659 75.0315 87.787 76.304 88.9145L76.794 89.3333C77.0055 89.4905 77.2254 89.6612 77.4308 89.7823C77.6015 89.8936 77.7684 89.9905 77.9333 90.0786L78.5618 113.357C78.5716 113.712 78.3427 114.002 78.0536 114.002ZM64.5407 114.002H41.524L44.6013 97.5434C45.0955 98.2386 45.6059 98.9171 46.1515 99.5873L47.8285 97.9807C47.8209 98.8165 47.8255 99.4676 47.8539 99.9082C50.6274 99.9082 61.0694 99.9082 66.7685 99.9082C67.7902 92.3011 68.0509 85.7932 67.9252 80.4396L68.2223 80.8176L69.1217 79.9132C69.5761 80.6237 70.0415 81.3273 70.5202 82.023L64.5407 114.002ZM39.0282 114.002H37.1054L41.2088 92.0558C41.2852 92.2033 41.362 92.3498 41.4392 92.4959C41.8327 93.2176 42.238 93.9184 42.6557 94.6011L39.0282 114.002ZM30.1687 114.002H27.749C27.4599 114.002 27.2154 113.712 27.2058 113.357L26.0862 71.8929C26.0766 71.5381 26.3054 71.2482 26.5945 71.2482H40.5796H38.1625L30.1687 114.002ZM47.8455 96.7197C47.0982 95.0955 46.3528 93.4499 45.674 91.8062L47.7506 80.7003C47.7907 81.6023 47.8228 82.4873 47.8482 83.3518C47.8489 83.3499 47.8493 83.3476 47.8497 83.3457C48.0128 88.9071 47.8962 93.6327 47.8455 96.7197ZM44.0243 87.2801C43.9305 86.961 43.8438 86.6456 43.7651 86.3363C43.6183 85.7473 43.5158 85.1717 43.4851 84.7111C43.4685 84.4839 43.4685 84.2882 43.484 84.168C43.4938 84.1147 43.5014 84.0683 43.5108 84.0628L43.5192 84.0363L43.5479 83.9176L43.6043 83.6806L43.8306 82.7335L44.0969 81.7828C44.1798 81.4841 44.2684 81.184 44.3603 80.8844L45.1242 81.3992L44.0243 87.2801ZM77.7271 82.4437C77.3635 81.9901 77.0033 81.5152 76.6472 81.0337C75.7206 79.7514 74.8265 78.3924 73.9573 76.9881L75.0308 71.2482H72.5346L72.4873 71.5028C72.4431 71.4189 72.3984 71.334 72.353 71.2482H76.8992C77.1883 71.2482 77.4327 71.5381 77.4422 71.8929L77.7271 82.4437Z" fill="#E4EAF0"/>
<path d="M37.0988 114.004H30.1621L38.1562 71.2487H45.0934L37.0988 114.004Z" fill="white"/>
<path d="M41.5212 114.004H39.0254L47.0197 71.2487H49.5155L41.5212 114.004Z" fill="white"/>
<path d="M67.0387 114.004H64.543L72.5369 71.2487H75.0331L67.0387 114.004Z" fill="white"/>
<path d="M67.5534 65.4425C68.2258 66.7606 68.9474 68.1589 69.669 69.5007C70.4007 70.8466 71.1359 72.1898 71.8904 73.5079C73.3979 76.1418 74.9681 78.7149 76.6451 81.0348C77.4885 82.1757 78.3542 83.2772 79.2377 84.1556L79.5639 84.4742C79.6377 84.5387 79.6933 84.6106 79.7887 84.6802C79.9514 84.8249 80.1746 84.9654 80.3967 85.1138C80.8606 85.4009 81.4074 85.6564 81.9779 85.8832C82.5485 86.1212 83.1502 86.3303 83.7654 86.5172C84.3799 86.7139 85.0091 86.8883 85.6452 87.0515C86.9116 87.3827 88.2355 87.6832 89.511 87.9522L89.5092 91.2066C88.7819 91.3374 88.0993 91.4005 87.3918 91.4627C86.6891 91.5285 85.985 91.5448 85.2755 91.5508C83.8554 91.5443 82.4241 91.4362 80.9385 91.1292C80.1962 90.9627 79.4409 90.7517 78.6494 90.4214C78.2494 90.2471 77.8502 90.0578 77.4287 89.7833C77.2233 89.6622 77.0034 89.4915 76.7919 89.3343L76.3019 88.9155C75.0294 87.788 73.9499 86.5669 72.9362 85.3007C70.9233 82.7684 69.1725 80.0881 67.5277 77.336C66.7059 75.9599 65.9166 74.5635 65.1583 73.1424C64.3948 71.713 63.6611 70.3156 62.9414 68.7906L67.5534 65.4425Z" fill="#F9A8B3"/>
<path d="M61.1905 66.3348C60.8185 70.4083 68.7285 80.1387 68.7285 80.1387L74.0821 74.6641C74.0821 74.6641 71.5542 69.3471 68.8829 65.2894C65.8403 60.6677 61.6101 61.7368 61.1905 66.3348Z" fill="#406FBF"/>
<path d="M67.8574 78.4941C67.7703 76.4548 67.6288 74.6048 67.457 72.9453C68.1094 74.3729 68.6096 75.8737 68.7583 77.605L67.8574 78.4941Z" fill="#2D5BB2"/>
<path d="M73.6519 72.7826L74.2153 74.788L68.2222 80.8164L67.0371 79.3068L73.6519 72.7826Z" fill="#406FBF"/>
<path d="M68.218 80.8164L67.921 80.4384C67.9055 79.7724 67.8839 79.124 67.8574 78.4942L73.6477 72.7826L74.2111 74.788L73.2209 75.7843L69.1174 79.912L68.218 80.8164Z" fill="#3665B9"/>
<path d="M89.2388 87.8828L93.396 88.7594L91.1072 93.2169C90.565 93.3259 88.3908 91.8821 87.4316 90.0937L89.2388 87.8828Z" fill="#F9A8B3"/>
<path d="M95.9551 91.788L94.2937 94.0977L91.1055 93.2183L93.3943 88.7603L95.9551 91.788Z" fill="#F9A8B3"/>
<path d="M65.4972 62.4446C65.4972 62.4446 70.0415 75.5342 66.767 99.9102C61.0679 99.9102 50.6258 99.9102 47.8523 99.9102C47.6215 96.351 48.9545 78.9903 45.6797 62.2215C45.6797 62.2215 48.8993 61.4237 51.9835 61.2415C54.3964 61.0986 57.8926 61.004 60.0236 61.2419C62.8338 61.555 65.4972 62.4446 65.4972 62.4446Z" fill="#406FBF"/>
<path d="M47.8476 83.3516C47.8223 82.4871 47.7901 81.6021 47.75 80.7001L47.7515 80.6917C47.7916 81.5943 47.8238 82.4806 47.8491 83.3455C47.8488 83.3474 47.8484 83.3497 47.8476 83.3516Z" fill="#969CA1"/>
<path d="M47.7535 80.6992C47.716 79.8565 47.6717 79.0004 47.6191 78.1298C47.6195 78.1284 47.6203 78.1275 47.6207 78.1261C47.6732 78.9939 47.7175 79.8505 47.755 80.6909L47.7535 80.6992Z" fill="#A7A9A8"/>
<path d="M47.8511 83.3477C47.8257 82.4827 47.7936 81.5964 47.7535 80.6938C47.716 79.8534 47.6717 78.9968 47.6191 78.1291C48.3407 76.2795 49.1898 73.9893 49.8678 71.8317C49.5912 74.9901 48.9491 79.0019 47.8511 83.3477Z" fill="#2D5BB2"/>
<path d="M52.4688 50.1431C53.0658 53.3141 53.7363 59.124 51.9863 61.2403C51.9863 61.2403 52.7416 63.8672 57.5489 63.8672C62.8344 63.8672 60.0265 61.2407 60.0265 61.2407C57.1179 60.3962 57.1183 57.7725 57.5507 55.3088L52.4688 50.1431Z" fill="#F9A8B3"/>
<path d="M57.6854 63.8692C56.814 65.4326 56.7655 67.4395 56.7655 67.4395C56.7655 67.4395 50.6256 64.8668 50.9037 61.0976C50.9037 61.0976 51.9382 60.483 52.4747 59.9835C52.4747 59.9835 52.6768 62.3595 57.6854 63.8692Z" fill="#17282F"/>
<path d="M57.6914 63.8689C58.5624 65.4324 58.8515 67.2129 58.8515 67.2129C58.8515 67.2129 61.6984 64.8239 60.8895 61.0973C60.8895 61.0973 59.9772 60.8603 59.2148 60.6572C59.2148 60.6572 59.5685 63.0624 57.6914 63.8689Z" fill="#17282F"/>
<path d="M57.347 57.0566C57.3466 57.0566 57.3466 57.0566 57.3462 57.0566C57.3477 57.0117 57.35 56.9657 57.3523 56.9203C57.35 56.9657 57.3485 57.0117 57.347 57.0566ZM57.5452 55.3081L56.8672 54.6185L57.5456 55.3077C57.5456 55.3077 57.5452 55.3077 57.5452 55.3081Z" fill="#B6B8B6"/>
<path d="M57.3499 57.0566C56.2424 56.8609 54.6873 55.3782 54.5303 53.9645C54.452 53.2586 54.4569 52.581 54.5413 52.2522L56.8709 54.6185L57.549 55.3081C57.4532 55.8447 57.3802 56.3888 57.356 56.9203C57.3537 56.9657 57.3515 57.0117 57.3499 57.0566Z" fill="#D8898C"/>
<path d="M59.8712 40.7137C60.5871 41.369 61.8081 44.1351 60.2447 44.8558C58.6812 45.5765 58.1208 39.1117 59.8712 40.7137Z" fill="#17282F"/>
<path d="M51.5375 46.3411C52.2549 50.5639 52.4997 53.073 54.5169 55.0181C57.5511 57.9442 61.6186 55.4179 61.9467 51.062C62.2418 47.1411 61.0193 40.8938 57.4103 39.6611C53.8551 38.4464 50.8201 42.1182 51.5375 46.3411Z" fill="#F9A8B3"/>
<path d="M51.9856 49.5234L53.434 48.3384L53.526 47.3112C53.6596 45.8177 53.4325 44.309 52.8733 42.9728C52.8733 42.9728 59.8979 43.2947 60.7712 40.5982C61.6445 37.9022 59.1642 35.8787 59.1642 35.8787C59.1642 35.8787 56.6779 37.6235 54.9975 37.7663C53.3171 37.9096 48.1829 35.3351 48.1829 40.6557C45.9191 41.5137 45.9906 46.0904 51.9856 49.5234Z" fill="#17282F"/>
<path d="M48.4397 40.8652C48.4397 40.8652 47.5097 39.9567 48.2033 37.1934C47.3519 37.7152 46.9421 40.5364 48.4397 40.8652Z" fill="#17282F"/>
<path d="M50.5172 51.2402C51.1267 52.1511 52.0163 52.6487 52.7954 52.7498C53.9668 52.9015 54.3206 51.5741 53.8007 50.3571C53.3327 49.2612 52.1589 47.8619 51.0764 48.2747C50.0098 48.6814 49.8198 50.1985 50.5172 51.2402Z" fill="#F9A8B3"/>
<path d="M68.3621 114.004H56.2748C55.1874 105.959 54.3145 99.9074 54.3145 99.9074H66.7642C66.7642 99.9074 67.4653 105.859 68.3621 114.004Z" fill="#17282F"/>
<path d="M48.3127 114.004C48.041 105.959 47.8359 99.9074 47.8359 99.9074H60.042C60.042 99.9074 60.1041 106.035 60.1279 114.004H48.3127Z" fill="#17282F"/>
<path d="M56.9496 46.8191C56.9904 47.1651 57.1739 47.4257 57.3593 47.4007C57.5447 47.3756 57.6617 47.0746 57.6208 46.7286C57.5799 46.3822 57.396 46.122 57.2106 46.147C57.0256 46.1721 56.9087 46.4726 56.9496 46.8191Z" fill="#17282F"/>
<path d="M60.1606 46.3875C60.2015 46.7334 60.385 46.9941 60.5704 46.969C60.7558 46.944 60.8727 46.643 60.8315 46.297C60.7906 45.9506 60.6071 45.6904 60.4217 45.7154C60.2363 45.7405 60.1194 46.041 60.1606 46.3875Z" fill="#17282F"/>
<path d="M59.1602 46.6964C59.1602 46.6964 60.0414 48.6068 60.8651 49.475C60.4311 50.1141 59.5476 49.968 59.5476 49.968L59.1602 46.6964Z" fill="#F46878"/>
<path d="M58.2476 51.0385C58.4285 51.0622 58.6245 51.0641 58.8352 51.0358C58.8814 51.0293 58.9147 50.9787 58.9094 50.9221C58.9045 50.866 58.864 50.8257 58.8171 50.8312C57.5718 50.9996 56.8635 50.0145 56.8563 50.0043C56.826 49.9612 56.7731 49.957 56.7383 49.9936C56.7031 50.0307 56.6989 50.0952 56.7296 50.1383C56.7553 50.1754 57.2854 50.9133 58.2476 51.0385Z" fill="#17282F"/>
<path d="M55.7963 45.6883C55.8606 45.6967 55.9261 45.6582 55.9601 45.5849C56.3165 44.8136 56.9174 44.7682 56.9427 44.7668C57.0347 44.7612 57.1062 44.6652 57.102 44.5525C57.0979 44.4393 57.0207 44.3498 56.9287 44.3563C56.8958 44.3582 56.1198 44.4064 55.6684 45.3827C55.6226 45.481 55.651 45.6067 55.7316 45.6624L55.7963 45.6883Z" fill="#17282F"/>
<path d="M61.3629 44.8544C61.4007 44.859 61.4397 44.8488 61.4738 44.821C61.551 44.7579 61.5714 44.6304 61.5199 44.5362C60.9993 43.5817 60.2259 43.5567 60.1937 43.5567C60.101 43.5553 60.025 43.6457 60.0235 43.7589C60.0223 43.8721 60.0972 43.9676 60.188 43.9676C60.2187 43.9676 60.8241 43.9987 61.2414 44.7644C61.2702 44.8168 61.3152 44.8479 61.3629 44.8544Z" fill="#17282F"/>
<path d="M49.2933 68.7384L48.4548 70.5124C48.171 71.12 47.8944 71.7359 47.6254 72.356C47.0828 73.5934 46.5576 74.84 46.0585 76.0937C45.57 77.3501 45.1001 78.6139 44.6809 79.8805C44.4765 80.5141 44.2756 81.1513 44.0997 81.7853L43.8333 82.7361L43.607 83.6832L43.5506 83.9202L43.5219 84.0389L43.5136 84.0653C43.5041 84.0709 43.4965 84.1173 43.4867 84.1706C43.4712 84.2907 43.4712 84.4864 43.4878 84.7137C43.5185 85.1743 43.621 85.7498 43.7678 86.3388C44.0686 87.5234 44.4902 88.7979 44.9767 90.0469C45.9333 92.5639 47.101 95.105 48.2463 97.5853L46.1543 99.5898C45.2602 98.4916 44.461 97.3715 43.6725 96.1926C42.8889 95.0164 42.1472 93.7906 41.442 92.4985C40.7541 91.192 40.0813 89.8446 39.5368 88.2807C39.264 87.4965 39.0128 86.6621 38.8402 85.6756C38.7574 85.1794 38.698 84.6418 38.6953 84.0278C38.698 83.7147 38.7093 83.3938 38.7555 83.0385L38.7888 82.7945L38.8134 82.6457L38.8618 82.3479C39.0979 80.7372 39.4638 79.2224 39.8603 77.7248C40.258 76.2319 40.7295 74.7941 41.2263 73.3758C41.7288 71.9627 42.2767 70.5838 42.8616 69.2314C43.1564 68.5561 43.4583 67.8878 43.7709 67.2222C44.083 66.5451 44.3959 65.9208 44.7698 65.2131L49.2933 68.7384Z" fill="#F9A8B3"/>
<path d="M45.6804 62.2223C42.3515 62.8188 38.9219 77.0293 38.9219 77.0293L46.0864 81.8945C46.0864 81.8945 48.9901 75.1357 50.3742 70.1165C51.8245 64.858 49.2508 61.5823 45.6804 62.2223Z" fill="#406FBF"/>
<path d="M39.0652 75.0271L38.7617 77.1151L46.1246 82.0781L47.1049 80.3616L39.0652 75.0271Z" fill="#406FBF"/>
<path d="M46.1246 82.0781L44.3564 80.8862L39.825 77.8316L38.7617 77.1151L39.0652 75.0271L47.1049 80.3616L46.1246 82.0781Z" fill="#3665B9"/>
<path d="M47.2967 96.6259L50.8179 95.8736L49.0111 100.869C49.0111 100.869 45.7968 100.846 45.9444 98.8159L47.2967 96.6259Z" fill="#F9A8B3"/>
<path d="M53.4393 98.3816L51.7854 102.418L49.0059 100.867L50.8126 95.8711L53.4393 98.3816Z" fill="#F9A8B3"/>
<path d="M163.496 116.631H112.489C111.747 116.631 111.16 115.886 111.184 114.976L112.391 70.279C112.416 69.3686 113.043 68.6242 113.786 68.6242H164.792C165.534 68.6242 166.122 69.3686 166.097 70.279L164.89 114.976C164.866 115.886 164.238 116.631 163.496 116.631Z" fill="#406FBF"/>
<path d="M163.506 116.631H163.089C163.832 116.631 164.46 115.886 164.484 114.976L165.691 70.279C165.716 69.3686 165.128 68.6242 164.386 68.6242H146.533H164.802C165.53 68.6242 166.109 69.3398 166.109 70.2257C166.108 70.2433 166.108 70.2609 166.108 70.279L164.901 114.976C164.876 115.886 164.248 116.631 163.506 116.631Z" fill="#265396"/>
<path d="M163.089 116.631H112.083C111.341 116.631 110.753 115.886 110.778 114.976L111.985 70.279C112.01 69.3686 112.637 68.6242 113.38 68.6242H164.386C165.128 68.6242 165.716 69.3686 165.691 70.279L164.484 114.976C164.46 115.886 163.832 116.631 163.089 116.631Z" fill="#406FBF"/>
<path d="M162.424 116.55H100.822C100.18 116.55 99.6231 117.008 99.3662 117.665C99.2186 118.043 99.4445 118.479 99.7923 118.479H163.453C163.801 118.479 164.027 118.043 163.879 117.665C163.623 117.008 163.066 116.55 162.424 116.55Z" fill="#406FBF"/>
<path d="M163.461 118.479H151.96C151.613 118.479 151.387 118.043 151.534 117.665C151.791 117.008 152.348 116.55 152.99 116.55H162.431C163.073 116.55 163.63 117.008 163.886 117.665C163.918 117.746 163.932 117.83 163.932 117.912C163.931 118.21 163.733 118.479 163.461 118.479Z" fill="#265396"/>
<path d="M130.78 118.479H116.846C116.846 118.092 117.103 117.776 117.418 117.776H130.207C130.522 117.776 130.78 118.092 130.78 118.479Z" fill="#3563B7"/>
<path d="M162.801 114.002H147.764L155.758 71.2482H148.821L148.299 74.0384C148.059 73.2017 147.77 72.2458 147.445 71.2482H163.956C164.245 71.2482 164.474 71.5381 164.464 71.8929L163.345 113.357C163.335 113.712 163.09 114.002 162.801 114.002ZM119.659 114.002H117.646L120.869 96.7642C120.984 97.7906 121.112 98.8383 121.256 99.9082C121.244 100.01 120.547 105.929 119.659 114.002ZM115.15 114.002H112.497C112.208 114.002 111.979 113.712 111.989 113.357L112.673 88.0203C113.548 87.1516 114.335 86.238 115.086 85.2997C116.465 83.5656 117.72 81.7619 118.903 79.9132L119.802 80.8176L120.099 80.4396C120.098 80.5064 120.096 80.5727 120.095 80.64C120.051 82.6793 120.063 84.8855 120.152 87.2527L115.15 114.002ZM141.228 111.855C141.228 111.813 141.229 111.772 141.229 111.729C141.228 106.457 140.618 102.326 140.333 100.68C141.03 100.497 141.787 100.134 142.015 99.411C142.751 98.496 143.423 97.5647 144.082 96.5949L141.228 111.855ZM140.268 96.5253L140.175 96.5054C140.107 92.4662 139.944 85.7788 140.407 78.1276C140.44 78.2125 140.473 78.2964 140.505 78.3795C140.727 78.9448 140.934 79.4647 141.118 79.9225C141.118 79.9206 141.118 79.9188 141.118 79.9169C141.152 80.0004 141.185 80.0811 141.217 80.16L140.916 80.3598L141.896 82.0763L143.664 80.8844C143.756 81.184 143.845 81.4841 143.927 81.7828L144.194 82.7335L144.42 83.6806L144.477 83.9176L144.505 84.0363L144.514 84.0628C144.523 84.0683 144.531 84.1147 144.541 84.168C144.556 84.2882 144.556 84.4839 144.539 84.7111C144.509 85.1717 144.406 85.7473 144.259 86.3363C143.958 87.5208 143.537 88.7953 143.05 90.0443C142.229 92.2046 141.253 94.3826 140.268 96.5253ZM112.922 78.7867L113.108 71.8929C113.118 71.5381 113.362 71.2482 113.651 71.2482H115.672C115.3 71.9499 114.974 72.5858 114.707 73.1136L114.372 72.7838L113.809 74.7892L114.799 75.7855C114.186 76.8081 113.561 77.8122 112.922 78.7867Z" fill="#E6EFFA"/>
<path d="M147.769 114.004H140.832L148.826 71.2487H155.763L147.769 114.004Z" fill="white"/>
<path d="M117.648 114.004H115.152L123.147 71.2487H125.642L117.648 114.004Z" fill="white"/>
<path d="M153.459 114.004H150.963L158.957 71.2487H161.453L153.459 114.004Z" fill="white"/>
<path d="M135.557 50.1431C134.96 53.3141 134.289 59.124 136.039 61.2403C136.039 61.2403 135.284 63.8672 130.477 63.8672C125.191 63.8672 127.999 61.2407 127.999 61.2407C130.908 60.3962 130.908 57.7725 130.475 55.3088L135.557 50.1431Z" fill="#CD4B4F"/>
<path d="M143.262 65.2131C143.636 65.9208 143.949 66.5451 144.261 67.2222C144.573 67.8878 144.876 68.5561 145.17 69.2314C145.755 70.5838 146.303 71.9627 146.805 73.3758C147.302 74.7941 147.774 76.2319 148.172 77.7248C148.568 79.2224 148.934 80.7372 149.17 82.3479L149.219 82.6457L149.243 82.7945L149.276 83.0385C149.322 83.3938 149.334 83.7147 149.337 84.0278C149.334 84.6418 149.274 85.1794 149.192 85.6756C149.019 86.6621 148.768 87.4965 148.495 88.2807C147.951 89.8446 147.277 91.192 146.59 92.4985C145.885 93.7906 145.143 95.0164 144.359 96.1926C143.571 97.3715 142.772 98.4916 141.877 99.5898L139.785 97.5853C140.931 95.105 142.098 92.5639 143.055 90.0469C143.542 88.7979 143.963 87.5234 144.264 86.3388C144.411 85.7498 144.513 85.1743 144.544 84.7137C144.56 84.4864 144.561 84.2907 144.545 84.1706C144.535 84.1173 144.528 84.0709 144.518 84.0653L144.51 84.0389L144.481 83.9202L144.425 83.6832L144.199 82.7361L143.932 81.7853C143.756 81.1513 143.555 80.5141 143.351 79.8805C142.932 78.6139 142.462 77.3501 141.973 76.0937C141.474 74.84 140.949 73.5934 140.407 72.356C140.138 71.7359 139.861 71.12 139.577 70.5124L138.738 68.7384L143.262 65.2131Z" fill="#CE4A4F"/>
<path d="M142.346 62.2223C145.674 62.8188 149.104 77.0293 149.104 77.0293L141.94 81.8945C141.94 81.8945 139.036 75.1357 137.652 70.1165C136.202 64.858 138.775 61.5823 142.346 62.2223Z" fill="#17282F"/>
<path d="M141.122 79.9238C140.938 79.4661 140.731 78.9462 140.51 78.3808C140.731 78.9443 140.938 79.4628 141.123 79.9183C141.123 79.9201 141.122 79.922 141.122 79.9238Z" fill="#97A0AA"/>
<path d="M141.12 79.9199C140.935 79.4645 140.728 78.946 140.507 78.3825C140.474 78.2994 140.441 78.215 140.408 78.1301C140.513 76.3993 140.65 74.6178 140.827 72.8077C141.261 75.4717 141.234 78.1028 141.12 79.9199Z" fill="#0F191D"/>
<path d="M148.958 75.0271L149.262 77.1151L141.898 82.0781L140.918 80.3616L148.958 75.0271Z" fill="#406FBF"/>
<path d="M141.898 82.0781L140.918 80.3616L148.958 75.0271L149.262 77.1151L148.198 77.8316L143.667 80.8862L141.898 82.0781Z" fill="#3665B9"/>
<path d="M140.728 96.6259L137.207 95.8736L139.014 100.869C139.014 100.869 142.228 100.846 142.081 98.8159L140.728 96.6259Z" fill="#CD4B4F"/>
<path d="M134.584 98.3816L136.238 102.418L139.018 100.867L137.211 95.8711L134.584 98.3816Z" fill="#CD4B4F"/>
<path d="M122.528 62.4446C122.528 62.4446 117.984 75.5342 121.258 99.9102C126.957 99.9102 137.4 99.9102 140.173 99.9102C140.404 96.351 139.071 78.9903 142.346 62.2215C142.346 62.2215 139.126 61.4237 136.042 61.2415C133.629 61.0986 130.133 61.004 128.001 61.2419C125.191 61.555 122.528 62.4446 122.528 62.4446Z" fill="#17282F"/>
<path d="M120.092 80.6426C120.093 80.5753 120.095 80.509 120.096 80.4422V80.4418C120.095 80.509 120.093 80.5753 120.092 80.6426Z" fill="#97A0AA"/>
<path d="M120.076 82.4746C120.078 81.8494 120.086 81.2381 120.098 80.6412C120.1 80.574 120.101 80.5077 120.103 80.4404L120.991 79.3092L120.71 79.0328C121.452 77.9786 122.551 76.36 123.615 74.5832C123.106 77.5719 122.108 80.8518 120.076 82.4746Z" fill="#0F191D"/>
<path d="M125.081 68.7906C124.361 70.3156 123.628 71.713 122.864 73.1424C122.106 74.5635 121.317 75.9599 120.495 77.336C118.85 80.0881 117.099 82.7684 115.086 85.3007C114.073 86.5669 112.993 87.788 111.72 88.9155L111.23 89.3343C111.019 89.4915 110.799 89.6622 110.594 89.7833C110.173 90.0578 109.773 90.2471 109.373 90.4214C108.581 90.7517 107.826 90.9627 107.084 91.1292C105.599 91.4362 104.167 91.5443 102.747 91.5508C102.037 91.5448 101.334 91.5285 100.631 91.4627C99.9234 91.4005 99.2405 91.3374 98.5136 91.2066L98.5117 87.9522C99.7868 87.6832 101.111 87.3827 102.377 87.0515C103.014 86.8883 103.643 86.7139 104.257 86.5172C104.872 86.3303 105.474 86.1212 106.044 85.8832C106.615 85.6564 107.162 85.4009 107.626 85.1138C107.848 84.9654 108.071 84.8249 108.234 84.6802C108.329 84.6106 108.385 84.5387 108.459 84.4742L108.785 84.1556C109.668 83.2772 110.534 82.1757 111.377 81.0348C113.055 78.7149 114.625 76.1418 116.132 73.5079C116.887 72.1898 117.622 70.8466 118.354 69.5007C119.075 68.1589 119.797 66.7606 120.469 65.4425L125.081 68.7906Z" fill="#CE4A4F"/>
<path d="M126.835 66.3366C127.207 70.4101 119.806 80.2852 119.806 80.2852L113.943 74.6659C113.943 74.6659 116.471 69.3489 119.143 65.2912C122.185 60.6695 126.415 61.7386 126.835 66.3366Z" fill="#17282F"/>
<path d="M114.372 72.7826L113.809 74.788L119.802 80.8164L120.987 79.3068L114.372 72.7826Z" fill="#406FBF"/>
<path d="M119.802 80.8164L118.903 79.912L114.799 75.7843L113.809 74.788L114.372 72.7826L120.987 79.3068L120.099 80.438V80.4384L119.802 80.8164Z" fill="#3665B9"/>
<path d="M98.5127 87.9683L94.2949 88.0472L95.9942 92.8845C96.5167 93.0951 98.8464 92.0803 100.02 90.4951L98.5127 87.9683Z" fill="#CD4B4F"/>
<path d="M91.3848 90.552L93.6906 94.0977L95.9961 92.8835L94.2968 88.0456L91.3848 90.552Z" fill="#CD4B4F"/>
<path d="M126.81 46.3875C126.769 46.7334 126.586 46.9941 126.401 46.969C126.215 46.944 126.098 46.643 126.139 46.297C126.18 45.9506 126.364 45.6904 126.549 45.7154C126.734 45.7405 126.851 46.041 126.81 46.3875Z" fill="#17282F"/>
<path d="M126.894 46.6964C126.894 46.6964 126.013 48.6068 125.189 49.475C125.623 50.1141 126.507 49.968 126.507 49.968L126.894 46.6964Z" fill="#BB2329"/>
<path d="M126.076 44.367H126.074C125.933 44.3675 125.802 44.4482 125.684 44.6059C125.385 45.0075 125.238 45.8066 125.301 46.6915C125.39 47.9568 125.901 49.024 126.417 49.024H126.419C126.56 49.023 126.692 48.9428 126.809 48.7847C127.108 48.383 127.255 47.5844 127.193 46.6994C127.103 45.4338 126.592 44.367 126.076 44.367ZM126.417 49.2559C125.786 49.2559 125.213 48.1395 125.112 46.7115C125.045 45.764 125.211 44.8976 125.544 44.4496C125.697 44.2451 125.88 44.1361 126.073 44.1351H126.076C126.708 44.1351 127.28 45.251 127.381 46.6795C127.448 47.6266 127.283 48.4934 126.949 48.9409C126.796 49.1459 126.614 49.2545 126.42 49.2559H126.417Z" fill="#17282F"/>
<path d="M127.816 44.8544C127.853 44.8591 127.893 44.8484 127.927 44.821C128.004 44.758 128.024 44.6304 127.973 44.5363C127.452 43.5818 126.679 43.5567 126.646 43.5567C126.554 43.5553 126.478 43.6458 126.477 43.7589C126.475 43.8721 126.55 43.9676 126.641 43.9676C126.671 43.9676 127.277 43.9987 127.695 44.7644C127.723 44.8169 127.768 44.8479 127.816 44.8544Z" fill="#17282F"/>
<path d="M136.489 46.3411C135.771 50.5639 135.526 53.073 133.51 55.0181C130.475 57.9442 126.408 55.4179 126.079 51.062C125.784 47.1411 127.007 40.8938 130.616 39.6611C134.171 38.4464 137.206 42.1182 136.489 46.3411Z" fill="#CD4B4F"/>
<path d="M141.197 114.004C141.468 105.959 140.195 99.9074 140.195 99.9074H127.988C127.988 99.9074 129.405 106.035 129.381 114.004H141.197Z" fill="#406FBF"/>
<path d="M141.197 114.004H133.231C133.745 110.201 133.88 106.844 133.881 104.361C133.881 101.59 133.712 99.9074 133.712 99.9074H127.988H140.195C140.195 99.9074 141.234 104.845 141.235 111.73C141.235 111.772 141.235 111.813 141.235 111.856C141.233 112.553 141.222 113.27 141.197 114.004Z" fill="#6D97D6"/>
<path d="M129.015 47.6118C128.342 47.2 127.501 43.0768 127.732 41.6085C127.964 40.1397 130.675 38.5683 133.345 39.1606C136.015 39.7533 137.16 40.9017 137.675 43.876C138.211 46.9681 136.267 52.1115 135.305 52.5076C134.018 53.0382 132.665 52.8072 131.811 52.1468C130.952 51.4835 130.507 46.7617 129.015 47.6118Z" fill="#17282F"/>
<path d="M128.307 43.0901C127.004 43.1801 125.764 40.6417 126.962 38.3747C128.16 36.1072 130.199 36.597 130.199 36.597C130.199 36.597 129.652 37.8979 131.471 37.6271C133.289 37.3567 136.669 37.9754 137.851 39.5337C139.309 41.4534 138.429 45.2286 136.232 44.301C134.035 43.3735 128.307 43.0901 128.307 43.0901Z" fill="#17282F"/>
<path d="M127.963 43.1504C127.474 43.1504 126.959 42.8341 126.557 42.2692C126.018 41.5104 125.623 40.1557 126.127 38.628C126.147 38.5686 126.202 38.5398 126.25 38.5639C126.299 38.5881 126.322 38.6558 126.303 38.7147C125.83 40.1455 126.198 41.4102 126.7 42.1166C127.144 42.7418 127.734 43.034 128.24 42.8777C128.291 42.8614 128.342 42.8995 128.355 42.9616C128.367 43.0238 128.336 43.0868 128.286 43.1026C128.181 43.1346 128.073 43.1504 127.963 43.1504Z" fill="#17282F"/>
<path d="M131.151 47.0803C131.22 48.2551 130.854 49.3668 130.345 50.0973C129.581 51.196 128.579 50.5314 128.273 49.2101C127.997 48.02 128.063 46.0145 129.08 45.401C130.082 44.7962 131.072 45.7363 131.151 47.0803Z" fill="#CD4B4F"/>
<path d="M119.66 114.004H133.226C134.314 105.959 133.708 99.9074 133.708 99.9074H121.258C121.258 99.9074 120.557 105.859 119.66 114.004Z" fill="#406FBF"/>
<path d="M133.226 114.004H119.66C120.557 105.859 121.258 99.9074 121.258 99.9074H133.708C133.708 99.9074 133.876 101.59 133.876 104.361C133.876 106.844 133.74 110.201 133.226 114.004Z" fill="#6D97D6"/>
</svg>
