<svg width="42" height="42" viewBox="0 0 42 42" fill="none" xmlns="http://www.w3.org/2000/svg">
<path d="M10.5 0C9.05625 0 7.875 1.18125 7.875 2.625V39.375C7.875 40.8188 9.05625 42 10.5 42H36.75C38.1938 42 39.375 40.8188 39.375 39.375V10.5L28.875 0H10.5Z" fill="#E2E5E7"/>
<path d="M31.5 10.5H39.375L28.875 0V7.875C28.875 9.31875 30.0562 10.5 31.5 10.5Z" fill="#B0B7BD"/>
<path d="M39.375 18.375L31.5 10.5H39.375V18.375Z" fill="#CAD1D8"/>
<path d="M34.125 34.125C34.125 34.8469 33.5344 35.4375 32.8125 35.4375H3.9375C3.21562 35.4375 2.625 34.8469 2.625 34.125V21C2.625 20.2781 3.21562 19.6875 3.9375 19.6875H32.8125C33.5344 19.6875 34.125 20.2781 34.125 21V34.125Z" fill="#F15642"/>
<path d="M8.3457 24.8671C8.3457 24.5206 8.6187 24.1426 9.05839 24.1426H11.4826C12.8476 24.1426 14.0761 25.0561 14.0761 26.807C14.0761 28.466 12.8476 29.39 11.4826 29.39H9.73039V30.776C9.73039 31.238 9.43639 31.4991 9.05839 31.4991C8.71189 31.4991 8.3457 31.238 8.3457 30.776V24.8671V24.8671ZM9.73039 25.4643V28.0788H11.4826C12.1861 28.0788 12.7426 27.458 12.7426 26.807C12.7426 26.0733 12.1861 25.4643 11.4826 25.4643H9.73039Z" fill="white"/>
<path d="M16.1307 31.4984C15.7842 31.4984 15.4062 31.3094 15.4062 30.8487V24.8873C15.4062 24.5106 15.7842 24.2363 16.1307 24.2363H18.5339C23.3298 24.2363 23.2248 31.4984 18.6284 31.4984H16.1307V31.4984ZM16.7922 25.5173V30.2187H18.5339C21.3676 30.2187 21.4936 25.5173 18.5339 25.5173H16.7922V25.5173Z" fill="white"/>
<path d="M24.9256 25.6007V27.2689H27.6018C27.9798 27.2689 28.3578 27.6469 28.3578 28.0131C28.3578 28.3596 27.9798 28.6431 27.6018 28.6431H24.9256V30.8468C24.9256 31.2143 24.6644 31.4964 24.2969 31.4964C23.8349 31.4964 23.5527 31.2143 23.5527 30.8468V24.8854C23.5527 24.5087 23.8362 24.2344 24.2969 24.2344H27.9811C28.4431 24.2344 28.7161 24.5087 28.7161 24.8854C28.7161 25.2214 28.4431 25.5994 27.9811 25.5994H24.9256V25.6007Z" fill="white"/>
<path d="M32.8125 35.4375H7.875V36.75H32.8125C33.5344 36.75 34.125 36.1594 34.125 35.4375V34.125C34.125 34.8469 33.5344 35.4375 32.8125 35.4375Z" fill="#CAD1D8"/>
</svg>
