<svg width="42" height="42" viewBox="0 0 42 42" fill="none" xmlns="http://www.w3.org/2000/svg">
<path d="M40.6875 35.4375H22.3125C21.588 35.4375 21 34.8521 21 34.125C21 33.3979 21 8.5995 21 7.875C21 7.1505 21.588 6.5625 22.3125 6.5625H40.6875C41.412 6.5625 42 7.1505 42 7.875V34.125C42 34.8521 41.412 35.4375 40.6875 35.4375Z" fill="#ECEFF1"/>
<path d="M35.4375 14.4375H22.3125C21.588 14.4375 21 13.8521 21 13.125C21 12.3979 21.588 11.8125 22.3125 11.8125H35.4375C36.162 11.8125 36.75 12.4005 36.75 13.125C36.75 13.8495 36.162 14.4375 35.4375 14.4375Z" fill="#1976D2"/>
<path d="M35.4375 19.6875H22.3125C21.588 19.6875 21 19.1021 21 18.375C21 17.6479 21.588 17.0625 22.3125 17.0625H35.4375C36.162 17.0625 36.75 17.6505 36.75 18.375C36.75 19.0995 36.162 19.6875 35.4375 19.6875Z" fill="#1976D2"/>
<path d="M35.4375 24.9375H22.3125C21.588 24.9375 21 24.3521 21 23.625C21 22.8979 21.588 22.3125 22.3125 22.3125H35.4375C36.162 22.3125 36.75 22.9005 36.75 23.625C36.75 24.3495 36.162 24.9375 35.4375 24.9375Z" fill="#1976D2"/>
<path d="M35.4375 30.1875H22.3125C21.588 30.1875 21 29.6021 21 28.875C21 28.1479 21.588 27.5625 22.3125 27.5625H35.4375C36.162 27.5625 36.75 28.1505 36.75 28.875C36.75 29.5995 36.162 30.1875 35.4375 30.1875Z" fill="#1976D2"/>
<path d="M23.1499 1.6177C22.8506 1.3657 22.449 1.2607 22.071 1.33682L1.071 5.27432C0.4515 5.38982 0 5.9332 0 6.5632V35.4382C0 36.0682 0.448875 36.6116 1.071 36.7271L22.071 40.6646C22.1524 40.6803 22.2311 40.6882 22.3125 40.6882C22.617 40.6882 22.9136 40.5832 23.1499 40.3863C23.4518 40.1369 23.625 39.7668 23.625 39.3757V2.6257C23.625 2.23457 23.4518 1.86707 23.1499 1.6177Z" fill="#1565C0"/>
<path d="M17.0548 27.7117C16.9866 28.3128 16.5141 28.7932 15.9129 28.8667C15.8578 28.8746 15.8053 28.8772 15.7502 28.8772C15.2094 28.8772 14.7159 28.5412 14.5217 28.0267L11.8127 20.8027L9.1037 28.0267C8.8937 28.5884 8.34245 28.9323 7.73345 28.8693C7.13757 28.8063 6.65982 28.3443 6.57582 27.7484L5.26332 18.5609C5.16095 17.8469 5.6597 17.1802 6.37632 17.0778C7.09557 16.9728 7.7597 17.4742 7.86207 18.1908L8.44745 22.2963L10.5816 16.6027C10.9648 15.5789 12.6553 15.5789 13.0412 16.6027L15.0519 21.9629L15.7581 15.6052C15.8394 14.8859 16.5062 14.3688 17.2071 14.4449C17.9289 14.5289 18.4461 15.1773 18.3673 15.8966L17.0548 27.7117Z" fill="#FAFAFA"/>
</svg>
