<svg width="17" height="17" viewBox="0 0 25 25" fill="none" xmlns="http://www.w3.org/2000/svg">
<path d="M2.73438 0C1.22422 0 0 0.979407 0 2.18757V5.31267C0 6.52084 1.22422 7.50024 2.73438 7.50024H22.2656C23.7758 7.50024 25 6.52084 25 5.31267V2.18757C25 0.979407 23.7758 0 22.2656 0H2.73438Z" fill="#126AA0"/>
<path d="M2.73438 8.75C1.22422 8.75 0 9.72941 0 10.9376V14.0627C0 15.2709 1.22422 16.2503 2.73438 16.2503H22.2656C23.7758 16.2503 25 15.2709 25 14.0627V10.9376C25 9.72941 23.7758 8.75 22.2656 8.75H2.73438Z" fill="#126AA0"/>
<path d="M2.73438 17.5C1.22422 17.5 0 18.4794 0 19.6876V22.8127C0 24.0208 1.22422 25.0002 2.73438 25.0002H22.2656C23.7758 25.0002 25 24.0208 25 22.8127V19.6876C25 18.4794 23.7758 17.5 22.2656 17.5H2.73438Z" fill="#126AA0"/>
</svg>
