<svg width="60" height="60" viewBox="0 0 60 60" fill="none" xmlns="http://www.w3.org/2000/svg">
<circle cx="30" cy="30" r="30" fill="white"/>
<path d="M48.5339 27.9952C47.9994 27.7474 47.4426 27.5384 46.8673 27.3713C46.3271 27.2142 45.7704 27.0946 45.2006 27.0148C44.6561 26.9388 44.0999 26.8984 43.534 26.8984C43.3919 26.8984 43.2505 26.901 43.1098 26.9059C42.6897 26.9209 42.2752 26.9577 41.8673 27.0147C40.9973 27.1363 40.158 27.3516 39.3606 27.6499C39.3446 27.6559 39.3289 27.6623 39.3129 27.6685C39.1984 27.7117 39.0845 27.7566 38.9719 27.8034C38.9463 27.8141 38.9212 27.8253 38.8957 27.8361C38.7932 27.8795 38.6911 27.9237 38.5902 27.9699C38.5416 27.992 38.4936 28.0152 38.4455 28.0381C38.3365 28.0897 38.2283 28.1431 38.121 28.198C38.0663 28.2259 38.0112 28.2534 37.957 28.2822C37.9003 28.3124 37.8445 28.3438 37.7883 28.3749C37.7356 28.404 37.6828 28.4331 37.6306 28.4629C37.5758 28.4942 37.5215 28.5266 37.4675 28.5588C37.4143 28.5904 37.3613 28.6224 37.3086 28.6548C37.2566 28.6868 37.2049 28.7191 37.1537 28.7519C37.0981 28.7874 37.0431 28.8235 36.9881 28.8598C36.9407 28.8911 36.8932 28.9223 36.8465 28.9542C36.7804 28.9994 36.7151 29.0457 36.65 29.092C36.6155 29.1167 36.5805 29.1406 36.5463 29.1656C36.4495 29.2363 36.3538 29.3085 36.2594 29.3821C36.2273 29.4071 36.1958 29.433 36.1639 29.4581C36.0982 29.5105 36.0326 29.5631 35.968 29.6168C35.9328 29.646 35.898 29.6759 35.8632 29.7055C35.8018 29.7577 35.7409 29.8105 35.6806 29.864C35.6474 29.8935 35.6144 29.9229 35.5816 29.9527C35.5177 30.0107 35.4546 30.0696 35.3922 30.1289C35.3651 30.1546 35.3377 30.1803 35.3108 30.2064C35.2287 30.2858 35.1475 30.3664 35.0678 30.4483C35.0617 30.4545 35.0557 30.4603 35.0496 30.4666C34.9608 30.5582 34.8736 30.6514 34.7879 30.7458C34.7742 30.761 34.7609 30.7765 34.7472 30.7917C34.6777 30.8692 34.6091 30.9475 34.5418 31.0267C34.52 31.0523 34.4986 31.0783 34.4769 31.1042C34.4247 31.1667 34.3733 31.23 34.3225 31.2937C34.2707 31.3584 34.2202 31.4238 34.1698 31.4896C34.1322 31.5389 34.094 31.5882 34.0572 31.6381C34.0008 31.7143 33.9462 31.7918 33.8918 31.8694C33.8632 31.91 33.8339 31.95 33.8059 31.9911C33.7253 32.1094 33.6467 32.2289 33.5708 32.3502C33.5525 32.3795 33.5352 32.4096 33.5171 32.439C33.4584 32.5344 33.4005 32.6304 33.3448 32.7275C33.3203 32.77 33.297 32.8132 33.273 32.856C33.2248 32.9424 33.1775 33.0293 33.1316 33.1168C33.1079 33.162 33.0848 33.2075 33.0618 33.2531C33.019 33.3379 32.9772 33.4232 32.9365 33.5091C32.9108 33.5636 32.8851 33.6182 32.8601 33.6731C32.8224 33.7565 32.7857 33.8404 32.7499 33.9247C32.7259 33.9811 32.7018 34.0376 32.6789 34.0943C32.6451 34.1776 32.6129 34.2616 32.5811 34.3458C32.558 34.4072 32.5343 34.4685 32.5122 34.5304C32.4913 34.5889 32.4716 34.6479 32.4516 34.7069C32.4259 34.7832 32.4003 34.8595 32.3761 34.9365C32.357 34.9971 32.3388 35.0581 32.3208 35.119C32.3001 35.189 32.2799 35.2588 32.2605 35.3292C32.2438 35.3903 32.228 35.4518 32.2122 35.5132C32.1936 35.5865 32.1751 35.6598 32.158 35.7335C32.1442 35.7923 32.1314 35.8516 32.1186 35.9107C32.1019 35.9881 32.0856 36.0656 32.0705 36.1434C32.0595 36.2003 32.0493 36.2575 32.0392 36.3147C32.0249 36.395 32.0112 36.4755 31.9987 36.5563C31.9896 36.6155 31.9813 36.6749 31.9729 36.7343C31.9627 36.808 31.9529 36.8817 31.9443 36.9559C31.9365 37.0218 31.9298 37.088 31.9232 37.1541C31.9165 37.2213 31.91 37.2885 31.9046 37.3561C31.8982 37.4352 31.8933 37.5146 31.8886 37.5941C31.8849 37.6563 31.8808 37.7184 31.8782 37.781C31.8764 37.8193 31.8752 37.8576 31.8739 37.8959C31.8701 38.0134 31.8672 38.1312 31.8672 38.2495C31.8672 38.4002 31.8712 38.5496 31.8772 38.6988C31.8782 38.7235 31.879 38.7481 31.8801 38.7726C31.8869 38.9168 31.8964 39.0603 31.9088 39.203C31.9108 39.2263 31.913 39.2495 31.9152 39.2728C31.929 39.4215 31.9448 39.5696 31.9645 39.7165L31.965 39.7199C31.9855 39.8743 32.0098 40.0278 32.0368 40.1803C32.0381 40.1874 32.0391 40.1947 32.0405 40.2018C32.0674 40.3525 32.0978 40.5023 32.1308 40.651C32.133 40.6608 32.1351 40.6706 32.1374 40.6803C32.2416 41.1424 32.3745 41.5942 32.5346 42.0336C32.6358 42.3113 32.7478 42.5839 32.8699 42.8513C32.8722 42.8563 32.8743 42.8612 32.8766 42.8661C32.9337 42.9908 32.9936 43.1141 33.0552 43.2365C33.0656 43.2571 33.0762 43.2777 33.0868 43.2983C33.1479 43.4176 33.2104 43.536 33.2756 43.6529L33.2773 43.6558C33.3515 43.7885 33.4288 43.9192 33.5083 44.0487C33.5175 44.0637 33.5265 44.0787 33.5356 44.0936C33.6132 44.2187 33.6935 44.3422 33.7758 44.4641C33.7868 44.4801 33.7975 44.4963 33.8085 44.5123C33.8927 44.6355 33.9787 44.757 34.0676 44.8766C34.0755 44.8873 34.0835 44.8977 34.0914 44.9083C34.1846 45.033 34.2799 45.1561 34.378 45.2768C36.5166 47.9088 39.8256 49.6009 43.5336 49.6009C49.9664 49.6009 55.2 44.5087 55.2 38.2494C55.2005 33.7308 52.472 29.8204 48.5339 27.9952ZM46.8673 39.8717H45.2006V41.4933C45.2006 42.3889 44.4544 43.115 43.534 43.115C42.6136 43.115 41.8673 42.3889 41.8673 41.4933V39.8717H40.2007C39.2803 39.8717 38.534 39.1456 38.534 38.25C38.534 37.3545 39.2803 36.6284 40.2007 36.6284H41.8673V35.0067C41.8673 34.1111 42.6136 33.3851 43.534 33.3851C44.4544 33.3851 45.2006 34.1111 45.2006 35.0067V36.6284H46.8673C47.7877 36.6284 48.5339 37.3545 48.5339 38.25C48.5339 39.1456 47.7877 39.8717 46.8673 39.8717Z" fill="#B52928" fill-opacity="0.6"/>
<path d="M34.0661 44.8757C33.9773 44.756 33.891 44.6345 33.807 44.5114C33.796 44.4953 33.7853 44.4792 33.7744 44.4632C33.6921 44.3412 33.6118 44.2178 33.5341 44.0927C33.525 44.0778 33.516 44.0628 33.5068 44.0477C33.4274 43.9183 33.3499 43.7876 33.2758 43.6548C33.2757 43.6546 33.2756 43.6543 33.2755 43.6543C33.275 43.6534 33.2746 43.6526 33.2741 43.6519C33.2089 43.535 33.1464 43.4164 33.0853 43.2972C33.0748 43.2767 33.0641 43.2561 33.0537 43.2355C32.992 43.1132 32.9324 42.9899 32.8752 42.8651C32.8728 42.8603 32.8707 42.8553 32.8684 42.8503C32.5525 42.1599 32.3057 41.4336 32.1359 40.6793C32.1338 40.6695 32.1316 40.6598 32.1293 40.65C32.0962 40.5013 32.0659 40.3515 32.039 40.2008C32.0376 40.1937 32.0366 40.1864 32.0353 40.1793C32.0083 40.0267 31.9841 39.8734 31.9635 39.7188C31.9633 39.7177 31.9632 39.7165 31.963 39.7155C31.9433 39.5684 31.9274 39.4205 31.9137 39.2718C31.9116 39.2484 31.9093 39.2252 31.9073 39.202C31.8951 39.0591 31.8854 38.9157 31.8786 38.7715C31.8774 38.7469 31.8766 38.7224 31.8757 38.6977C31.8697 38.5485 31.8657 38.3989 31.8657 38.2484C31.8657 38.1301 31.8684 38.0123 31.8724 37.8948C31.8736 37.8565 31.8749 37.8183 31.8767 37.7799C31.8777 37.756 31.8781 37.7321 31.8793 37.7083H23.5324C22.612 37.7083 21.8657 36.9822 21.8657 36.0866C21.8657 35.1911 22.612 34.465 23.5324 34.465H32.5328C32.5476 34.4244 32.5643 34.3849 32.5796 34.3445C32.6114 34.2603 32.6436 34.1763 32.6774 34.093C32.7004 34.0363 32.7245 33.9798 32.7484 33.9234C32.7843 33.8391 32.8208 33.755 32.8586 33.6718C32.8837 33.6169 32.9092 33.5623 32.935 33.5078C32.9546 33.4665 32.9728 33.4246 32.9929 33.3836C33.0145 33.3393 33.038 33.2958 33.0603 33.2518C33.0833 33.2063 33.1064 33.1608 33.1301 33.1156C33.1759 33.0279 33.2234 32.9411 33.2716 32.8547C33.2955 32.8119 33.3188 32.7686 33.3433 32.7262C33.3991 32.629 33.4569 32.5331 33.5156 32.4377C33.5338 32.4083 33.551 32.3782 33.5693 32.3489C33.6454 32.2278 33.7239 32.108 33.8044 31.9899C33.8324 31.9488 33.8617 31.9088 33.8903 31.8681C33.9447 31.7905 33.9993 31.713 34.0557 31.6368C34.0926 31.5869 34.1307 31.5377 34.1684 31.4883C34.2187 31.4226 34.2692 31.357 34.321 31.2924C34.3395 31.2691 34.3571 31.245 34.376 31.2218H23.5324C22.612 31.2218 21.8657 30.4957 21.8657 29.6002C21.8657 28.7046 22.612 27.9785 23.5324 27.9785H38.5659C38.5732 27.9751 38.581 27.972 38.5885 27.9686C38.6894 27.9224 38.7915 27.8782 38.894 27.8348C38.9195 27.824 38.9446 27.8128 38.9701 27.8021C39.0829 27.7553 39.1967 27.7106 39.3111 27.6673C39.3271 27.6611 39.3428 27.6547 39.3588 27.6487C40.5301 27.2105 41.7913 26.9506 43.1079 26.9045C43.2486 26.8995 43.3901 26.8971 43.5321 26.8971C44.098 26.8971 44.6542 26.9373 45.1987 27.0134V22.0739C45.1758 22.95 44.4403 23.6537 43.5342 23.6537C43.5334 23.6537 43.5326 23.6537 43.5321 23.6537H41.8654H32.4212C31.5008 23.6537 30.7545 22.9276 30.7545 22.0321V12.8429V11.2213C30.7545 10.5655 31.1605 9.97414 31.7834 9.7232C31.9987 9.63641 32.2252 9.59734 32.449 9.60102C32.4397 9.60078 32.4305 9.59961 32.4212 9.59961H16.8659C15.9454 9.59961 15.1992 10.3257 15.1992 11.2213V43.6543C15.1992 44.5498 15.9455 45.2759 16.8659 45.2759H34.3765C34.2784 45.1551 34.1831 45.032 34.0899 44.9074C34.082 44.8968 34.074 44.8862 34.0661 44.8757Z" fill="#E0E0E2"/>
<path d="M44.719 20.8941C44.7162 20.8912 44.7136 20.8878 44.7106 20.8848L33.5996 10.0742L44.6603 20.8361C44.6808 20.8543 44.6995 20.8747 44.719 20.8941Z" fill="#D6D5D8"/>
<path d="M23.5338 34.4648C22.6134 34.4648 21.8672 35.1909 21.8672 36.0865C21.8672 36.9821 22.6134 37.7081 23.5338 37.7081H31.8806C31.8825 37.6695 31.8861 37.6314 31.8884 37.5929C31.893 37.5135 31.8979 37.434 31.9045 37.3549C31.91 37.2874 31.9165 37.2201 31.9231 37.1529C31.9298 37.0867 31.9364 37.0206 31.9442 36.9548C31.9528 36.8806 31.9626 36.8069 31.9728 36.7331C31.9777 36.6978 31.9814 36.662 31.9866 36.6267C31.9902 36.6028 31.9948 36.5792 31.9985 36.5552C32.011 36.4743 32.0246 36.3938 32.039 36.3135C32.0491 36.2563 32.0595 36.1992 32.0703 36.1423C32.0854 36.0643 32.1016 35.9868 32.1184 35.9095C32.1312 35.8503 32.1441 35.7913 32.1578 35.7324C32.175 35.6585 32.1934 35.5853 32.212 35.512C32.2277 35.4506 32.2436 35.3891 32.2604 35.3281C32.2797 35.2577 32.2999 35.1877 32.3206 35.1179C32.3317 35.0805 32.3414 35.0425 32.3529 35.0052C32.3601 34.9816 32.3686 34.9587 32.3759 34.9353C32.4001 34.8584 32.4256 34.782 32.4515 34.7058C32.4714 34.6467 32.4911 34.5877 32.512 34.5292C32.5196 34.5079 32.5264 34.4863 32.5341 34.465H23.5338V34.4648Z" fill="#57565C"/>
<path d="M23.5338 27.9785C22.6134 27.9785 21.8672 28.7046 21.8672 29.6002C21.8672 30.4957 22.6134 31.2218 23.5338 31.2218H34.3773C34.4098 31.1817 34.4438 31.1426 34.4767 31.1029C34.4984 31.0771 34.5198 31.0511 34.5416 31.0254C34.6088 30.9462 34.6774 30.8679 34.747 30.7905C34.7607 30.7753 34.774 30.7598 34.7877 30.7446C34.8733 30.6502 34.9607 30.557 35.0493 30.4653C35.0554 30.4591 35.0615 30.4532 35.0676 30.447C35.1472 30.3652 35.2283 30.2845 35.3105 30.2051C35.3374 30.1791 35.3649 30.1535 35.3919 30.1277C35.4545 30.0683 35.5175 30.0095 35.5814 29.9514C35.6141 29.9217 35.6471 29.8922 35.6804 29.8628C35.7407 29.8093 35.8016 29.7566 35.8629 29.7042C35.8979 29.6746 35.9325 29.6448 35.9677 29.6156C36.0323 29.5618 36.0978 29.5093 36.1636 29.4569C36.1955 29.4316 36.227 29.4057 36.2591 29.3808C36.3537 29.3073 36.4492 29.2349 36.546 29.1644C36.5802 29.1393 36.6152 29.1156 36.6497 29.0908C36.7149 29.0443 36.7801 28.9981 36.8462 28.953C36.8931 28.9209 36.9406 28.8899 36.9879 28.8585C37.0428 28.8222 37.0978 28.7859 37.1534 28.7506C37.2047 28.7177 37.2564 28.6855 37.3084 28.6535C37.3611 28.6211 37.414 28.5892 37.4673 28.5575C37.5214 28.5253 37.5756 28.4931 37.6304 28.4616C37.6826 28.4318 37.7354 28.4027 37.7881 28.3737C37.8443 28.3427 37.9 28.3112 37.9568 28.281C38.011 28.2522 38.066 28.2247 38.1208 28.1968C38.228 28.1419 38.3362 28.0886 38.4453 28.0369C38.486 28.0175 38.5264 27.9974 38.5675 27.9786L23.5338 27.9785Z" fill="#57565C"/>
<path d="M30.7539 11.222V12.8436V22.0327C30.7539 22.9282 31.5002 23.6543 32.4206 23.6543H41.8648H43.5315C43.5321 23.6543 43.5329 23.6543 43.5336 23.6543C44.4395 23.6543 45.1751 22.9506 45.1981 22.0746C45.1984 22.0605 45.2002 22.0467 45.2002 22.0327C45.2002 21.6447 45.0586 21.2899 44.8251 21.0108C44.8225 21.0077 44.8198 21.0043 44.817 21.001C44.786 20.9644 44.7528 20.9292 44.7183 20.8951C44.6987 20.8757 44.6801 20.8554 44.6596 20.8371L33.5989 10.0752C33.5635 10.0408 33.5262 10.0085 33.488 9.97751C33.4772 9.96876 33.4662 9.96055 33.4552 9.95211C33.4259 9.92954 33.396 9.9079 33.3652 9.88735C33.3539 9.87969 33.3426 9.87188 33.3308 9.86454C33.2912 9.83938 33.2505 9.81524 33.2086 9.79352C33.2073 9.79266 33.206 9.7918 33.2045 9.79118C33.1609 9.7686 33.1162 9.74836 33.0709 9.72977C33.0585 9.72461 33.0457 9.72 33.0332 9.71516C32.9993 9.70219 32.9651 9.69016 32.9303 9.67938C32.9162 9.67492 32.9022 9.67039 32.8879 9.66633C32.8443 9.65399 32.8005 9.64297 32.7559 9.63414C32.7524 9.63336 32.749 9.63227 32.7454 9.63164C32.6981 9.62242 32.6504 9.61594 32.6022 9.61086C32.5872 9.60922 32.5721 9.60828 32.5571 9.60696C32.5209 9.60414 32.4846 9.60227 32.4482 9.6018C32.2242 9.59813 31.9977 9.63711 31.7825 9.72399C31.1599 9.97477 30.7539 10.5662 30.7539 11.222Z" fill="#C6C5CA"/>
<path d="M41.8655 41.4913V39.8696H40.1989C39.2785 39.8696 38.5322 39.1435 38.5322 38.248C38.5322 37.3524 39.2785 36.6263 40.1989 36.6263H41.8655V35.0047C41.8655 34.1091 42.6118 33.383 43.5322 33.383V26.8965C43.3901 26.8965 43.2487 26.8991 43.108 26.9039C42.6879 26.9189 42.2734 26.9558 41.8655 27.0127C40.9955 27.1344 40.1562 27.3497 39.3588 27.648C39.3428 27.654 39.3271 27.6604 39.3111 27.6666C39.1967 27.7098 39.0827 27.7545 38.9701 27.8014C38.9445 27.8121 38.9194 27.8234 38.894 27.8341C38.7914 27.8775 38.6893 27.9218 38.5884 27.9679C38.5398 27.9901 38.4918 28.0133 38.4437 28.0361C38.3347 28.0877 38.2265 28.1411 38.1192 28.196C38.0645 28.224 38.0094 28.2515 37.9552 28.2802C37.8985 28.3104 37.8427 28.3419 37.7865 28.3729C37.7338 28.4021 37.681 28.431 37.6288 28.4609C37.574 28.4922 37.5199 28.5245 37.4657 28.5567C37.4124 28.5884 37.3595 28.6203 37.3068 28.6527C37.2548 28.6848 37.2031 28.717 37.1518 28.7499C37.0962 28.7853 37.0412 28.8214 36.9863 28.8577C36.9388 28.8891 36.8914 28.9202 36.8446 28.9522C36.7785 28.9974 36.7133 29.0437 36.6481 29.09C36.6136 29.1146 36.5786 29.1385 36.5444 29.1636C36.4477 29.2343 36.3519 29.3065 36.2575 29.38C36.2254 29.4051 36.1939 29.431 36.1621 29.4561C36.0963 29.5085 36.0307 29.5611 35.9661 29.6148C35.9309 29.644 35.8961 29.6738 35.8614 29.7035C35.7999 29.7556 35.7391 29.8085 35.6788 29.862C35.6455 29.8914 35.6125 29.9209 35.5798 29.9506C35.5159 30.0087 35.4527 30.0675 35.3904 30.1269C35.3632 30.1526 35.3358 30.1782 35.3089 30.2043C35.2268 30.2838 35.1456 30.3643 35.066 30.4463C35.0599 30.4524 35.0538 30.4583 35.0477 30.4646C34.9589 30.5562 34.8717 30.6493 34.7861 30.7438C34.7724 30.759 34.7591 30.7745 34.7454 30.7897C34.6759 30.8671 34.6073 30.9454 34.54 31.0246C34.5182 31.0503 34.4968 31.0763 34.4751 31.1021C34.4229 31.1646 34.3715 31.228 34.3207 31.2917C34.2689 31.3564 34.2184 31.4218 34.168 31.4875C34.1304 31.5369 34.0923 31.5861 34.0554 31.6361C33.999 31.7123 33.9444 31.7898 33.89 31.8674C33.8614 31.908 33.8321 31.948 33.8041 31.9891C33.7235 32.1074 33.6449 32.2269 33.569 32.3482C33.5507 32.3775 33.5334 32.4075 33.5153 32.4369C33.4566 32.5324 33.3988 32.6282 33.343 32.7254C33.3185 32.7679 33.2952 32.8111 33.2713 32.854C33.223 32.9404 33.1757 33.0272 33.1298 33.1148C33.1061 33.16 33.083 33.2055 33.06 33.2511C33.0172 33.3358 32.9755 33.4211 32.9347 33.5071C32.909 33.5615 32.8833 33.6161 32.8583 33.6711C32.8206 33.7544 32.784 33.8383 32.7481 33.9226C32.7241 33.979 32.7 34.0355 32.6771 34.0922C32.6433 34.1755 32.6111 34.2596 32.5793 34.3437C32.5562 34.4051 32.5325 34.4665 32.5104 34.5284C32.4895 34.5869 32.4698 34.6459 32.4499 34.705C32.4241 34.7812 32.3985 34.8576 32.3743 34.9345C32.3552 34.9951 32.337 35.0562 32.319 35.1171C32.2983 35.1869 32.2781 35.2569 32.2588 35.3273C32.2421 35.3883 32.2262 35.4498 32.2104 35.5112C32.1918 35.5845 32.1733 35.6578 32.1562 35.7316C32.1424 35.7904 32.1296 35.8496 32.1168 35.9087C32.1001 35.9862 32.0838 36.0637 32.0687 36.1415C32.0577 36.1984 32.0475 36.2555 32.0374 36.3127C32.0231 36.393 32.0094 36.4735 31.9969 36.5544C31.9878 36.6135 31.9795 36.673 31.9711 36.7323C31.9609 36.8061 31.9511 36.8798 31.9425 36.954C31.9347 37.0198 31.928 37.086 31.9214 37.1521C31.9147 37.2194 31.9082 37.2866 31.9028 37.3541C31.8964 37.4332 31.8915 37.5127 31.8867 37.5921C31.883 37.6543 31.8789 37.7164 31.8762 37.7791C31.8745 37.8174 31.8733 37.8556 31.8719 37.894C31.8681 38.0115 31.8652 38.1292 31.8652 38.2476C31.8652 38.3982 31.8692 38.5477 31.8753 38.6969C31.8762 38.7216 31.877 38.7461 31.8782 38.7706C31.8849 38.9149 31.8944 39.0583 31.9068 39.2011C31.9088 39.2245 31.9111 39.2477 31.9133 39.271C31.9271 39.4196 31.9429 39.5678 31.9626 39.7146C31.9626 39.7157 31.9628 39.7169 31.963 39.718C31.9837 39.8724 32.0078 40.0259 32.0348 40.1785C32.0362 40.1856 32.0371 40.1928 32.0385 40.1999C32.0655 40.3507 32.0958 40.5004 32.1288 40.6492C32.1311 40.6589 32.1332 40.6687 32.1354 40.6785C32.2397 41.1405 32.3725 41.5923 32.5326 42.0318C32.6339 42.3094 32.7459 42.582 32.8679 42.8494C32.8703 42.8544 32.8724 42.8593 32.8747 42.8643C32.9318 42.989 32.9917 43.1122 33.0533 43.2347C33.0637 43.2553 33.0743 43.2758 33.0848 43.2964C33.1459 43.4156 33.2085 43.5341 33.2737 43.6511C33.2743 43.652 33.2748 43.653 33.2753 43.6539C33.3495 43.7866 33.4269 43.9173 33.5064 44.0468C33.5156 44.0618 33.5246 44.0769 33.5337 44.0918C33.6113 44.2169 33.6915 44.3403 33.7739 44.4622C33.7848 44.4783 33.7956 44.4944 33.8066 44.5104C33.8907 44.6336 33.9768 44.7551 34.0657 44.8747C34.0735 44.8854 34.0816 44.8958 34.0894 44.9064C34.1827 45.0311 34.278 45.1542 34.3761 45.2749H34.376C36.5145 47.907 39.8237 49.599 43.5316 49.599V43.1125C42.6117 43.1129 41.8655 42.3868 41.8655 41.4913Z" fill="#B52928" fill-opacity="0.6"/>
<path d="M31.9648 39.7207C31.9855 39.8752 32.0096 40.0286 32.0366 40.1812C32.0096 40.0285 31.9854 39.8751 31.9648 39.7207Z" fill="#679D5F"/>
<path d="M32.9336 33.508C32.9742 33.422 33.0161 33.3367 33.0589 33.252C33.0366 33.2959 33.0132 33.3394 32.9914 33.3838C32.9714 33.4248 32.9532 33.4668 32.9336 33.508Z" fill="#679D5F"/>
<path d="M32.0391 40.2012C32.066 40.352 32.0964 40.5016 32.1294 40.6504C32.0963 40.5016 32.0661 40.3519 32.0391 40.2012Z" fill="#679D5F"/>
<path d="M32.5339 42.033C32.3738 41.5935 32.2409 41.1418 32.1367 40.6797C32.3065 41.434 32.5534 42.1603 32.8692 42.8506C32.7472 42.5832 32.6352 42.3106 32.5339 42.033Z" fill="#679D5F"/>
<path d="M33.8086 44.5117C33.8926 44.6348 33.9789 44.7564 34.0677 44.876C33.9788 44.7563 33.8926 44.6348 33.8086 44.5117Z" fill="#679D5F"/>
<path d="M32.875 42.8633C32.9323 42.988 32.9919 43.1114 33.0536 43.2337C32.992 43.1113 32.9322 42.9879 32.875 42.8633Z" fill="#679D5F"/>
<path d="M33.5352 44.0918C33.6128 44.217 33.693 44.3403 33.7754 44.4623C33.6929 44.3402 33.6128 44.2169 33.5352 44.0918Z" fill="#679D5F"/>
<path d="M33.084 43.2988C33.1451 43.418 33.2076 43.5366 33.2728 43.6535C33.2077 43.5366 33.145 43.4182 33.084 43.2988Z" fill="#679D5F"/>
<path d="M33.2754 43.6562C33.3495 43.789 33.4269 43.9197 33.5064 44.0491C33.4271 43.9195 33.3497 43.7888 33.2754 43.6562Z" fill="#679D5F"/>
<path d="M34.3206 31.293C34.2688 31.3577 34.2183 31.4231 34.168 31.4888C34.2182 31.4231 34.2688 31.3577 34.3206 31.293Z" fill="#679D5F"/>
<path d="M34.0541 31.6367C33.9976 31.713 33.9431 31.7905 33.8887 31.868C33.9431 31.7905 33.9978 31.713 34.0541 31.6367Z" fill="#679D5F"/>
<path d="M33.8015 31.9902C33.721 32.1084 33.6424 32.2281 33.5664 32.3493C33.6425 32.2282 33.7211 32.1085 33.8015 31.9902Z" fill="#679D5F"/>
<path d="M33.5141 32.4395C33.4554 32.5349 33.3975 32.6308 33.3418 32.728C33.3975 32.6308 33.4553 32.5349 33.5141 32.4395Z" fill="#679D5F"/>
<path d="M33.2723 32.8555C33.2241 32.9419 33.1768 33.0288 33.1309 33.1163C33.1768 33.0288 33.2242 32.9418 33.2723 32.8555Z" fill="#679D5F"/>
<path d="M32.8583 33.6719C32.8206 33.7552 32.7839 33.8391 32.748 33.9234C32.7841 33.8391 32.8206 33.7551 32.8583 33.6719Z" fill="#679D5F"/>
<path d="M31.8789 38.7715C31.8855 38.9157 31.8949 39.0591 31.9068 39.202C31.8948 39.0591 31.8855 38.9157 31.8789 38.7715Z" fill="#679D5F"/>
<path d="M31.9141 39.2715C31.9277 39.4202 31.9439 39.5681 31.9634 39.7152C31.9437 39.5682 31.9279 39.4202 31.9141 39.2715Z" fill="#679D5F"/>
<path d="M31.8652 38.25C31.8652 38.4006 31.8691 38.5501 31.875 38.6993C31.8691 38.5501 31.8652 38.4006 31.8652 38.25Z" fill="#679D5F"/>
<path d="M32.6759 34.0918C32.6421 34.1751 32.6099 34.2591 32.5781 34.3433C32.6099 34.2591 32.6421 34.1751 32.6759 34.0918Z" fill="#679D5F"/>
<path d="M31.8792 37.7793C31.8775 37.8176 31.8762 37.8559 31.875 37.8942C31.8762 37.8558 31.8774 37.8175 31.8792 37.7793Z" fill="#679D5F"/>
<path d="M34.0898 44.9082C34.1831 45.0329 34.2783 45.156 34.3764 45.2767H34.3765C34.2784 45.156 34.1829 45.0329 34.0898 44.9082Z" fill="#679D5F"/>
<path d="M32.0684 36.1426C32.0574 36.1995 32.0472 36.2566 32.0371 36.3138C32.0472 36.2566 32.0574 36.1995 32.0684 36.1426Z" fill="#679D5F"/>
<path d="M32.1566 35.7324C32.1428 35.7913 32.13 35.8504 32.1172 35.9096C32.13 35.8504 32.1429 35.7911 32.1566 35.7324Z" fill="#679D5F"/>
<path d="M32.2593 35.3281C32.2426 35.3892 32.2266 35.4507 32.2109 35.5121C32.2267 35.4507 32.2426 35.3893 32.2593 35.3281Z" fill="#679D5F"/>
<path d="M31.9423 36.9551C31.9348 37.0209 31.9283 37.0871 31.9219 37.1532C31.9283 37.0871 31.9348 37.0211 31.9423 36.9551Z" fill="#679D5F"/>
<path d="M32.5098 34.5273C32.4889 34.5859 32.4692 34.6448 32.4492 34.7039C32.4691 34.6449 32.4889 34.5859 32.5098 34.5273Z" fill="#679D5F"/>
<path d="M31.9727 36.7327C31.9806 36.6732 31.9889 36.6138 31.9977 36.5547C31.9941 36.5787 31.9896 36.6023 31.9862 36.6263C31.981 36.6615 31.9774 36.6973 31.9727 36.7327Z" fill="#679D5F"/>
<path d="M32.3184 35.1181C32.3363 35.0572 32.3546 34.9961 32.3737 34.9355C32.3664 34.959 32.3578 34.982 32.3507 35.0055C32.3391 35.0428 32.3294 35.0807 32.3184 35.1181Z" fill="#679D5F"/>
<path d="M31.9024 37.3555C31.896 37.4345 31.8914 37.514 31.8867 37.5934C31.8913 37.514 31.8962 37.4346 31.9024 37.3555Z" fill="#679D5F"/>
<path d="M35.6791 29.8633C35.6458 29.8927 35.6128 29.9222 35.5801 29.952C35.6129 29.9223 35.6458 29.8927 35.6791 29.8633Z" fill="#679D5F"/>
<path d="M35.0646 30.4473C35.0587 30.4534 35.0528 30.4593 35.0469 30.4655C35.0527 30.4593 35.0587 30.4534 35.0646 30.4473Z" fill="#679D5F"/>
<path d="M34.7867 30.7441C34.7731 30.7594 34.7597 30.7748 34.7461 30.7901C34.7597 30.7748 34.7731 30.7592 34.7867 30.7441Z" fill="#679D5F"/>
<path d="M35.9681 29.6152C35.9328 29.6445 35.898 29.6743 35.8633 29.7039C35.898 29.6741 35.9328 29.6445 35.9681 29.6152Z" fill="#679D5F"/>
<path d="M34.5395 31.0273C34.5177 31.053 34.4963 31.079 34.4746 31.1048C34.4964 31.0791 34.5177 31.0531 34.5395 31.0273Z" fill="#679D5F"/>
<path d="M35.3086 30.2044C35.3355 30.1784 35.363 30.1527 35.39 30.127C35.363 30.1527 35.3355 30.1783 35.3086 30.2044Z" fill="#679D5F"/>
<path d="M36.6487 29.0898C36.6141 29.1146 36.5791 29.1384 36.5449 29.1634C36.5791 29.1384 36.6141 29.1145 36.6487 29.0898Z" fill="#679D5F"/>
<path d="M36.2576 29.3809C36.2255 29.4059 36.194 29.4316 36.1621 29.457C36.194 29.4317 36.2255 29.4059 36.2576 29.3809Z" fill="#679D5F"/>
</svg>
