<svg width="373" height="230" viewBox="0 0 373 230" fill="none" xmlns="http://www.w3.org/2000/svg">
<path d="M44.7751 228.689C44.7751 228.689 -30.5395 142.042 16.2317 90.2358C63.0027 38.429 99.9695 105.684 125.534 100.729C157.895 94.4571 171.89 0.0886078 220.264 -0.000640869C275.306 -0.102768 315.705 37.2987 294.187 126.371C278.315 192.068 387.412 138.269 371.389 229.967L44.7751 228.689Z" fill="#EBF2F9"/>
<path d="M209.038 217.44C198.801 215.544 191.071 219.667 183.639 218.482C177.711 217.537 174.623 210.645 166.657 208.692C168.551 207.408 170.759 205.802 171.814 204.634C173.864 202.364 176.807 197.825 171.814 197.646C168.221 197.517 165.422 204.397 164.135 208.268C162.955 208.155 161.678 208.146 160.287 208.264C161.932 202.173 165.138 190.383 165.922 188.119C166.989 185.037 162.507 174.762 157.224 186.293C153.518 194.381 156.034 203.729 157.867 208.59C156.419 208.858 155.055 209.244 153.749 209.714C149.385 198.264 135.495 165.623 120.441 169.68C104.028 174.1 139.192 196.045 148.06 212.314C140.815 216.174 134.449 220.863 123.445 217.44C94.2024 208.339 91.8828 228.815 91.8828 228.815L222.565 228.865C222.565 228.865 219.277 219.333 209.038 217.44Z" fill="#ACD29A"/>
<path d="M173.492 143.758C173.626 145.202 175.406 145.15 177.417 144.804C179.428 144.457 178.908 145.065 181.737 145.002C184.563 144.94 185.508 143.829 185.631 143.359C185.741 142.943 184.37 142.647 182.901 142.296C182.716 142.252 182.531 142.205 182.345 142.16C180.69 141.742 179.561 140.372 178.121 139.192C176.755 138.074 175.836 132.952 175.836 132.952L171.816 132.924C171.816 132.924 173.079 137.557 173.738 139.168C174.124 140.115 173.712 141.332 173.582 142.244C173.512 142.74 173.444 143.248 173.492 143.758Z" fill="#FFB07B"/>
<path d="M177.412 144.804C179.422 144.457 178.903 145.065 181.731 145.002C184.558 144.94 185.503 143.829 185.625 143.359C185.736 142.943 184.364 142.647 182.896 142.296L182.879 142.327C182.879 142.327 181.092 143.519 178.756 143.34C176.853 143.194 174.891 142.357 173.576 142.244C173.507 142.74 173.439 143.248 173.487 143.758C173.62 145.202 175.401 145.15 177.412 144.804Z" fill="#365DA4"/>
<path d="M142.057 143.527C142.145 144.977 143.924 145.003 145.945 144.744C147.966 144.484 147.427 145.069 150.256 145.128C153.082 145.189 154.062 144.119 154.201 143.656C154.324 143.244 152.964 142.89 151.508 142.474C151.325 142.424 151.141 142.368 150.958 142.314C149.317 141.825 148.233 140.407 146.832 139.165C145.506 137.989 146.598 133.111 146.598 133.111L143.547 131.455C143.547 131.455 143.127 136.483 142.9 139.026C142.808 140.067 142.357 141.113 142.198 142.02C142.112 142.513 142.027 143.016 142.057 143.527Z" fill="#FFB07B"/>
<path d="M145.945 144.744C147.966 144.484 147.427 145.069 150.256 145.128C153.082 145.189 154.062 144.119 154.201 143.656C154.324 143.244 152.964 142.89 151.508 142.474L151.491 142.506C151.491 142.506 149.665 143.619 147.337 143.337C145.439 143.11 143.506 142.189 142.198 142.02C142.112 142.513 142.027 143.016 142.057 143.527C142.145 144.977 143.924 145.003 145.945 144.744Z" fill="#365DA4"/>
<path d="M148.917 71.1203C148.917 71.1203 148.072 75.8228 147.226 99.6732C147.226 99.6732 145.656 104.089 144.517 109.489C143.379 114.888 142.576 137.419 142.576 137.419C142.576 137.419 143.03 138.171 144.408 138.266C145.533 138.344 146.41 137.777 146.41 137.777C146.41 137.777 154.324 108.267 158.176 96.8107C162.029 85.3532 164.286 68.9953 164.286 68.9953L148.917 71.1203Z" fill="#2B478B"/>
<path d="M158.436 73.1373C158.436 73.1373 159.059 77.8851 165.449 100.597C165.449 100.597 165.306 105.365 165.865 110.883C166.424 116.402 172.892 138.13 172.892 138.13C172.892 138.13 173.75 138.473 175.039 138.082C176.236 137.719 177.177 136.891 177.177 136.891C177.177 136.891 174.697 105.834 174.86 93.5533C175.024 81.2719 172.213 65.0271 172.213 65.0271L158.436 73.1373Z" fill="#2B478B"/>
<path d="M169.747 7.36936C168.745 6.63665 167.514 6.4922 166.646 6.5009C166.881 6.25028 167.323 6.17893 167.323 6.17893C166.79 6.05536 165.568 6.59835 165.568 6.59835C158.26 2.86871 156.538 15.4152 156.569 18.3547C156.596 21.2942 156.469 24.6688 152.634 27.0827C145.089 31.834 150.873 41.2164 150.873 41.2164C149.515 45.6962 154.543 51.1836 154.543 51.1836C154.456 48.8045 163.957 33.6492 169.08 30.191C170.376 28.2174 170.962 24.634 171.005 24.3503C170.672 27.2011 170.177 28.7813 169.758 29.6637C174.15 25.4624 172.401 9.30989 169.747 7.36936Z" fill="#C65447"/>
<path d="M168.161 28.5662C168.187 28.5802 165.766 30.0264 163.943 29.4538C162.229 28.9161 161.109 26.3612 161.133 26.356C161.858 26.1906 162.069 25.0437 162.052 20.1167L162.381 20.1915L167.7 21.4028L167.898 21.4463C167.898 21.4463 167.772 23.4425 167.768 25.3239C167.766 25.7207 167.772 26.1123 167.784 26.4795C167.821 27.5707 167.927 28.4392 168.161 28.5662Z" fill="#FFB07B"/>
<path d="M167.755 25.3248C167.753 25.7217 167.759 26.1132 167.772 26.4805C164.678 26.3378 162.895 22.2705 162.221 20.4866L167.687 21.4038L167.885 21.4473C167.885 21.4473 167.759 23.4435 167.755 25.3248Z" fill="#EA8E50"/>
<path d="M161.796 19.4902C161.796 19.4902 160.178 16.5525 159.79 14.0393C159.511 12.245 160.306 5.59672 166.121 6.55394C166.121 6.55394 167.809 6.74538 169.396 7.97757C170.658 8.95741 172.48 11.072 170.442 16.8744L169.913 18.8341L161.796 19.4902Z" fill="#C65447"/>
<path d="M168.212 24.4023C168.212 24.4023 160.969 23.3023 161.635 18.1282C162.301 12.954 161.814 9.32705 166.467 9.81088C171.119 10.2947 171.761 12.4215 171.905 14.2106C172.047 15.9997 170.112 24.5554 168.212 24.4023Z" fill="#FFB07B"/>
<path d="M169.785 10.2491C169.785 10.2491 167.021 15.9802 163.868 16.3561C160.716 16.7337 159.521 15.5729 159.521 15.5729C159.521 15.5729 162.126 13.8464 163.09 10.2177C163.09 10.2177 168.668 7.10592 169.785 10.2491Z" fill="#C65447"/>
<path d="M169.207 10.657C169.207 10.657 170.509 12.2651 170.698 13.6435C170.888 15.0236 170.698 17.763 171.398 17.7891C171.398 17.7891 173.422 13.9184 172.05 11.2974C170.595 8.51976 169.207 10.657 169.207 10.657Z" fill="#C65447"/>
<path d="M217.322 80.9391C215.801 77.2385 211.577 74.1773 208.019 74.1773C205.391 74.1755 203.072 75.2074 201.278 76.886C200.251 77.8471 198.705 77.213 198.427 75.727L195.31 59.0896C194.857 56.6643 192.779 55.1219 190.667 55.6433L140.263 68.1132C138.2 68.6237 136.888 70.9581 137.332 73.3289L148.168 131.205C148.48 132.86 149.535 134.109 150.844 134.589L150.182 134.805H152.14L152.156 134.801C152.394 134.793 152.636 134.762 152.88 134.702L153.976 134.43L166.914 131.23C168.73 130.781 169.465 128.256 168.247 126.647C167.067 125.092 166.219 123.166 165.858 120.985C164.841 114.838 168.147 108.749 173.4 107.113C179.245 105.293 185.146 109.486 186.405 116.203C186.877 118.73 186.624 121.242 185.806 123.452C185.488 124.311 185.75 125.202 186.295 125.71L185.542 126.134L187.291 126.132V126.132C187.421 126.136 187.555 126.123 187.694 126.089L203.14 122.268C205.253 121.745 206.595 119.354 206.141 116.928L203.045 100.394C202.759 98.864 203.973 97.5229 205.291 97.9124C206.816 98.3627 208.454 98.4236 210.096 98.017C216.56 96.4179 220.339 88.2864 217.322 80.9391Z" fill="#D86713"/>
<path d="M206.234 74.1895C203.605 74.1877 201.286 75.2179 199.492 76.8976C198.467 77.8592 196.92 77.2259 196.64 75.7393L193.526 59.1034C193.073 56.6768 190.993 55.1342 188.882 55.6556L138.478 68.1258C136.415 68.6364 135.103 70.971 135.547 73.3398L146.384 131.217C146.845 133.678 148.953 135.243 151.094 134.713L165.129 131.242C166.945 130.793 167.681 128.268 166.461 126.658C165.282 125.104 164.435 123.178 164.074 120.997C163.055 114.85 166.361 108.761 171.616 107.125C177.461 105.305 183.362 109.498 184.619 116.215C185.093 118.742 184.839 121.254 184.02 123.464C183.488 124.9 184.582 126.429 185.909 126.101L201.355 122.28C203.466 121.757 204.81 119.366 204.355 116.939L201.261 100.406C200.972 98.8759 202.187 97.5349 203.506 97.9244C205.031 98.3747 206.667 98.4355 208.312 98.0291C214.775 96.4299 218.553 88.2984 215.535 80.9515C214.015 77.2512 209.792 74.1895 206.234 74.1895Z" fill="#F1A34F"/>
<path d="M187.785 52.1864C187.785 52.1864 190.93 52.7782 191.753 55.1277C192.577 57.4789 191.426 59.0697 190.984 59.0644C190.542 59.0592 189.693 58.6833 189.296 57.4633C188.898 56.245 187.785 52.1864 187.785 52.1864Z" fill="#FFB07B"/>
<path d="M144.512 62.6639C144.512 62.6639 148.041 62.6587 149.312 65.057C150.58 67.4553 149.574 69.4342 149.089 69.5195C148.605 69.6048 147.617 69.3698 146.992 68.1202C146.367 66.8705 144.512 62.6639 144.512 62.6639Z" fill="#FFB07B"/>
<path d="M187.875 54.9113C187.563 54.8347 186.194 54.6502 184.454 54.3352C181.249 53.7574 176.783 52.7393 175.284 51.1503C174.878 50.7187 173.932 48.3448 172.949 45.6228C171.956 51.648 171.9 56.2705 172.163 59.7896L150.506 65.1465C152.362 60.8321 155.237 55.4804 154.698 51.1503C154.498 49.5457 153.732 47.3423 153.446 44.8675C153.423 44.6552 153.402 44.4411 153.386 44.2253C150.348 47.1004 146.84 50.2714 146.755 50.9049C146.616 51.9683 148.981 63.7368 148.981 63.7368C148.394 65.2909 145.842 64.9637 145.842 64.9637C143.453 63.0023 139.937 51.8847 140.219 49.4221C140.501 46.9594 149.216 32.9232 151.325 29.5695C153.408 26.2541 161.015 26.3376 161.198 26.3393H161.2C161.201 26.3393 161.201 26.3393 161.203 26.3393C167.251 30.5145 167.797 27.0442 167.797 27.0442C167.797 27.0442 173.255 28.2363 174.192 30.0899C175.131 31.9434 179.245 45.997 179.535 46.4913C180.144 47.5268 190.087 51.6672 190.266 52.8663C190.446 54.0654 188.767 55.1288 187.875 54.9113Z" fill="#80BDCC"/>
<path d="M158.045 63.2877L150.494 65.1465C152.375 60.8425 154.846 55.4839 154.305 51.1799C154.104 49.5735 153.65 47.673 153.432 45.186C153.41 44.9475 153.374 44.2253 153.374 44.2253C153.374 44.2253 158.722 49.0636 158.816 54.2986C158.866 57.0154 158.452 60.5675 158.045 63.2877Z" fill="#5F9AA8"/>
<path d="M184.652 54.3672C181.409 53.7894 176.887 52.7713 175.37 51.1823C174.959 50.7489 174.001 48.3733 173.006 45.6479C173.006 45.6479 172.658 41.2673 173.654 41.4309C174.65 41.5945 176.116 49.3636 177.162 49.8544C178.098 50.2947 183.273 52.5781 184.652 54.3672Z" fill="#5F9AA8"/>
<path d="M344.437 221.253C343.98 223.025 341.867 224.205 341.584 226.37C341.446 227.427 341.103 228.247 340.667 228.811H334.096C334.161 228.395 334.45 227.947 335.303 227.733C337.129 227.274 337.816 224.731 337.706 222.369C337.657 221.381 337.68 220.251 337.723 219.275C337.779 217.922 337.875 216.861 337.875 216.861L341.755 215.811L342.163 216.413L342.552 216.993C342.552 216.993 344.892 219.484 344.437 221.253Z" fill="#2C3A64"/>
<path d="M313.843 228.811H300.549C300.849 228.405 301.359 228.013 302.224 227.851C304.27 227.47 307.812 226.106 308.604 223.098C308.629 223.003 308.651 222.904 308.67 222.803C309.298 219.59 313.862 223.788 313.862 223.788C313.862 223.788 313.877 223.917 313.899 224.134C313.979 225.039 314.155 227.493 313.843 228.811Z" fill="#2C3A64"/>
<path d="M302.766 143.677C302.766 143.677 303.458 153.618 304.274 165.568C305.381 181.8 306.71 201.74 306.843 205.516C307.072 212.076 307.985 222.567 307.985 222.567C307.985 222.567 310.15 225.059 314.489 224.01C314.489 224.01 318.352 209.032 319.457 193.186C319.475 192.925 319.49 192.664 319.51 192.403C320.535 176.269 322.131 142.3 322.131 142.3L302.766 143.677Z" fill="#35488B"/>
<path d="M302.766 143.677C302.766 143.677 303.458 153.618 304.274 165.568L319.457 193.186C319.475 192.924 319.49 192.663 319.51 192.402C320.535 176.269 322.131 142.3 322.131 142.3L302.766 143.677Z" fill="#2C3A64"/>
<path d="M305.922 144.856C305.922 144.856 318.417 180.86 326.631 197.778C334.847 214.698 337.415 219.42 337.415 219.42C337.415 219.42 342.122 217.255 342.549 215.779C342.549 215.779 339.408 183.115 333.906 175.153C330.797 170.654 327.144 157.152 326.973 152.431C326.803 147.709 325.862 138.364 325.862 138.364L305.922 144.856Z" fill="#35488B"/>
<path d="M312.328 89.2769C311.772 85.5066 311.754 83.2717 311.754 83.2717L318.093 77.3994C317.859 85.4741 322.36 89.357 322.36 89.357C322.36 89.357 313.912 94.1367 309.029 92.3665C309.029 92.3665 310.232 90.6003 312.328 89.2769Z" fill="#935C2F"/>
<path d="M310.258 83.1443C310.258 83.1443 318.323 84.6842 319.08 78.8967C319.837 73.109 321.389 69.4098 316.27 68.1818C311.154 66.9541 309.862 68.9892 309.202 70.8503C308.54 72.7117 308.181 82.5944 310.258 83.1443Z" fill="#A16D3C"/>
<path d="M281.939 95.075L280.221 93.853C280.221 93.853 278.081 90.2203 274.425 92.4773C274.425 92.4773 272.977 93.5385 273.949 94.4276C274.922 95.3163 274.66 94.8143 276.005 96.1018C277.352 97.3892 279.093 97.8492 280.219 97.1394L281.661 96.9829L281.939 95.075Z" fill="#A16D3C"/>
<path d="M279.893 95.4532C280.334 93.8627 280.545 93.7226 280.545 93.7226C280.545 93.7226 294.431 95.6083 295.74 95.7196C297.047 95.8311 315.228 91.5255 315.228 91.5255L323.811 103.507C323.811 103.507 298.502 104.604 295.19 104.247C289.718 103.657 279.791 97.8001 279.791 97.8001C279.791 97.8001 279.545 96.7023 279.893 95.4532Z" fill="#D3782F"/>
<path d="M326.808 140.202C326.833 140.82 325.725 141.499 325.242 141.748C321.619 143.615 318.244 144.914 314.431 145.335C309.905 145.869 304.559 144.699 302.725 144.727C302.529 144.727 302.359 144.644 302.214 144.503C302.091 144.39 301.993 138.038 302.091 130.029C302.091 129.72 302.091 129.381 302.115 129.072V128.961C302.122 128.127 302.133 127.279 302.149 126.423C302.194 124.083 302.27 121.68 302.359 119.292C302.491 115.771 302.674 112.312 302.926 109.246C303.19 106.045 303.523 103.272 303.947 101.306C304.926 96.7813 307.175 93.8012 309.228 91.6091L310.915 89.8964C312.603 90.289 314.388 90.176 316.173 89.1653C318.105 88.0691 320.207 86.8882 320.549 87.1697C323.156 89.409 324.91 94.4932 325.81 100.954C326.295 104.432 326.529 108.307 326.516 112.354C326.511 113.906 326.469 115.482 326.393 117.072C325.957 125.606 326.404 133.004 326.659 137.305C326.732 138.541 326.793 139.525 326.808 140.202Z" fill="#E69D43"/>
<path d="M283.952 61.3099L232.952 51.9995C230.78 51.6036 228.744 53.3035 228.4 55.7962L226.142 72.1361C226.037 72.8929 226.206 75.0199 226.206 75.0199L228.043 75.3343C228.149 75.3604 228.254 75.379 228.362 75.3891C228.694 75.4197 229.041 75.3721 229.388 75.2281C231.079 74.5246 232.952 74.3107 234.857 74.7123C240.226 75.8439 243.983 81.6019 243.409 87.8414C242.774 94.7815 237.227 99.6064 231.308 98.526C229.081 98.1195 227.129 96.9369 225.628 95.2563C225.338 94.9304 224.987 94.7584 224.634 94.7165L222.71 94.3847L220.315 114.317C219.974 116.775 221.433 119.084 223.572 119.475L238.142 122.134C239.491 122.38 240.142 124.171 239.347 125.447C238.429 126.923 237.787 128.66 237.522 130.573C236.482 138.099 241.728 145.104 248.798 144.521C252.357 144.228 256.377 140.797 257.666 136.972C258.62 134.148 258.62 131.283 257.903 128.747C257.493 127.297 258.568 125.863 259.879 126.103L274.538 128.779C276.676 129.169 278.686 127.494 279.025 125.036L287.134 66.3473C287.464 63.9467 286.042 61.6914 283.952 61.3099Z" fill="#4A75CB"/>
<path d="M320.744 100.784C320.744 100.784 316.834 121.754 302.158 126.426C302.204 124.085 302.279 121.682 302.369 119.294C302.501 115.774 302.681 112.314 302.934 109.249C303.197 109.093 303.441 108.972 303.667 108.887C308.646 107 320.744 100.784 320.744 100.784Z" fill="#D3782F"/>
<path d="M255.774 136.644C256.727 133.82 256.729 130.955 256.012 128.419C255.602 126.969 256.677 125.536 257.988 125.774L272.648 128.451C274.785 128.841 276.793 127.165 277.132 124.708L285.243 66.0194C285.574 63.6188 284.15 61.3634 282.062 60.9823L231.059 51.6716C228.89 51.2759 226.854 52.9757 226.509 55.4683L224.251 71.8082C223.96 73.9219 225.747 75.6286 227.497 74.9C229.187 74.1965 231.063 73.9827 232.966 74.3843C238.336 75.5156 242.091 81.274 241.519 87.5134C240.883 94.4536 235.335 99.2782 229.417 98.1979C227.19 97.7913 225.239 96.6092 223.736 94.9283C222.762 93.8361 221.122 94.4577 220.908 96.0036L218.424 113.989C218.085 116.447 219.543 118.756 221.68 119.147L236.25 121.806C237.599 122.052 238.251 123.843 237.456 125.119C236.537 126.595 235.896 128.331 235.632 130.245C234.59 137.771 239.837 144.775 246.906 144.193C250.466 143.9 254.487 140.469 255.774 136.644Z" fill="#699DEE"/>
<path d="M282.006 108.595L279.908 108.197C279.908 108.197 277.518 104.22 273.352 106.451C273.352 106.451 271.699 107.513 272.792 108.508C273.885 109.502 273.593 108.954 275.107 110.392C276.621 111.829 278.592 112.403 279.871 111.701L281.506 111.603L282.006 108.595Z" fill="#A16D3C"/>
<path d="M280.385 109.82C280.452 108.047 281.274 107.857 281.274 107.857C281.274 107.857 297.16 106.649 298.53 106.344C299.899 106.039 312.55 93.9896 312.55 93.9896C312.55 93.9896 317.444 88.935 320.872 90.6406C323.851 92.1227 324.783 95.0469 324.934 97.7359C325.112 100.94 323.538 103.936 321.008 105.295C315.327 108.346 303.964 114.333 301.376 114.85C295.617 116 280.812 112.315 280.812 112.315C280.812 112.315 280.332 111.213 280.385 109.82Z" fill="#E69D43"/>
<path d="M309.196 70.852C309.196 70.852 305.924 68.062 308.059 63.727C308.059 63.727 310.632 64.7085 314.29 63.727C317.949 62.7456 321.222 64.136 321.649 65.608C321.649 65.608 323.072 66.2627 323.215 68.7162C323.357 71.1697 319.076 78.8984 319.076 78.8984C319.076 78.8984 318.162 77.5902 318.41 76.6906C318.66 75.7908 319.443 73.787 318.483 73.787C317.522 73.787 317.202 75.423 316.81 74.7684C316.421 74.114 317.131 71.3741 315.994 70.9245C314.854 70.4746 310.478 71.6793 309.196 70.852Z" fill="#2C3A64"/>
<path d="M197.96 226.722L183.543 151.48H187.511C188.453 151.48 189.222 150.596 189.222 149.513V146.972C189.222 145.892 188.453 145.007 187.511 145.007H137.17C136.229 145.007 135.46 145.892 135.46 146.972V149.513C135.46 150.596 136.229 151.48 137.17 151.48H142.28L127.863 226.722C127.669 227.733 128.228 228.744 129.104 228.967C129.982 229.192 130.859 228.546 131.053 227.535L145.626 151.48H180.197L194.77 227.535C194.964 228.546 195.84 229.192 196.717 228.967C197.595 228.744 198.154 227.733 197.96 226.722Z" fill="#C3E0F4"/>
<path d="M293.571 180.642C288.233 174.754 269.023 211.908 269.023 211.908C269.023 211.908 298.907 186.532 293.571 180.642Z" fill="#ACD29A"/>
<path d="M292.912 197.818C288.187 195.646 273.09 213.941 269.689 218.165C267.089 217.768 264.234 217.511 261.107 217.446C237.202 216.956 226.357 229.401 226.357 229.401L293.045 229.662C293.045 229.662 287.137 221.04 270.379 218.275C274.475 216.052 286.586 209.576 290.991 208.332C296.327 206.823 298.247 200.27 292.912 197.818Z" fill="#ACD29A"/>
<path d="M274.107 160.536H259.712C257.849 160.536 256.665 162.832 257.564 164.704C258.433 166.514 255.374 182.193 248.927 182.602C242.864 182.987 237.849 177.427 237.849 170.538C237.849 167.947 238.559 165.545 239.766 163.578C240.552 162.299 239.76 160.536 238.4 160.536H222.556C220.391 160.536 218.636 162.553 218.636 165.042C218.636 165.042 217.199 184.588 215.978 183.887C214.72 183.165 213.318 182.724 211.836 182.637V182.635H211.82C211.644 182.625 211.466 182.62 211.286 182.62C211.108 182.62 208.5 182.568 208.5 182.568L208.104 206.722L210.369 206.75C212.523 206.675 214.392 206.444 216.055 205.471C217.236 204.778 218.636 205.774 218.636 207.298V224.361C218.636 226.848 220.391 228.865 222.554 228.865H274.252C276.366 228.865 278.081 226.895 278.081 224.464V165.105C278.081 162.581 276.301 160.536 274.107 160.536Z" fill="#D86713"/>
<path d="M206.161 206.436C208.738 207.075 211.199 206.626 213.266 205.415C214.447 204.722 215.849 205.719 215.849 207.244V224.305C215.849 226.793 217.604 228.811 219.767 228.811H271.463C273.579 228.811 275.293 226.84 275.293 224.409V165.05C275.293 162.526 273.513 160.479 271.318 160.479H256.924C255.062 160.479 253.877 162.775 254.778 164.649C255.647 166.459 256.124 168.553 256.078 170.777C255.948 177.05 251.591 182.217 246.139 182.548C240.077 182.913 235.06 177.372 235.06 170.483C235.06 167.892 235.772 165.49 236.98 163.523C237.764 162.244 236.972 160.479 235.613 160.479H219.769C217.604 160.479 215.849 162.498 215.849 164.987V181.944C215.849 183.513 214.413 184.533 213.191 183.832C211.78 183.021 210.186 182.563 208.499 182.563C201.871 182.563 196.676 189.619 198.285 197.553C199.096 201.547 202.673 205.573 206.161 206.436Z" fill="#F1A34F"/>
<path d="M56.4677 229.14L65.7591 229.219C65.7591 229.219 65.4358 226.634 59.1813 225.968C56.7565 218.226 49.633 197.399 43.4472 198.383C37.3397 199.355 51.8044 218.463 57.6889 225.893C56.8563 225.895 56.0801 225.971 55.3638 226.103C53.9463 222.859 51.1356 218.273 46.6247 218.482C41.8239 218.705 48.3643 223.745 52.8672 226.84C50.5864 227.779 49.3547 229.081 49.3547 229.081L56.3622 229.14C56.4447 229.191 56.4894 229.219 56.4894 229.219C56.4894 229.219 56.4821 229.191 56.4677 229.14Z" fill="#ACD29A"/>
<path d="M89.6814 142.836L91.0561 144.119C91.0561 144.119 94.817 142.568 95.6657 147.706C95.6657 147.706 95.8917 149.895 94.6853 149.898C93.4788 149.904 93.9765 149.66 92.2682 149.717C90.5598 149.775 89.1438 148.739 88.8935 147.145L88.0762 145.795L89.6814 142.836Z" fill="#EA8E50"/>
<path d="M89.53 145.591C90.6267 144.275 90.5384 143.302 90.5384 143.302C90.5384 143.302 77.8378 131.349 76.5497 130.375C75.672 129.712 66.3186 120.18 61.9464 114.37C59.7777 111.487 57.0913 112.606 54.0179 113.619L51.4868 114.454C48.4304 115.462 47.6355 120.375 50.1433 122.763C57.2058 129.487 68.9546 137.051 71.1528 138.64C76.61 142.587 87.292 147.275 87.292 147.275C87.292 147.275 88.5881 146.722 89.53 145.591Z" fill="#1E3D70"/>
<path d="M104.381 218.905C104.381 218.905 107.463 221.559 112.186 220.158C112.186 220.158 115.994 219.159 116.828 221.343C116.828 221.343 110.989 224.753 109.511 225.686C108.398 226.389 107.235 227.497 106.413 228.355C105.763 229.034 104.75 228.942 104.196 228.159C103.939 227.797 103.645 227.363 103.323 226.862C102.422 225.459 100.324 220.929 100.324 220.929L104.381 218.905Z" fill="#233862"/>
<path d="M105.833 217.673C105.833 217.673 103.956 222.647 99.6236 221.734C99.6236 221.734 90.7831 213.341 84.7192 204.624C82.7499 201.792 81.073 198.926 80.0876 196.303C76.0665 185.601 65.2131 169.64 58.3125 161.551L75.5773 154.372C75.5773 154.372 81.1074 167.159 88.4651 182.866C93.7679 194.182 100.018 207.015 105.833 217.673Z" fill="#2B478B"/>
<path d="M88.4649 182.873L84.7191 204.631C82.7497 201.799 81.0729 198.933 80.0875 196.31C76.0664 185.608 65.2131 169.647 58.3125 161.558L75.5772 154.379C75.5772 154.379 81.1072 167.166 88.4649 182.873Z" fill="#233862"/>
<path d="M74.3142 221.727C74.3142 221.727 74.126 225.695 78.3122 226.226C78.3122 226.226 80.7042 226.24 80.7111 228.765L68.5446 228.811C68.5446 228.811 68.1913 227.791 68.1057 225.608C68.0398 223.932 69.519 219.55 69.519 219.55L74.3142 221.727Z" fill="#233862"/>
<path d="M69.9045 154.372C69.9045 154.372 77.5957 164.087 82.478 181.589C85.1344 191.11 77.6092 215.053 76.1422 223.37C76.1422 223.37 71.0941 223.862 67.6424 222.329C67.6424 222.329 67.3802 205.148 69.3989 191.906C70.5286 184.495 59.272 176.056 54.3533 162.665C51.0072 153.556 55.0779 153.711 60.0806 153.492L69.9045 154.372Z" fill="#2B478B"/>
<path d="M61.0393 111.033C56.7602 113.811 48 111.249 48 111.249C48 111.249 51.5576 106.574 49.941 99.0445L53.3009 101.006L56.9099 103.113C56.9099 103.113 57.1431 104.442 57.3054 106.831C57.3467 107.446 57.3837 108.133 57.4092 108.884C59.6063 109.649 61.0393 111.033 61.0393 111.033Z" fill="#FFB07B"/>
<path d="M76.7358 153.872C76.7358 154.735 75.8694 155.15 75.6853 155.191C73.9595 155.555 69.1404 157.71 64.7991 158.204C61.1437 158.644 57.7497 158.225 54.0212 157.365C53.5276 157.25 52.3684 156.892 52.2861 156.349C52.1833 155.753 37.9043 122.888 49.0046 108.771C49.2652 108.44 51.4564 109.036 53.4601 109.583C55.3106 110.087 57.008 109.806 58.5239 109.107L60.403 110.244C62.7106 111.722 67.0772 116.973 67.588 121.094C67.8475 123.189 68.8901 124.741 69.1917 126.584C69.3038 127.266 69.4182 127.933 69.5347 128.582C69.7621 129.855 69.9966 131.066 70.2377 132.218C70.8904 135.335 71.5796 138.018 72.2564 140.336C72.9765 142.796 73.6828 144.843 74.3137 146.556C75.132 148.776 75.8237 150.437 76.2558 151.707C76.561 152.602 76.7358 153.303 76.7358 153.872Z" fill="#2A4E96"/>
<path d="M76.2466 151.707C56.09 140.79 49.1094 119.83 49.1094 119.83C49.1094 119.83 65.486 126.774 69.5254 128.581C69.7528 129.855 69.9873 131.066 70.2284 132.218C70.8811 135.335 71.5703 138.018 72.2471 140.336C72.9672 142.796 73.6735 144.843 74.3044 146.555C75.1228 148.776 75.8144 150.437 76.2466 151.707Z" fill="#1E3D70"/>
<path d="M133.176 128.49L128.858 112.753C128.438 111.225 127.063 110.501 125.861 110.89L125.858 110.891C125.795 110.912 125.731 110.937 125.669 110.964L124.155 111.545C124.155 111.545 121.784 114.351 120.084 114.916C114.854 116.656 109.89 113.452 107.983 107.592C105.86 101.073 108.322 93.9152 114.023 91.8489C115.973 91.1419 119.811 92.4594 119.811 92.4594L121.352 91.8708C122.19 91.5782 122.764 90.5403 122.465 89.4508L117.713 72.1303C117.063 69.7616 114.868 68.4476 112.807 69.1943L98.7758 74.2814C97.4772 74.7513 96.2024 73.4878 96.4167 71.9423C96.6644 70.155 96.5642 68.2771 96.0586 66.434C94.07 59.1853 86.6739 55.621 80.5913 59.7614C77.5289 61.8446 75.2719 66.9648 75.603 71.0373C75.8477 74.0465 76.9571 76.6031 78.5794 78.4984C79.5069 79.5826 79.1027 81.4135 77.8411 81.8695L63.7223 86.988C61.6636 87.7346 60.5211 90.2582 61.1703 92.6246L76.6776 149.148C77.3118 151.459 79.4567 152.742 81.4681 152.012L130.587 134.207C132.675 133.45 133.834 130.89 133.176 128.49Z" fill="#4A75CB"/>
<path d="M74.1011 71.6171C74.3458 74.6262 75.4552 77.1829 77.0777 79.0782C78.005 80.1624 77.6008 81.9916 76.3392 82.4493L62.2205 87.5678C60.1618 88.3144 59.0191 90.8378 59.6683 93.2044L75.1757 149.728C75.8099 152.039 77.9548 153.322 79.9662 152.592L129.085 134.787C131.174 134.03 132.333 131.47 131.674 129.07L127.356 113.333C126.797 111.297 124.543 110.689 123.262 112.236C122.026 113.729 120.436 114.879 118.582 115.497C113.352 117.236 107.769 114.021 105.861 108.16C103.739 101.642 106.821 94.4949 112.521 92.4285C114.665 91.6513 116.865 91.7073 118.856 92.4385C120.149 92.9136 121.372 91.5192 120.963 90.0304L116.211 72.7083C115.561 70.3414 113.365 69.0274 111.306 69.774L97.274 74.8612C95.9755 75.3311 94.7006 74.0676 94.9149 72.5221C95.1624 70.7347 95.0623 68.8568 94.5566 67.0137C92.5681 59.765 85.1724 56.2007 79.0896 60.3393C76.027 62.4243 73.7699 67.5446 74.1011 71.6171Z" fill="#699DEE"/>
<path d="M88.0279 145.382L89.7697 146.116C89.7697 146.116 93.2579 143.281 95.4292 147.891C95.4292 147.891 96.2149 149.905 94.9715 150.342C93.728 150.78 94.1801 150.368 92.4324 151.038C90.6848 151.706 88.963 151.224 88.3029 149.79L87.1191 148.791L88.0279 145.382Z" fill="#FFB07B"/>
<path d="M89.4581 148.213C90.1022 146.281 90.3964 145.405 90.3964 145.405C90.3964 145.405 77.2351 133.074 75.8942 132.017C74.9802 131.296 65.8827 123.479 61.4474 117.387C59.2472 114.366 55.7781 112.984 52.423 113.793L49.6602 114.459C46.3241 115.263 45.2402 120.117 47.8281 122.667C55.1166 129.85 67.4095 138.18 69.7015 139.912C75.3915 144.213 87.9769 150.24 87.9769 150.24C87.9769 150.24 88.9526 149.729 89.4581 148.213Z" fill="#2A4E96"/>
<path d="M57.2942 106.832C53.0862 107.104 50.3496 103.11 50.3496 103.11C50.3496 103.11 52.2521 101.899 53.2895 101.007L56.8987 103.114C56.8987 103.114 57.1319 104.444 57.2942 106.832Z" fill="#EA8E50"/>
<path d="M59.0796 101.861C59.0796 101.861 52.7037 107.121 49.9154 102.506C47.1271 97.8916 44.4263 95.4627 48.3792 91.9095C52.3323 88.3557 54.1956 89.4791 55.4522 90.759C56.7088 92.039 60.6662 100.374 59.0796 101.861Z" fill="#FFB07B"/>
<path d="M56.135 86.595C55.9064 84.8216 55.3921 83.5737 55.3921 83.5737C55.3921 83.5737 54.9919 85.4794 51.9628 85.2166C48.9339 84.9538 44.133 85.5578 42.5326 89.526C42.4307 89.7786 42.34 90.0386 42.2594 90.3043C41.9697 89.4247 41.8999 88.1057 41.8999 88.1057C41.3243 89.8146 41.8999 91.9512 41.8999 91.9512H41.9C41.8915 92.0134 41.8843 92.0759 41.8764 92.1383C41.2081 92.788 40.6465 94.8074 40.6465 94.8074C40.8483 94.2446 41.3402 93.8768 41.779 93.6504C41.7654 96.7376 42.8545 99.7558 44.7663 100.654C47.5621 101.968 47.5398 100.966 50.3515 103.109C50.3515 103.109 51.1055 102.034 50.5913 101.311C50.0767 100.589 48.1337 99.5376 49.2196 98.4864C50.3055 97.4354 50.7055 98.6178 51.1055 97.8952C51.5057 97.1724 49.5054 95.0702 52.0771 93.0996C54.6491 91.1287 56.3637 88.3685 56.135 86.595Z" fill="#233862"/>
<path d="M220.279 228.832C220.279 228.832 217.054 223.353 212.009 223.795C210.474 223.929 207.983 224.359 205.088 224.817C202.904 216.059 196.887 195.244 188.77 194.071C180.483 192.875 196.702 216.024 203.335 225.089C202.127 225.271 200.869 225.451 199.602 225.609C196.089 221.298 189.969 214.912 184.859 215.403C179.738 215.896 189.328 221.984 196.252 225.966C192.003 226.331 187.975 226.291 185.515 225.198C179.487 222.52 173.947 228.832 173.947 228.832H220.279Z" fill="#82B378"/>
<path d="M357.121 230H25.3768C25.1697 230 25 229.788 25 229.528V229.368C25 229.108 25.1697 228.896 25.3768 228.896H357.121C357.328 228.896 357.499 229.108 357.499 229.368V229.528C357.499 229.788 357.328 230 357.121 230Z" fill="#2E3552"/>
</svg>
