<svg width="32" height="32" viewBox="0 0 45 45" fill="none" xmlns="http://www.w3.org/2000/svg">
<path d="M45 22.5C45 10.0735 34.9265 0 22.5003 0C10.0735 0 0 10.0735 0 22.5C0 34.9265 10.0735 45 22.5003 45C34.9265 45 45 34.9265 45 22.5Z" fill="#B52928"/>
<path d="M25.3874 33.8809H20.1719V27.7948H25.3874V33.8809Z" fill="#D89E81"/>
<path d="M26.0256 31.4206C26.0256 31.4206 30.9845 32.192 31.7167 33.0037C32.3545 33.7107 33.6804 40.4809 33.9869 41.9668C25.281 41.9668 22.7852 41.9668 22.7852 41.9668V31.7075L26.0256 31.4206Z" fill="#D3E5EE"/>
<path d="M22.7852 10.3789C25.3174 10.3789 29.3219 11.9112 29.3219 19.09C29.3219 23.2349 28.0523 25.9501 27.4989 26.7015C26.99 27.3925 24.1278 28.8652 22.7852 28.8652C22.7852 21.6101 22.7852 10.3789 22.7852 10.3789Z" fill="#F3D4B3"/>
<path d="M30.5768 20.8023C30.6884 19.6553 30.1749 18.6374 29.4301 18.5284C28.6848 18.4198 27.9905 19.2615 27.8786 20.4087C27.7667 21.5555 28.2804 22.5732 29.0259 22.682C29.7705 22.7906 30.4651 21.9488 30.5768 20.8023Z" fill="#E9B89D"/>
<path d="M22.779 10.3789C20.2467 10.3789 16.2422 11.9112 16.2422 19.09C16.2422 23.2349 17.5119 25.9501 18.065 26.7015C18.5743 27.3925 21.4362 28.8652 22.779 28.8652C22.779 21.6101 22.779 10.3789 22.779 10.3789Z" fill="#F3D4B3"/>
<path d="M14.982 20.8023C14.8705 19.6553 15.3841 18.6374 16.1289 18.5284C16.8742 18.4198 17.5685 19.2615 17.6802 20.4087C17.7921 21.5555 17.2783 22.5732 16.5333 22.682C15.7882 22.7906 15.0937 21.9488 14.982 20.8023Z" fill="#F3D4B3"/>
<path d="M19.5394 31.4206C19.5394 31.4206 14.5805 32.192 13.8485 33.0037C13.2105 33.7107 11.8851 40.4809 11.5781 41.9668C20.2843 41.9668 22.7798 41.9668 22.7798 41.9668V31.7075L19.5394 31.4206Z" fill="#D3E5EE"/>
<path d="M22.7804 31.7079L20.1329 30.5747L19.4805 31.2795L20.7979 34.3887L22.7804 31.7079Z" fill="white"/>
<path d="M22.7852 31.7079L25.4331 30.5747L26.0853 31.2795L24.7676 34.3887L22.7852 31.7079Z" fill="white"/>
<path d="M29.4607 18.6986C29.4607 18.6986 31.6039 8.30103 22.7366 8.30103C13.823 8.30103 16.0605 18.412 16.0605 18.412C16.0605 18.412 17.2786 17.6698 17.2786 20.9883C17.7605 20.9883 17.5022 20.9883 17.5022 20.9883C17.5022 20.9883 17.934 18.7632 18.065 16.7685C21.1996 16.7685 23.9724 16.341 26.303 14.2881C27.6268 14.2881 27.807 16.0425 27.807 17.3848L27.2272 17.6238C27.2272 17.6238 27.7885 18.7929 27.8286 20.9883C28.2304 20.9883 28.2304 20.9883 28.2304 20.9883C28.2304 20.9883 28.1711 17.3275 29.4607 18.6986Z" fill="#855533"/>
<path d="M22.7795 26.1562C23.9597 26.1562 24.9166 25.7413 24.9166 25.2296H20.6426C20.6426 25.7413 21.5992 26.1562 22.7795 26.1562Z" fill="white"/>
<path d="M33.9798 41.6142C33.9798 42.058 33.6926 42.4975 33.1345 42.9076C32.5764 43.3177 31.7584 43.6903 30.7272 44.0041C29.696 44.3179 28.4718 44.5669 27.1244 44.7368C25.7771 44.9066 24.333 44.994 22.8747 44.994C21.4163 44.994 19.9723 44.9066 18.6249 44.7368C17.2776 44.5669 16.0534 44.3179 15.0222 44.0041C13.9909 43.6903 13.1729 43.3177 12.6149 42.9076C12.0568 42.4975 11.7695 42.058 11.7695 41.6142L22.8747 41.6142H33.9798Z" fill="#D3E5EE"/>
</svg>
