<svg width="35" height="31" viewBox="0 0 35 31" fill="none" xmlns="http://www.w3.org/2000/svg">
<path d="M15.128 1.7832L19.6954 6.25746L14.2145 11.6266H34.3114V19.6802H14.2145L19.6954 25.0493L15.128 29.5235L0.96875 15.6534L15.128 1.7832Z" fill="#8E7D7D"/>
<path d="M15.128 29.5224L19.6954 25.0482L14.2145 19.6791H34.3114V15.6523H0.96875L15.128 29.5224Z" fill="#8E7D7D"/>
<path d="M15.13 30.4743L0 15.6532L15.13 0.832031L20.6684 6.25725L15.8739 10.9538H35V20.3524H15.8739L20.6684 25.049L15.13 30.4743ZM1.94168 15.6532L15.13 28.5723L18.7266 25.0491L12.5592 19.0076H33.6269V12.299H12.5592L18.7266 6.25745L15.13 2.73428L1.94168 15.6532Z" fill="#8E7D7D"/>
<path d="M5.96834 17.4729L14.418 25.75L15.3888 24.799L6.93919 16.5218L5.96834 17.4729Z" fill="white"/>
</svg>
