<svg width="23" height="31" viewBox="0 0 23 31" fill="none" xmlns="http://www.w3.org/2000/svg">
<path d="M11.699 21.0604C11.699 17.8318 14.5662 15.2054 18.0906 15.2054C18.8017 15.2054 19.4851 15.3139 20.1245 15.5111L20.6564 9.66406H0.458984L2.04067 27.0503C2.20976 28.9093 3.93743 30.3656 5.97397 30.3656H15.1415C17.1779 30.3656 18.9057 28.9093 19.0748 27.0503L19.0936 26.8426C18.7667 26.89 18.4318 26.9154 18.0906 26.9154C14.5663 26.9154 11.699 24.2889 11.699 21.0604Z" fill="#D80000"/>
<path d="M18.0914 16.5645C15.3853 16.5645 13.1836 18.5813 13.1836 21.0603C13.1836 23.5392 15.3853 25.5561 18.0914 25.5561C20.7975 25.5561 22.9992 23.5392 22.9992 21.0603C22.9992 18.5813 20.7975 16.5645 18.0914 16.5645ZM20.4992 22.3048C20.7889 22.5703 20.7889 23.0005 20.4992 23.266C20.3544 23.3986 20.1645 23.465 19.9746 23.465C19.7848 23.465 19.5948 23.3986 19.4499 23.266L18.0914 22.0214L16.7329 23.266C16.588 23.3986 16.3981 23.465 16.2082 23.465C16.0184 23.465 15.8284 23.3986 15.6835 23.266C15.3938 23.0005 15.3938 22.5703 15.6835 22.3048L17.042 21.0603L15.6835 19.8158C15.3938 19.5503 15.3938 19.12 15.6835 18.8546C15.9733 18.5893 16.443 18.5893 16.7327 18.8546L18.0913 20.0991L19.4499 18.8546C19.7398 18.5893 20.2095 18.5893 20.4992 18.8546C20.7889 19.12 20.7889 19.5503 20.4992 19.8158L19.1407 21.0603L20.4992 22.3048Z" fill="#D80000"/>
<path d="M7.51489 3.32765C7.51489 2.64072 8.12499 2.08184 8.87487 2.08184H12.2038C12.9538 2.08184 13.5639 2.64072 13.5639 3.32765V4.17665H15.0477V3.32765C15.0478 1.89132 13.772 0.722656 12.2039 0.722656H8.87497C7.30702 0.722656 6.03125 1.89132 6.03125 3.32765V4.17665H7.51489V3.32765Z" fill="#D80000"/>
<path d="M21.1149 7.07163C21.1149 6.22332 20.3616 5.5332 19.4355 5.5332H1.67941C0.753366 5.5332 0 6.22332 0 7.07163V8.30017H21.1149V7.07163Z" fill="#D80000"/>
</svg>
