<svg width="32" height="26" viewBox="0 0 51 40" fill="none" xmlns="http://www.w3.org/2000/svg">
<path d="M50.998 28.5936C50.998 26.8078 49.7697 25.2997 48.0684 24.7316V10.5228L50.998 9.39185L25.998 0L0.998047 9.39185L25.998 18.7838L45.1387 11.6243V24.7316C43.4373 25.2997 42.209 26.8078 42.209 28.5936C42.209 30.2285 43.2402 31.6319 44.7188 32.2951L42.2849 39.1321L45.0629 40L46.6035 35.6724L48.1441 40L50.9222 39.1321L48.4882 32.2951C49.9668 31.632 50.998 30.2286 50.998 28.5936Z" fill="#126AA0"/>
<path d="M25.998 21.7398L12.8145 16.7832V20.3642C12.8145 24.274 18.4821 27.222 25.998 27.222C33.514 27.222 39.1816 24.274 39.1816 20.3642V16.7832L25.998 21.7398Z" fill="#126AA0"/>
</svg>
