<svg width="30" height="40" viewBox="0 0 30 40" fill="none" xmlns="http://www.w3.org/2000/svg">
<path d="M20.1425 9.82119V0H15V16.9231H23.8232V20.4396H15V23.0769H23.8232V26.5934H15V29.2308H23.8232V32.7473H15V40H29.9995V9.82119H20.1425Z" fill="#8E7D7D" fill-opacity="0.8"/>
<path d="M6.17627 32.7473V29.2308H14.9995V26.5934H6.17627V23.0769H14.9995V20.4396H6.17627V16.9231H14.9995V0H0V40H14.9995V32.7473H6.17627Z" fill="#8E7D7D" fill-opacity="0.4"/>
<path d="M29.9995 9.82119L20.1426 0V9.82119H29.9995Z" fill="#8E7D7D"/>
<path d="M23.8223 16.9219H6.17578V20.4384H23.8223V16.9219Z" fill="#005ECE"/>
<path d="M23.8223 29.2305H6.17578V32.747H23.8223V29.2305Z" fill="#005ECE"/>
<path d="M23.8223 23.0781H6.17578V26.5946H23.8223V23.0781Z" fill="#005ECE"/>
</svg>
