<svg width="150" height="150" viewBox="0 0 150 150" fill="none" xmlns="http://www.w3.org/2000/svg">
<path d="M75 150C116.421 150 150 116.421 150 75C150 33.5786 116.421 0 75 0C33.5786 0 0 33.5786 0 75C0 116.421 33.5786 150 75 150Z" fill="#FF5B62"/>
<path d="M75.9993 127.736C105.493 127.736 129.403 125.851 129.403 123.526C129.403 121.201 105.493 119.316 75.9993 119.316C46.5053 119.316 22.5957 121.201 22.5957 123.526C22.5957 125.851 46.5053 127.736 75.9993 127.736Z" fill="#ED4C54"/>
<path d="M20.3295 19.6937H131.669C135.327 19.6937 138.319 22.6869 138.319 26.3446V94.9307H13.6797V26.3443C13.6797 22.6863 16.6724 19.6934 20.3306 19.6934L20.3295 19.6937Z" fill="#666666"/>
<path d="M18.1953 90.4138H133.804V26.3438C133.804 25.1787 132.834 24.209 131.669 24.209H20.3299C19.1647 24.209 18.1956 25.1787 18.1956 26.3438V90.4141H18.1953V90.4138Z" fill="#DCE3DB"/>
<path d="M138.319 94.9297V102.203C138.319 105.862 135.02 108.854 130.988 108.854H21.0112C16.9785 108.854 13.6797 105.862 13.6797 102.203V94.9297H138.319Z" fill="white"/>
<path d="M42.3777 33.8457H109.62H119.63C120.843 33.8457 121.835 34.8383 121.835 36.0509V49.1746V90.4151H30.1627L30.1621 49.1746V36.0509C30.1621 34.8377 31.1541 33.8457 32.3673 33.8457H42.3768H42.3777Z" fill="white"/>
<path d="M32.3673 33.8457H119.631C120.844 33.8457 121.836 34.8377 121.836 36.0509V40.4609H30.1621V36.0509C30.1621 34.838 31.1541 33.8457 32.3673 33.8457Z" fill="#828282"/>
<path d="M67.3223 36.1309H115.258C115.584 36.1309 115.85 36.3983 115.85 36.7232V37.8227C115.85 38.1482 115.584 38.4151 115.258 38.4151H67.3223C66.9974 38.4151 66.7305 38.1491 66.7305 37.8227V36.7232C66.7308 36.3969 66.9968 36.1309 67.3223 36.1309Z" fill="white"/>
<path d="M35.3741 35.7363C36.0749 35.7363 36.6435 36.3041 36.6435 37.0063C36.6435 37.7077 36.0746 38.2758 35.3741 38.2758C34.6722 38.2758 34.1035 37.708 34.1035 37.0063C34.1038 36.3041 34.6728 35.7363 35.3741 35.7363Z" fill="#21D0C3"/>
<path d="M40.3866 35.7363C41.0886 35.7363 41.6566 36.3041 41.6566 37.0063C41.6566 37.7077 41.0889 38.2758 40.3866 38.2758C39.6858 38.2758 39.1172 37.708 39.1172 37.0063C39.1172 36.3041 39.6858 35.7363 40.3866 35.7363Z" fill="#FAD24D"/>
<path d="M45.3995 35.7363C46.1003 35.7363 46.6689 36.3041 46.6689 37.0063C46.6689 37.7077 46.1 38.2758 45.3995 38.2758C44.6976 38.2758 44.1289 37.708 44.1289 37.0063C44.1286 36.3041 44.6976 35.7363 45.3995 35.7363Z" fill="#FF5B62"/>
<path d="M98.1311 49.8177C95.3862 46.5719 90.4849 46.1609 87.2394 48.9057L70.365 63.2239C67.1193 65.9687 66.591 70.8695 69.5151 74.1155V74.1161C72.1466 77.3619 77.0995 77.7724 80.3453 75.0276L97.2504 60.7094C100.496 57.9648 100.876 53.0635 98.1311 49.8177ZM95.3432 58.4435L78.3631 72.7998C76.4699 74.4003 73.6123 74.161 72.0112 72.2684L71.6488 71.8395C70.0489 69.9469 70.2877 67.0887 72.1803 65.4877L89.1604 51.1314C91.0535 49.5309 93.9111 49.7702 95.5122 51.6628L95.8746 52.0917C97.4754 53.9855 97.2357 56.8431 95.3432 58.4435Z" fill="#20D2BB"/>
<path d="M78.2874 58.0727V58.0721C75.6559 54.8264 70.6644 54.4584 67.4183 57.2026L50.5053 71.5636H50.5047C47.2595 74.195 46.8484 79.1658 49.5933 82.3823H49.5938C52.3381 85.5988 57.2385 86.033 60.4846 83.2885L77.3976 68.967C80.6434 66.2222 81.2112 61.3185 78.2874 58.0727ZM75.544 66.6986L58.5639 81.0549C56.6713 82.6548 53.8132 82.416 52.2121 80.5234L51.8497 80.0945C50.2492 78.2014 50.4886 75.3438 52.3811 73.7427L69.3612 59.3864C71.2544 57.7859 74.112 58.0253 75.7131 59.9184L76.0755 60.3467C77.6757 62.2402 77.4366 65.0981 75.544 66.6986Z" fill="#FAD24D"/>
<path d="M75.0098 59.2486L77.4502 57.1855C77.7634 57.453 78.0599 57.7486 78.3338 58.0729L78.3344 58.0735C78.71 58.5165 79.0249 58.9914 79.2827 59.4871L76.815 61.5736C76.6413 61.1389 76.3958 60.7249 76.0779 60.3487L75.7155 59.9204C75.5011 59.6667 75.2641 59.4429 75.0104 59.2492L75.0098 59.2486Z" fill="#20D2BB"/>
<path d="M98.1949 62.3722C101.498 62.3722 104.175 59.6949 104.175 56.3922C104.175 53.0895 101.498 50.4121 98.1949 50.4121C94.8922 50.4121 92.2148 53.0895 92.2148 56.3922C92.2148 59.6949 94.8922 62.3722 98.1949 62.3722Z" fill="#FF5B62"/>
<path d="M97.0731 52.6387H99.3146V55.2695H101.945V57.511H99.3146V60.1419H97.0731V57.511H94.4414V55.2695H97.0731V52.6387Z" fill="#FEFEFE"/>
<path d="M75.9988 103.892C77.2635 103.892 78.2887 102.867 78.2887 101.602C78.2887 100.338 77.2635 99.3125 75.9988 99.3125C74.7342 99.3125 73.709 100.338 73.709 101.602C73.709 102.867 74.7342 103.892 75.9988 103.892Z" fill="#B6B6B8"/>
<path d="M90.3736 119.318L100.949 122.706H51.0488L59.5812 119.318V108.855H90.3739V119.318H90.3736Z" fill="#C2C2C4"/>
<path d="M59.5812 119.318H90.3739L100.949 122.707V124.166H75.9994H51.0488V122.707L59.5812 119.318Z" fill="#ECF0F1"/>
<path d="M59.582 108.855H90.3747V119.485L59.582 108.855Z" fill="#B0B0B0"/>
</svg>
