<svg width="22" height="22" viewBox="0 0 34 38" fill="none" xmlns="http://www.w3.org/2000/svg">
<path d="M20.849 32.0412C21.0338 29.6354 19.1419 27.5283 16.6231 27.3348C14.1043 27.1413 11.9127 28.9346 11.7278 31.3404C11.5429 33.7462 13.4348 35.8533 15.9537 36.0468C18.4725 36.2404 20.6641 34.447 20.849 32.0412Z" fill="#F7C92B"/>
<path d="M16.6263 27.3343C16.1653 27.2988 15.7152 27.3306 15.2864 27.42C17.1168 28.1061 18.3522 29.8715 18.2012 31.837C18.0501 33.8023 16.5596 35.3585 14.6458 35.7569C15.0559 35.9108 15.4958 36.0109 15.9569 36.0463C18.4757 36.2399 20.6673 34.4465 20.8522 32.0407C21.037 29.6349 19.1451 27.5278 16.6263 27.3343Z" fill="#F2B51D"/>
<path d="M18.7749 6.30734C17.2885 6.47586 15.9325 5.46027 15.7456 4.03851C15.5587 2.61703 16.6122 1.32802 18.0983 1.15947C19.5845 0.990919 20.9408 2.00653 21.1277 3.4283C21.3143 4.84976 20.2611 6.13879 18.7749 6.30734Z" fill="#F7C92B"/>
<path d="M21.1312 3.42842C20.9443 2.00665 19.588 0.991042 18.1018 1.15959C17.9634 1.17526 17.8291 1.20096 17.6989 1.23498C18.5309 1.59966 19.1538 2.35594 19.276 3.28587C19.4455 4.57509 18.5947 5.7553 17.3262 6.08952C17.7662 6.28228 18.2645 6.36574 18.7784 6.30746C20.2646 6.13891 21.3178 4.84988 21.1312 3.42842Z" fill="#F2B51D"/>
<path d="M27.6403 31.8295L5.04882 30.0937C3.02727 29.9383 1.5089 28.2473 1.65724 26.3167C1.73937 25.2478 2.32359 24.2752 3.24615 23.6711L4.01487 23.1676C5.79296 22.0034 6.91891 20.1291 7.07719 18.0691L7.35948 14.3952C7.77599 8.97455 12.714 4.93392 18.3892 5.36999C24.0641 5.80603 28.3272 10.5536 27.9107 15.9743L27.6232 19.7162C27.4679 21.7371 28.2602 23.7263 29.786 25.1455L30.4495 25.7625C31.2413 26.4989 31.6524 27.531 31.5718 28.5798L31.5691 28.615C31.4207 30.5456 29.6618 31.9848 27.6403 31.8295Z" fill="#F7E249"/>
<path d="M30.4477 25.7617L29.7842 25.1447C28.2584 23.7253 27.4661 21.7364 27.6214 19.7151L27.9089 15.9733C28.3254 10.5529 24.0623 5.80498 18.3874 5.36894C17.3818 5.29168 16.3998 5.35573 15.4618 5.54238C19.6353 7.06406 22.4611 11.0683 22.1184 15.5283L21.8309 19.2702C21.6756 21.2915 22.468 23.2803 23.9938 24.6998L24.6575 25.3168C25.449 26.0532 25.8604 27.0854 25.7798 28.1341L25.7771 28.1694C25.6287 30.1 23.8699 31.5392 21.8483 31.3839L27.6388 31.8288C29.66 31.9841 31.4189 30.5449 31.5672 28.6143L31.57 28.579C31.6505 27.5303 31.2395 26.4981 30.4477 25.7617Z" fill="#F7C92B"/>
</svg>
