<svg width="22" height="17" viewBox="0 0 30 25" fill="#126AA0" xmlns="http://www.w3.org/2000/svg">
<path d="M8.51901 14.7054L9.59761 14.4411C10.4112 14.2457 11.246 14.0449 11.9202 13.8511C11.3878 13.1112 10.9374 12.3261 10.5754 11.5071C10.3278 11.3107 10.107 11.0886 9.91753 10.8455C9.54438 10.375 9.27774 9.84318 9.13284 9.28022C9.03746 8.92069 8.98885 8.55242 8.98798 8.18281C8.9792 7.5708 9.13229 6.96567 9.43463 6.4173C9.50269 5.21832 9.86375 4.04757 10.4921 2.9883C9.76948 2.49871 8.89022 2.23219 7.98542 2.22848C5.56082 2.23119 3.57927 4.14107 3.52856 6.51608C3.33699 6.80119 3.24002 7.12959 3.2491 7.4626C3.24908 7.64803 3.27381 7.8328 3.32274 8.01294C3.39426 8.29405 3.52655 8.55979 3.71206 8.79502C3.83029 8.94918 3.97708 9.08391 4.14604 9.19338C4.45949 9.96636 4.91487 10.6866 5.49324 11.3242C5.49324 11.3307 5.49324 11.3372 5.49324 11.3432C5.49324 11.3491 5.49323 11.3736 5.49022 11.3942C5.32374 11.4804 5.14752 11.5505 4.96451 11.6031C4.48164 11.7605 3.81768 11.9223 3.10907 12.0916L2.43365 12.2544C1.35142 12.541 0.0507012 13.4837 0 16.3651C0 16.3977 0 16.4313 0 16.4639L0.00545231 16.5659L0.028993 16.9773L0.45932 17.1184L0.565566 17.152C1.89868 17.5782 3.27935 17.8728 4.68324 18.0307C4.98226 17.242 5.48627 16.5289 6.15341 15.9505C6.82055 15.3722 7.63154 14.9453 8.51901 14.7054ZM26.1757 15.6709C25.8202 15.5819 25.4701 15.4972 25.1315 15.4142C24.0299 15.1499 22.99 14.8986 22.2246 14.6479C21.9437 14.5655 21.6733 14.4563 21.4182 14.3222C21.4182 14.3011 21.4182 14.2799 21.4152 14.2647C21.4122 14.2495 21.4152 14.231 21.4152 14.2137C22.3184 13.216 23.0313 12.0904 23.5248 10.8829C23.7839 10.712 24.0101 10.5039 24.1941 10.2669C24.4861 9.8953 24.6948 9.4761 24.8086 9.03274C24.8824 8.7519 24.9199 8.46433 24.9202 8.17575C24.9331 7.65621 24.7816 7.14407 24.4832 6.69898C24.4138 2.99916 21.3235 0.00379914 17.5136 0C13.7255 0.00379914 10.6291 2.98829 10.5483 6.69951C10.2489 7.1458 10.0973 7.65961 10.1113 8.18064C10.1117 8.47012 10.1504 8.75853 10.2265 9.03979C10.3389 9.47861 10.5456 9.89345 10.835 10.2609C11.0205 10.5016 11.2494 10.7127 11.5122 10.8856C12.0041 12.0923 12.7158 13.217 13.6181 14.2137C13.6187 14.2236 13.6187 14.2336 13.6181 14.2435C13.6181 14.2647 13.6151 14.2913 13.6133 14.3239C13.353 14.4582 13.0776 14.5673 12.7918 14.6495C12.0403 14.8948 10.9985 15.1477 9.89458 15.4137L8.8383 15.6715C7.14826 16.1198 5.11479 17.5911 5.03572 22.0953C5.03572 22.1447 5.03572 22.1979 5.03572 22.2489L5.04479 22.4079L5.08037 23.051L5.75219 23.2681L5.91936 23.3224C13.4516 25.5592 21.5841 25.5592 29.1164 23.3224L29.2908 23.2649L29.9843 23.0358L29.9958 22.3715L30 22.1903V22.0491C29.9125 17.5927 27.882 16.1214 26.1757 15.6709Z" fill="#126AA0"/>
</svg>
