<svg width="60" height="60" viewBox="0 0 60 60" fill="none" xmlns="http://www.w3.org/2000/svg">
<circle cx="30" cy="30" r="30" fill="white"/>
<path d="M49.2866 26.0086C49.1928 25.4552 48.6689 25.1055 48.122 25.2308L44.6979 26.0139C44.3076 24.3641 43.6535 22.8165 42.7833 21.4174L45.7539 19.54C46.228 19.2409 46.3489 18.6215 46.0231 18.1649C46.0231 18.1649 45.5125 17.2281 43.7419 15.4577C41.9715 13.6869 40.9812 13.1395 40.9812 13.1395C40.5235 12.8148 39.9057 12.9381 39.6075 13.4132L37.7394 16.3895C36.3375 15.524 34.788 14.8747 33.1367 14.4899L33.9092 11.064C34.0327 10.5168 33.6811 9.99349 33.1277 9.90101C33.1277 9.90101 32.1041 9.59961 29.5999 9.59961C27.0957 9.59961 26.0085 9.91286 26.0085 9.91286C25.4555 10.0068 25.1053 10.5307 25.2307 11.0776L26.014 14.502C24.3643 14.8921 22.8169 15.5459 21.4177 16.4161L19.5404 13.4455C19.2408 12.9716 18.6219 12.8503 18.1653 13.1758C18.1653 13.1758 17.2284 13.6868 15.4576 15.4573C13.6871 17.228 13.1395 18.2184 13.1395 18.2184C12.8148 18.6757 12.9379 19.2941 13.4131 19.5922L16.3895 21.4601C15.524 22.8621 14.8749 24.4115 14.4899 26.0627L11.0638 25.2902C10.5168 25.1669 9.99349 25.5185 9.90101 26.0718C9.90101 26.0718 9.59961 27.0954 9.59961 29.5998C9.59961 32.1036 9.91273 33.191 9.91273 33.191C10.0066 33.7439 10.5307 34.0941 11.0776 33.9688L14.5019 33.1854C14.892 34.8353 15.5459 36.3826 16.4161 37.7819L13.4455 39.6591C12.9714 39.9587 12.8503 40.5776 13.1761 41.0344C13.1761 41.0344 13.6867 41.971 15.4575 43.742C17.2279 45.5123 18.2182 46.0597 18.2182 46.0597C18.6757 46.3846 19.2939 46.2614 19.592 45.7863L21.4601 42.81C22.8618 43.6757 24.4113 44.3247 26.0626 44.7099L25.2902 48.1355C25.1666 48.6827 25.5185 49.206 26.0719 49.2982C26.0719 49.2982 27.0952 49.5999 29.5997 49.5996C32.1035 49.5996 33.1908 49.2866 33.1908 49.2866C33.7439 49.1929 34.094 48.6688 33.9687 48.1219L33.1853 44.6977C34.8351 44.3076 36.3827 43.6534 37.7818 42.7836L39.6591 45.7537C39.9584 46.2282 40.5774 46.3489 41.0342 46.0231C41.0342 46.0231 41.9708 45.5127 43.7416 43.7419C45.512 41.9714 46.0596 40.9811 46.0596 40.9811C46.3843 40.5235 46.2613 39.9059 45.7861 39.6076L42.8099 37.7394C43.6754 36.3376 44.3246 34.788 44.7096 33.1367L48.1355 33.909C48.6824 34.0328 49.2057 33.6807 49.2981 33.1275C49.2981 33.1275 49.5995 32.1041 49.5995 29.5999C49.5998 27.096 49.2866 26.0086 49.2866 26.0086ZM29.5998 34.234C27.0403 34.234 24.9656 32.1594 24.9656 29.5998C24.9656 27.0404 27.0402 24.9656 29.5998 24.9656C32.1594 24.9656 34.2341 27.0402 34.2341 29.5998C34.2341 32.1593 32.1594 34.234 29.5998 34.234Z" fill="#A4A9AD"/>
<path d="M29.6006 21.9805C25.3921 21.9805 21.9805 25.3922 21.9805 29.6007C21.9805 33.8092 25.3921 37.221 29.6006 37.221C33.8091 37.221 37.2209 33.8092 37.2209 29.6007C37.221 25.3923 33.8091 21.9805 29.6006 21.9805ZM29.6006 34.2349C27.0412 34.2349 24.9664 32.1603 24.9664 29.6007C24.9664 27.0413 27.041 24.9665 29.6006 24.9665C32.1602 24.9665 34.2349 27.0412 34.2349 29.6007C34.2349 32.1602 32.1602 34.2349 29.6006 34.2349Z" fill="#333E48"/>
</svg>
