<svg width="17" height="17" viewBox="0 0 25 25" fill="none" xmlns="http://www.w3.org/2000/svg">
<path d="M20.7032 0.00064675C23.0762 0.00064675 25 1.53976 25 3.43836V21.5623C25 23.4609 23.0762 25 20.7032 25H4.29685C1.92376 25 0 23.4609 0 21.5623V3.43836C0 1.86459 1.32181 0.537815 3.12568 0.129893L3.1244 2.18852C2.65034 2.47362 2.34374 2.92734 2.34374 3.43836V21.5623C2.34374 22.4253 3.21817 23.1249 4.29685 23.1249H20.7032C21.7818 23.1249 22.6563 22.4253 22.6563 21.5623V3.43836C22.6563 2.57536 21.7818 1.87576 20.7032 1.87576L17.1874 1.87512V0L20.7032 0.00064675ZM15.6251 0V10.1742C15.6251 11.1082 14.376 11.4589 13.6107 11.1298L13.481 11.0647L10.1592 9.45777L6.91213 11.0221C6.13138 11.473 4.83344 11.1962 4.69897 10.3249L4.68762 10.1742V0H15.6251ZM13.2813 1.87512H7.03136V8.77963L9.48959 7.59323C9.90255 7.42049 10.4022 7.41722 10.7665 7.56341L13.2813 8.78049V1.87512Z" fill="#126AA0"/>
</svg>
