<svg width="27" height="24" viewBox="0 0 35 24" fill="none" xmlns="http://www.w3.org/2000/svg">
<path d="M9.60657 14.0996H6.66016V16.6253H9.60657V14.0996Z" fill="#126AA0"/>
<path d="M8.13322 6.76172C8.94691 6.76172 9.60657 7.3269 9.60657 8.02435C9.60657 8.7218 8.94681 9.2873 8.13322 9.2873C7.31982 9.2873 6.66016 8.7218 6.66016 8.02435C6.66016 7.32698 7.31982 6.76172 8.13322 6.76172Z" fill="#126AA0"/>
<path d="M33.7374 0H1.26298C0.565411 0 0 0.485129 0 1.08207V22.3042C0 22.9023 0.565984 23.3865 1.26298 23.3865H33.7374C34.4346 23.3865 35 22.9023 35 22.3042V1.08248C35 0.485129 34.4346 0 33.7374 0ZM12.1326 17.7077C12.1326 18.3053 11.5678 18.79 10.8696 18.79H5.39733C4.69976 18.79 4.13492 18.3048 4.13492 17.7077V13.0168C4.13492 12.4191 4.70033 11.9345 5.39733 11.9345H10.8697C11.5679 11.9345 12.1327 12.4191 12.1327 13.0168V17.7077H12.1326ZM8.13329 11.4529C5.92789 11.4529 4.13377 9.91498 4.13377 8.0244C4.13377 6.13512 5.92798 4.59674 8.13329 4.59674C10.3389 4.59674 12.1325 6.13463 12.1325 8.0244C12.1326 9.91498 10.339 11.4529 8.13329 11.4529ZM29.6031 18.1283H17.5751C16.8781 18.1283 16.3128 17.6428 16.3128 17.0461C16.3128 16.4484 16.8788 15.9638 17.5751 15.9638H29.6031C30.3014 15.9638 30.8657 16.4484 30.8657 17.0461C30.8657 17.6428 30.3014 18.1283 29.6031 18.1283ZM29.6031 14.5197H17.5751C16.8781 14.5197 16.3128 14.0351 16.3128 13.4374C16.3128 12.8398 16.8788 12.3546 17.5751 12.3546H29.6031C30.3014 12.3546 30.8657 12.8398 30.8657 13.4374C30.8657 14.0351 30.3014 14.5197 29.6031 14.5197ZM29.6031 10.9114H17.5751C16.8781 10.9114 16.3128 10.4273 16.3128 9.82912C16.3128 9.23145 16.8788 8.74656 17.5751 8.74656H29.6031C30.3014 8.74656 30.8657 9.23194 30.8657 9.82912C30.8657 10.4269 30.3014 10.9114 29.6031 10.9114ZM29.6031 7.30297H17.5751C16.8781 7.30297 16.3128 6.81759 16.3128 6.22065C16.3128 5.62273 16.8788 5.1381 17.5751 5.1381H29.6031C30.3014 5.1381 30.8657 5.62273 30.8657 6.22065C30.8657 6.81759 30.3014 7.30297 29.6031 7.30297Z" fill="#126AA0"/>
</svg>
