<svg width="25" height="27" viewBox="0 0 25 27" fill="none" xmlns="http://www.w3.org/2000/svg">
<path d="M5 0.0507812C2.93208 0.0512383 1.25 1.8005 1.25 3.95101C1.25 6.10153 2.93208 7.85038 5 7.85038C7.06792 7.85038 8.75 6.10112 8.75 3.95061C8.75 1.80004 7.06792 0.0507812 5 0.0507812ZM5 6.55087C3.61919 6.55087 2.5 5.38697 2.5 3.95101C2.5 2.51505 3.61919 1.35116 5 1.35116C6.38081 1.35116 7.5 2.51505 7.5 3.95101C7.5 5.38697 6.38086 6.55087 5 6.55087Z" fill="#126AA0"/>
<path d="M23.75 6.55078H11.25C10.5596 6.55078 10 7.1327 10 7.85071V8.84342L11.25 9.49339V7.85071H23.75V18.2497H11.25V16.7045L10 16.3799V18.2497C10 18.9677 10.5596 19.5496 11.25 19.5496H16.3967L13.2142 25.0652C13.0358 25.3724 13.1325 25.7723 13.4292 25.9565C13.7221 26.1432 14.1079 26.0427 14.2862 25.7329L16.875 21.2456V25.3988C16.875 25.758 17.1546 26.0488 17.5 26.0488C17.8454 26.0488 18.125 25.758 18.125 25.3988V21.2456L20.7142 25.7325C20.8313 25.9357 21.0387 26.0484 21.25 26.0484C21.36 26.0484 21.4709 26.0193 21.5712 25.9557C21.8679 25.7715 21.9642 25.3716 21.7862 25.0644L18.6037 19.5488H23.75C24.4404 19.5488 25 18.9668 25 18.2488V7.85071C25 7.1327 24.4404 6.55078 23.75 6.55078Z" fill="#126AA0"/>
<path d="M21.8506 10.2713C21.7564 9.92598 21.411 9.72276 21.0781 9.82589L13.3651 12.1177C13.2752 12.0271 13.1743 11.9478 13.0593 11.8876L8.05934 9.28775C7.8856 9.19761 7.69434 9.15039 7.50015 9.15039H2.50015C1.896 9.15039 1.37847 9.59973 1.27017 10.2176L0.0201696 17.3668C-0.0460902 17.7459 0.0526892 18.1363 0.290189 18.4323C0.527689 18.7282 0.87935 18.8994 1.2502 18.8994H2.04893L2.50435 24.8517C2.55601 25.5277 3.0981 26.0485 3.7502 26.0485H6.2502C6.88726 26.0485 7.42227 25.5506 7.49268 24.8924L8.58478 14.672L12.1973 15.611C12.2973 15.637 12.3989 15.6495 12.5002 15.6495C12.776 15.6495 13.0473 15.5546 13.2694 15.3743C13.5727 15.1282 13.7502 14.7499 13.7502 14.3496V13.3543L21.4223 11.0746C21.7544 10.9767 21.946 10.6162 21.8506 10.2713ZM12.5002 14.35L7.50015 13.0501L6.25015 24.749H3.75015L3.20347 17.5994H1.25015L2.50015 10.4503H4.37515V14.4047C4.37515 14.7639 4.65474 15.0546 5.00015 15.0546C5.34556 15.0546 5.62515 14.7639 5.62515 14.4047V10.4503H7.50015L12.5002 13.0501V14.35Z" fill="#126AA0"/>
</svg>
