<svg width="41" height="43" viewBox="0 0 41 43" fill="none" xmlns="http://www.w3.org/2000/svg">
<path d="M30.3466 43C35.6791 43 40.0018 38.7887 40.0018 33.5938C40.0018 28.3988 35.6791 24.1875 30.3466 24.1875C25.0142 24.1875 20.6914 28.3988 20.6914 33.5938C20.6914 38.7887 25.0142 43 30.3466 43Z" fill="#FAA85F"/>
<path d="M30.345 28.2188L26.207 33.5938H28.9657V38.9688H31.7243V33.5938H34.4829L30.345 28.2188Z" fill="white"/>
<path d="M20.0304 40.3125H2.75863V2.6875H19.3104V13.4375H30.345V21.5C31.294 21.5 32.2153 21.6142 33.1036 21.8118V11.5374L21.2608 0H0V43H22.5601C21.5849 42.2327 20.7298 41.3284 20.0304 40.3125ZM22.0691 4.58756L28.3946 10.75H22.0691V4.58756Z" fill="#00384E"/>
<path d="M17.9314 33.5938C17.9314 27.8506 22.0666 23.0386 27.5867 21.8118V13.4375H19.3108V5.375H5.51758V37.625H18.6556C18.1949 36.3619 17.9314 35.0087 17.9314 33.5938Z" fill="#72C6EF"/>
<path d="M23.4494 20.1562H9.65625V22.8438H23.4494V20.1562Z" fill="#00384D"/>
<path d="M21.1198 25.5312H9.65625V28.2188H19.2425C19.7432 27.2392 20.3763 26.3375 21.1198 25.5312Z" fill="#00384D"/>
<path d="M9.65625 30.9062V33.5938H17.9322C17.9322 32.6693 18.0494 31.7716 18.2522 30.9062H9.65625Z" fill="#00384D"/>
</svg>
