<svg width="33" height="33" viewBox="0 0 33 33" fill="none" xmlns="http://www.w3.org/2000/svg">
<g clip-path="url(#clip0)">
<path d="M30.0981 3.93164H2.89884C2.45237 3.93164 2.0344 4.0414 1.65625 4.22232L16.434 19.0001L19.7462 15.8169C19.7462 15.8169 19.7464 15.8166 19.7465 15.8165C19.7466 15.8163 19.7468 15.8162 19.7468 15.8162L31.3411 4.22258C30.9629 4.04153 30.5447 3.93164 30.0981 3.93164Z" fill="#126AA0" fill-opacity="0.95"/>
<path d="M32.7096 5.58984L21.7988 16.5001L32.7093 27.4105C32.8902 27.0324 32.9999 26.6144 32.9999 26.1679V6.83198C32.9999 6.38578 32.8904 5.96786 32.7096 5.58984Z" fill="#126AA0" fill-opacity="0.95"/>
<path d="M0.290684 5.58984C0.109764 5.96799 0 6.38597 0 6.83244V26.1684C0 26.6146 0.109635 27.0326 0.290426 27.4106L11.2012 16.5004L0.290684 5.58984Z" fill="#126AA0" fill-opacity="0.95"/>
<path d="M20.4307 17.8673L17.118 21.0508C16.9292 21.2397 16.6818 21.3341 16.4345 21.3341C16.1872 21.3341 15.9398 21.2397 15.751 21.0508L12.5673 17.8672L1.65625 28.7775C2.03446 28.9585 2.4527 29.0684 2.89929 29.0684H30.0985C30.545 29.0684 30.963 28.9587 31.3411 28.7777L20.4307 17.8673Z" fill="#126AA0" fill-opacity="0.95"/>
</g>
<defs>
<clipPath id="clip0">
<rect width="33" height="33" fill="white"/>
</clipPath>
</defs>
</svg>
