<svg width="26" height="28" viewBox="0 0 26 28" fill="none" xmlns="http://www.w3.org/2000/svg">
<path d="M12.962 13.4877C14.9778 13.4877 16.7234 12.8231 18.1497 11.5119C19.5759 10.2009 20.2989 8.5968 20.2989 6.74363C20.2989 4.89109 19.5759 3.28679 18.1494 1.97536C16.7229 0.664579 14.9776 0 12.962 0C10.9459 0 9.20075 0.664579 7.7745 1.97558C6.34824 3.28658 5.625 4.89088 5.625 6.74363C5.625 8.5968 6.34824 10.2011 7.77473 11.5121C9.20122 12.8229 10.9466 13.4877 12.962 13.4877Z" fill="#126AA0"/>
<path d="M25.7999 21.5309C25.7588 20.9853 25.6756 20.3901 25.5531 19.7617C25.4294 19.1285 25.2702 18.5299 25.0797 17.9828C24.8828 17.4174 24.6151 16.859 24.2842 16.3238C23.9407 15.7684 23.5372 15.2848 23.0845 14.8868C22.6111 14.4705 22.0315 14.1357 21.3612 13.8915C20.6933 13.6487 19.9531 13.5256 19.1613 13.5256C18.8503 13.5256 18.5496 13.6429 17.9688 13.9904C17.6114 14.2047 17.1933 14.4525 16.7266 14.7266C16.3276 14.9603 15.787 15.1793 15.1193 15.3775C14.4679 15.5713 13.8065 15.6695 13.1537 15.6695C12.5009 15.6695 11.8397 15.5713 11.1875 15.3775C10.5205 15.1795 9.97998 14.9605 9.5814 14.7268C9.11915 14.4553 8.70083 14.2075 8.33805 13.9902C7.75797 13.6427 7.45701 13.5254 7.14605 13.5254C6.35402 13.5254 5.61405 13.6487 4.94636 13.8918C4.27657 14.1355 3.69673 14.4702 3.22286 14.887C2.77037 15.2852 2.36668 15.7686 2.02366 16.3238C1.69295 16.859 1.42522 17.4172 1.22814 17.983C1.0378 18.5301 0.878606 19.1285 0.754967 19.7617C0.632491 20.3893 0.549291 20.9847 0.508155 21.5315C0.467717 22.0673 0.447266 22.6233 0.447266 23.185C0.447266 24.6466 0.952742 25.8298 1.94952 26.7025C2.93398 27.5636 4.2366 28.0004 5.82066 28.0004H20.4881C22.0721 28.0004 23.3743 27.5638 24.359 26.7025C25.356 25.8305 25.8615 24.647 25.8615 23.1847C25.8612 22.6206 25.8406 22.0641 25.7999 21.5309Z" fill="#126AA0"/>
</svg>
