<svg width="60" height="60" viewBox="0 0 60 60" fill="none" xmlns="http://www.w3.org/2000/svg">
<path d="M60 30C60 13.4313 46.5687 3.8147e-06 30.0004 3.8147e-06C13.4313 3.8147e-06 0 13.4313 0 30C0 46.5687 13.4313 60 30.0004 60C46.5687 60 60 46.5687 60 30Z" fill="#B52928"/>
<path d="M33.8447 45.1699H26.8906V37.0551H33.8447V45.1699Z" fill="#D89E81"/>
<path d="M34.7034 41.8934C34.7034 41.8934 41.3152 42.9221 42.2916 44.0042C43.142 44.947 44.9098 53.9739 45.3185 55.9551C33.7105 55.9551 30.3828 55.9551 30.3828 55.9551V42.276L34.7034 41.8934Z" fill="#D3E5EE"/>
<path d="M30.3828 13.8359C33.7591 13.8359 39.0985 15.8789 39.0985 25.4508C39.0985 30.9773 37.4056 34.5975 36.6678 35.5994C35.9893 36.5207 32.1729 38.4844 30.3828 38.4844C30.3828 28.8109 30.3828 13.8359 30.3828 13.8359Z" fill="#F3D4B3"/>
<path d="M40.7625 27.7332C40.9114 26.2038 40.2267 24.8467 39.2336 24.7013C38.2399 24.5565 37.3141 25.6788 37.1649 27.2084C37.0158 28.7374 37.7007 30.0943 38.6947 30.2394C39.6875 30.3842 40.6136 29.2619 40.7625 27.7332Z" fill="#E9B89D"/>
<path d="M30.372 13.8359C26.9956 13.8359 21.6562 15.8789 21.6562 25.4508C21.6562 30.9773 23.3492 34.5975 24.0867 35.5994C24.7658 36.5207 28.5816 38.4844 30.372 38.4844C30.372 28.8109 30.372 13.8359 30.372 13.8359Z" fill="#F3D4B3"/>
<path d="M19.9734 27.7332C19.8248 26.2038 20.5095 24.8467 21.5026 24.7013C22.4963 24.5565 23.4221 25.6788 23.571 27.2084C23.7202 28.7374 23.0352 30.0943 22.0418 30.2394C21.0484 30.3842 20.1223 29.2619 19.9734 27.7332Z" fill="#F3D4B3"/>
<path d="M26.0526 41.8934C26.0526 41.8934 19.4407 42.9221 18.4646 44.0042C17.614 44.947 15.8468 53.9739 15.4375 55.9551C27.0457 55.9551 30.3731 55.9551 30.3731 55.9551V42.276L26.0526 41.8934Z" fill="#D3E5EE"/>
<path d="M30.3765 42.2752L26.8465 40.7643L25.9766 41.7041L27.7332 45.8496L30.3765 42.2752Z" fill="white"/>
<path d="M30.3828 42.2752L33.9134 40.7643L34.783 41.7041L33.0261 45.8496L30.3828 42.2752Z" fill="white"/>
<path d="M39.2783 24.9295C39.2783 24.9295 42.1359 11.0661 30.3129 11.0661C18.4281 11.0661 21.4114 24.5474 21.4114 24.5474C21.4114 24.5474 23.0356 23.5577 23.0356 27.9824C23.6781 27.9824 23.3337 27.9824 23.3337 27.9824C23.3337 27.9824 23.9094 25.0157 24.084 22.356C28.2635 22.356 31.9605 21.7861 35.0681 19.0489C36.8331 19.0489 37.0734 21.388 37.0734 23.1778L36.3004 23.4965C36.3004 23.4965 37.0488 25.0552 37.1021 27.9824C37.6379 27.9824 37.638 27.9824 37.638 27.9824C37.638 27.9824 37.5589 23.1014 39.2783 24.9295Z" fill="#855533"/>
<path d="M30.3726 34.875C31.9463 34.875 33.2221 34.3217 33.2221 33.6394H27.5234C27.5234 34.3217 28.799 34.875 30.3726 34.875Z" fill="white"/>
<path d="M45.309 55.485C45.309 56.0767 44.9261 56.6627 44.1819 57.2095C43.4378 57.7562 42.3472 58.253 40.9722 58.6715C39.5973 59.0899 37.965 59.4219 36.1685 59.6484C34.3721 59.8748 32.4466 59.9914 30.5022 59.9914C28.5577 59.9914 26.6323 59.8748 24.8358 59.6484C23.0394 59.4219 21.4071 59.0899 20.0321 58.6715C18.6572 58.253 17.5665 57.7562 16.8224 57.2095C16.0783 56.6627 15.6953 56.0767 15.6953 55.485L30.5022 55.485H45.309Z" fill="#D3E5EE"/>
</svg>
