<svg width="55" height="55" viewBox="0 0 55 55" fill="none" xmlns="http://www.w3.org/2000/svg">
<g clip-path="url(#clip0)">
<path d="M8.63758 49.9151C8.24517 49.9151 7.8491 49.8296 7.47613 49.6542C6.464 49.1783 5.85234 48.1497 5.91766 47.033L6.2685 41.0408H3.57994C1.60596 41.0408 0 39.435 0 37.4609V17.9491C0 15.975 1.60596 14.3691 3.57994 14.3691H34.0762C36.0502 14.3691 37.6561 15.9751 37.6561 17.9491V37.4609C37.6561 39.4349 36.0501 41.0408 34.0762 41.0408H30.7033C29.8836 41.0408 29.2191 40.3763 29.2191 39.5566C29.2191 38.7368 29.8836 38.0723 30.7033 38.0723H34.0763C34.4135 38.0723 34.6878 37.7981 34.6878 37.4608V17.9491C34.6878 17.6119 34.4136 17.3375 34.0763 17.3375H3.57994C3.24285 17.3375 2.96839 17.6118 2.96839 17.9491V37.4609C2.96839 37.798 3.24264 38.0724 3.57994 38.0724H7.84223C8.25086 38.0724 8.64145 38.2409 8.92203 38.5383C9.2024 38.8357 9.34785 39.2355 9.324 39.6435L8.9173 46.5888L17.6243 38.4711C17.8992 38.2149 18.2608 38.0724 18.6364 38.0724H23.8631C24.6829 38.0724 25.3474 38.7369 25.3474 39.5567C25.3474 40.3764 24.6829 41.0409 23.8631 41.0409H19.2209L10.4887 49.1821C9.97229 49.6637 9.31015 49.9151 8.63758 49.9151Z" fill="white"/>
<path d="M51.4222 6.56836H20.9259C19.7685 6.56836 18.8301 7.50669 18.8301 8.66405V15.8525H34.0783C35.2357 15.8525 36.174 16.7908 36.174 17.9483V30.2716H36.3656L45.5253 38.8114C46.3411 39.572 47.6678 38.9483 47.6026 37.8347L47.1597 30.2714H51.422C52.5793 30.2714 53.5177 29.3331 53.5177 28.1757V8.66405C53.5179 7.50658 52.5796 6.56836 51.4222 6.56836Z" fill="#8E7D7D"/>
<path d="M46.3596 40.6325C45.6763 40.6325 45.0207 40.372 44.513 39.8988L35.6969 31.6794C35.1112 31.4808 34.6895 30.9263 34.6895 30.2734V17.95C34.6895 17.6129 34.4153 17.3385 34.078 17.3385H18.83C18.0102 17.3385 17.3457 16.674 17.3457 15.8542V8.66588C17.3457 6.69179 18.9517 5.08594 20.9256 5.08594H51.4219C53.3958 5.08594 55.0018 6.69189 55.0018 8.66588V28.1777C55.0018 30.1516 53.3958 31.7576 51.4219 31.7576H48.7332L49.084 37.7498C49.1284 38.5076 48.8697 39.225 48.3556 39.7702C47.8389 40.3182 47.1113 40.6325 46.3596 40.6325ZM37.6581 29.4493L46.0846 37.3054L45.6779 30.3602C45.6541 29.9522 45.7995 29.5525 46.0799 29.255C46.3604 28.9577 46.7509 28.7891 47.1597 28.7891H51.422C51.7591 28.7891 52.0335 28.5149 52.0335 28.1776V8.66588C52.0335 8.32879 51.7593 8.05433 51.422 8.05433H20.9256C20.5884 8.05433 20.3141 8.32857 20.3141 8.66588V14.3701H34.0781C36.052 14.3701 37.658 15.976 37.658 17.95V29.4493H37.6581Z" fill="white"/>
<path d="M27.5002 25.8279H9.68933C8.86959 25.8279 8.20508 25.1634 8.20508 24.3436C8.20508 23.5239 8.86959 22.8594 9.68933 22.8594H27.5002C28.3199 22.8594 28.9844 23.5239 28.9844 24.3436C28.9844 25.1634 28.3199 25.8279 27.5002 25.8279Z" fill="white"/>
<path d="M25.1516 33.4392H12.0409C11.2212 33.4392 10.5566 32.7747 10.5566 31.955C10.5566 31.1352 11.2212 30.4707 12.0409 30.4707H25.1516C25.9714 30.4707 26.6359 31.1352 26.6359 31.955C26.6359 32.7747 25.9714 33.4392 25.1516 33.4392Z" fill="white"/>
</g>
<defs>
<clipPath id="clip0">
<rect width="55" height="55" fill="white"/>
</clipPath>
</defs>
</svg>
