<svg width="31" height="30" viewBox="0 0 31 30" fill="none" xmlns="http://www.w3.org/2000/svg">
<path d="M14.3492 0C10.0401 0 6.51758 3.50364 6.51758 7.78969C6.51758 12.0757 10.0401 15.5794 14.3492 15.5794C18.6583 15.5794 22.1807 12.0757 22.1807 7.78969C22.1807 3.50364 18.6583 0 14.3492 0Z" fill="#126AA0"/>
<path d="M27.7919 21.8025C27.5867 21.2922 27.3131 20.816 27.0053 20.3738C25.4322 18.0607 23.0041 16.5299 20.2682 16.1558C19.9262 16.1218 19.55 16.1897 19.2764 16.3939C17.84 17.4484 16.1301 17.9926 14.3517 17.9926C12.5733 17.9926 10.8634 17.4484 9.42705 16.3939C9.15343 16.1897 8.77724 16.0877 8.43528 16.1558C5.69935 16.5299 3.23705 18.0607 1.69811 20.3738C1.39032 20.816 1.1167 21.3263 0.911552 21.8025C0.808977 22.0066 0.843147 22.2447 0.945721 22.4488C1.21934 22.925 1.5613 23.4013 1.86909 23.8094C2.34785 24.4558 2.86086 25.034 3.44226 25.5782C3.92103 26.0545 4.4682 26.4967 5.01544 26.9389C7.71713 28.9459 10.9661 30.0003 14.3176 30.0003C17.6691 30.0003 20.918 28.9458 23.6197 26.9389C24.1668 26.5307 24.714 26.0545 25.1929 25.5782C25.74 25.034 26.2872 24.4557 26.766 23.8094C27.108 23.3672 27.4158 22.925 27.6894 22.4488C27.8603 22.2447 27.8945 22.0065 27.7919 21.8025Z" fill="#126AA0"/>
<circle cx="26.5" cy="22.5" r="4.5" fill="#34F903"/>
</svg>
