<svg width="32" height="28" viewBox="0 0 32 28" fill="none" xmlns="http://www.w3.org/2000/svg">
<path d="M23.6698 0C21.536 0 19.4354 0.629589 17.8163 1.861L3.42242 12.808C-1.14097 16.2787 -1.14063 21.9254 3.42242 25.3971C7.9858 28.8678 15.4106 28.8675 19.9754 25.3971L29.5713 18.0991L27.4122 16.4571L17.8163 23.7551C14.4249 26.3333 8.97121 26.3331 5.5815 23.7551C2.19145 21.1758 2.19179 17.0281 5.5815 14.4501L19.9754 3.50305C22.0402 1.93269 25.3474 1.93269 27.4122 3.50305C29.477 5.07342 29.477 7.58866 27.4122 9.15903L13.0183 20.1061C12.2785 20.6681 11.1174 20.6673 10.3795 20.1061C9.6405 19.5434 9.64152 18.6603 10.3795 18.0991L23.5738 8.06432L21.4148 6.42226L8.22038 16.4571C6.3083 17.9112 6.30932 20.293 8.22038 21.7481C10.1324 23.2023 13.2642 23.2015 15.1774 21.7481L29.5713 10.8011C32.8096 8.33826 32.8096 4.32381 29.5713 1.861C27.9522 0.629589 25.8036 0 23.6698 0Z" fill="#126AA0"/>
</svg>
