<svg width="50" height="40" viewBox="0 0 50 40" fill="none" xmlns="http://www.w3.org/2000/svg">
<path d="M50 28.5936C50 26.8078 48.7717 25.2997 47.0703 24.7316V10.5228L50 9.39185L25 0L0 9.39185L25 18.7838L44.1406 11.6243V24.7316C42.4393 25.2997 41.2109 26.8078 41.2109 28.5936C41.2109 30.2285 42.2422 31.6319 43.7208 32.2951L41.2868 39.1321L44.0648 40L45.6055 35.6724L47.1461 40L49.9241 39.1321L47.4901 32.2951C48.9688 31.632 50 30.2286 50 28.5936Z" fill="#126AA0"/>
<path d="M25 21.7398L11.8164 16.7832V20.3642C11.8164 24.274 17.4841 27.222 25 27.222C32.5159 27.222 38.1836 24.274 38.1836 20.3642V16.7832L25 21.7398Z" fill="#126AA0"/>
</svg>
