<svg width="21" height="19" viewBox="0 0 21 19" fill="none" xmlns="http://www.w3.org/2000/svg">
<path d="M19.3563 3.07085H7.44073C7.11314 1.82325 6.19286 0.921875 5.11083 0.921875C4.02881 0.921875 3.10852 1.82325 2.78093 3.07085H0.921008C0.48895 3.07085 0.138672 3.52 0.138672 4.07401C0.138672 4.62803 0.48895 5.07718 0.921008 5.07718H2.78099C3.10858 6.32478 4.02886 7.22615 5.11089 7.22615C6.19291 7.22615 7.1132 6.32478 7.44079 5.07718H19.3563C19.7884 5.07718 20.1387 4.62803 20.1387 4.07401C20.1387 3.52 19.7884 3.07085 19.3563 3.07085ZM5.11083 5.21983C4.61812 5.21983 4.21725 4.70581 4.21725 4.07401C4.21725 3.44222 4.61812 2.9282 5.11083 2.9282C5.60355 2.9282 6.00442 3.44222 6.00442 4.07401C6.00442 4.70581 5.60355 5.21983 5.11083 5.21983Z" fill="#126AA0"/>
<path d="M19.3563 9.18804H17.4963C17.1687 7.94044 16.2484 7.03906 15.1664 7.03906C14.0844 7.03906 13.1641 7.94044 12.8366 9.18804H0.921008C0.48895 9.18804 0.138672 9.63719 0.138672 10.1912C0.138672 10.7452 0.48895 11.1944 0.921008 11.1944H12.8366C13.1641 12.442 14.0845 13.3433 15.1665 13.3433C16.2484 13.3433 17.1688 12.442 17.4964 11.1944H19.3563C19.7884 11.1944 20.1387 10.7452 20.1387 10.1912C20.1387 9.63719 19.7884 9.18804 19.3563 9.18804ZM15.1665 11.337C14.6737 11.337 14.2729 10.823 14.2729 10.1912C14.2729 9.55941 14.6737 9.04539 15.1665 9.04539C15.6592 9.04539 16.06 9.55941 16.06 10.1912C16.06 10.823 15.6592 11.337 15.1665 11.337Z" fill="#126AA0"/>
<path d="M19.3563 14.7662H10.7926C10.465 13.5186 9.54475 12.6172 8.46273 12.6172C7.3807 12.6172 6.46042 13.5186 6.13283 14.7662H0.921008C0.48895 14.7662 0.138672 15.2153 0.138672 15.7693C0.138672 16.3233 0.48895 16.7725 0.921008 16.7725H6.13283C6.46042 18.0201 7.3807 18.9215 8.46273 18.9215C9.54475 18.9215 10.465 18.0201 10.7926 16.7725H19.3563C19.7884 16.7725 20.1387 16.3233 20.1387 15.7693C20.1387 15.2153 19.7884 14.7662 19.3563 14.7662ZM8.46273 16.9152C7.97001 16.9152 7.56914 16.4012 7.56914 15.7694C7.56914 15.1376 7.97001 14.6236 8.46273 14.6236C8.95544 14.6236 9.35631 15.1375 9.35631 15.7693C9.35631 16.4011 8.95544 16.9152 8.46273 16.9152Z" fill="#126AA0"/>
</svg>
