<svg width="21" height="26" viewBox="0 0 21 26" fill="none" xmlns="http://www.w3.org/2000/svg">
<path d="M7.94055 1.56946H12.2859V2.30063H13.8552V1.4671C13.8554 0.658173 13.1976 0 12.3891 0H7.8374C7.02887 0 6.37109 0.658173 6.37109 1.4671V2.30063H7.94055V1.56946Z" fill="#D01D1D"/>
<path d="M17.478 8.51953H2.7459C2.34223 8.51953 2.02445 8.86389 2.05698 9.26637L3.28862 24.496C3.35726 25.3462 4.06641 26.001 4.91839 26.001H15.3053C16.1573 26.001 16.8665 25.3462 16.9351 24.4958L18.1667 9.26637C18.1995 8.86389 17.8817 8.51953 17.478 8.51953ZM6.31308 24.3766C6.29662 24.3776 6.28016 24.3782 6.26389 24.3782C5.85248 24.3782 5.50713 24.0578 5.48154 23.6416L4.70971 11.1389C4.68312 10.7063 5.01221 10.334 5.44465 10.3074C5.87569 10.2812 6.24961 10.6095 6.27619 11.0423L7.04782 23.545C7.0746 23.9777 6.74552 24.3498 6.31308 24.3766ZM10.9054 23.5934C10.9054 24.0267 10.5541 24.378 10.1207 24.378C9.68726 24.378 9.33596 24.0267 9.33596 23.5934V11.0905C9.33596 10.6571 9.68726 10.3058 10.1207 10.3058C10.5539 10.3058 10.9054 10.6571 10.9054 11.0905V23.5934ZM15.5142 11.1367L14.7773 23.6395C14.7529 24.0564 14.4069 24.378 13.9947 24.378C13.9793 24.378 13.9636 24.3776 13.9479 24.3768C13.5153 24.3512 13.1852 23.9798 13.2108 23.5472L13.9475 11.0443C13.9729 10.6117 14.3431 10.2816 14.7769 10.3072C15.2095 10.3326 15.5396 10.7041 15.5142 11.1367Z" fill="#D01D1D"/>
<path d="M20.1931 6.09598L19.6777 4.55112C19.5418 4.14388 19.1606 3.86914 18.7311 3.86914H1.49544C1.06618 3.86914 0.684727 4.14388 0.549046 4.55112L0.0336952 6.09598C-0.0656853 6.39392 0.0636482 6.69781 0.305057 6.84936C0.403446 6.91106 0.519886 6.94815 0.647831 6.94815H19.5789C19.7069 6.94815 19.8235 6.91106 19.9217 6.84917C20.1631 6.69762 20.2924 6.39372 20.1931 6.09598Z" fill="#D01D1D"/>
</svg>
