<svg width="26" height="26" viewBox="0 0 26 26" fill="none" xmlns="http://www.w3.org/2000/svg">
<path d="M13 25.9997C5.83192 25.9997 0 20.1679 0 12.9999C0 5.83186 5.83192 0 13 0C20.1681 0 26 5.83186 26 12.9999C26 20.1679 20.1681 25.9997 13 25.9997Z" fill="#C3E678"/>
<path d="M19.0667 21.6665C11.8986 21.6665 6.06668 15.8346 6.06668 8.66664C6.06668 5.66616 7.09846 2.90759 8.81248 0.705078C3.69525 2.45331 0 7.29825 0 12.9999C0 20.1679 5.83192 25.9998 13 25.9998C17.1676 25.9998 20.8736 24.0207 23.2542 20.9615C21.9381 21.4111 20.533 21.6665 19.0667 21.6665Z" fill="#A5D76E"/>
<path d="M10.311 19.7235C10.0816 19.7235 9.85208 19.6359 9.67714 19.4608L4.29783 14.0816C3.9476 13.7316 3.9476 13.1638 4.29783 12.8138C4.64762 12.4635 5.21586 12.4635 5.56564 12.8138L10.3111 17.5589L19.5393 8.33104C19.889 7.9808 20.4573 7.9808 20.8071 8.33104C21.1573 8.68102 21.1573 9.2488 20.8071 9.59883L10.9449 19.4608C10.7701 19.6359 10.5405 19.7235 10.311 19.7235Z" fill="white"/>
</svg>
