<svg width="50" height="50" viewBox="0 0 50 50" fill="none" xmlns="http://www.w3.org/2000/svg">
<g clip-path="url(#clip0)">
<path d="M29.6875 43.1875H5.72917C3.42708 43.1875 1.5625 41.3229 1.5625 39.0208V6.72917C1.5625 4.42708 3.42708 2.5625 5.72917 2.5625H29.6875C31.9896 2.5625 33.8542 4.42708 33.8542 6.72917V39.0208C33.8542 41.3229 31.9896 43.1875 29.6875 43.1875Z" fill="#ECEFF1"/>
<path d="M36.4596 49.4369C29.8534 49.4369 24.4805 44.0639 24.4805 37.4577C24.4805 30.8514 29.8534 25.4785 36.4596 25.4785C43.0659 25.4785 48.4388 30.8514 48.4388 37.4577C48.4388 44.0639 43.0659 49.4369 36.4596 49.4369Z" fill="#2196F3"/>
<path d="M36.4596 50.9993C28.993 50.9993 22.918 44.9243 22.918 37.4577C22.918 29.991 28.993 23.916 36.4596 23.916C43.9263 23.916 50.0013 29.991 50.0013 37.4577C50.0013 44.9243 43.9263 50.9993 36.4596 50.9993ZM36.4596 27.041C30.7159 27.041 26.043 31.7139 26.043 37.4577C26.043 43.2014 30.7159 47.8743 36.4596 47.8743C42.2034 47.8743 46.8763 43.2014 46.8763 37.4577C46.8763 31.7139 42.2034 27.041 36.4596 27.041Z" fill="black"/>
<path d="M36.457 43.7494C35.5945 43.7494 34.8945 43.0494 34.8945 42.1869V30.7285C34.8945 29.866 35.5945 29.166 36.457 29.166C37.3195 29.166 38.0195 29.866 38.0195 30.7285V42.1869C38.0195 43.0494 37.3195 43.7494 36.457 43.7494Z" fill="black"/>
<path d="M42.1888 38.0215H30.7305C29.868 38.0215 29.168 37.3215 29.168 36.459C29.168 35.5965 29.868 34.8965 30.7305 34.8965H42.1888C43.0513 34.8965 43.7513 35.5965 43.7513 36.459C43.7513 37.3215 43.0513 38.0215 42.1888 38.0215Z" fill="black"/>
<path d="M19.1458 44.75H5.72917C2.56875 44.75 0 42.1812 0 39.0208V6.72917C0 3.56875 2.56875 1 5.72917 1H29.6875C32.8479 1 35.4167 3.56875 35.4167 6.72917V19.4167C35.4167 20.2792 34.7167 20.9792 33.8542 20.9792C32.9917 20.9792 32.2917 20.2792 32.2917 19.4167V6.72917C32.2917 5.29375 31.1229 4.125 29.6875 4.125H5.72917C4.29375 4.125 3.125 5.29375 3.125 6.72917V39.0208C3.125 40.4562 4.29375 41.625 5.72917 41.625H19.1458C20.0083 41.625 20.7083 42.325 20.7083 43.1875C20.7083 44.05 20.0083 44.75 19.1458 44.75Z" fill="black"/>
<path d="M27.6042 20.791H7.8125C6.95 20.791 6.25 20.091 6.25 19.2285C6.25 18.366 6.95 17.666 7.8125 17.666H27.6042C28.4667 17.666 29.1667 18.366 29.1667 19.2285C29.1667 20.091 28.4667 20.791 27.6042 20.791Z" fill="black"/>
<path d="M19.2708 29.125H7.8125C6.95 29.125 6.25 28.425 6.25 27.5625C6.25 26.7 6.95 26 7.8125 26H19.2708C20.1333 26 20.8333 26.7 20.8333 27.5625C20.8333 28.425 20.1333 29.125 19.2708 29.125Z" fill="black"/>
<path d="M17.1875 12.459H7.8125C6.95 12.459 6.25 11.759 6.25 10.8965C6.25 10.034 6.95 9.33398 7.8125 9.33398H17.1875C18.05 9.33398 18.75 10.034 18.75 10.8965C18.75 11.759 18.05 12.459 17.1875 12.459Z" fill="black"/>
</g>
<defs>
<clipPath id="clip0">
<rect width="50" height="50" fill="white"/>
</clipPath>
</defs>
</svg>
