<svg width="214" height="168" viewBox="0 0 214 168" fill="none" xmlns="http://www.w3.org/2000/svg">
<path d="M196.004 153.035C196.004 156.53 152.127 159.363 98.0021 159.363C43.8771 159.363 0 156.53 0 153.035C0 149.54 43.8771 146.706 98.0021 146.706C152.127 146.706 196.004 149.54 196.004 153.035Z" fill="#D4D6DE"/>
<path d="M7.519 152.695C7.519 152.695 -4.44424 142.283 7.02557 125.921C15.424 113.942 25.7334 114.365 21.4821 98.2913C17.231 82.2179 7.03188 70.9518 12.7546 52.6054C18.1645 35.2602 45.7252 19.3167 72.2809 33.652C87.7544 42.0046 106.182 39.4909 124.065 36.9768C136.874 35.1765 149.404 33.3757 160.371 35.5677C186.652 40.819 201.964 70.8373 189.597 100.981C177.23 131.124 180.225 144.966 186.118 150.895L7.519 152.695Z" fill="#D4D6DE"/>
<path d="M8.82119 98.6005C12.6365 98.9411 15.8089 95.9452 15.4717 92.5175C15.0192 87.9182 13.3557 81.0142 7.49413 80.0404C-1.40576 78.5618 1.04242 91.3627 4.75712 96.3296C5.89205 97.8472 7.3474 98.4688 8.82119 98.6005Z" fill="#D4D6DE"/>
<path d="M125.886 29.7007C126.626 26.8477 124.157 24.1144 120.896 23.993C116.52 23.8305 109.844 24.3315 108.284 28.6657C105.915 35.2458 118.224 34.7984 123.303 32.5301C124.856 31.8369 125.6 30.8027 125.886 29.7007Z" fill="#D4D6DE"/>
<path d="M198.466 112.937C201.192 114.548 204.904 113.417 206.16 110.713C207.847 107.085 209.636 101.291 205.647 98.4756C199.59 94.2011 195.794 104.719 196.404 109.782C196.59 111.329 197.413 112.315 198.466 112.937Z" fill="#D4D6DE"/>
<path d="M202.61 75.3727C204.497 75.9827 206.532 74.8262 206.848 73.049C207.273 70.664 207.411 66.9716 204.576 65.8061C200.272 64.0367 199.694 70.8099 200.871 73.7551C201.231 74.655 201.881 75.1368 202.61 75.3727Z" fill="#D4D6DE"/>
<path d="M79.5827 30.6571C81.0768 29.4565 80.9104 27.3001 79.3179 26.2059C77.1815 24.7371 73.627 22.8742 71.1374 24.5591C67.3578 27.1174 73.7235 30.7927 77.1705 31.2615C78.2239 31.4048 79.0053 31.1208 79.5827 30.6571Z" fill="#D4D6DE"/>
<path d="M70.0096 45.0751L70.8336 46.9492L72.2804 45.7799L65.4194 30.1771C65.7631 28.6277 66.5029 26.4928 68.0783 23.9739C71.021 19.2683 73.2238 13.7871 69.4046 14.1942C66.0905 14.548 63.8073 20.8696 64.0267 27.0088L61.3727 20.9738C60.9071 18.9809 60.2356 16.1373 60.4134 12.9236C60.8254 5.47779 59.6869 -1.6403 55.6951 0.333321C51.699 2.30866 53.9167 14.5245 60.0153 22.3456L61.3808 25.4513C57.0472 19.6818 48.8352 15.0259 45.7156 17.0819C42.6157 19.125 48.3959 21.779 54.1256 23.4124C58.4873 24.6564 61.0252 26.3675 62.2158 27.3494L68.6656 42.0184C61.7741 32.8992 48.8032 25.5623 43.8674 28.8155C38.9488 32.0576 48.1202 36.2682 57.2117 38.8608C64.0821 40.8199 68.1036 43.5116 70.0096 45.0751Z" fill="#3862B7"/>
<path d="M172.911 57.6588L171.674 59.3398L170.527 57.9277L180.828 43.9318C180.848 42.3519 180.615 40.1261 179.653 37.3692C177.856 32.2204 176.961 26.4488 180.603 27.5547C183.765 28.5147 184.546 35.1227 182.92 41.0895L186.904 35.6756C187.818 33.8118 189.128 31.154 189.693 27.9767C191.002 20.6146 193.753 13.8607 197.205 16.5309C200.661 19.2037 195.682 30.7461 187.916 37.2692L185.867 40.0553C191.433 35.2128 200.539 32.1779 203.119 34.7671C205.682 37.3404 199.416 38.8666 193.434 39.4041C188.881 39.8133 186.004 41.0179 184.613 41.7582L174.929 54.9165C183.769 47.2703 198.148 42.4935 202.23 46.5909C206.297 50.6737 196.354 53.0955 186.863 53.9483C179.69 54.593 175.136 56.4817 172.911 57.6588Z" fill="#3862B7"/>
<path d="M42.2254 70.4918C43.2554 71.3025 43.8514 72.468 43.8514 73.6974C43.8514 74.9658 43.4251 76.1725 42.6723 77.1809C42.4137 77.528 42.1155 77.8531 41.7828 78.1474C41.6471 78.2688 41.5056 78.385 41.3589 78.4944C40.8193 78.9015 40.2056 79.2386 39.5331 79.4874C37.055 80.4041 34.3187 80.6332 31.7102 80.0845C30.6135 79.8538 29.7179 79.5273 29.1931 79.0761C26.5649 76.8103 25.4425 72.1858 21.5821 72.8781C17.722 73.5704 12.3427 73.2221 11.3309 67.7405C10.3194 62.2589 0.568359 58.1606 0.568359 58.1606C0.568359 58.1606 8.29747 56.1926 14.3842 61.0183C20.4694 65.8441 21.2937 63.9828 26.8778 62.8706C32.4607 61.7578 35.5074 60.516 39.9862 67.976C40.5841 68.9724 41.3498 69.8025 42.2254 70.4918Z" fill="#3862B7"/>
<path d="M41.7804 78.1471C41.6446 78.2685 41.5032 78.3848 41.3564 78.4941C38.0629 77.0104 35.3066 74.7965 33.9808 72.5673C32.0848 69.3823 28.1089 68.1825 21.0881 68.6771C16.5738 68.9954 13.4541 65.2609 13.3233 65.1017C13.2358 64.9958 13.2617 64.8443 13.3812 64.7654C13.4996 64.6869 13.6671 64.7092 13.7557 64.8165C13.7854 64.8538 16.8312 68.4943 21.0463 68.1966C28.3085 67.6862 32.4433 68.9645 34.453 72.3403C35.7148 74.4615 38.4649 76.6608 41.6289 78.0798C41.6781 78.1016 41.7288 78.124 41.7804 78.1471Z" fill="#324EA9"/>
<path d="M44.3882 75.4902L57.4338 72.3224L57.4342 72.2846C57.4481 71.0261 57.2923 69.7718 56.9721 68.5463C55.8919 64.4107 52.867 54.1017 49.1213 52.1825C44.4126 49.7705 36.5867 50.2814 36.061 45.0451C35.5347 39.8088 32.7143 33.0674 23.5717 34.081C14.4291 35.0946 3.80469 24.3321 3.80469 24.3321C3.80469 24.3321 3.9324 35.0612 14.1694 40.8233C24.4066 46.5851 21.794 48.4244 22.3776 56.0444C22.9614 63.6648 22.2717 68.0899 36.0189 70.6825C39.7474 71.386 42.4415 73.2082 44.3882 75.4902Z" fill="#407FCA"/>
<path d="M28.3918 46.3349C30.6385 55.8513 34.413 60.608 40.6282 61.7589C44.5316 62.4825 49.1877 65.0777 52.7776 68.5325C53.9113 69.6234 55.1401 70.9844 56.2647 72.6055L57.0676 72.4107C55.8785 70.664 54.567 69.2043 53.3611 68.044C49.6078 64.433 44.9077 61.822 40.7892 61.0593C34.9263 59.9732 31.3433 55.3859 29.1722 46.1857C27.7757 40.2691 20.524 37.8472 20.2159 37.7472C20.0096 37.6799 19.7809 37.776 19.7057 37.9622C19.6305 38.1475 19.7378 38.3529 19.9439 38.4203C20.0163 38.4426 27.0886 40.8108 28.3918 46.3349Z" fill="#3862B7"/>
<path d="M202.989 123.941C200.336 129.224 194.237 128.31 193.694 132.794C193.152 137.277 189.513 140.29 185.337 138.95C181.159 137.609 178.169 136.412 175.537 140.619C172.907 144.826 166.317 146.289 164.369 142.479C163.883 141.531 163.36 140.504 162.849 139.496C162.709 139.221 162.57 138.947 162.432 138.677C162.4 138.614 162.368 138.552 162.337 138.489C160.278 134.437 161.889 129.592 166.165 127.33C167.896 126.415 169.862 126.021 171.899 126.839C178.281 129.399 176.79 123.109 181.132 121.052C183.686 119.84 185.826 120.235 187.775 120.63C189.642 121.008 191.334 121.386 193.046 120.352C197.915 117.415 205.643 118.658 202.989 123.941Z" fill="#3862B7"/>
<path d="M194.701 125.357L162.848 139.494C162.708 139.219 162.569 138.945 162.432 138.675L194.256 124.55C194.504 124.44 194.805 124.53 194.928 124.754C195.051 124.976 194.949 125.246 194.701 125.357Z" fill="#324EA9"/>
<path d="M197.147 93.9739C197.717 101.237 190.361 103.485 192.737 108.737C195.111 113.988 193.084 119.266 187.573 120.016C182.061 120.764 177.958 121.039 177.838 127.1C177.719 133.161 171.398 138.302 166.716 135.128C165.549 134.338 164.289 133.481 163.054 132.64C162.717 132.41 162.38 132.181 162.05 131.956C161.973 131.904 161.896 131.852 161.82 131.799C156.852 128.415 155.42 122.193 158.651 117.406C159.959 115.468 161.872 113.981 164.669 113.798C173.43 113.219 167.606 107.057 171.044 102.459C175.004 97.1624 181.293 99.5255 183.764 95.3174C187.202 89.4652 196.577 86.7104 197.147 93.9739Z" fill="#407FCA"/>
<path d="M188.92 99.9707L163.057 132.639C162.719 132.409 162.383 132.18 162.053 131.955L187.892 99.3161C188.094 99.0617 188.488 99.0012 188.771 99.1823C189.055 99.3633 189.122 99.7163 188.92 99.9707Z" fill="#3862B7"/>
<path d="M163.552 91.6914C172.378 86.7691 181.274 81.1597 186.678 76.8225C193.738 71.156 197.731 66.0613 198.547 61.6791C198.601 61.3887 198.382 61.1137 198.059 61.0648C197.735 61.0164 197.428 61.2128 197.374 61.5032C195.949 69.1639 183.843 79.3932 162.346 91.1136L163.552 91.6914Z" fill="#3862B7"/>
<path d="M192.504 71.3039C192.504 71.3039 195.408 74.9199 202.293 70.0886C202.293 70.0886 196.098 65.6845 192.504 71.3039Z" fill="#407FCA"/>
<path d="M189.1 73.959C189.1 73.959 193.284 71.5577 188.292 65.1195C188.292 65.1195 183.048 70.4257 189.1 73.959Z" fill="#407FCA"/>
<path d="M196.83 64.7773C196.83 64.7773 201.667 63.7654 199.352 56.2017C199.352 56.2017 192.437 59.6355 196.83 64.7773Z" fill="#407FCA"/>
<path d="M182.428 79.4903C182.428 79.4903 183.798 83.7747 192.098 81.318C192.098 81.318 187.927 75.2934 182.428 79.4903Z" fill="#407FCA"/>
<path d="M178.503 81.7246C178.503 81.7246 183.088 80.0088 179.411 72.8928C179.411 72.8928 173.224 77.3051 178.503 81.7246Z" fill="#407FCA"/>
<path d="M173.465 85.2616C173.465 85.2616 174.744 89.5687 183.095 87.2541C183.095 87.2541 179.052 81.1591 173.465 85.2616Z" fill="#407FCA"/>
<path d="M49.97 104.984C40.1091 102.045 30.0007 98.4514 23.6192 95.3646C15.2816 91.332 10.0746 87.2132 8.14285 83.1222C8.01514 82.8511 8.1557 82.5384 8.45801 82.423C8.76026 82.3081 9.10921 82.435 9.23725 82.7061C12.6143 89.8573 27.0441 97.2713 50.9933 104.17L49.97 104.984Z" fill="#3862B7"/>
<path d="M16.5222 91.2162C16.5222 91.2162 14.6373 95.3407 6.6875 92.0832C6.6875 92.0832 11.5674 86.5046 16.5222 91.2162Z" fill="#407FCA"/>
<path d="M20.5221 93.0859C20.5221 93.0859 15.8288 91.6266 19.0106 84.3211C19.0106 84.3211 25.4888 88.3842 20.5221 93.0859Z" fill="#407FCA"/>
<path d="M10.6185 85.7734C10.6185 85.7734 5.65163 85.8013 5.93768 77.9621C5.93768 77.9621 13.5542 79.8538 10.6185 85.7734Z" fill="#407FCA"/>
<path d="M28.4423 97.0713C28.4423 97.0713 28.223 101.524 19.5137 100.872C19.5137 100.872 22.0037 94.1411 28.4423 97.0713Z" fill="#407FCA"/>
<path d="M32.8446 98.4199C32.8446 98.4199 27.9408 97.7113 29.667 90.0218C29.667 90.0218 36.8299 93.0177 32.8446 98.4199Z" fill="#407FCA"/>
<path d="M38.6612 100.805C38.6612 100.805 38.536 105.261 29.8145 104.757C29.8145 104.757 32.1618 97.9844 38.6612 100.805Z" fill="#407FCA"/>
<path d="M170.643 152.896H38.3613V41.3208H164.381V147.655L164.397 147.667C164.62 150.589 167.332 152.896 170.643 152.896Z" fill="#FEF1F9"/>
<path d="M176.904 41.3208V147.275C176.904 149.759 175.11 151.866 172.622 152.609C171.999 152.796 171.334 152.896 170.642 152.896C169.923 152.896 169.231 152.787 168.587 152.586C168.152 152.451 167.739 152.273 167.356 152.06C167.013 151.87 166.695 151.653 166.401 151.409C165.158 150.384 164.381 148.911 164.381 147.275V41.3208H176.904Z" fill="#A9B3BF"/>
<path d="M170.642 152.896C170.634 152.896 170.625 152.896 170.617 152.896C170.613 152.896 170.61 152.896 170.606 152.896C170.603 152.896 170.6 152.896 170.597 152.896C170.594 152.896 170.591 152.896 170.588 152.896C170.585 152.896 170.581 152.896 170.579 152.896C170.576 152.896 170.573 152.896 170.571 152.896C170.567 152.896 170.563 152.896 170.559 152.896C170.558 152.896 170.556 152.896 170.555 152.896C169.866 152.887 169.205 152.779 168.587 152.586L168.609 152.579C168.619 152.576 168.629 152.573 168.639 152.57C169.382 152.331 170.059 151.969 170.642 151.514C171.959 150.484 172.791 148.967 172.791 147.275V41.3208H168.421H174.682V149.96C174.682 151.129 173.877 152.191 172.65 152.579L172.627 152.586L172.621 152.609C171.999 152.796 171.334 152.896 170.642 152.896ZM168.587 152.586C168.473 152.551 168.362 152.513 168.252 152.472C168.362 152.513 168.473 152.551 168.587 152.586Z" fill="#7D90A2"/>
<path d="M172.792 41.3228V147.277C172.792 148.969 171.96 150.486 170.642 151.516C170.046 151.982 169.35 152.35 168.587 152.588C167.767 152.333 167.025 151.929 166.401 151.411C165.158 150.386 164.381 148.913 164.381 147.277V41.3228H172.792Z" fill="#A9B3BF"/>
<path d="M168.588 152.588C168.605 152.583 168.623 152.577 168.641 152.571C168.631 152.574 168.621 152.577 168.611 152.581L168.588 152.588Z" fill="#60728B"/>
<path d="M168.587 152.588C168.287 152.495 167.997 152.381 167.719 152.25C167.715 152.248 167.712 152.246 167.708 152.244C167.707 152.244 167.706 152.243 167.706 152.243C167.611 152.198 167.518 152.15 167.425 152.101C167.424 152.1 167.423 152.099 167.422 152.099C167.418 152.097 167.415 152.095 167.412 152.093C167.049 151.897 166.711 151.668 166.401 151.411C167.643 150.385 168.421 148.912 168.421 147.277V41.3228H164.381V147.277V41.3228H170.642V149.963C170.642 151.122 169.851 152.176 168.639 152.572C168.622 152.577 168.604 152.583 168.587 152.588ZM166.296 151.323C165.213 150.386 164.506 149.103 164.396 147.671C164.499 149.017 165.131 150.233 166.109 151.152C166.17 151.21 166.232 151.267 166.296 151.323ZM164.396 147.67C164.396 147.668 164.396 147.665 164.395 147.662C164.396 147.665 164.396 147.667 164.396 147.67ZM164.395 147.661C164.395 147.659 164.395 147.656 164.395 147.654C164.395 147.657 164.395 147.659 164.395 147.661ZM164.395 147.652C164.394 147.65 164.394 147.648 164.394 147.645C164.394 147.648 164.394 147.65 164.395 147.652ZM164.394 147.643C164.394 147.641 164.394 147.639 164.393 147.636C164.394 147.639 164.394 147.641 164.394 147.643ZM164.393 147.635C164.393 147.632 164.393 147.63 164.393 147.627C164.393 147.63 164.393 147.632 164.393 147.635ZM164.393 147.627C164.392 147.624 164.392 147.621 164.392 147.618C164.392 147.621 164.392 147.624 164.393 147.627ZM164.392 147.618C164.391 147.607 164.391 147.596 164.39 147.585C164.391 147.596 164.391 147.607 164.392 147.618ZM164.39 147.583C164.39 147.581 164.389 147.579 164.389 147.577C164.389 147.579 164.39 147.581 164.39 147.583ZM164.389 147.575C164.389 147.573 164.389 147.57 164.389 147.568C164.389 147.57 164.389 147.573 164.389 147.575ZM164.389 147.566C164.389 147.564 164.389 147.561 164.389 147.559C164.389 147.561 164.389 147.564 164.389 147.566ZM164.389 147.557C164.389 147.555 164.388 147.553 164.388 147.551C164.388 147.553 164.389 147.555 164.389 147.557ZM164.388 147.547C164.388 147.546 164.388 147.543 164.388 147.542C164.388 147.543 164.388 147.546 164.388 147.547ZM164.388 147.539C164.388 147.537 164.387 147.534 164.387 147.533C164.387 147.534 164.388 147.537 164.388 147.539ZM164.387 147.53C164.387 147.528 164.387 147.526 164.387 147.524C164.387 147.525 164.387 147.528 164.387 147.53ZM164.387 147.521C164.387 147.519 164.387 147.517 164.386 147.515C164.387 147.517 164.387 147.519 164.387 147.521ZM164.386 147.511C164.386 147.509 164.386 147.507 164.386 147.506C164.386 147.507 164.386 147.509 164.386 147.511ZM164.386 147.502C164.386 147.496 164.385 147.489 164.385 147.482C164.385 147.489 164.386 147.496 164.386 147.502ZM164.385 147.479C164.385 147.477 164.385 147.476 164.385 147.474C164.385 147.476 164.385 147.477 164.385 147.479ZM164.384 147.47C164.384 147.468 164.384 147.467 164.384 147.465C164.384 147.467 164.384 147.468 164.384 147.47ZM164.384 147.461C164.384 147.459 164.384 147.458 164.384 147.456C164.384 147.458 164.384 147.459 164.384 147.461ZM164.384 147.452C164.384 147.45 164.384 147.448 164.384 147.447C164.384 147.449 164.384 147.45 164.384 147.452ZM164.383 147.442C164.383 147.441 164.383 147.439 164.383 147.438C164.383 147.439 164.383 147.441 164.383 147.442ZM164.383 147.433C164.383 147.431 164.383 147.43 164.383 147.429C164.383 147.43 164.383 147.431 164.383 147.433ZM164.383 147.424C164.383 147.422 164.383 147.421 164.383 147.419C164.383 147.421 164.383 147.422 164.383 147.424ZM164.383 147.414C164.383 147.413 164.383 147.412 164.383 147.41C164.383 147.412 164.383 147.413 164.383 147.414ZM164.382 147.405C164.382 147.404 164.382 147.402 164.382 147.401C164.382 147.402 164.382 147.404 164.382 147.405ZM164.382 147.394C164.382 147.394 164.382 147.393 164.382 147.392C164.382 147.393 164.382 147.394 164.382 147.394ZM164.382 147.385C164.382 147.383 164.382 147.381 164.382 147.38C164.382 147.381 164.382 147.383 164.382 147.385ZM164.382 147.374C164.382 147.373 164.382 147.371 164.382 147.371C164.382 147.371 164.382 147.373 164.382 147.374ZM164.382 147.365C164.381 147.363 164.381 147.362 164.381 147.361C164.381 147.362 164.381 147.363 164.382 147.365ZM164.381 147.356C164.381 147.354 164.381 147.353 164.381 147.351C164.381 147.353 164.381 147.354 164.381 147.356ZM164.381 147.347C164.381 147.345 164.381 147.344 164.381 147.342C164.381 147.344 164.381 147.345 164.381 147.347ZM164.381 147.337C164.381 147.336 164.381 147.334 164.381 147.333C164.381 147.334 164.381 147.336 164.381 147.337ZM164.381 147.328C164.381 147.327 164.381 147.325 164.381 147.324C164.381 147.325 164.381 147.326 164.381 147.328ZM164.381 147.319C164.381 147.317 164.381 147.316 164.381 147.314C164.381 147.316 164.381 147.317 164.381 147.319ZM164.381 147.309C164.381 147.308 164.381 147.307 164.381 147.305C164.381 147.307 164.381 147.308 164.381 147.309ZM164.381 147.299C164.381 147.298 164.381 147.297 164.381 147.296C164.381 147.297 164.381 147.298 164.381 147.299ZM164.381 147.29C164.381 147.289 164.381 147.288 164.381 147.287C164.381 147.288 164.381 147.289 164.381 147.29Z" fill="#7D90A2"/>
<path d="M168.421 41.3217V147.276C168.421 148.911 167.643 150.384 166.401 151.41C166.3 151.327 166.203 151.241 166.109 151.151C165.037 150.143 164.381 148.779 164.381 147.276V41.3217H168.421Z" fill="#A9B3BF"/>
<path d="M166.109 151.154C165.037 150.147 164.381 148.782 164.381 147.28V41.3254H166.401V149.965C166.401 150.384 166.297 150.788 166.109 151.154Z" fill="#7D90A2"/>
<path d="M44.5312 77.1872C44.5312 77.8508 45.1306 78.3887 45.8695 78.3887H104.718C105.457 78.3887 106.056 77.8508 106.056 77.1872C106.056 76.524 105.457 75.9861 104.718 75.9861H45.8695C45.1306 75.9861 44.5312 76.524 44.5312 77.1872Z" fill="#97A4AF"/>
<path d="M44.5312 82.3942C44.5312 83.0578 45.1306 83.5957 45.8695 83.5957H104.718C105.457 83.5957 106.056 83.0578 106.056 82.3942C106.056 81.731 105.457 81.1931 104.718 81.1931H45.8695C45.1306 81.1931 44.5312 81.731 44.5312 82.3942Z" fill="#97A4AF"/>
<path d="M44.5312 87.5962C44.5312 88.2594 45.1306 88.7969 45.8695 88.7969H104.718C105.457 88.7969 106.056 88.2594 106.056 87.5962C106.056 86.9326 105.457 86.3947 104.718 86.3947H45.8695C45.1306 86.3947 44.5312 86.9326 44.5312 87.5962Z" fill="#97A4AF"/>
<path d="M156.198 111.344H112.567C111.83 111.344 111.197 111.861 111.184 112.523C111.17 113.196 111.775 113.746 112.522 113.746H156.198C156.937 113.746 157.537 113.209 157.537 112.545V112.545C157.537 111.882 156.937 111.344 156.198 111.344Z" fill="#97A4AF"/>
<path d="M156.198 116.549H112.567C111.83 116.549 111.197 117.066 111.184 117.728C111.17 118.401 111.775 118.951 112.522 118.951H156.198C156.937 118.951 157.537 118.413 157.537 117.75C157.537 117.087 156.937 116.549 156.198 116.549Z" fill="#97A4AF"/>
<path d="M156.198 121.752H112.567C111.83 121.752 111.197 122.269 111.184 122.931C111.17 123.604 111.775 124.154 112.522 124.154H156.198C156.937 124.154 157.537 123.616 157.537 122.953C157.537 122.29 156.937 121.752 156.198 121.752Z" fill="#97A4AF"/>
<path d="M156.198 136.453H112.567C111.83 136.453 111.197 136.97 111.184 137.632C111.17 138.305 111.775 138.855 112.522 138.855H156.198C156.937 138.855 157.537 138.318 157.537 137.654C157.537 136.991 156.937 136.453 156.198 136.453Z" fill="#97A4AF"/>
<path d="M156.198 141.658H112.567C111.83 141.658 111.197 142.176 111.184 142.837C111.17 143.511 111.775 144.061 112.522 144.061H156.198C156.937 144.061 157.537 143.523 157.537 142.859C157.537 142.196 156.937 141.658 156.198 141.658Z" fill="#97A4AF"/>
<path d="M156.198 146.863H112.567C111.83 146.863 111.197 147.381 111.184 148.042C111.17 148.716 111.775 149.266 112.522 149.266H156.198C156.937 149.266 157.537 148.728 157.537 148.064C157.537 147.401 156.937 146.863 156.198 146.863Z" fill="#97A4AF"/>
<path d="M44.5312 94.8185C44.5312 95.4816 45.1306 96.0195 45.8695 96.0195H104.718C105.457 96.0195 106.056 95.4816 106.056 94.8185C106.056 94.1549 105.457 93.6174 104.718 93.6174H45.8695C45.1306 93.6174 44.5312 94.1549 44.5312 94.8185Z" fill="#97A4AF"/>
<path d="M44.5312 100.023C44.5312 100.687 45.1306 101.225 45.8695 101.225H104.718C105.457 101.225 106.056 100.687 106.056 100.023C106.056 99.3599 105.457 98.8225 104.718 98.8225H45.8695C45.1306 98.8225 44.5312 99.3599 44.5312 100.023Z" fill="#97A4AF"/>
<path d="M44.5312 105.224C44.5312 105.888 45.1306 106.426 45.8695 106.426H104.718C105.457 106.426 106.056 105.888 106.056 105.224C106.056 104.561 105.457 104.023 104.718 104.023H45.8695C45.1306 104.023 44.5312 104.561 44.5312 105.224Z" fill="#97A4AF"/>
<path d="M106.057 112.89V148.697C106.057 149.011 105.772 149.266 105.422 149.266H45.1704C44.8205 149.266 44.5371 149.011 44.5371 148.697V112.89C44.5371 112.576 44.8205 112.32 45.1704 112.32H105.422C105.772 112.32 106.057 112.576 106.057 112.89Z" fill="#97A4AF"/>
<path d="M55.0163 46.3613V56.8613H54.1013L47.3513 48.3413V56.8613H46.2413V46.3613H47.1563L53.9213 54.8813V46.3613H55.0163ZM65.8684 55.9013V56.8613H58.4434V46.3613H65.6434V47.3213H59.5534V51.0563H64.9834V52.0013H59.5534V55.9013H65.8684ZM82.7461 46.3613L79.2061 56.8613H78.0361L74.9611 47.9063L71.8711 56.8613H70.7161L67.1761 46.3613H68.3161L71.3461 55.3913L74.4811 46.3613H75.5161L78.6061 55.4363L81.6811 46.3613H82.7461ZM87.6763 56.9513C86.8963 56.9513 86.1463 56.8263 85.4263 56.5763C84.7163 56.3263 84.1663 55.9963 83.7763 55.5863L84.2113 54.7313C84.5913 55.1113 85.0963 55.4213 85.7263 55.6613C86.3563 55.8913 87.0063 56.0063 87.6763 56.0063C88.6163 56.0063 89.3213 55.8363 89.7913 55.4963C90.2613 55.1463 90.4963 54.6963 90.4963 54.1463C90.4963 53.7263 90.3663 53.3913 90.1063 53.1413C89.8563 52.8913 89.5463 52.7013 89.1763 52.5713C88.8063 52.4313 88.2913 52.2813 87.6313 52.1213C86.8413 51.9213 86.2113 51.7313 85.7413 51.5513C85.2713 51.3613 84.8663 51.0763 84.5263 50.6963C84.1963 50.3163 84.0313 49.8013 84.0313 49.1513C84.0313 48.6213 84.1713 48.1413 84.4513 47.7113C84.7313 47.2713 85.1613 46.9213 85.7413 46.6613C86.3213 46.4013 87.0413 46.2713 87.9013 46.2713C88.5013 46.2713 89.0863 46.3563 89.6563 46.5263C90.2363 46.6863 90.7363 46.9113 91.1563 47.2013L90.7813 48.0863C90.3413 47.7963 89.8713 47.5813 89.3713 47.4413C88.8713 47.2913 88.3813 47.2163 87.9013 47.2163C86.9813 47.2163 86.2863 47.3963 85.8163 47.7563C85.3563 48.1063 85.1263 48.5613 85.1263 49.1213C85.1263 49.5413 85.2513 49.8813 85.5013 50.1413C85.7613 50.3913 86.0813 50.5863 86.4613 50.7263C86.8513 50.8563 87.3713 51.0013 88.0213 51.1613C88.7913 51.3513 89.4113 51.5413 89.8813 51.7313C90.3613 51.9113 90.7663 52.1913 91.0963 52.5713C91.4263 52.9413 91.5913 53.4463 91.5913 54.0863C91.5913 54.6163 91.4463 55.1013 91.1563 55.5413C90.8763 55.9713 90.4413 56.3163 89.8513 56.5763C89.2613 56.8263 88.5363 56.9513 87.6763 56.9513Z" fill="#2D3243"/>
<path d="M155.971 63.4902H127.547C126.664 63.4902 125.949 62.8485 125.949 62.0571V51.3727C125.949 50.5808 126.664 49.9391 127.547 49.9391H155.971C156.854 49.9391 157.569 50.5808 157.569 51.3727V62.0571C157.569 62.8485 156.854 63.4902 155.971 63.4902Z" fill="#97A4AF"/>
<path d="M157.568 70.3125H44.5371V66.9207H157.568V70.3125Z" fill="#407FCA"/>
<path d="M157.537 129.095H111.184V132.486H157.537V129.095Z" fill="#407FCA"/>
<path d="M111.184 106.328H157.567V76.5355H111.184V106.328Z" fill="#F57F20"/>
<path d="M138.042 97.0625C132.955 97.0625 128.83 93.361 128.83 88.7944C128.83 84.2286 132.955 80.5267 138.042 80.5267C143.13 80.5267 147.254 84.2286 147.254 88.7944C147.254 93.361 143.13 97.0625 138.042 97.0625Z" fill="#F7932D"/>
<path d="M157.567 98.4452L155.312 95.0367L147.842 83.7453L132.902 106.328H157.567V98.4452Z" fill="#17181F"/>
<path d="M129.809 106.328H111.184L120.496 92.8602L129.809 79.3919L139.121 92.8602L148.433 106.328H129.809Z" fill="#2D3243"/>
<path d="M123.773 88.1235L129.811 92.1797L135.848 88.1235L129.811 79.3917L123.773 88.1235Z" fill="#FEF1F9"/>
<path d="M142.756 91.4322L147.84 95.0371L152.926 91.4322L147.84 83.7457L142.756 91.4322Z" fill="#FEF1F9"/>
<path d="M187.221 165.15C187.221 166.724 175.416 168 160.854 168C146.292 168 134.486 166.724 134.486 165.15C134.486 163.577 146.292 162.302 160.854 162.302C175.416 162.302 187.221 163.577 187.221 165.15Z" fill="#D4D6DE"/>
<path d="M181.022 165.312H160.852C160.852 164.383 161.272 163.543 161.949 162.935C162.627 162.325 163.564 161.95 164.598 161.95H164.633C164.633 161.95 168.914 161.449 168.914 158.31V139.587H172.96V158.31C172.96 161.449 177.241 161.95 177.241 161.95H177.276C179.345 161.95 181.022 163.455 181.022 165.312Z" fill="#3862B7"/>
<path d="M172.962 139.584V140.328L168.916 141.406V139.584H172.962Z" fill="#324EA9"/>
<path d="M190.34 139.584H151.545C152.185 136.407 155.272 134.099 158.871 134.108L170.942 134.137L183.013 134.108C186.612 134.099 189.699 136.407 190.34 139.584Z" fill="#407FCA"/>
<path d="M162.692 98.8969C161.679 102.254 156.579 110.998 154.597 112.252C152.019 113.883 143.936 116.945 139.731 118.507C138.973 118.788 141.786 121.768 141.786 121.768C141.786 121.768 152.66 119.286 157.09 116.748C158.343 116.03 161.059 113.592 164.496 108.704C165.538 107.222 167.951 104.277 168.218 102.173C168.527 99.7523 165.488 98.0871 162.692 98.8969Z" fill="#E0232F"/>
<path d="M150.542 157.136L150.682 160.787C150.682 160.787 149.676 161.457 147.596 161.124L146.746 157.196L150.542 157.136Z" fill="#F7956D"/>
<path d="M148.038 160.649C148.038 160.649 147.329 159.769 146.754 159.798C146.18 159.828 141.702 162.93 140.181 163.171C138.66 163.413 138.736 165.111 139.333 165.304C140.013 165.524 151.259 165.334 151.259 165.334C151.259 165.334 151.686 161.744 151.315 160.773C150.945 159.802 149.22 160.893 148.038 160.649Z" fill="#E0232F"/>
<path d="M145.555 162.823C145.609 162.838 145.669 162.834 145.721 162.808C145.825 162.757 145.862 162.642 145.805 162.549C145.786 162.519 145.334 161.791 144.715 161.501C143.892 161.113 143.239 161.526 143.211 161.544C143.116 161.606 143.095 161.725 143.163 161.81C143.231 161.896 143.364 161.915 143.459 161.853C143.478 161.842 143.932 161.564 144.519 161.839C145.023 162.075 145.429 162.727 145.433 162.734C145.46 162.778 145.505 162.809 145.555 162.823Z" fill="#FEF1F9"/>
<path d="M146.196 162.294C146.249 162.309 146.309 162.305 146.362 162.279C146.465 162.228 146.503 162.112 146.446 162.02C146.427 161.989 145.976 161.261 145.357 160.971C144.533 160.584 143.879 160.997 143.852 161.015C143.756 161.076 143.735 161.195 143.804 161.281C143.873 161.366 144.005 161.386 144.101 161.324C144.118 161.313 144.573 161.035 145.16 161.309C145.666 161.547 146.07 162.197 146.074 162.204C146.101 162.249 146.146 162.28 146.196 162.294Z" fill="#FEF1F9"/>
<path d="M144.692 163.245C144.745 163.26 144.805 163.256 144.858 163.23C144.961 163.179 144.999 163.063 144.942 162.971C144.923 162.94 144.471 162.212 143.852 161.922C143.028 161.535 142.376 161.948 142.348 161.966C142.253 162.027 142.231 162.146 142.3 162.232C142.368 162.317 142.501 162.337 142.596 162.275C142.615 162.264 143.07 161.986 143.656 162.26C144.162 162.498 144.566 163.148 144.57 163.155C144.597 163.2 144.642 163.231 144.692 163.245Z" fill="#FEF1F9"/>
<path d="M161.181 126.011C161.181 126.011 145.433 123.679 140.704 126.338C137.118 128.353 146.356 158.119 146.356 158.119C148.001 158.579 150.287 157.938 151.18 157.138C151.18 157.138 152.633 153.624 151.298 143.462C151.121 142.111 151.298 139.03 149.695 133.573L161.682 128.824L161.181 126.011Z" fill="#17181F"/>
<path d="M175.2 94.6169C175.2 94.6169 179.564 95.8956 181.896 97.7341C184.229 99.5726 182.278 105.059 182.335 108.174C182.392 111.289 181.819 129.374 176.847 131.647C173.092 133.363 157.285 130.758 158.441 126.134C159.21 123.058 160.667 117.407 161.679 109.76C162.347 104.716 162.066 100.99 162.692 98.8962C163.318 96.8024 170.623 94.402 170.623 94.402L175.2 94.6169Z" fill="#EF3434"/>
<path d="M170.393 94.4837C169.641 94.5901 168.932 94.8925 168.245 95.2897C168.245 95.2897 168.191 97.4491 169.318 98.5L172.415 96.6606L170.393 94.4837Z" fill="#FEF1F9"/>
<path d="M175.332 94.6583C176.09 94.7166 176.668 94.9487 177.128 95.2897C177.128 95.2897 177.181 97.4491 176.053 98.5L172.957 96.6606L175.332 94.6583Z" fill="#FEF1F9"/>
<path d="M170.746 101.206C172.98 101.594 175.502 99.822 175.611 99.7435C175.68 99.6941 175.692 99.6036 175.637 99.541C175.582 99.4788 175.481 99.4681 175.411 99.5183C175.385 99.5367 172.744 101.394 170.616 100.884C170.531 100.863 170.443 100.909 170.42 100.986C170.397 101.063 170.447 101.142 170.533 101.162C170.604 101.18 170.675 101.194 170.746 101.206Z" fill="#E0232F"/>
<path d="M173.92 122.758C174 122.758 174.07 122.704 174.079 122.63C174.089 122.551 174.026 122.48 173.938 122.47C168.059 121.863 165.624 112.731 165.6 112.639C165.58 112.562 165.494 112.513 165.407 112.531C165.321 112.549 165.267 112.627 165.287 112.704C165.387 113.089 167.8 122.127 173.901 122.757L173.92 122.758Z" fill="#E0232F"/>
<path d="M171.579 119.996C171.633 119.996 171.685 119.972 171.715 119.928C171.762 119.86 171.739 119.771 171.663 119.729C168.536 117.999 168.072 115.449 168.067 115.423C168.054 115.345 167.973 115.29 167.885 115.302C167.797 115.314 167.737 115.388 167.75 115.466C167.768 115.576 168.235 118.171 171.495 119.975L171.579 119.996Z" fill="#E0232F"/>
<path d="M165.039 86.1277C165.658 89.2711 168.999 91.3687 172.501 90.8132C176.003 90.2577 178.001 87.294 177.382 84.1511C176.763 81.0077 173.761 78.8745 170.259 79.43C166.757 79.9859 164.42 82.9843 165.039 86.1277Z" fill="#2D3243"/>
<path d="M165.335 84.1211C165.335 84.1211 162.456 83.113 163.176 81.8283C163.636 81.0073 164.683 81.4886 165.146 80.2523C165.608 79.0165 167.528 78.8123 169.163 78.8501C170.653 78.8844 171.156 78.2603 173.356 78.555C175.557 78.8501 176.543 80.3982 175.557 81.504C174.571 82.6099 165.335 84.1211 165.335 84.1211Z" fill="#2D3243"/>
<path d="M166.417 87.5489C166.417 87.5489 165.176 86.5061 164.625 87.6184C164.073 88.7311 165.707 91.4992 167.395 90.4924L166.417 87.5489Z" fill="#F35F56"/>
<path d="M166.82 89.6502C166.752 89.6609 166.682 89.6309 166.651 89.5726C166.189 88.7112 165.07 88.5096 165.059 88.5079C164.974 88.4929 164.918 88.4191 164.934 88.3432C164.95 88.2668 165.032 88.2166 165.117 88.2308C165.17 88.2398 166.402 88.4581 166.934 89.4503C166.971 89.5207 166.938 89.6047 166.86 89.6382L166.82 89.6502Z" fill="#F04247"/>
<path d="M165.672 89.3613L165.584 89.3523C165.505 89.3227 165.467 89.2399 165.501 89.1683C165.506 89.1563 165.642 88.8736 165.998 88.6566C166.069 88.6132 166.167 88.63 166.216 88.6939C166.265 88.7582 166.246 88.8462 166.174 88.8895C165.898 89.0576 165.791 89.2751 165.79 89.2768C165.768 89.3232 165.723 89.3532 165.672 89.3613Z" fill="#F04247"/>
<path d="M174.785 91.8911L175.361 94.811C175.361 94.811 174.277 96.3098 172.985 96.6191C171.694 96.9297 170.622 95.6587 170.622 95.6587L170.068 92.8516L174.785 91.8911Z" fill="#F7956D"/>
<path d="M174.785 91.8912L175.041 93.1871C174.333 94.2033 172.813 94.6704 170.439 94.7305L170.068 92.8517L174.785 91.8912Z" fill="#F35F56"/>
<path d="M177.042 87.6029C177.038 87.895 177.023 88.1725 176.994 88.423C176.965 88.6714 176.928 88.9416 176.877 89.223C176.466 91.4986 175.186 94.5588 170.651 93.8673C168.4 93.5259 167.002 91.5647 166.14 89.4813C165.934 88.9815 165.759 88.4736 165.609 87.9803C165.337 87.0782 165.154 86.222 165.034 85.5383C164.846 84.4565 165.306 83.3673 166.246 82.6703C168.793 80.782 171.884 80.8451 173.984 81.211C175.441 81.4658 176.55 82.5296 176.738 83.8478C176.902 84.9922 177.061 86.4301 177.042 87.6029Z" fill="#F7956D"/>
<path d="M174.411 90.5858C174.727 91.0088 174.578 91.578 174.123 91.8817C173.08 92.5796 171.75 92.7529 171.017 92.7066C170.589 92.68 170.191 92.6023 169.765 92.4522C169.045 92.1974 168.944 91.3142 169.606 90.9547C170.026 90.7252 170.694 90.5657 171.742 90.5502C173.382 89.9291 174.103 90.1723 174.411 90.5858ZM176.419 86.5794L175.601 86.8114C175.601 86.8114 175.86 88.3492 175.566 89.5151C174.466 88.6019 171.372 90.0445 171.372 90.0445C171.372 90.0445 168.088 89.7811 167.643 90.8509C167.149 90.2697 166.62 88.9485 166.262 88.0408L165.609 87.9803C165.759 88.4736 165.934 88.9815 166.141 89.4813C167.003 91.5647 168.4 93.5259 170.651 93.8673C175.186 94.5588 176.466 91.4986 176.877 89.223C176.692 87.9018 176.419 86.5794 176.419 86.5794Z" fill="#2D3243"/>
<path d="M168.905 87.5505C168.966 87.8623 168.837 88.1428 168.616 88.178C168.395 88.2132 168.167 87.9888 168.105 87.677C168.044 87.3651 168.173 87.0842 168.394 87.0494C168.614 87.0143 168.843 87.239 168.905 87.5505Z" fill="#2D3243"/>
<path d="M173.586 86.8083C173.648 87.1197 173.518 87.4011 173.297 87.4358C173.076 87.471 172.848 87.2466 172.787 86.9352C172.725 86.6234 172.855 86.3424 173.075 86.3072C173.296 86.2721 173.525 86.4964 173.586 86.8083Z" fill="#2D3243"/>
<path d="M166.863 86.0872C166.863 86.0872 168.411 85.2332 169.79 85.5261L169.788 86.0773C169.788 86.0773 168.346 86.0194 167.077 86.6895C166.944 86.457 166.805 86.3574 166.863 86.0872Z" fill="#2D3243"/>
<path d="M174.475 84.879C174.475 84.879 172.695 84.5526 171.512 85.2526L171.723 85.7695C171.723 85.7695 173.056 85.2715 174.505 85.5104C174.541 85.2509 174.633 85.1145 174.475 84.879Z" fill="#2D3243"/>
<path d="M171.556 89.4212C171.817 89.38 172.058 89.2474 172.094 89.2264C172.168 89.1852 172.19 89.0986 172.143 89.0325C172.097 88.9669 172 88.9467 171.927 88.9883C171.798 89.0613 171.478 89.1942 171.318 89.1393C171.286 89.1286 171.242 89.1046 171.216 89.0222C171.064 88.5465 170.893 86.9002 170.891 86.8835C170.883 86.8058 170.806 86.7488 170.72 86.7561C170.634 86.7629 170.571 86.8316 170.579 86.9092C170.586 86.9783 170.755 88.5993 170.914 89.0999C170.974 89.2878 171.106 89.3684 171.205 89.4027C171.315 89.44 171.438 89.44 171.556 89.4212Z" fill="#F35F56"/>
<path d="M169.779 91.0822C170.018 91.633 170.644 92.6158 172.059 92.391C173.476 92.1662 173.685 91.1444 173.691 90.462L169.779 91.0822Z" fill="#FEF1F9"/>
<path d="M166.442 88.5016C166.213 87.9478 165.952 87.228 165.962 86.8364C165.981 86.1428 166.521 85.6508 166.188 85.0382C165.854 84.4222 166.478 83.6081 167.016 83.4039C167.552 83.1984 168.91 83.2409 170.089 82.4881C171.216 81.7683 173.427 81.8048 173.914 82.4572C174.505 83.2478 173.947 83.4198 175.28 84.1644C175.811 84.4613 175.456 85.5071 175.502 86.1441C175.523 86.4362 175.546 86.5777 175.619 86.884L175.655 87.0402L177.032 86.8214C176.992 85.8292 176.869 84.7483 176.74 83.8479C176.553 82.5288 175.442 81.4659 173.985 81.2115C171.885 80.8452 168.794 80.7813 166.247 82.6708C165.308 83.3683 164.846 84.4561 165.036 85.5375C165.183 86.3774 165.426 87.476 165.811 88.6016L166.442 88.5016Z" fill="#2D3243"/>
<path d="M176.526 87.4518C176.458 87.1296 176.42 86.8019 176.42 86.4737C176.42 86.025 176.483 85.6081 176.944 85.3477C177.314 85.1388 177.74 85.0685 178.123 85.4241C179.065 86.2996 178.843 89.5245 176.873 89.0981L176.526 87.4518Z" fill="#F7956D"/>
<path d="M177.048 88.1427C177.112 88.12 177.154 88.0621 177.147 87.9973C177.042 87.0463 177.881 86.3518 177.89 86.3454C177.954 86.293 177.959 86.2043 177.901 86.1463C177.843 86.0889 177.744 86.0841 177.68 86.136C177.64 86.1682 176.715 86.9296 176.835 88.0256C176.843 88.1024 176.92 88.159 177.007 88.1517L177.048 88.1427Z" fill="#F35F56"/>
<path d="M177.862 87.3596L177.932 87.3107C177.983 87.2477 177.967 87.1597 177.897 87.1143C177.886 87.1065 177.607 86.9281 177.176 86.9092C177.09 86.9049 177.016 86.9654 177.012 87.0431C177.007 87.1207 177.074 87.1868 177.161 87.1906C177.494 87.2048 177.711 87.3412 177.714 87.3425C177.758 87.3712 177.814 87.3764 177.862 87.3596Z" fill="#F35F56"/>
<path d="M171.683 86.5753C171.638 86.3732 171.783 86.1768 172.007 86.1356L174.452 85.6873C174.677 85.6462 174.896 85.7757 174.942 85.9777L175.006 86.2583C175.098 86.6641 175.01 87.0836 174.764 87.4083C174.518 87.7322 174.203 87.9351 173.827 88.0118L173.768 88.0226C173.321 88.1045 172.866 88.0264 172.483 87.8004C172.096 87.5722 171.831 87.2217 171.737 86.8125L171.683 86.5753ZM171.395 86.6285L171.449 86.8653C171.558 87.344 171.867 87.7545 172.322 88.0217C172.77 88.2855 173.304 88.3773 173.827 88.2812L173.891 88.2697C174.343 88.1779 174.718 87.9381 175.008 87.5572C175.298 87.1728 175.403 86.6808 175.294 86.2051L175.23 85.925C175.213 85.8469 175.18 85.7757 175.134 85.7126C175.08 85.635 175.01 85.5707 174.926 85.5213C174.774 85.4317 174.586 85.3931 174.393 85.4287L171.948 85.8769C171.671 85.9276 171.466 86.1163 171.402 86.3471C171.379 86.432 171.374 86.5217 171.392 86.6117L171.395 86.6285Z" fill="#2D3243"/>
<path d="M166.785 87.4733C166.739 87.2717 166.885 87.0748 167.109 87.0336L169.555 86.5849C169.779 86.5437 169.999 86.6737 170.044 86.8758L170.108 87.1559C170.201 87.5617 170.112 87.9816 169.866 88.3063C169.621 88.6302 169.305 88.8327 168.929 88.9099L168.869 88.9206C168.423 89.0025 167.968 88.924 167.586 88.6984C167.197 88.4706 166.932 88.1197 166.839 87.7105L166.785 87.4733ZM166.496 87.5261L166.55 87.7637C166.659 88.2416 166.97 88.6521 167.424 88.9197C167.872 89.184 168.405 89.2758 168.929 89.1797L168.994 89.1677C169.445 89.0759 169.821 88.8361 170.11 88.4552C170.4 88.0708 170.505 87.5788 170.397 87.1031L170.333 86.823L170.329 86.811C170.309 86.7265 170.269 86.6493 170.216 86.5824C170.059 86.382 169.779 86.2744 169.496 86.3267L167.049 86.775C166.835 86.814 166.663 86.9371 166.566 87.098C166.52 87.1769 166.491 87.264 166.485 87.354C166.479 87.4107 166.483 87.4686 166.496 87.5261Z" fill="#2D3243"/>
<path d="M176.806 84.8769C175.968 84.997 175.424 85.3209 175.213 85.4688C175.154 85.5092 175.003 85.6434 174.996 85.649L175.183 85.8438C175.185 85.8425 175.353 85.7043 175.421 85.6597C175.629 85.5212 176.096 85.2342 176.865 85.1351L176.806 84.8769Z" fill="#2D3243"/>
<path d="M171.587 86.6016L171.626 86.3399C171.608 86.3378 171.174 86.2872 170.729 86.3682C170.256 86.4553 169.981 86.6419 169.969 86.6492L170.148 86.8594C170.15 86.8581 170.385 86.7015 170.788 86.6273C171.183 86.5548 171.583 86.6011 171.587 86.6016Z" fill="#2D3243"/>
<path d="M165.338 87.0447L165.397 87.3043C166.005 87.2395 166.611 87.3772 166.62 87.3789L166.694 87.1237C166.658 87.1147 166.007 86.9671 165.338 87.0447Z" fill="#2D3243"/>
<path d="M159.366 157.136L159.506 160.787C159.506 160.787 158.5 161.457 156.421 161.124L155.57 157.196L159.366 157.136Z" fill="#F7956D"/>
<path d="M156.86 160.649C156.86 160.649 156.151 159.769 155.577 159.798C155.002 159.828 150.525 162.93 149.003 163.171C147.483 163.413 147.558 165.111 148.155 165.304C148.836 165.524 160.081 165.334 160.081 165.334C160.081 165.334 160.508 161.744 160.138 160.773C159.767 159.802 158.042 160.893 156.86 160.649Z" fill="#EF3434"/>
<path d="M154.377 162.823C154.431 162.838 154.491 162.834 154.544 162.808C154.646 162.757 154.684 162.642 154.627 162.549C154.609 162.519 154.157 161.791 153.538 161.501C152.715 161.113 152.061 161.526 152.034 161.544C151.938 161.606 151.917 161.725 151.985 161.81C152.054 161.896 152.186 161.915 152.282 161.853C152.3 161.842 152.755 161.564 153.341 161.839C153.845 162.075 154.251 162.727 154.255 162.734C154.283 162.778 154.327 162.809 154.377 162.823Z" fill="#FEF1F9"/>
<path d="M155.022 162.294C155.075 162.309 155.135 162.305 155.188 162.279C155.291 162.228 155.329 162.112 155.272 162.02C155.253 161.989 154.801 161.261 154.182 160.971C153.359 160.584 152.705 160.997 152.678 161.015C152.583 161.076 152.561 161.195 152.63 161.281C152.699 161.366 152.831 161.386 152.927 161.324C152.944 161.313 153.4 161.035 153.986 161.309C154.492 161.547 154.895 162.197 154.9 162.204C154.927 162.249 154.972 162.28 155.022 162.294Z" fill="#FEF1F9"/>
<path d="M153.513 163.245C153.566 163.26 153.626 163.256 153.678 163.23C153.781 163.179 153.819 163.063 153.762 162.971C153.743 162.94 153.292 162.212 152.673 161.922C151.849 161.535 151.196 161.948 151.168 161.966C151.073 162.027 151.052 162.146 151.12 162.232C151.188 162.317 151.322 162.337 151.417 162.275C151.434 162.264 151.89 161.986 152.476 162.26C152.982 162.498 153.386 163.148 153.39 163.155C153.417 163.2 153.462 163.231 153.513 163.245Z" fill="#FEF1F9"/>
<path d="M180.184 126.351C180.184 126.351 152.873 125.003 148.186 126.338C144.153 127.486 155.178 158.119 155.178 158.119C156.823 158.579 159.109 157.938 160.002 157.138C160.002 157.138 160.84 155.308 159.506 145.146C159.329 143.795 159.141 139.585 157.538 134.128L175.655 134.211C179.536 134.211 180.763 131.273 180.355 127.809L180.184 126.351Z" fill="#2D3243"/>
<path d="M153.872 118.836C153.872 118.836 149.76 119.46 148.045 120.745C146.33 122.03 144.031 123.136 144.374 123.8C144.717 124.465 147.137 123.055 147.137 123.055C147.137 123.055 147.714 124.252 149.696 124.772C151.679 125.293 155.916 122.234 155.916 122.234L153.872 118.836Z" fill="#F7956D"/>
<path d="M180.967 97.0933C178.674 100.214 169.896 111 167.915 112.253C165.337 113.885 158.124 117.275 153.919 118.837C153.161 119.118 155.604 122.326 155.604 122.326C155.604 122.326 165.978 119.288 170.408 116.75C171.661 116.032 176.873 111.346 180.196 107.189C181.334 105.765 183.186 103.788 183.454 101.684C183.763 99.2638 182.915 97.9679 180.967 97.0933Z" fill="#E0232F"/>
<path d="M159.553 126.336H138.941C138.331 126.336 137.836 125.892 137.836 125.344V124.659C137.836 124.111 138.331 123.667 138.941 123.667H159.553C160.164 123.667 160.659 124.111 160.659 124.659V125.344C160.659 125.892 160.164 126.336 159.553 126.336Z" fill="#17181F"/>
<path d="M133.998 126.336L129.354 110.727C129.093 109.85 129.829 108.99 130.84 108.99H141.059C141.748 108.99 142.353 109.402 142.54 109.997L147.654 126.336H133.998Z" fill="#2D3243"/>
<path d="M142.543 109.999L147.613 126.203H148.781L143.71 109.999C143.522 109.404 142.918 108.991 142.228 108.991H141.061C141.75 108.991 142.354 109.404 142.543 109.999Z" fill="#17181F"/>
<path d="M139.915 118.364C140.18 119.394 139.465 120.229 138.318 120.229C137.171 120.229 136.026 119.394 135.76 118.364C135.495 117.335 136.21 116.5 137.357 116.5C138.504 116.5 139.649 117.335 139.915 118.364Z" fill="#414C60"/>
<path d="M105.458 162.524C105.458 164.489 93.3776 166.08 78.4761 166.08C63.5742 166.08 51.4941 164.489 51.4941 162.524C51.4941 160.561 63.5742 158.969 78.4761 158.969C93.3776 158.969 105.458 160.561 105.458 162.524Z" fill="#D4D6DE"/>
<path d="M50.4935 133.713C50.3396 133.713 50.2148 133.82 50.2091 133.957C50.103 136.624 50.4251 141.564 53.7708 144.676C55.5879 146.365 58.1464 147.334 61.3897 147.563L66.3604 133.713H50.4935ZM64.5117 151.486H62.9411C57.7387 151.486 53.6092 150.099 50.6679 147.364C46.2154 143.222 45.7695 137.099 45.8995 133.818C45.9884 131.589 48.0063 129.843 50.4935 129.843H72.2802L64.5117 151.486Z" fill="#E6E3EC"/>
<path d="M99.8245 161.31V120.896C99.8245 116.045 59.8223 116.045 59.8223 120.896V161.31C59.8223 164.991 99.8245 164.991 99.8245 161.31Z" fill="#E6E3EC"/>
<path d="M79.9754 129.533C70.7228 129.533 63.9001 128.35 59.8223 127.367V125.018C63.6282 125.98 70.5182 127.28 79.9754 127.28C89.1567 127.28 95.9297 126.064 99.8245 125.112V127.454C95.6845 128.419 88.9603 129.533 79.9754 129.533Z" fill="#BEC1C9"/>
<path d="M97.8114 120.385C97.8114 121.545 89.758 122.484 79.8225 122.484C69.8879 122.484 61.834 121.545 61.834 120.385C61.834 119.226 69.8879 118.287 79.8225 118.287C89.758 118.287 97.8114 119.226 97.8114 120.385Z" fill="#2D3243"/>
<path d="M103.367 48.5594C103.374 48.3261 102.611 47.8632 101.859 47.4652L101.902 47.3914C102.981 47.8306 104.86 48.5251 104.816 48.0138C104.788 47.6788 103.201 47.0396 102.233 46.6797C102.252 46.6326 102.27 46.5854 102.288 46.5378C103.448 46.9517 105.727 47.6947 105.644 47.1177C105.587 46.7325 103.593 46.0642 102.559 45.7429C102.572 45.7 102.585 45.658 102.597 45.6168C103.597 45.9321 105.535 46.4726 105.452 45.8982C105.376 45.3783 102.339 44.6898 102.339 44.6898L101.24 44.3072C101.24 44.3072 101.334 43.9512 102.214 43.8855C103.093 43.8199 103.604 43.3794 102.548 43.2155C101.353 43.0302 100.247 43.1983 99.4203 43.0452C98.5939 42.8921 97.7188 43.5651 97.7188 43.5651L96.457 45.247C96.457 45.247 99.253 47.6097 101.214 47.9795C102.167 48.4556 103.354 48.9652 103.367 48.5594Z" fill="#F7956D"/>
<path d="M104.614 25.6501L110.3 41.3203L105.564 41.3057L102.143 34.0096C102.143 34.0096 102.513 26.6547 104.614 25.6501Z" fill="#E0232F"/>
<path d="M109.354 41.1269C109.354 41.1269 109.739 42.7364 110.437 43.1881C111.136 43.6398 110.997 41.3955 110.997 41.3955C110.997 41.3955 111.186 44.1047 111.916 44.1875C112.646 44.2707 112.545 41.634 112.545 41.634C112.545 41.634 112.985 43.4519 113.537 43.566C114.089 43.6792 114.104 41.7498 114.104 41.7498C114.104 41.7498 114.615 43.1589 115.023 43.2867C115.431 43.4141 115.659 41.7888 115.443 40.9566C115.227 40.124 114.068 40.6105 114.068 40.6105C114.068 40.6105 112.985 40.3136 112.603 40.6444C112.603 40.6444 111.635 40.2501 111.084 40.4882C111.084 40.4882 109.5 40.0533 109.354 41.1269Z" fill="#F7956D"/>
<path d="M103.789 29.1728C103.97 30.5913 104.473 32.0232 103.802 34.2795C103.589 34.9946 103.26 35.5625 102.641 36.5427L102.608 36.5967L102.552 36.6881L102.538 36.7108L102.537 36.7121C102.53 36.755 102.525 36.7987 102.519 36.8429C102.511 36.8983 102.503 36.9545 102.496 37.0102L102.495 37.0171C102.403 37.5975 102.336 37.9724 102.29 38.2297L101.648 41.3066H88.0176L88.0893 23.9082L92.6666 23.5436H92.668L93.0633 23.5118L93.4585 23.4792L93.5049 23.4771L94.737 23.3776C94.8465 23.3686 94.9531 23.3617 95.0625 23.3561C96.721 23.2635 98.3828 23.496 99.938 24.0335L99.9911 24.0515L100.677 24.2891H100.678V24.29L100.719 24.3037L101.203 24.4718L101.39 24.5362L104.611 25.6519C104.448 26.3035 103.935 28.5182 103.789 29.1728Z" fill="#EF3434"/>
<path d="M102.553 36.6868L102.539 36.7095L102.538 36.7108C102.531 36.7537 102.526 36.7975 102.52 36.8417C102.512 36.897 102.504 36.9532 102.497 37.0089L102.496 37.0158C98.5692 37.5846 94.3465 36.722 94.0708 36.6632C93.9828 36.6452 93.9274 36.5663 93.9475 36.4861C93.969 36.4071 94.0569 36.3582 94.1449 36.3762C94.2127 36.3908 98.5826 37.2843 102.553 36.6868Z" fill="#E0232F"/>
<path d="M101.392 24.5345C101.324 25.8806 100.852 27.7607 99.6995 28.3333C97.8241 29.265 94.1659 26.2456 92.6699 23.5419V23.5406L93.0652 23.5101L93.459 23.4784L93.4604 23.4775L93.5068 23.4754L94.7389 23.3759C94.8484 23.3669 94.955 23.36 95.0644 23.3544C96.7229 23.2618 98.3847 23.4943 99.94 24.0318L99.993 24.0498L100.679 24.2874V24.2883H100.68L100.72 24.3029L101.205 24.4701L101.392 24.5345Z" fill="#F7956D"/>
<path d="M94.1568 18.6736C92.5972 18.0143 91.9157 16.3585 92.6082 14.9417L92.6273 14.9018C93.3681 13.3743 94.4125 11.2711 94.4125 11.2711C96.7353 6.72931 102.317 7.74895 102.317 7.74895C109.086 8.86252 109.153 14.3042 108.156 16.9818C108.088 17.1641 108.012 17.3468 107.928 17.5274L107.923 17.5429C107.8 17.8792 107.535 18.3403 107.199 18.8803C105.781 21.1564 102.668 22.1022 100.005 21.0599C98.042 20.292 96.0943 19.4929 94.1568 18.6736Z" fill="#2D3243"/>
<path d="M105.304 8.70358C105.304 8.70358 104.003 2.70207 97.6173 5.02401C91.2324 7.34595 92.488 20.0898 86.6016 19.533C86.6016 19.533 88.4756 22.0613 92.4918 20.9181C96.508 19.7754 95.3757 6.935 105.304 8.70358Z" fill="#2D3243"/>
<path d="M105.605 17.21C105.605 17.21 106.914 16.4272 107.287 17.4996C107.66 18.5715 105.754 20.86 104.295 19.74L105.605 17.21Z" fill="#F35F56"/>
<path d="M105.116 19.7811C105.06 19.9339 105.153 20.0981 105.324 20.1479C105.494 20.1972 105.677 20.114 105.732 19.9613C105.787 19.8082 105.694 19.6443 105.524 19.5946C105.354 19.5448 105.171 19.6284 105.116 19.7811Z" fill="#FEF1F9"/>
<path d="M104.953 19.0518C105.016 19.0698 105.085 19.0514 105.123 19.0029C105.672 18.2848 106.753 18.2445 106.764 18.2441C106.846 18.2415 106.909 18.1823 106.903 18.1115C106.898 18.0408 106.827 17.985 106.746 17.9872C106.695 17.9884 105.504 18.0305 104.872 18.8571C104.827 18.9158 104.847 18.9956 104.916 19.036L104.953 19.0518Z" fill="#F04247"/>
<path d="M106.069 18.9384L106.153 18.9414C106.233 18.9242 106.279 18.8548 106.257 18.7857C106.253 18.7745 106.163 18.5022 105.855 18.2619C105.793 18.2135 105.699 18.216 105.644 18.2684C105.59 18.3203 105.596 18.4014 105.658 18.4498C105.896 18.636 105.969 18.8453 105.969 18.8475C105.984 18.8916 106.022 18.9247 106.069 18.9384Z" fill="#F04247"/>
<path d="M96.5129 20.5094L95.3691 23.6657C95.3691 23.6657 96.5936 25.2747 97.8334 25.7453C99.0708 26.2167 100 24.9959 100 24.9959L101.065 22.0584L96.5129 20.5094Z" fill="#F7956D"/>
<path d="M96.4018 20.8181L95.9453 22.0775C96.4921 23.1795 97.902 23.925 100.259 24.2832L100.953 22.3675L96.4018 20.8181Z" fill="#F35F56"/>
<path d="M105.725 18.5724C105.574 18.8654 105.414 19.1618 105.241 19.4527C104.094 21.3873 101.844 23.1824 99.8826 23.0211C95.647 22.6733 95.0166 19.4149 95.1289 17.1796C95.1418 16.9317 95.3674 16.7086 95.4099 16.4229C95.5108 15.7456 95.4859 14.9353 95.68 14.2005C95.8148 13.6909 95.9605 13.192 96.0972 12.7429C96.4853 11.4767 97.7055 10.5656 99.126 10.4849C101.174 10.367 104.113 10.6582 106.223 12.7918C107.003 13.5803 107.267 14.6956 106.917 15.7289C106.648 16.5186 106.255 17.5387 105.725 18.5724Z" fill="#F7956D"/>
<path d="M100.338 18.755C100.264 18.7336 100.216 18.6671 100.228 18.5963C100.242 18.5174 100.323 18.4629 100.411 18.4745L100.966 18.5491L100.869 16.6047C100.865 16.5253 100.934 16.4575 101.023 16.4537C101.112 16.4507 101.187 16.512 101.191 16.5918L101.306 18.8867L100.364 18.7606L100.338 18.755Z" fill="#F35F56"/>
<path d="M105.462 14.6735C106.775 15.7549 105.69 17.2558 105.912 18.2325C105.926 18.296 105.958 18.3157 106.005 18.299C106.548 17.2464 106.95 16.207 107.223 15.4023C107.58 14.3479 107.29 13.2052 106.461 12.3919C104.219 10.1905 101.128 9.86531 98.9773 9.9674C97.4856 10.0369 96.2133 10.9574 95.82 12.2486C95.6814 12.7067 95.5342 13.2155 95.3984 13.7354C95.6049 13.9468 96.2071 14.1913 96.0996 14.5684C95.8152 15.5649 95.6259 16.2486 95.8745 16.2568C96.2932 16.2692 96.9599 15.1561 96.7988 14.2638C96.7988 14.2638 97.3375 13.852 98.9539 13.7744C101.028 13.6749 103.143 13.2489 103.143 13.2489C103.143 13.2489 103.979 13.0752 104.398 12.741C104.398 12.741 104.462 13.8503 105.462 14.6735Z" fill="#2D3243"/>
<path d="M102.964 16.9869C102.854 17.2897 102.939 17.5857 103.154 17.6483C103.369 17.7114 103.631 17.5166 103.741 17.2133C103.851 16.9109 103.766 16.6145 103.551 16.5515C103.337 16.4888 103.074 16.684 102.964 16.9869Z" fill="#2D3243"/>
<path d="M98.7649 15.7638C98.6549 16.067 98.74 16.3634 98.9546 16.4256C99.1692 16.4887 99.4321 16.294 99.542 15.9907C99.6514 15.6883 99.5669 15.3919 99.3523 15.3288C99.1377 15.2662 98.8743 15.4614 98.7649 15.7638Z" fill="#2D3243"/>
<path d="M104.923 15.9674C104.631 15.8216 104.031 15.5471 103.351 15.3721C103.172 15.3257 102.987 15.4047 102.965 15.5381L102.965 15.5411C102.948 15.6483 103.044 15.7513 103.189 15.7826C103.658 15.8855 104.856 16.2424 105.359 16.5547C105.401 16.4865 105.375 16.3934 105.321 16.3033C105.238 16.1661 105.094 16.0528 104.923 15.9674Z" fill="#2D3243"/>
<path d="M98.6501 14.2107C98.9828 14.2433 99.6486 14.3291 100.317 14.5384C100.493 14.5937 100.593 14.7537 100.525 14.8738L100.524 14.8768C100.469 14.9729 100.324 15.0072 100.185 14.9583C99.7356 14.7988 98.5287 14.4702 97.916 14.4638C97.9256 14.387 98.0068 14.3248 98.1096 14.2789C98.2649 14.2094 98.4556 14.1918 98.6501 14.2107Z" fill="#2D3243"/>
<path d="M101.74 20.0694C101.451 20.5185 100.753 21.2953 99.4809 20.9239C98.2067 20.552 98.1427 19.637 98.222 19.0429L101.74 20.0694Z" fill="#FEF1F9"/>
<path d="M99.1997 21.7581C99.5668 21.8649 99.9554 21.7821 99.9716 21.7787C100.056 21.7602 100.108 21.6835 100.087 21.6075C100.067 21.5312 99.9817 21.4848 99.8971 21.5029C99.8937 21.5037 99.5773 21.5698 99.2977 21.4883C98.9947 21.3999 98.7758 21.1769 98.7734 21.1743C98.7161 21.1155 98.6167 21.1091 98.5507 21.1606C98.4847 21.2116 98.4776 21.3008 98.5345 21.36C98.5454 21.3716 98.8112 21.6444 99.1997 21.7581Z" fill="#F35F56"/>
<path d="M96.1088 14.4281C96.1088 14.4281 95.4564 12.9405 94.5139 13.6011C93.5718 14.2612 93.5652 17.0224 95.3426 16.8667L96.1088 14.4281Z" fill="#F7956D"/>
<path d="M94.344 16.6369C94.289 16.7896 94.3817 16.9535 94.5519 17.0032C94.7225 17.053 94.9051 16.9693 94.9605 16.8166C95.016 16.6639 94.9227 16.4996 94.7526 16.4503C94.5824 16.4001 94.3994 16.4842 94.344 16.6369Z" fill="#FEF1F9"/>
<path d="M95.2842 15.9943C95.2268 15.9772 95.1867 15.9278 95.189 15.8708C95.2273 15.0292 94.4501 14.4561 94.442 14.451C94.3827 14.4076 94.3732 14.3295 94.4215 14.2764C94.4693 14.2232 94.5562 14.2146 94.6155 14.2571C94.6518 14.2837 95.5093 14.9116 95.4653 15.8811C95.4624 15.9497 95.3979 16.0025 95.3214 15.9999L95.2842 15.9943Z" fill="#F35F56"/>
<path d="M94.5249 15.3455L94.4609 15.306C94.4126 15.2528 94.4212 15.1748 94.4805 15.131C94.4905 15.1242 94.7262 14.9543 95.1037 14.9183C95.1793 14.9105 95.2476 14.9603 95.2557 15.0285C95.2639 15.0967 95.2089 15.1576 95.1329 15.1649C94.8409 15.1932 94.6573 15.3223 94.6554 15.3236C94.6177 15.3515 94.5684 15.3579 94.5249 15.3455Z" fill="#F35F56"/>
<path d="M97.2428 45.8652C97.2428 45.8652 90.7618 44.8559 82.2511 40.8087C81.9944 40.6865 81.7626 40.5256 81.5351 40.3634C81.4008 40.2674 81.278 40.179 81.2784 40.1773L81.2789 40.1768C81.0968 37.7215 82.8265 33.5937 84.0347 29.9819C84.8334 27.593 85.8849 24.7156 88.0925 23.9083C88.4825 24.3192 89.1994 26.0166 89.2487 26.8814C89.3682 28.9721 88.733 31.0778 88.2985 32.2403C87.6757 33.909 87.2399 36.0409 86.6701 37.7082L86.6152 37.9364C86.685 37.9527 89.0384 39.1246 92.2507 40.4522C95.7703 41.9073 98.3249 43.2194 98.3249 43.2194C97.1902 44.137 97.2428 45.8652 97.2428 45.8652Z" fill="#E0232F"/>
<path d="M19.3901 11.4512H18.9633C18.8872 11.4512 18.8168 11.4147 18.7787 11.3555C18.7404 11.2963 18.7404 11.2234 18.7787 11.1642L18.9921 10.8322C19.0509 10.7408 19.1812 10.7095 19.2835 10.7623C19.3855 10.815 19.4205 10.9321 19.3616 11.0239L19.333 11.0685H19.3901C19.5079 11.0685 19.6035 11.1539 19.6035 11.2598C19.6035 11.3658 19.5079 11.4512 19.3901 11.4512Z" fill="#EF3434"/>
<path d="M21.0727 8.17501L20.9663 8.14927C20.8642 8.09651 20.8295 7.9794 20.8881 7.8876L21.2673 7.29865C21.3262 7.20685 21.4564 7.17553 21.5587 7.22829C21.6606 7.28105 21.6957 7.39859 21.6365 7.48996L21.2577 8.07935C21.2181 8.14069 21.1464 8.17501 21.0727 8.17501ZM20.3147 9.35292L20.2083 9.32762C20.1064 9.27443 20.0712 9.15732 20.1303 9.06595L20.509 8.47656C20.5683 8.38519 20.6985 8.35388 20.8007 8.40664C20.9026 8.4594 20.9375 8.5765 20.8789 8.66787L20.4997 9.25726C20.4603 9.3186 20.3885 9.35292 20.3147 9.35292ZM19.5567 10.5312L19.4503 10.5055C19.3483 10.4528 19.3135 10.3357 19.3724 10.2439L19.7514 9.65491C19.8102 9.56354 19.9408 9.53223 20.0429 9.58499C20.1448 9.63775 20.1797 9.75485 20.1207 9.84622L19.7419 10.4356C19.7024 10.4969 19.6307 10.5312 19.5567 10.5312Z" fill="#EF3434"/>
<path d="M22.2576 6.99593C22.1839 6.99593 22.1122 6.96163 22.0724 6.89986L22.0441 6.85566L22.0153 6.89986C21.9565 6.99208 21.8262 7.02338 21.724 6.97019C21.6219 6.91743 21.5868 6.80034 21.6458 6.70854L21.8592 6.37696C21.8975 6.31777 21.9677 6.28131 22.0441 6.28131C22.12 6.28131 22.1906 6.31777 22.2289 6.37696L22.4423 6.70854C22.5009 6.80034 22.466 6.91743 22.3641 6.97019L22.2576 6.99593Z" fill="#EF3434"/>
<path d="M23.0126 8.17501C22.9389 8.17501 22.867 8.14068 22.8276 8.07891L22.4486 7.48996C22.3896 7.39859 22.4245 7.28105 22.5266 7.22829C22.6286 7.17553 22.7591 7.20685 22.8181 7.29865L23.1973 7.8876C23.2559 7.9794 23.221 8.09651 23.119 8.14927L23.0126 8.17501ZM23.7702 9.35292C23.6965 9.35292 23.625 9.3186 23.5856 9.25726L23.2064 8.66787C23.1474 8.5765 23.1825 8.4594 23.2844 8.40664C23.3868 8.35388 23.517 8.38519 23.5759 8.47656L23.9549 9.06595C24.0141 9.15732 23.9789 9.27442 23.877 9.32718L23.7702 9.35292ZM24.5284 10.5312C24.4547 10.5312 24.383 10.4969 24.3432 10.4356L23.9646 9.84622C23.9054 9.75485 23.9405 9.63775 24.0425 9.58499C24.1445 9.53223 24.2751 9.56354 24.3339 9.65491L24.7129 10.2439C24.7717 10.3357 24.737 10.4528 24.6346 10.5055L24.5284 10.5312Z" fill="#EF3434"/>
<path d="M25.1243 11.4512H24.6977C24.58 11.4512 24.4844 11.3658 24.4844 11.2598C24.4844 11.1539 24.58 11.0685 24.6977 11.0685H24.7549L24.7261 11.0239C24.6673 10.9321 24.7024 10.815 24.8044 10.7623C24.9067 10.7095 25.037 10.7408 25.0958 10.8322L25.3092 11.1642C25.3471 11.2234 25.3471 11.2963 25.3092 11.3555C25.2711 11.4147 25.2007 11.4512 25.1243 11.4512Z" fill="#EF3434"/>
<path d="M20.905 11.4512H20.147C20.0294 11.4512 19.9336 11.3658 19.9336 11.2598C19.9336 11.1539 20.0294 11.0685 20.147 11.0685H20.905C21.0228 11.0685 21.1182 11.1539 21.1182 11.2598C21.1182 11.3658 21.0228 11.4512 20.905 11.4512ZM22.421 11.4512H21.663C21.5452 11.4512 21.4498 11.3658 21.4498 11.2598C21.4498 11.1539 21.5452 11.0685 21.663 11.0685H22.421C22.5388 11.0685 22.6342 11.1539 22.6342 11.2598C22.6342 11.3658 22.5388 11.4512 22.421 11.4512ZM23.9368 11.4512H23.1788C23.061 11.4512 22.9654 11.3658 22.9654 11.2598C22.9654 11.1539 23.061 11.0685 23.1788 11.0685H23.9368C24.0546 11.0685 24.15 11.1539 24.15 11.2598C24.15 11.3658 24.0546 11.4512 23.9368 11.4512Z" fill="#EF3434"/>
<path d="M33.3446 8.63589L33.3143 8.63375C33.0547 8.60073 32.784 8.60073 32.5242 8.63375C32.4074 8.64834 32.2997 8.57584 32.283 8.47118C32.2663 8.36651 32.3475 8.26957 32.4641 8.25498C32.7636 8.21638 33.0752 8.21638 33.3745 8.25498C33.4912 8.26957 33.5724 8.36651 33.5557 8.47118C33.5404 8.56684 33.4492 8.63589 33.3446 8.63589ZM30.9633 9.26347C30.9035 9.26347 30.8444 9.24116 30.8022 9.19741C30.7249 9.11762 30.7344 8.99666 30.8234 8.92759C31.0546 8.74743 31.3122 8.59857 31.5897 8.4849C31.6968 8.44072 31.8232 8.48319 31.8723 8.57928C31.9214 8.67536 31.8742 8.78903 31.767 8.83322C31.5267 8.93145 31.3032 9.06056 31.1031 9.2167C31.0628 9.24801 31.0127 9.26347 30.9633 9.26347ZM34.8753 9.26389C34.8256 9.26389 34.7759 9.24845 34.7358 9.21714C34.5355 9.061 34.3118 8.93187 34.0714 8.83322C33.9643 8.78946 33.9175 8.67579 33.9663 8.57928C34.0155 8.48319 34.1421 8.44114 34.2492 8.4849C34.5264 8.599 34.784 8.74786 35.0154 8.92759C35.1042 8.99708 35.1138 9.11804 35.0364 9.19783C34.9943 9.24158 34.9351 9.26389 34.8753 9.26389ZM30.0524 10.534L29.9923 10.5263C29.8793 10.4967 29.8145 10.3903 29.8476 10.2887C29.9334 10.0261 30.0612 9.77605 30.2268 9.54485C30.2906 9.45605 30.4226 9.43032 30.5216 9.48737C30.6207 9.54485 30.6493 9.66324 30.5856 9.75203C30.442 9.95236 30.3315 10.169 30.2572 10.3963C30.2297 10.48 30.145 10.534 30.0524 10.534ZM35.7858 10.5345C35.6936 10.5345 35.6085 10.4804 35.5812 10.3972C35.5067 10.1694 35.3963 9.95279 35.2529 9.75289C35.1893 9.66367 35.218 9.54528 35.3169 9.48823C35.4159 9.43075 35.5478 9.45649 35.6118 9.54529C35.7772 9.77649 35.9048 10.0266 35.9908 10.2895C36.0238 10.3908 35.9588 10.4971 35.846 10.5272L35.7858 10.5345ZM30.0522 12.0448C29.9598 12.0448 29.8748 11.9908 29.8476 11.9071C29.7621 11.6455 29.7188 11.3735 29.7188 11.0981C29.7188 10.9921 29.8141 10.9068 29.9322 10.9068C30.05 10.9068 30.1456 10.9922 30.1456 11.0977C30.1456 11.337 30.1829 11.573 30.257 11.7994C30.29 11.9011 30.2255 12.0075 30.1121 12.0371L30.0522 12.0448ZM35.7858 12.0452L35.7256 12.0375C35.6128 12.0075 35.5478 11.9011 35.5812 11.7999C35.6548 11.573 35.6926 11.337 35.6926 11.0981C35.6926 10.9921 35.7882 10.9068 35.9058 10.9068C36.0238 10.9068 36.1194 10.9921 36.1194 11.0981C36.1194 11.3735 36.0759 11.6454 35.9904 11.9075C35.9631 11.9908 35.878 12.0452 35.7858 12.0452ZM30.9629 13.3154C30.913 13.3154 30.8634 13.3004 30.823 13.2691C30.5923 13.0893 30.3916 12.8813 30.2264 12.6509C30.1625 12.5621 30.1913 12.4437 30.2902 12.3863C30.3894 12.3292 30.5214 12.3549 30.5852 12.4437C30.7282 12.6436 30.9024 12.8234 31.1025 12.9795C31.1918 13.0486 31.2013 13.17 31.124 13.2497C31.0819 13.2931 31.0226 13.3154 30.9629 13.3154ZM34.8753 13.3158C34.8156 13.3158 34.7563 13.2935 34.7138 13.2497C34.6368 13.17 34.6464 13.0486 34.7353 12.9795C34.9355 12.8238 35.1095 12.6436 35.2529 12.4442C35.3165 12.3549 35.4484 12.3292 35.5478 12.3867C35.6467 12.4437 35.6754 12.5621 35.6118 12.6509C35.4465 12.8817 35.2452 13.0893 35.0149 13.2691C34.9743 13.3004 34.9245 13.3158 34.8753 13.3158ZM33.3441 13.9434C33.2393 13.9434 33.1482 13.8743 33.1331 13.7786C33.1165 13.674 33.1973 13.5775 33.3142 13.5625C33.5763 13.529 33.831 13.4617 34.0714 13.363C34.1785 13.3192 34.3051 13.3613 34.3539 13.4578C34.4031 13.5539 34.3558 13.6676 34.2487 13.7113C33.971 13.8254 33.6771 13.9026 33.3743 13.9416L33.3441 13.9434ZM32.4942 13.9434L32.464 13.9416C32.1613 13.9026 31.8669 13.8254 31.5893 13.7113C31.4821 13.6676 31.4349 13.5539 31.484 13.4578C31.5331 13.3613 31.6595 13.3192 31.7667 13.363C32.0073 13.4617 32.2621 13.529 32.5241 13.5625C32.6406 13.5775 32.7218 13.6744 32.7052 13.7791C32.69 13.8747 32.5986 13.9434 32.4942 13.9434Z" fill="#F57F20"/>
<path d="M18.2743 16.6632L18.2438 16.6615C17.9842 16.6281 17.7135 16.6281 17.4537 16.6611C17.3371 16.6757 17.2293 16.6036 17.2123 16.4985C17.1959 16.3938 17.2771 16.2969 17.3938 16.2823C17.6933 16.2441 18.0047 16.2441 18.3042 16.2823C18.4208 16.2973 18.5019 16.3938 18.4852 16.4985C18.4701 16.5942 18.3788 16.6632 18.2743 16.6632ZM15.893 17.2908C15.8332 17.2908 15.7738 17.2685 15.7317 17.2247C15.6543 17.145 15.6641 17.024 15.7531 16.9545C15.9842 16.7748 16.2419 16.6259 16.5191 16.5122C16.6265 16.4685 16.7529 16.5105 16.802 16.6066C16.8509 16.7031 16.8038 16.8164 16.6967 16.8606C16.4564 16.9588 16.2329 17.0883 16.0328 17.244C15.9925 17.2754 15.9424 17.2908 15.893 17.2908ZM19.805 17.2912C19.7551 17.2912 19.7055 17.2758 19.6652 17.2445C19.465 17.0883 19.2414 16.9592 19.0013 16.8606C18.8941 16.8168 18.8469 16.7031 18.896 16.607C18.9449 16.511 19.0716 16.4685 19.1788 16.5127C19.4561 16.6263 19.7137 16.7752 19.9447 16.9554C20.0337 17.0244 20.0433 17.1454 19.9661 17.2252C19.924 17.2689 19.8644 17.2912 19.805 17.2912ZM14.982 18.5614L14.9219 18.5536C14.809 18.524 14.744 18.4172 14.7772 18.316C14.8631 18.0535 14.9908 17.803 15.1564 17.5722C15.2201 17.4834 15.3523 17.4577 15.4512 17.5151C15.5504 17.5722 15.5787 17.6906 15.515 17.7798C15.3715 17.9797 15.2612 18.1963 15.1867 18.4241C15.1594 18.5073 15.0745 18.5614 14.982 18.5614ZM20.7153 18.5622C20.6231 18.5622 20.538 18.5077 20.5107 18.4245C20.4364 18.1968 20.3261 17.9801 20.1825 17.7802C20.1189 17.691 20.1472 17.5726 20.2466 17.5156C20.3455 17.4581 20.4775 17.4838 20.5415 17.5726C20.7069 17.8038 20.8343 18.0539 20.9201 18.3169C20.9534 18.4181 20.8884 18.5245 20.7757 18.5541L20.7153 18.5622ZM14.9819 20.0721C14.8895 20.0721 14.8045 20.0181 14.7772 19.9349C14.6917 19.6728 14.6484 19.4008 14.6484 19.1259C14.6484 19.0199 14.7438 18.9341 14.8616 18.9341C14.9794 18.9341 15.075 19.0195 15.075 19.1254C15.075 19.3644 15.1126 19.6003 15.1865 19.8268C15.2197 19.9284 15.1549 20.0348 15.0418 20.0644L14.9819 20.0721ZM20.7155 20.0726L20.6554 20.0644C20.5421 20.0348 20.4775 19.9284 20.5107 19.8272C20.5847 19.6003 20.6222 19.3644 20.6222 19.1259C20.6222 19.0199 20.7178 18.9341 20.8356 18.9341C20.9534 18.9341 21.0488 19.0199 21.0488 19.1259C21.0488 19.4008 21.0056 19.6728 20.92 19.9349C20.8929 20.0185 20.8078 20.0726 20.7155 20.0726ZM15.8926 21.3427C15.8427 21.3427 15.7931 21.3277 15.7527 21.2964C15.522 21.1167 15.3213 20.9086 15.1561 20.6787C15.0922 20.5895 15.1209 20.4711 15.2199 20.4136C15.319 20.3565 15.4511 20.3823 15.5149 20.4711C15.6579 20.671 15.8321 20.8511 16.0322 21.0068C16.1215 21.0759 16.131 21.1973 16.0537 21.2771C16.0115 21.3208 15.9523 21.3427 15.8926 21.3427ZM19.8046 21.3431C19.7449 21.3431 19.6855 21.3208 19.6435 21.2771C19.5662 21.1973 19.5757 21.0763 19.665 21.0068C19.8649 20.8511 20.0391 20.671 20.1823 20.4715C20.2464 20.3823 20.3782 20.357 20.4773 20.414C20.5763 20.4711 20.605 20.5899 20.5413 20.6787C20.376 20.909 20.175 21.1167 19.9443 21.2964C19.904 21.3277 19.8543 21.3431 19.8046 21.3431ZM18.2735 21.9707C18.169 21.9707 18.0779 21.9021 18.0626 21.8064C18.046 21.7017 18.127 21.6048 18.2436 21.5898C18.5058 21.5563 18.7605 21.4894 19.0011 21.3908C19.1081 21.3466 19.2347 21.389 19.2836 21.4851C19.3326 21.5812 19.2854 21.6949 19.1785 21.7386C18.9006 21.8527 18.6064 21.9304 18.304 21.969L18.2735 21.9707ZM17.4239 21.9707L17.3934 21.969C17.0908 21.9304 16.7966 21.8527 16.5187 21.7386C16.4118 21.6949 16.3646 21.5812 16.4136 21.4847C16.4626 21.3886 16.5891 21.3466 16.6961 21.3903C16.9368 21.4894 17.1916 21.5563 17.4537 21.5898C17.5702 21.6048 17.6515 21.7017 17.6348 21.8064C17.6197 21.9021 17.5283 21.9707 17.4239 21.9707Z" fill="#3862B7"/>
<path d="M165.088 32.7676H165.515C165.591 32.7676 165.662 32.7311 165.7 32.6719C165.738 32.6123 165.738 32.5394 165.7 32.4802L165.486 32.1486C165.427 32.0568 165.297 32.0255 165.195 32.0783C165.093 32.1314 165.058 32.2485 165.117 32.3399L165.146 32.3845H165.088C164.971 32.3845 164.875 32.4703 164.875 32.5758C164.875 32.6818 164.971 32.7676 165.088 32.7676Z" fill="#F57F20"/>
<path d="M163.222 29.3914L162.843 28.8025C162.784 28.7111 162.819 28.594 162.921 28.5412C163.024 28.488 163.154 28.5193 163.213 28.6111L163.592 29.2001C163.651 29.2919 163.616 29.4086 163.513 29.4618L163.407 29.4875C163.334 29.4875 163.262 29.4532 163.222 29.3914ZM163.98 30.5698L163.601 29.9808C163.542 29.889 163.577 29.7719 163.679 29.7191C163.781 29.6664 163.912 29.6977 163.971 29.7895L164.35 30.3784C164.409 30.4702 164.373 30.5873 164.271 30.6401L164.165 30.6658C164.091 30.6658 164.02 30.6315 163.98 30.5698ZM164.738 31.7481L164.359 31.1591C164.3 31.0673 164.335 30.9502 164.437 30.8975C164.539 30.8447 164.67 30.876 164.728 30.9674L165.107 31.5564C165.166 31.6481 165.131 31.7653 165.029 31.818L164.923 31.8438C164.849 31.8438 164.778 31.8094 164.738 31.7481Z" fill="#F57F20"/>
<path d="M162.225 28.3105C162.299 28.3105 162.371 28.2762 162.41 28.2149L162.438 28.1703L162.467 28.2149C162.526 28.3063 162.656 28.3376 162.759 28.2848C162.86 28.232 162.896 28.1149 162.837 28.0236L162.623 27.6916C162.585 27.6324 162.515 27.5959 162.438 27.5959C162.362 27.5959 162.292 27.6324 162.254 27.6916L162.04 28.0236C161.981 28.1149 162.016 28.232 162.119 28.2848L162.225 28.3105Z" fill="#F57F20"/>
<path d="M161.359 29.4618C161.257 29.4086 161.222 29.2919 161.281 29.2001L161.66 28.6111C161.719 28.5193 161.849 28.488 161.951 28.5412C162.053 28.594 162.088 28.7111 162.029 28.8025L161.65 29.3914C161.611 29.4532 161.539 29.4875 161.465 29.4875L161.359 29.4618ZM160.601 30.6401C160.499 30.5873 160.464 30.4698 160.523 30.3784L160.902 29.7895C160.961 29.6977 161.091 29.6664 161.193 29.7191C161.295 29.7719 161.33 29.8894 161.271 29.9808L160.892 30.5698C160.853 30.6315 160.781 30.6658 160.707 30.6658L160.601 30.6401ZM159.843 31.818C159.741 31.7653 159.706 31.6481 159.765 31.5564L160.144 30.9674C160.203 30.876 160.333 30.8447 160.435 30.8975C160.537 30.9502 160.572 31.0673 160.513 31.1591L160.134 31.7481C160.095 31.8094 160.023 31.8438 159.949 31.8438L159.843 31.818Z" fill="#F57F20"/>
<path d="M159.356 32.7676H159.783C159.9 32.7676 159.996 32.6818 159.996 32.5758C159.996 32.4703 159.9 32.3845 159.783 32.3845H159.726L159.754 32.3399C159.813 32.2485 159.778 32.1314 159.676 32.0783C159.574 32.0255 159.444 32.0568 159.385 32.1486L159.172 32.4802C159.133 32.5394 159.133 32.6123 159.172 32.6719C159.209 32.7311 159.28 32.7676 159.356 32.7676Z" fill="#F57F20"/>
<path d="M163.358 32.5758C163.358 32.4703 163.453 32.3845 163.571 32.3845H164.329C164.448 32.3845 164.543 32.4703 164.543 32.5758C164.543 32.6818 164.448 32.7676 164.329 32.7676H163.571C163.453 32.7676 163.358 32.6818 163.358 32.5758ZM161.842 32.5758C161.842 32.4703 161.938 32.3845 162.056 32.3845H162.813C162.931 32.3845 163.027 32.4703 163.027 32.5758C163.027 32.6818 162.931 32.7676 162.813 32.7676H162.056C161.938 32.7676 161.842 32.6818 161.842 32.5758ZM160.326 32.5758C160.326 32.4703 160.422 32.3845 160.54 32.3845H161.298C161.415 32.3845 161.511 32.4703 161.511 32.5758C161.511 32.6818 161.415 32.7676 161.298 32.7676H160.54C160.422 32.7676 160.326 32.6818 160.326 32.5758Z" fill="#F57F20"/>
<path d="M176.366 21.3164H176.793C176.869 21.3164 176.939 21.2799 176.977 21.2203C177.016 21.1611 177.016 21.0882 176.977 21.029L176.764 20.6974C176.705 20.6056 176.575 20.5743 176.473 20.6271C176.37 20.6803 176.335 20.7974 176.395 20.8887L176.423 20.9329H176.366C176.248 20.9329 176.152 21.0191 176.152 21.1247C176.152 21.2302 176.248 21.3164 176.366 21.3164Z" fill="#EF3434"/>
<path d="M174.499 17.9402L174.12 17.3513C174.062 17.2595 174.096 17.1424 174.198 17.0896C174.301 17.0369 174.431 17.0682 174.49 17.1595L174.869 17.7489C174.928 17.8403 174.893 17.9574 174.79 18.0106L174.684 18.0359C174.61 18.0359 174.539 18.002 174.499 17.9402ZM175.257 19.1186L174.878 18.5296C174.82 18.4378 174.854 18.3207 174.956 18.268C175.059 18.2148 175.189 18.2465 175.248 18.3379L175.627 18.9268C175.686 19.0186 175.651 19.1357 175.548 19.1885L175.442 19.2147C175.368 19.2147 175.297 19.1799 175.257 19.1186ZM176.015 20.2969L175.636 19.7075C175.578 19.6162 175.612 19.4991 175.714 19.4459C175.817 19.3931 175.947 19.4244 176.006 19.5162L176.384 20.1056C176.444 20.197 176.409 20.3141 176.306 20.3668L176.2 20.3926C176.126 20.3926 176.055 20.3583 176.015 20.2969Z" fill="#EF3434"/>
<path d="M173.496 16.8594C173.57 16.8594 173.642 16.8251 173.682 16.7637L173.71 16.7191L173.739 16.7637C173.797 16.8551 173.928 16.8864 174.03 16.8336C174.132 16.7809 174.167 16.6638 174.108 16.572L173.895 16.2404C173.857 16.1812 173.786 16.1447 173.71 16.1447C173.634 16.1447 173.564 16.1812 173.525 16.2404L173.312 16.572C173.253 16.6638 173.288 16.7809 173.39 16.8336L173.496 16.8594Z" fill="#EF3434"/>
<path d="M172.634 18.0106C172.532 17.9574 172.497 17.8403 172.556 17.7489L172.935 17.1595C172.994 17.0682 173.125 17.0369 173.226 17.0896C173.329 17.1424 173.364 17.2595 173.305 17.3513L172.926 17.9402C172.886 18.0016 172.814 18.0359 172.74 18.0359L172.634 18.0106ZM171.876 19.1885C171.774 19.1357 171.739 19.0186 171.798 18.9268L172.177 18.3379C172.236 18.2465 172.367 18.2152 172.469 18.268C172.571 18.3207 172.606 18.4378 172.547 18.5296L172.168 19.1186C172.128 19.1799 172.057 19.2147 171.983 19.2147L171.876 19.1885ZM171.119 20.3668C171.016 20.3141 170.981 20.197 171.04 20.1056L171.419 19.5162C171.478 19.4244 171.609 19.3931 171.711 19.4459C171.813 19.4991 171.848 19.6162 171.789 19.7075L171.41 20.2969C171.37 20.3583 171.299 20.3926 171.225 20.3926L171.119 20.3668Z" fill="#EF3434"/>
<path d="M170.629 21.3164H171.056C171.174 21.3164 171.269 21.2302 171.269 21.1247C171.269 21.0191 171.174 20.9329 171.056 20.9329H170.999L171.027 20.8887C171.086 20.7974 171.051 20.6803 170.95 20.6271C170.847 20.5743 170.717 20.6056 170.658 20.6974L170.444 21.029C170.407 21.0882 170.407 21.1611 170.444 21.2203C170.483 21.2799 170.553 21.3164 170.629 21.3164Z" fill="#EF3434"/>
<path d="M174.638 21.1247C174.638 21.0191 174.733 20.9329 174.851 20.9329H175.609C175.726 20.9329 175.822 21.0191 175.822 21.1247C175.822 21.2302 175.726 21.3164 175.609 21.3164H174.851C174.733 21.3164 174.638 21.2302 174.638 21.1247ZM173.122 21.1247C173.122 21.0191 173.217 20.9329 173.335 20.9329H174.093C174.21 20.9329 174.306 21.0191 174.306 21.1247C174.306 21.2302 174.21 21.3164 174.093 21.3164H173.335C173.217 21.3164 173.122 21.2302 173.122 21.1247ZM171.605 21.1247C171.605 21.0191 171.701 20.9329 171.819 20.9329H172.577C172.695 20.9329 172.79 21.0191 172.79 21.1247C172.79 21.2302 172.695 21.3164 172.577 21.3164H171.819C171.701 21.3164 171.605 21.2302 171.605 21.1247Z" fill="#EF3434"/>
<path d="M163.163 17.9849C163.147 17.8802 163.228 17.7832 163.344 17.7682C163.644 17.7301 163.955 17.7301 164.255 17.7682C164.372 17.7832 164.452 17.8798 164.436 17.9849C164.419 18.0895 164.311 18.162 164.195 18.1474C163.935 18.1144 163.665 18.1144 163.405 18.1474L163.374 18.1496C163.27 18.1496 163.178 18.0805 163.163 17.9849ZM165.616 18.7304C165.415 18.5742 165.192 18.4451 164.952 18.3465C164.845 18.3027 164.797 18.189 164.846 18.0929C164.895 17.9969 165.023 17.9544 165.129 17.9986C165.406 18.1122 165.664 18.2611 165.896 18.4408C165.984 18.5099 165.994 18.6313 165.917 18.7111C165.875 18.7544 165.815 18.7771 165.756 18.7771C165.706 18.7771 165.656 18.7617 165.616 18.7304ZM161.682 18.7111C161.605 18.6313 161.615 18.5103 161.704 18.4413C161.935 18.2615 162.193 18.1127 162.47 17.9986C162.576 17.9544 162.704 17.9969 162.753 18.0929C162.802 18.189 162.754 18.3027 162.647 18.3469C162.407 18.4451 162.184 18.5747 161.983 18.7304C161.943 18.7621 161.893 18.7771 161.844 18.7771C161.784 18.7771 161.725 18.7548 161.682 18.7111ZM166.462 19.91C166.388 19.6827 166.277 19.4656 166.134 19.2657C166.07 19.1769 166.098 19.0585 166.197 19.001C166.297 18.944 166.429 18.9693 166.492 19.0585C166.658 19.2893 166.785 19.5394 166.871 19.8023C166.904 19.9036 166.84 20.0104 166.726 20.04L166.666 20.0477C166.574 20.0477 166.489 19.9932 166.462 19.91ZM160.873 20.0404C160.76 20.0108 160.695 19.9044 160.728 19.8028C160.814 19.5402 160.942 19.2897 161.107 19.059C161.171 18.9702 161.303 18.9444 161.402 19.0015C161.501 19.059 161.53 19.1773 161.466 19.2661C161.322 19.4665 161.212 19.6831 161.138 19.9104C161.111 19.9941 161.025 20.0481 160.933 20.0481L160.873 20.0404ZM166.606 21.5508C166.494 21.5207 166.429 21.4143 166.462 21.3131C166.536 21.0862 166.573 20.8503 166.573 20.6113C166.573 20.5058 166.669 20.42 166.787 20.42C166.905 20.42 167 20.5058 167 20.6118C167 20.8867 166.957 21.1591 166.872 21.4208C166.844 21.504 166.759 21.5585 166.667 21.5585L166.606 21.5508ZM160.728 21.4208C160.643 21.1591 160.6 20.8867 160.6 20.6118C160.6 20.5058 160.695 20.42 160.813 20.42C160.931 20.42 161.026 20.5058 161.026 20.6118C161.026 20.8503 161.064 21.0866 161.138 21.3131C161.171 21.4148 161.106 21.5212 160.993 21.5508L160.933 21.5585C160.841 21.5585 160.756 21.5044 160.728 21.4208ZM165.595 22.763C165.518 22.6832 165.527 22.5622 165.616 22.4932C165.816 22.337 165.99 22.1569 166.134 21.957C166.198 21.8682 166.33 21.8425 166.429 21.8999C166.528 21.957 166.556 22.0754 166.493 22.1646C166.327 22.3949 166.127 22.6026 165.896 22.7823C165.856 22.8136 165.805 22.829 165.756 22.829C165.696 22.829 165.637 22.8067 165.595 22.763ZM161.704 22.7823C161.473 22.603 161.273 22.3949 161.107 22.1646C161.044 22.0758 161.072 21.9574 161.171 21.8999C161.271 21.8429 161.402 21.8686 161.466 21.9574C161.61 22.1573 161.783 22.3375 161.984 22.4932C162.073 22.5622 162.082 22.6832 162.005 22.763C161.963 22.8067 161.903 22.829 161.844 22.829C161.794 22.829 161.744 22.814 161.704 22.7823ZM163.345 23.4549C163.042 23.4163 162.748 23.3391 162.47 23.225C162.363 23.1812 162.316 23.0671 162.365 22.971C162.414 22.8749 162.541 22.8325 162.648 22.8767C162.888 22.9753 163.143 23.0422 163.405 23.0757C163.521 23.0907 163.603 23.1877 163.586 23.2923C163.571 23.388 163.48 23.457 163.375 23.457L163.345 23.4549ZM164.014 23.2923C163.997 23.1877 164.078 23.0907 164.195 23.0757C164.457 23.0422 164.712 22.9753 164.952 22.8767C165.059 22.8325 165.186 22.8749 165.235 22.971C165.284 23.0671 165.237 23.1808 165.13 23.225C164.852 23.3391 164.558 23.4163 164.255 23.4549L164.225 23.457C164.12 23.457 164.029 23.388 164.014 23.2923Z" fill="#3862B7"/>
<path d="M141.427 28.334H130.386C129.113 28.334 128.07 27.3989 128.07 26.2561V19.1959C128.07 18.0532 129.113 17.1177 130.386 17.1177H141.427C142.7 17.1177 143.742 18.0532 143.742 19.1959V26.2561C143.742 27.3989 142.7 28.334 141.427 28.334Z" fill="#F57F20"/>
<path d="M135.732 24.4541V26.2372C135.471 26.091 134.656 25.5634 134.179 24.4541H135.732ZM133.811 24.4541C133.992 24.9096 134.242 25.3223 134.557 25.6809C134.719 25.8662 134.897 26.0356 135.086 26.1858C133.987 25.976 133.02 25.3382 132.466 24.4541H133.811ZM131.969 22.4865C132.004 22.0142 132.142 21.5612 132.379 21.1378H133.767C133.602 21.5749 133.509 22.0283 133.49 22.4865H131.969ZM135.732 22.7962V24.1448H134.061C133.921 23.7274 133.845 23.274 133.833 22.7962H135.732ZM132.575 20.8286C133.136 20.0388 134.02 19.4782 135.029 19.2723C134.83 19.4593 134.644 19.6639 134.475 19.8827C134.244 20.1791 134.05 20.497 133.897 20.8286H132.575ZM135.732 21.1378V22.4865H133.835C133.855 22.0275 133.955 21.5736 134.133 21.1378H135.732ZM134.273 20.8286C134.405 20.5626 134.567 20.3065 134.752 20.0667C135.113 19.6005 135.473 19.3053 135.622 19.1929L135.732 19.1874V20.8286H134.273ZM133.702 24.1448H132.292C132.084 23.718 131.972 23.2646 131.962 22.7962H133.488C133.499 23.2697 133.571 23.7231 133.702 24.1448ZM139.846 22.7962C139.836 23.2646 139.725 23.718 139.516 24.1448H138.145C138.277 23.7231 138.349 23.2697 138.36 22.7962H139.846ZM138.358 22.4865C138.339 22.0283 138.246 21.5749 138.082 21.1378H139.429C139.666 21.5603 139.804 22.0138 139.839 22.4865H138.358ZM136.076 22.4865V21.1378H137.715C137.893 21.5724 137.993 22.0258 138.013 22.4865H136.076ZM137.951 20.8286C137.798 20.497 137.604 20.1791 137.374 19.8827C137.207 19.6682 137.025 19.4666 136.831 19.2826C137.818 19.4971 138.683 20.0534 139.233 20.8286H137.951ZM136.076 20.8286V19.1874C136.128 19.1895 136.179 19.1925 136.23 19.1959C136.444 19.3594 137.117 19.9187 137.575 20.8286H136.076ZM137.669 24.4541C137.507 24.8328 137.292 25.1777 137.028 25.4797C136.618 25.9511 136.207 26.1905 136.076 26.2591V24.4541H137.669ZM137.291 25.6809C137.606 25.3223 137.857 24.9096 138.037 24.4541H139.343C138.791 25.3352 137.864 25.955 136.775 26.1755C136.959 26.0279 137.132 25.8619 137.291 25.6809ZM136.076 24.1448V22.7962H138.015C138.003 23.2727 137.926 23.7261 137.786 24.1448H136.076ZM135.904 18.8742C133.539 18.8742 131.615 20.6008 131.615 22.7232C131.615 24.8457 133.539 26.5723 135.904 26.5723C138.269 26.5723 140.193 24.8457 140.193 22.7232C140.193 20.6008 138.269 18.8742 135.904 18.8742Z" fill="#FEF1F9"/>
<path d="M12.6505 112.701H3.53811C2.26463 112.701 1.22266 111.766 1.22266 110.623V104.943C1.22266 103.8 2.26463 102.865 3.53811 102.865H12.6505C13.9239 102.865 14.9659 103.8 14.9659 104.943V110.623C14.9659 111.766 13.9239 112.701 12.6505 112.701Z" fill="#F57F20"/>
<path d="M10.0981 105.536C9.40409 104.961 8.31862 105 7.67846 105.622C7.03825 106.245 7.0816 107.219 7.77534 107.794C8.46932 108.369 9.55478 108.33 10.1948 107.707C10.8352 107.084 10.7918 106.11 10.0981 105.536ZM7.20367 108.35C6.16844 107.493 6.10368 106.039 7.059 105.109C8.01432 104.18 9.63432 104.122 10.6695 104.979C11.705 105.837 11.7697 107.291 10.8142 108.22C9.85871 109.149 8.23909 109.208 7.20367 108.35Z" fill="#FEF1F9"/>
<path d="M4.38166 111.093C4.21061 110.952 4.2 110.712 4.35796 110.559L7.18042 107.813C7.33839 107.66 7.60498 107.651 7.77599 107.792C7.94719 107.934 7.95785 108.173 7.79989 108.327L4.97723 111.072C4.81946 111.225 4.55286 111.235 4.38166 111.093Z" fill="#FEF1F9"/>
<path d="M210.685 88.5527H201.573C200.3 88.5527 199.258 87.6176 199.258 86.4744V80.7951C199.258 79.6519 200.3 78.7164 201.573 78.7164H210.685C211.959 78.7164 213.001 79.6519 213.001 80.7951V86.4744C213.001 87.6176 211.959 88.5527 210.685 88.5527Z" fill="#F57F20"/>
<path d="M208.044 85.9941H202.703C202.425 85.9941 202.199 85.7917 202.199 85.542V81.7217C202.199 81.4721 202.425 81.2692 202.703 81.2692H208.044C208.322 81.2692 208.548 81.4721 208.548 81.7217V85.542C208.548 85.7917 208.322 85.9941 208.044 85.9941Z" fill="#FEF1F9"/>
<path d="M210.864 82.4341V84.8337C210.864 85.0233 210.643 85.1481 210.453 85.0662L209.133 84.5004C209.033 84.4579 208.969 84.3674 208.969 84.2679V82.9999C208.969 82.9004 209.033 82.8099 209.133 82.7674L210.453 82.2016C210.643 82.1197 210.864 82.2445 210.864 82.4341Z" fill="#FEF1F9"/>
<path d="M39.3295 162.497C39.3295 163.521 33.4999 164.352 26.3084 164.352C19.1168 164.352 13.2871 163.521 13.2871 162.497C13.2871 161.473 19.1168 160.643 26.3084 160.643C33.4999 160.643 39.3295 161.473 39.3295 162.497Z" fill="#D4D6DE"/>
<path d="M34.977 162.313V144.805C34.977 142.703 17.6465 142.703 17.6465 144.805V162.313C17.6465 163.909 34.977 163.909 34.977 162.313Z" fill="#EF3434"/>
<path d="M34.977 146.632V147.646C33.1833 148.064 30.2701 148.547 26.3778 148.547C22.369 148.547 19.4132 148.034 17.6465 147.608V146.591C19.2952 147.008 22.2803 147.571 26.3778 147.571C30.3552 147.571 33.2895 147.044 34.977 146.632Z" fill="#E0232F"/>
<path d="M34.068 144.619C34.068 145.12 30.5939 145.525 26.3077 145.525C22.0215 145.525 18.5469 145.12 18.5469 144.619C18.5469 144.119 22.0215 143.714 26.3077 143.714C30.5939 143.714 34.068 144.119 34.068 144.619Z" fill="#2D3243"/>
<path d="M24.411 144.617H27.9834C28.1877 143.68 30.2813 133.656 28.3854 125.067C26.3975 116.049 20.3273 110.694 16.559 114.547C12.7907 118.399 17.5011 125.913 21.059 131.352C24.4209 136.492 24.4212 143.824 24.411 144.617Z" fill="#407FCA"/>
<path d="M25.7345 144.617H26.6773C27.6309 130.573 20.563 119.793 20.4883 119.684C20.3533 119.484 20.0645 119.419 19.8414 119.537C19.6185 119.659 19.5464 119.918 19.6814 120.118C19.7527 120.227 26.6889 130.822 25.7345 144.617Z" fill="#3862B7"/>
<path d="M40.9147 116.992C32.8446 116.992 28.2733 139.063 28.8681 144.781H32.3035C32.5843 143.33 33.9238 139.459 39.9913 130.655C42.827 126.543 49.2363 116.992 40.9147 116.992Z" fill="#407FCA"/>
<path d="M39.4976 123.13C39.272 123.015 38.9829 123.085 38.8543 123.288C38.7798 123.408 31.9267 134.371 30.2832 144.781H31.2354C32.8813 134.579 39.5999 123.821 39.6769 123.705C39.8026 123.502 39.7242 123.246 39.4976 123.13Z" fill="#3862B7"/>
<path d="M23.88 144.781C24.0148 140.702 17.6745 124.115 12.2606 125.313C6.34735 126.624 12.7972 134.43 15.2155 137.333C19.0708 141.957 20.5691 143.937 21.1331 144.781H23.88Z" fill="#407FCA"/>
<path d="M22.8578 144.781C21.0213 137.915 14.4415 129.951 14.1435 129.588C13.9865 129.4 13.6915 129.363 13.4841 129.501C13.2769 129.642 13.233 129.907 13.3868 130.093C13.4605 130.181 20.0015 138.107 21.8799 144.781H22.8578Z" fill="#3862B7"/>
</svg>
