<svg width="334" height="194" viewBox="0 0 334 194" fill="none" xmlns="http://www.w3.org/2000/svg">
<path d="M286.148 193.543L169.74 192.86H170.51C170.744 192.86 170.978 192.852 171.208 192.838H234.551C236.927 192.838 238.853 190.977 238.853 188.68V83.6242C238.853 81.328 236.927 79.4668 234.551 79.4668H181.132V55.5303V46.217H227.537C229.942 46.217 231.89 44.3281 231.89 41.998V36.4592C239.006 34.6899 246.21 33.2244 252.341 33.2244C255.53 33.2244 258.428 33.6206 260.873 34.5766C275.026 40.1086 269.367 56.9493 276.214 63.7352C281.166 68.6424 286.153 70.0529 291.285 70.0529C294.755 70.0529 298.293 69.4086 301.933 68.7644C305.573 68.1202 309.314 67.476 313.19 67.476C317.888 67.476 322.784 68.4212 327.943 71.4567C347.922 83.2123 307.019 192.93 286.148 193.543ZM55.7335 192.19L48.098 192.146L31.015 190.663C31.015 190.663 -16.2393 165.705 17.5638 142.682C40.4196 127.114 23.9738 115.809 21.488 108.682C18.6846 100.646 12.2117 86.7141 39.4801 76.2828C40.0198 76.9529 40.6813 77.5282 40.9943 78.9892C41.3898 80.8361 41.9811 87.5203 44.0077 90.8551C46.0343 94.1899 50.4912 101.571 50.4912 101.571L55.0168 99.7407C55.0168 99.7407 49.564 90.268 48.2373 88.2545C46.9106 86.241 43.4546 78.2392 43.3309 77.9239C43.2426 77.698 44.5008 75.6928 45.0176 74.5242H81.1181V153.583V175.973C75.566 177.689 59.7858 189.195 55.7335 192.19ZM43.4798 75.4556C43.446 75.4556 43.4124 75.449 43.3789 75.4347C43.2797 75.3924 43.1492 75.2162 42.9988 74.9528C43.3471 74.8118 43.6887 74.6691 44.0258 74.5242H44.3323C44.3226 74.5398 44.3131 74.5556 44.3036 74.571C44.0304 75.0134 43.7535 75.4556 43.4798 75.4556ZM81.1181 33.9169H61.0977C59.6085 24.5423 59.5272 3.30817 102.562 0.896378C106.771 0.660446 110.999 0.545471 115.205 0.545471C138.356 0.545471 160.927 4.02299 176.926 9.93898H157.927C155.523 9.93898 153.573 11.8281 153.573 14.1584V16.2539H91.7399C91.5566 16.2539 91.3744 16.2583 91.1933 16.2673C90.8313 16.285 90.474 16.3204 90.1223 16.3725C89.9465 16.3985 89.7721 16.4288 89.5993 16.4631C85.1049 17.3544 81.6444 20.9966 81.1731 25.4952C81.1367 25.8415 81.1181 26.1926 81.1181 26.5478V33.9169Z" fill="#F4EDED"/>
<path d="M44.6994 143.605C39.2237 135.722 37.8979 126.018 37.7498 119.265C37.5893 111.934 38.7432 106.401 38.7548 106.346L38.3754 106.228C38.3636 106.283 37.2003 111.857 37.3609 119.236C37.5092 126.055 38.8498 135.858 44.3933 143.841L44.6994 143.605Z" fill="#3C8F7C"/>
<path d="M39.9823 104.962C39.9164 106.624 39.2313 108.04 38.2027 108.931C37.254 107.808 36.6873 106.244 36.7532 104.581C36.8193 102.919 37.5043 101.503 38.533 100.614C39.4817 101.736 40.0484 103.3 39.9823 104.962Z" fill="#3C8F7C"/>
<path d="M36.6223 108.91C37.5536 110.315 37.8863 111.938 37.6573 113.366C36.3004 113.093 34.9638 112.2 34.0324 110.797C33.1012 109.392 32.7685 107.768 32.9974 106.34C34.3544 106.613 35.691 107.506 36.6223 108.91Z" fill="#3C8F7C"/>
<path d="M34.8073 113.483C36.2039 114.321 37.1789 115.654 37.5877 117.081C36.305 117.495 34.7767 117.326 33.38 116.488C31.9834 115.651 31.0084 114.318 30.5996 112.89C31.8823 112.478 33.4107 112.646 34.8073 113.483Z" fill="#3C8F7C"/>
<path d="M35.6497 119.733C36.7555 120.399 37.4692 121.578 37.7008 122.9C36.5932 123.417 35.325 123.403 34.2191 122.737C33.1134 122.072 32.3995 120.893 32.168 119.57C33.2755 119.053 34.5439 119.068 35.6497 119.733Z" fill="#3C8F7C"/>
<path d="M39.8399 112.147C41.03 111.459 42.3875 111.375 43.5677 111.802C43.3067 113.064 42.5312 114.215 41.3412 114.905C40.151 115.594 38.7936 115.677 37.6133 115.251C37.8743 113.989 38.6499 112.837 39.8399 112.147Z" fill="#3C8F7C"/>
<path d="M39.8652 116.484C41.0553 115.795 42.4127 115.711 43.5929 116.138C43.332 117.4 42.5565 118.551 41.3663 119.24C40.1764 119.93 38.8189 120.013 37.6387 119.587C37.8996 118.325 38.6752 117.173 39.8652 116.484Z" fill="#3C8F7C"/>
<path d="M39.0583 182.326C27.5796 178.289 19.5507 168.661 14.8366 161.294C9.71883 153.298 7.29289 146.165 7.26886 146.093L6.76172 146.288C6.78575 146.359 9.22854 153.547 14.3789 161.598C19.1382 169.037 27.2507 178.763 38.8716 182.85L39.0583 182.326Z" fill="#96D9C9"/>
<path d="M7.71754 143.503C8.76269 145.404 8.94457 147.565 8.38527 149.438C6.56021 149.008 4.86885 147.762 3.8237 145.86C2.77855 143.958 2.59667 141.797 3.15598 139.923C4.98104 140.354 6.67239 141.601 7.71754 143.503Z" fill="#96D9C9"/>
<path d="M6.59385 150.775C8.58872 151.532 10.0571 153.048 10.7607 154.83C9.04814 155.694 6.9411 155.854 4.94612 155.097C2.95126 154.34 1.48278 152.825 0.779297 151.043C2.49183 150.178 4.59899 150.018 6.59385 150.775Z" fill="#96D9C9"/>
<path d="M7.626 157.412C9.7638 157.139 11.7599 157.781 13.1817 159.013C12.0147 160.575 10.1796 161.703 8.04203 161.976C5.90435 162.249 3.90811 161.607 2.48633 160.375C3.65346 158.813 5.48843 157.685 7.626 157.412Z" fill="#96D9C9"/>
<path d="M11.6749 163.772C13.8125 163.5 15.8088 164.14 17.2305 165.372C16.0635 166.934 14.2284 168.064 12.0909 168.335C9.95328 168.608 7.95694 167.968 6.53516 166.736C7.70228 165.173 9.53725 164.044 11.6749 163.772Z" fill="#96D9C9"/>
<path d="M11.3511 153.867C11.4673 151.859 12.3344 150.047 13.6101 148.81C14.7449 150.005 15.4037 151.791 15.2874 153.8C15.1713 155.807 14.3041 157.62 13.0284 158.856C11.8937 157.662 11.2348 155.875 11.3511 153.867Z" fill="#96D9C9"/>
<path d="M15.5775 160.449C15.6631 158.44 16.5029 156.612 17.7602 155.352C18.9135 156.526 19.5998 158.299 19.514 160.309C19.4284 162.318 18.5886 164.146 17.3314 165.404C16.178 164.231 15.4918 162.457 15.5775 160.449Z" fill="#96D9C9"/>
<path d="M18.5756 170.348C19.3908 169.932 20.2873 169.919 21.0433 170.236C20.8121 171.055 20.2478 171.788 19.4326 172.204C18.6175 172.621 17.7208 172.633 16.9648 172.317C17.1962 171.496 17.7605 170.764 18.5756 170.348Z" fill="#96D9C9"/>
<path d="M66.5848 171.649C66.5848 171.649 75.5085 152.619 72.5254 148.373C68.4027 142.506 63.2763 160.511 63.0262 158.93C60.6651 143.983 61.1592 125.132 50.1161 122.275C43.8386 120.651 50.5312 136.353 49.7515 140.399C48.972 144.446 38.5292 130.001 32.0977 122.359C25.6661 114.716 21.728 118.932 25.4562 128.204C29.0612 137.169 42.1209 147.674 39.1975 148.573C36.2741 149.472 19.8814 136.984 17.4109 141.586C14.3817 147.229 39.6341 157.191 37.1004 158.315C34.5668 159.439 22.5371 154.155 22.5371 158.65C22.5371 163.146 39.1599 164.269 38.7276 166.213C38.0275 169.36 27.5857 161.302 26.7703 165.669C25.9361 170.135 40.9451 170.474 40.4208 173.968C40.1196 175.975 36.3393 173.874 35.6555 176.634C34.0963 182.928 57.7474 191.747 57.7474 191.747L66.5848 171.649Z" fill="#3C8F7C"/>
<path d="M82.7151 175.84C86.3059 177.465 85.3373 181.5 85.3373 181.5C85.3373 181.5 95.0728 174.157 98.7121 178.443C102.352 182.727 100.44 191.128 96.1703 192.494C91.9013 193.859 54.7734 192.902 54.7734 192.902C54.7734 192.902 79.4854 174.378 82.7151 175.84Z" fill="#96D9C9"/>
<path d="M57.2782 186.191L57.6219 185.908C49.822 176.73 46.491 165.225 45.0702 157.19C43.5282 148.471 43.8402 141.84 43.8436 141.774L43.3703 141.692C43.3669 141.759 43.052 148.434 44.6018 157.205C46.0334 165.309 49.395 176.915 57.2782 186.191Z" fill="#50BFA5"/>
<path d="M44.8871 140.317C45.118 142.297 44.5874 144.009 43.562 145.108C42.2567 143.808 41.312 141.97 41.0809 139.989C40.8498 138.009 41.3805 136.297 42.4059 135.197C43.7112 136.498 44.656 138.336 44.8871 140.317Z" fill="#50BFA5"/>
<path d="M41.8448 144.931C43.182 146.566 43.8672 148.485 43.8663 150.193C42.246 149.921 40.5345 148.911 39.1973 147.275C37.8601 145.64 37.1749 143.721 37.1758 142.013C38.7962 142.285 40.5076 143.296 41.8448 144.931Z" fill="#50BFA5"/>
<path d="M40.5871 150.441C42.3579 151.385 43.7325 152.933 44.4693 154.616C43.0617 155.157 41.2623 155.016 39.4916 154.073C37.7209 153.131 36.3462 151.582 35.6094 149.899C37.017 149.358 38.8164 149.498 40.5871 150.441Z" fill="#50BFA5"/>
<path d="M43.7532 159.515C44.5179 159.857 45.1372 160.468 45.4961 161.156C44.9288 161.43 44.1775 161.428 43.4129 161.086C42.6481 160.743 42.0288 160.133 41.6699 159.444C42.2372 159.17 42.9885 159.173 43.7532 159.515Z" fill="#50BFA5"/>
<path d="M44.7141 162.898C45.4789 163.241 46.0982 163.851 46.457 164.54C45.8898 164.812 45.1384 164.81 44.3737 164.468C43.6089 164.126 42.9896 163.516 42.6309 162.827C43.1981 162.553 43.9495 162.556 44.7141 162.898Z" fill="#50BFA5"/>
<path d="M46.1605 148.659C47.4099 147.792 48.965 147.641 50.4094 148.103C50.3407 149.613 49.6565 151.015 48.4071 151.88C47.1578 152.747 45.6028 152.899 44.1582 152.436C44.227 150.926 44.9111 149.524 46.1605 148.659Z" fill="#50BFA5"/>
<path d="M46.9945 153.817C48.2438 152.95 49.7989 152.8 51.2434 153.262C51.1746 154.772 50.4905 156.173 49.2411 157.039C47.9918 157.906 46.4366 158.057 44.9922 157.595C45.0609 156.084 45.7451 154.683 46.9945 153.817Z" fill="#50BFA5"/>
<path d="M47.5415 161.267C48.3548 160.704 49.3669 160.605 50.307 160.905C50.2623 161.888 49.817 162.8 49.0038 163.365C48.1905 163.928 47.1784 164.027 46.2383 163.726C46.283 162.742 46.7283 161.831 47.5415 161.267Z" fill="#50BFA5"/>
<path d="M63.1602 193.079C63.1602 193.079 51.757 178.938 46.99 176.771C41.9107 174.464 46.3151 182.463 46.3151 182.463C46.3151 182.463 35.4542 172.158 32.9033 174.731C30.3524 177.304 33.0761 179.712 33.0761 179.712C33.0761 179.712 23.9817 178.08 22.6556 181.371C20.618 186.426 35.5761 188.942 35.5761 188.942C35.5761 188.942 28.4103 187.423 29.8441 190.553C32.0065 195.275 63.1602 193.079 63.1602 193.079Z" fill="#50BFA5"/>
<path d="M22.6562 181.371C23.9824 178.081 33.0768 179.712 33.0768 179.712C33.0768 179.712 30.353 177.304 32.9039 174.731C35.4549 172.158 43.9564 178.235 43.9564 178.235C43.9564 178.235 42.6392 172.65 49.0255 177.043C53.5869 180.181 62.3913 191.886 62.3913 191.886L22.6562 181.371Z" fill="#96D9C9"/>
<path d="M54.7734 192.867C54.7734 192.867 72.9438 194.108 76.4829 190.965C80.0221 187.823 76.5109 182.13 76.5109 182.13C76.5109 182.13 82.7463 177.369 82.6489 174.26C82.5515 171.152 78.4893 172.729 78.4893 172.729C78.4893 172.729 85.3742 164.167 83.7412 162.538C80.6994 159.505 72.739 168.405 72.739 168.405C72.739 168.405 75.1014 164.171 72.6091 163.499C68.8506 162.485 66.0862 172.927 66.0862 172.927C66.0862 172.927 66.7873 168.803 64.1968 169.351C59.5486 170.333 54.7734 192.867 54.7734 192.867Z" fill="#50BFA5"/>
<path d="M69.8627 193.06H68.3418L74.0095 164.615L75.2739 164.847L69.8627 193.06Z" fill="#0E2E35"/>
<path d="M239.898 144.481L241.366 141.046C242.504 138.519 245.417 137.313 247.871 138.351C254.056 140.968 256.745 148.251 253.877 154.618L251.78 159.274C250.862 161.313 251.181 163.556 252.421 165.139C253.544 166.576 253.73 168.573 252.948 170.305L251.844 172.76C250.646 175.417 248.317 177.385 245.556 178.196C243.941 178.671 242.514 179.846 241.759 181.52L240.193 184.996C238.464 188.838 234.035 190.672 230.304 189.094L228.175 188.193C224.442 186.615 222.819 182.22 224.551 178.378C227.349 173.784 227.126 170.356 226.134 168.03C224.677 164.61 224.693 160.677 226.271 157.174L226.492 156.684C228.157 152.988 231.371 150.228 235.2 149.046C236.89 148.524 238.652 147.25 239.898 144.481Z" fill="#50BFA5"/>
<path d="M213.24 192.743C216.242 188.971 232.92 168.94 243.651 165.572C255.499 161.856 244.334 176.618 244.334 176.618C244.334 176.618 265.348 154.347 273.062 156.355C280.13 158.195 273.062 172 273.062 172C273.062 172 281.024 164.355 290.679 164.355C300.076 164.355 284.154 192.149 283.293 193.601L213.24 192.743Z" fill="#96D9C9"/>
<path d="M276.556 149.875C267.968 162.872 261.713 177.953 258.131 193.29L257.279 193.28C260.848 178.264 267.324 163.065 275.895 150.083C277.888 147.066 280.038 143.486 283.769 142.309C283.841 142.287 283.868 142.393 283.8 142.418C280.393 143.662 278.419 147.054 276.556 149.875Z" fill="#3C8F7C"/>
<path d="M260.084 193.318C269.68 180.672 281.452 168.851 295.321 158.687C295.459 158.586 295.646 158.82 295.507 158.924C282.352 168.724 270.756 180.246 260.963 193.324L260.084 193.318Z" fill="#3C8F7C"/>
<path d="M277.342 141.816C277.564 142.132 278.41 142.953 278.657 144.032C278.992 145.056 278.728 146.338 278.701 146.293C278.637 146.319 279.679 145.464 280.005 144.105C280.426 142.801 280.132 140.994 279.606 140.395C278.701 139.041 277.117 138.903 276.811 139.56C276.484 140.212 276.897 141.1 277.342 141.816Z" fill="#3C8F7C"/>
<path d="M279.397 153.417C279.077 153.197 278.246 152.361 277.136 152.098C276.087 151.755 274.758 151.984 274.804 152.013C274.776 152.075 275.679 151.08 277.089 150.792C278.441 150.409 280.301 150.73 280.907 151.251C282.288 152.155 282.398 153.692 281.715 153.977C281.034 154.28 280.128 153.862 279.397 153.417Z" fill="#3C8F7C"/>
<path d="M276.295 158.501C275.974 158.281 275.143 157.445 274.034 157.183C272.985 156.839 271.657 157.068 271.702 157.097C271.675 157.159 272.577 156.165 273.985 155.876C275.338 155.493 277.199 155.815 277.806 156.335C279.185 157.24 279.295 158.776 278.612 159.061C277.933 159.364 277.025 158.946 276.295 158.501Z" fill="#3C8F7C"/>
<path d="M287.352 170.293C287.033 170.073 286.202 169.237 285.091 168.975C284.043 168.63 282.716 168.86 282.761 168.889C282.735 168.951 283.635 167.957 285.044 167.668C286.398 167.285 288.256 167.606 288.864 168.127C290.243 169.031 290.354 170.568 289.67 170.853C288.991 171.156 288.084 170.738 287.352 170.293Z" fill="#3C8F7C"/>
<path d="M293.001 165.471C292.682 165.25 291.851 164.414 290.743 164.152C289.692 163.808 288.363 164.039 288.409 164.066C288.383 164.128 289.284 163.135 290.693 162.845C292.046 162.462 293.907 162.785 294.514 163.304C295.892 164.209 296.003 165.746 295.319 166.031C294.64 166.333 293.733 165.915 293.001 165.471Z" fill="#3C8F7C"/>
<path d="M273.007 147.568C273.276 147.846 274.246 148.527 274.667 149.556C275.162 150.516 275.111 151.822 275.076 151.782C275.016 151.818 275.907 150.814 276.008 149.423C276.212 148.071 275.626 146.331 275.011 145.819C273.896 144.62 272.309 144.727 272.114 145.422C271.899 146.115 272.451 146.929 273.007 147.568Z" fill="#3C8F7C"/>
<path d="M268.447 153.334C268.831 153.53 270.17 153.888 270.844 154.86C271.608 155.725 271.703 157.204 271.654 157.175C271.583 157.239 272.608 155.748 272.564 154.152C272.659 152.558 271.682 150.86 270.821 150.546C269.227 149.672 267.189 150.451 267.023 151.31C266.83 152.174 267.648 152.851 268.447 153.334Z" fill="#3C8F7C"/>
<path d="M263.649 162.068C264.061 162.2 265.445 162.334 266.278 163.182C267.18 163.91 267.534 165.353 267.478 165.332C267.419 165.406 268.172 163.769 267.851 162.204C267.668 160.617 266.409 159.102 265.506 158.933C263.785 158.331 261.91 159.432 261.894 160.305C261.854 161.189 262.778 161.722 263.649 162.068Z" fill="#3C8F7C"/>
<path d="M277.844 168.152C278.143 168.333 279.214 168.697 279.706 169.526C280.276 170.271 280.266 171.48 280.226 171.453C280.164 171.5 281.087 170.345 281.146 169.045C281.317 167.753 280.622 166.318 279.94 166.014C278.696 165.216 276.99 165.737 276.804 166.426C276.596 167.119 277.222 167.715 277.844 168.152Z" fill="#3C8F7C"/>
<path d="M285.235 143.86C285.057 143.716 284.603 143.187 283.958 142.984C283.352 142.736 282.557 142.816 282.583 142.835C282.564 142.87 283.142 142.32 283.988 142.209C284.806 142.041 285.892 142.309 286.228 142.642C287.003 143.236 287 144.15 286.581 144.29C286.167 144.44 285.648 144.154 285.235 143.86Z" fill="#3C8F7C"/>
<path d="M283.515 140.148C283.523 140.375 283.678 141.046 283.451 141.664C283.284 142.28 282.732 142.842 282.732 142.81C282.693 142.804 283.495 142.696 284.103 142.114C284.738 141.589 285.182 140.592 285.115 140.131C285.102 139.174 284.354 138.618 283.985 138.853C283.608 139.08 283.526 139.652 283.515 140.148Z" fill="#3C8F7C"/>
<path d="M297.071 160.557C296.891 160.413 296.437 159.884 295.794 159.681C295.187 159.434 294.392 159.513 294.419 159.532C294.399 159.567 294.977 159.018 295.823 158.907C296.642 158.737 297.727 159.006 298.061 159.34C298.838 159.933 298.834 160.847 298.417 160.987C298.002 161.138 297.482 160.85 297.071 160.557Z" fill="#3C8F7C"/>
<path d="M294.993 156.814C295.02 157.039 295.233 157.696 295.057 158.33C294.944 158.957 294.441 159.561 294.439 159.53C294.399 159.527 295.189 159.354 295.745 158.727C296.336 158.153 296.693 157.124 296.587 156.669C296.495 155.716 295.701 155.222 295.354 155.486C294.997 155.743 294.963 156.319 294.993 156.814Z" fill="#3C8F7C"/>
<path d="M285.647 178.369C285.703 178.717 286.078 179.729 285.846 180.729C285.71 181.715 284.967 182.688 284.961 182.64C284.898 182.636 286.119 182.32 286.946 181.305C287.829 180.374 288.318 178.746 288.122 178.043C287.915 176.561 286.644 175.841 286.119 176.274C285.579 176.695 285.566 177.597 285.647 178.369Z" fill="#3C8F7C"/>
<path d="M277.925 181.048C277.981 181.397 278.356 182.409 278.125 183.409C277.988 184.395 277.244 185.369 277.239 185.321C277.175 185.317 278.396 184.999 279.224 183.985C280.106 183.053 280.596 181.425 280.399 180.722C280.192 179.242 278.922 178.521 278.396 178.954C277.857 179.376 277.843 180.278 277.925 181.048Z" fill="#3C8F7C"/>
<path d="M270.073 184.439C270.131 184.787 270.505 185.799 270.275 186.799C270.137 187.786 269.394 188.759 269.389 188.711C269.325 188.708 270.548 188.391 271.373 187.376C272.257 186.445 272.746 184.816 272.549 184.113C272.342 182.632 271.07 181.912 270.546 182.344C270.007 182.767 269.993 183.669 270.073 184.439Z" fill="#3C8F7C"/>
<path d="M287.949 185.364C287.791 185.075 287.484 184.127 286.737 183.516C286.069 182.863 284.961 182.548 284.984 182.586C284.94 182.622 286.022 182.196 287.215 182.496C288.404 182.705 289.702 183.64 289.962 184.264C290.662 185.468 290.141 186.687 289.503 186.652C288.863 186.632 288.334 185.975 287.949 185.364Z" fill="#3C8F7C"/>
<path d="M279.919 188.117C279.76 187.83 279.454 186.881 278.706 186.269C278.039 185.617 276.931 185.301 276.955 185.34C276.909 185.377 277.992 184.949 279.186 185.251C280.373 185.459 281.672 186.395 281.931 187.019C282.63 188.222 282.108 189.441 281.473 189.406C280.833 189.387 280.302 188.729 279.919 188.117Z" fill="#3C8F7C"/>
<path d="M294.071 182.525C293.933 182.365 293.61 181.808 293.059 181.52C292.55 181.195 291.81 181.139 291.831 181.16C291.808 181.189 292.429 180.783 293.219 180.818C293.994 180.797 294.937 181.218 295.184 181.577C295.788 182.244 295.626 183.075 295.222 183.135C294.819 183.204 294.396 182.859 294.071 182.525Z" fill="#3C8F7C"/>
<path d="M293.145 178.865C293.112 179.071 293.139 179.71 292.822 180.235C292.565 180.769 291.966 181.192 291.972 181.164C291.936 181.15 292.685 181.182 293.341 180.75C294.012 180.376 294.588 179.539 294.605 179.108C294.759 178.233 294.172 177.606 293.797 177.761C293.415 177.907 293.24 178.415 293.145 178.865Z" fill="#3C8F7C"/>
<path d="M252.226 81.4315C252.697 81.4874 253.099 80.9804 252.981 80.5548C252.792 79.8703 252.614 79.1827 252.432 78.496C252.032 76.98 251.966 76.9325 252.077 76.8044C252.34 76.4986 252.974 76.8547 253.194 77.0068C253.684 77.3442 254.088 77.804 254.647 78.0419C255.735 78.5059 256.815 77.9074 256.639 76.7047C256.476 75.6039 256.247 74.5036 256.014 73.4098C257.151 73.9979 258.274 74.6178 259.42 75.1897C259.825 75.3926 260.238 75.1071 260.182 74.672C260.059 73.7043 259.699 70.8393 259.581 69.8945C259.55 69.6503 259.268 68.5284 259.522 68.4026C259.753 68.2897 260.516 68.7517 260.698 68.8333C261.708 69.2845 262.07 69.4303 265.385 70.8254C265.78 70.9917 266.29 70.5492 266.147 70.1494C264.744 66.2155 265.255 66.0409 264.538 65.3403C264.377 65.1833 264.157 65.2567 264.067 65.4394C263.84 65.9052 263.821 66.0319 264.249 67.8391C264.359 68.3064 264.482 68.7706 264.617 69.2316C260.624 67.4634 259.661 66.9254 258.817 67.6669C258.234 68.1815 258.371 68.4066 259.067 73.8274C257.906 73.151 256.71 72.5463 255.518 71.9158C255.066 71.6763 254.574 72.0159 254.649 72.506C255.248 76.4463 255.43 76.525 255.387 76.8862C255.385 76.8961 255.587 77.0073 255.271 76.8854C254.732 76.6779 253.951 75.6069 252.855 75.4205C251.89 75.2569 250.775 75.738 250.683 76.7805C250.629 77.3863 250.788 77.6516 251.31 79.8767C250.151 79.7711 248.984 79.7996 247.746 79.9692C247.207 80.0428 246.864 80.158 246.44 80.4901C246.093 80.7614 246.223 81.3989 246.667 81.5002C247.921 81.7881 248.743 81.0182 252.226 81.4315Z" fill="#F7CC7F"/>
<path d="M271.182 97.2996C271.34 96.2399 271.564 95.247 271.922 94.1901C271.988 93.9908 272.067 93.6062 272.316 93.5408C272.915 93.3832 273.414 94.441 275.232 95.4108C276.021 95.8316 277.615 96.7685 278.323 95.7796C278.685 95.2729 278.781 94.5286 278.959 93.9458C279.093 93.5034 279.245 93.0663 279.388 92.6265C282.282 94.3951 282.047 94.5219 282.854 94.4262C283.064 94.4013 283.245 94.1549 283.187 93.954C282.97 93.2089 282.997 93.4117 279.373 91.1463C279.043 90.9394 278.522 91.0541 278.402 91.4522C278.221 92.051 277.549 94.8076 277.411 95.1328C277.385 95.1019 277.226 95.0861 277.192 95.0755C275.887 94.6522 274.922 93.8726 273.871 93.0519C273.01 92.3794 271.683 91.9893 271.002 93.1128C270.633 93.7224 270.284 95.0993 270.062 96.1733C268.323 95.0266 266.592 93.8667 264.846 92.7312C264.503 92.509 263.879 92.6232 263.774 93.0682C263.486 94.3043 263.155 95.5273 262.814 96.7494C261.795 96.0656 260.89 95.2298 260.13 94.2756C259.568 93.5725 258.362 94.2776 259.902 95.9573C260.732 96.924 261.72 97.7397 262.845 98.4007C263.218 98.6197 263.78 98.5096 263.919 98.0631C264.294 96.8634 264.611 95.645 264.903 94.4231C266.651 95.5447 268.412 96.6499 270.157 97.7716C270.587 98.0477 271.112 97.7706 271.182 97.2996Z" fill="#F47458"/>
<path d="M270.333 123.541C270.226 123.913 270.397 124.218 270.739 124.386C272.411 125.201 274.109 125.861 275.974 126.08C276.943 126.193 277.022 124.772 276.091 124.607C274.631 124.347 273.148 124.006 271.774 123.419C272.125 122.403 272.572 121.429 273.139 120.512C273.354 120.164 273.254 119.583 272.79 119.464C271.641 119.166 267.255 118.168 267.203 118.202C267.21 118.196 267.224 118.168 267.233 118.09C267.287 117.623 268.087 116.215 268.265 115.517C268.463 114.734 267.487 114.148 266.861 113.904C265.594 113.406 263.866 113.9 262.746 113.046C261.668 112.223 263.615 110.765 263.075 109.034C262.66 107.7 261.249 107.66 259.066 107.451C258.533 107.399 258.009 107.355 257.607 107.762C257.506 107.864 257.441 108.035 257.524 108.17C257.974 108.906 258.795 108.869 260.774 109.11C261.026 109.141 261.472 109.12 261.634 109.353C262.169 110.127 260.643 111.397 261.078 112.961C261.418 114.181 262.673 114.747 263.829 114.938C264.733 115.087 265.962 114.907 266.757 115.466C266.482 116.185 266.184 116.904 265.97 117.638C265.734 118.441 265.984 119.119 266.797 119.425C267.695 119.763 268.691 119.916 269.624 120.14C270.252 120.29 270.877 120.443 271.506 120.588C271.023 121.533 270.626 122.514 270.333 123.541Z" fill="#3CB4C5"/>
<path d="M233.878 62.4028C230.15 57.0779 226.552 59.871 227.472 61.9007C227.866 62.7704 228.929 63.1379 229.717 62.508C230.076 62.2195 229.893 61.5185 229.385 61.5254C228.965 61.5312 229.004 61.0834 229.461 61.0375C230.079 60.9757 230.627 61.5572 231.026 61.9355C231.957 62.8182 233.177 63.9508 232.953 65.3429C232.617 67.4203 229.865 68.9286 227.108 66.8685C223.132 63.8972 225.534 56.8576 230.663 57.0487C233.453 57.1528 235.911 59.0176 236.867 61.5348C237.054 62.0267 237.754 61.7149 237.711 61.2631C237.384 57.8396 233.7 55.5125 230.315 55.6674C226.844 55.8268 224.291 58.5767 223.807 61.8057C223.3 65.1917 225.341 68.7165 228.952 69.3776C232.911 70.1026 236.484 66.126 233.878 62.4028Z" fill="#3CB4C5"/>
<path d="M264.777 133.717C264.14 132.943 262.582 132.131 261.716 133.034C261.313 133.453 261.266 134.101 261.801 134.458C262.323 134.808 262.956 134.663 263.245 135.309C263.491 135.863 263.064 136.434 262.59 136.731C261.15 137.637 258.99 136.611 257.923 135.572C256.227 133.92 256.736 131.02 259.333 130.308C260.145 130.086 260.968 130.223 261.792 130.271C262.25 130.297 262.656 129.704 262.273 129.354C260.8 128.01 258.325 128.481 256.859 129.61C255.322 130.794 254.707 132.936 255.238 134.748C255.83 136.771 257.82 138.265 259.854 138.827C264.079 139.993 266.842 136.227 264.777 133.717Z" fill="#3C8F7C"/>
<path d="M70.9394 98.6598C71.0511 96.0407 70.6545 93.4524 69.4503 91.0137C68.414 88.9149 65.8501 87.7236 63.5119 87.7214C56.0873 87.7115 55.1432 97.2595 50.4171 100.942C48.973 102.068 47.3587 102.984 45.9923 104.198C40.9463 108.68 43.2192 116.975 47.8525 120.903C51.0677 123.63 56.1209 125.179 60.0837 123.047C62.1521 121.935 63.7224 120.086 64.8411 118.059C66.429 115.184 67.4525 111.865 68.5818 108.801C69.7838 105.539 70.7909 102.142 70.9394 98.6598Z" fill="#0E2E35"/>
<path d="M55.0183 99.7409C55.0183 99.7409 49.5653 90.2688 48.2386 88.2547C46.912 86.2417 43.456 78.2391 43.3324 77.9245C43.2089 77.6088 45.7125 73.8215 45.1535 73.6928C44.8816 73.629 44.5955 74.0998 44.305 74.5717C43.9981 75.0678 43.6862 75.565 43.3802 75.4352C42.7841 75.1811 41.0424 70.0628 40.7027 70.3169C40.067 70.791 41.6413 73.4915 41.3025 73.662C41.131 73.7478 40.7835 72.9866 40.3959 72.2254C40.0173 71.4818 39.6002 70.7382 39.2714 70.7833C38.606 70.8757 40.5372 73.662 40.3511 73.9084C40.2628 74.025 39.7657 73.4959 39.2286 72.9668C38.633 72.3805 37.988 71.7942 37.7973 72.089C37.6003 72.3926 39.6408 74.3803 39.2488 74.5662C39.0644 74.6542 38.5649 74.4166 38.0677 74.179C37.5081 73.9106 36.9516 73.6433 36.8497 73.8391C36.6575 74.2098 38.5282 74.7158 39.0877 75.7135C39.6472 76.7112 40.5998 77.1424 40.9956 78.9893C41.3912 80.8362 41.9824 87.521 44.0091 90.8551C46.0357 94.1903 50.4925 101.571 50.4925 101.571L55.0183 99.7409Z" fill="#F79C8D"/>
<path d="M83.8732 134.6L75.3948 128.332C75.3948 128.332 74.5419 122.484 73.3999 117.294C71.9694 117.686 70.6782 118.774 69.2461 119.153L71.402 130.774L82.5142 136.33L85.6529 140.239L86.3669 136.225L83.8732 134.6Z" fill="#F48C7F"/>
<path d="M72.1527 111.347C69.8336 104.529 67.2402 104.819 67.2402 104.819L69.2457 119.153C70.6779 118.774 72.5426 117.929 73.9731 117.537C73.4988 115.383 72.7238 113.026 72.1527 111.347Z" fill="#F7CC7F"/>
<path d="M47.73 183.011C47.73 183.011 47.207 186.534 46.307 187.671C46.0049 188.053 45.4533 188.536 45.091 189.226C44.5273 190.3 44.839 191.899 45.2548 192.779C45.4682 193.231 45.2398 193.23 45.7258 193.376C47.1653 193.807 48.6965 193.08 49.3093 191.741C49.6517 190.993 49.952 189.996 50.0124 188.738C50.166 185.538 51.1905 183.911 51.1905 183.911L47.73 183.011Z" fill="#F7A491"/>
<path d="M63.4748 184.623C63.4748 184.623 63.7978 188.597 63.5356 189.889C63.3953 190.579 62.6136 192.004 62.9721 192.654C63.3307 193.305 63.7406 193.468 63.7406 193.468L73.0339 193.613C73.5401 193.621 73.2056 193.305 72.7974 193.014C72.1293 192.536 71.5902 192.221 69.456 191.217C69.3168 191.152 68.8101 190.839 68.6274 190.731C68.1639 190.456 67.6986 190.024 67.298 189.59C66.6308 188.869 66.5725 185.369 66.5725 185.369L63.4748 184.623Z" fill="#F7A491"/>
<path d="M70.74 131.798C70.74 131.798 71.9103 138.249 71.1419 142.48C70.3736 146.711 66.6855 185.92 66.6855 185.92L62.587 186.145C62.587 186.145 61.728 169.766 61.8817 167.487C62.0353 165.21 63.2515 161.399 63.2515 161.399L62.8437 148.175L68.0156 130.801L70.74 131.798Z" fill="#13375B"/>
<path d="M58.6935 130.44C58.6935 130.44 55.4664 135.158 54.698 139.063C53.9297 142.968 55.262 154.968 53.784 160.086C52.9838 162.855 49.9513 167.132 49.4903 170.712C49.0292 174.291 47.2207 183.667 47.2207 183.667L51.3173 184.456L60.8379 161.04L68.3059 139.876L70.2188 128.976L58.6935 130.44Z" fill="#355389"/>
<path d="M61.3057 103.595C61.3057 103.595 57.0329 103.33 55.3425 105.12C53.6522 106.91 59.0923 121.067 59.3995 123.345C59.7069 125.623 57.8328 131.678 57.8328 131.678C57.8328 131.678 67.8699 133.641 70.7387 131.797C70.7387 131.797 71.0461 115.418 70.7387 113.791C70.4313 112.164 67.8699 105.547 67.2553 104.897C66.6405 104.246 61.3057 103.595 61.3057 103.595Z" fill="#FAE0B2"/>
<path d="M62.7292 98.0492C62.7292 98.0492 62.7071 98.1713 62.6675 98.3792C62.477 99.3769 61.7433 102.688 61.2478 103.598C60.6488 104.697 63.2982 108.204 65.848 107.777C66.6071 107.649 65.2064 104.554 65.2738 104.226C65.4026 103.599 65.5773 102.742 65.7563 101.864C65.857 101.369 65.9592 100.866 66.0552 100.394C66.3279 99.0535 66.5504 97.9568 66.5504 97.9568L62.7292 98.0492Z" fill="#F7A491"/>
<path d="M62.6668 98.3793C62.7065 98.1714 62.7286 98.0493 62.7286 98.0493L66.5497 97.9569C66.5497 97.9569 66.3272 99.0536 66.0545 100.395C65.9591 100.864 65.8575 101.364 65.7572 101.856C65.1674 101.772 64.5509 101.493 63.9328 100.968C63.2591 100.395 62.8174 99.7059 62.5508 98.9711C62.5979 98.7368 62.6372 98.5344 62.6668 98.3793Z" fill="#F47458"/>
<path d="M65.2982 89.6129C65.2982 89.6129 63.4972 89.4116 62.3682 90.8295C61.2394 92.2474 60.0226 96.6342 62.827 99.0179C65.6314 101.403 68.4024 98.7033 68.8132 95.8422C69.2241 92.98 69.3837 89.5106 65.2982 89.6129Z" fill="#F7A491"/>
<path d="M69.6442 95.7982C69.3095 96.4307 68.7476 96.7805 68.3892 96.5803C68.0309 96.3801 68.0118 95.7047 68.3464 95.0733C68.6812 94.4408 69.2431 94.091 69.6014 94.2912C69.9597 94.4914 69.9789 95.1668 69.6442 95.7982Z" fill="#F7A491"/>
<path d="M65.5006 89.1443C65.5006 89.1443 63.0945 93.3155 61.3732 93.508C59.6519 93.7005 59.4258 95.917 59.4258 95.917C59.4258 95.917 60.0412 90.8097 61.7452 89.8252C63.4493 88.8407 65.5006 89.1443 65.5006 89.1443Z" fill="#0E2E35"/>
<path d="M49.5897 191.038C47.3571 191.433 45.8715 190.165 45.0985 189.215C44.5311 190.291 44.2542 191.896 44.6717 192.779C45.0393 193.558 46.1136 193.536 46.9595 193.567C47.8539 193.599 48.5459 193.116 48.9898 192.359C49.1969 192.006 49.4107 191.566 49.5897 191.038Z" fill="#B75742"/>
<path d="M68.6253 190.73C66.1675 191.343 64.3507 190.926 63.3344 190.529C63.0723 191.249 62.7249 192.154 62.9091 192.677C63.1349 193.316 63.456 193.46 63.7398 193.468C65.9847 193.525 71.9631 193.603 73.6748 193.624C73.9139 193.627 74.0458 193.357 73.8921 193.177C73.4676 192.686 68.8084 190.839 68.6253 190.73Z" fill="#B75742"/>
<path d="M61.8239 94.5555C61.9639 95.2958 61.6825 95.9756 61.195 96.0724C60.7078 96.1692 60.1993 95.6478 60.0594 94.9075C59.9194 94.1661 60.2009 93.4874 60.6882 93.3906C61.1754 93.2927 61.6839 93.8141 61.8239 94.5555Z" fill="#F7A491"/>
<path d="M53.5083 96.6721C53.5083 96.6721 59.5401 102.972 60.4368 105.511C61.3335 108.051 59.5627 111.682 57.117 111.841C54.6712 112 49.2285 100.659 49.2285 100.659L53.5083 96.6721Z" fill="#F7CC7F"/>
<path d="M159.539 79.4665H234.551C236.929 79.4665 238.855 81.3277 238.855 83.6239V188.68C238.855 190.977 236.929 192.838 234.551 192.838H159.539C157.162 192.838 155.234 190.977 155.234 188.68V83.6239C155.234 81.3277 157.162 79.4665 159.539 79.4665Z" fill="#F7CC7F"/>
<path d="M232.114 106.086H162.764V88.791H232.114V106.086Z" fill="#3CB4C5"/>
<path d="M232.113 91.2812H181.133V88.7916H232.113V91.2812Z" fill="#2599AE"/>
<path d="M182.333 117.25H163.097C162.913 117.25 162.766 117.107 162.766 116.931V111.34C162.766 111.163 162.913 111.02 163.097 111.02H182.333C182.517 111.02 182.665 111.163 182.665 111.34V116.931C182.665 117.107 182.517 117.25 182.333 117.25Z" fill="#F47458"/>
<path d="M207.059 117.25H187.822C187.64 117.25 187.492 117.107 187.492 116.931V111.34C187.492 111.163 187.64 111.02 187.822 111.02H207.059C207.242 111.02 207.39 111.163 207.39 111.34V116.931C207.39 117.107 207.242 117.25 207.059 117.25Z" fill="#F47458"/>
<path d="M231.784 117.25H212.545C212.364 117.25 212.215 117.107 212.215 116.931V111.34C212.215 111.163 212.364 111.02 212.545 111.02H231.784C231.966 111.02 232.114 111.163 232.114 111.34V116.931C232.114 117.107 231.966 117.25 231.784 117.25Z" fill="#F47458"/>
<path d="M177.425 136.152H163.508C163.098 136.152 162.766 135.831 162.766 135.435V122.901C162.766 122.505 163.098 122.183 163.508 122.183H177.425C177.833 122.183 178.165 122.505 178.165 122.901V135.435C178.165 135.831 177.833 136.152 177.425 136.152Z" fill="#F47458"/>
<path d="M195.406 136.152H181.491C181.081 136.152 180.75 135.831 180.75 135.435V122.901C180.75 122.505 181.081 122.183 181.491 122.183H195.406C195.816 122.183 196.148 122.505 196.148 122.901V135.435C196.148 135.831 195.816 136.152 195.406 136.152Z" fill="#FAE0B2"/>
<path d="M213.388 136.152H199.472C199.064 136.152 198.73 135.831 198.73 135.435V122.901C198.73 122.505 199.064 122.183 199.472 122.183H213.388C213.798 122.183 214.131 122.505 214.131 122.901V135.435C214.131 135.831 213.798 136.152 213.388 136.152Z" fill="#FAE0B2"/>
<path d="M177.425 153.372H163.508C163.098 153.372 162.766 153.051 162.766 152.656V140.12C162.766 139.725 163.098 139.404 163.508 139.404H177.425C177.833 139.404 178.165 139.725 178.165 140.12V152.656C178.165 153.051 177.833 153.372 177.425 153.372Z" fill="#F47458"/>
<path d="M195.406 153.372H181.491C181.081 153.372 180.75 153.051 180.75 152.656V140.12C180.75 139.725 181.081 139.404 181.491 139.404H195.406C195.816 139.404 196.148 139.725 196.148 140.12V152.656C196.148 153.051 195.816 153.372 195.406 153.372Z" fill="#FAE0B2"/>
<path d="M213.388 153.372H199.472C199.064 153.372 198.73 153.051 198.73 152.656V140.12C198.73 139.725 199.064 139.404 199.472 139.404H213.388C213.798 139.404 214.131 139.725 214.131 140.12V152.656C214.131 153.051 213.798 153.372 213.388 153.372Z" fill="#FAE0B2"/>
<path d="M228.976 122.184H219.851C218.118 122.184 216.715 123.546 216.715 125.224V129.548V133.112V150.332C216.715 152.011 218.118 153.372 219.851 153.372H228.976C230.708 153.372 232.113 152.011 232.113 150.332V133.112V129.548V125.224C232.113 123.546 230.708 122.184 228.976 122.184Z" fill="#FAE0B2"/>
<path d="M177.425 170.593H163.508C163.098 170.593 162.766 170.272 162.766 169.876V157.341C162.766 156.945 163.098 156.624 163.508 156.624H177.425C177.833 156.624 178.165 156.945 178.165 157.341V169.876C178.165 170.272 177.833 170.593 177.425 170.593Z" fill="#F47458"/>
<path d="M195.406 170.593H181.491C181.081 170.593 180.75 170.272 180.75 169.876V157.341C180.75 156.945 181.081 156.624 181.491 156.624H195.406C195.816 156.624 196.148 156.945 196.148 157.341V169.876C196.148 170.272 195.816 170.593 195.406 170.593Z" fill="#FAE0B2"/>
<path d="M213.388 170.593H199.472C199.064 170.593 198.73 170.271 198.73 169.875V157.341C198.73 156.945 199.064 156.624 199.472 156.624H213.388C213.798 156.624 214.131 156.945 214.131 157.341V169.875C214.131 170.271 213.798 170.593 213.388 170.593Z" fill="#FAE0B2"/>
<path d="M231.372 170.593H217.456C217.045 170.593 216.715 170.272 216.715 169.875V157.341C216.715 156.945 217.045 156.624 217.456 156.624H231.372C231.781 156.624 232.113 156.945 232.113 157.341V169.875C232.113 170.272 231.781 170.593 231.372 170.593Z" fill="#FAE0B2"/>
<path d="M177.425 187.812H163.508C163.098 187.812 162.766 187.491 162.766 187.096V174.561C162.766 174.165 163.098 173.845 163.508 173.845H177.425C177.833 173.845 178.165 174.165 178.165 174.561V187.096C178.165 187.491 177.833 187.812 177.425 187.812Z" fill="#F47458"/>
<path d="M195.406 187.812H181.491C181.081 187.812 180.75 187.491 180.75 187.096V174.561C180.75 174.165 181.081 173.845 181.491 173.845H195.406C195.816 173.845 196.148 174.165 196.148 174.561V187.096C196.148 187.491 195.816 187.812 195.406 187.812Z" fill="#FAE0B2"/>
<path d="M213.388 187.812H199.472C199.064 187.812 198.73 187.491 198.73 187.096V174.561C198.73 174.165 199.064 173.845 199.472 173.845H213.388C213.798 173.845 214.131 174.165 214.131 174.561V187.096C214.131 187.491 213.798 187.812 213.388 187.812Z" fill="#FAE0B2"/>
<path d="M231.372 187.812H217.456C217.045 187.812 216.715 187.491 216.715 187.096V174.561C216.715 174.165 217.045 173.845 217.456 173.845H231.372C231.781 173.845 232.113 174.165 232.113 174.561V187.096C232.113 187.491 231.781 187.812 231.372 187.812Z" fill="#E87B50"/>
<path d="M173.1 159.938V160.644L169.544 167.852H168.402L171.945 160.851V160.827H167.949V159.938H173.1Z" fill="white"/>
<path d="M187.11 161.838C187.11 162.628 187.725 163.054 188.666 163.298C189.371 163.066 189.91 162.58 189.91 161.862C189.91 161.228 189.521 160.571 188.529 160.571C187.612 160.571 187.11 161.156 187.11 161.838ZM190.149 165.794C190.149 164.832 189.458 164.37 188.354 164.065C187.399 164.333 186.884 164.942 186.884 165.696C186.845 166.5 187.474 167.207 188.516 167.207C189.508 167.207 190.149 166.609 190.149 165.794ZM185.752 165.843C185.752 164.844 186.369 164.138 187.373 163.724L187.36 163.688C186.456 163.274 186.067 162.592 186.067 161.91C186.067 160.656 187.16 159.804 188.591 159.804C190.174 159.804 190.967 160.766 190.967 161.752C190.967 162.422 190.627 163.14 189.622 163.603V163.639C190.64 164.029 191.268 164.723 191.268 165.684C191.268 167.06 190.05 167.985 188.491 167.985C186.783 167.985 185.752 166.999 185.752 165.843Z" fill="white"/>
<path d="M186.847 180.939C186.847 182.997 187.5 184.165 188.505 184.165C189.635 184.165 190.174 182.887 190.174 180.866C190.174 178.918 189.661 177.64 188.516 177.64C187.55 177.64 186.847 178.784 186.847 180.939ZM191.281 180.818C191.281 183.508 190.249 184.993 188.441 184.993C186.847 184.993 185.766 183.544 185.74 180.926C185.74 178.273 186.922 176.811 188.58 176.811C190.3 176.811 191.281 178.297 191.281 180.818Z" fill="white"/>
<path d="M205.135 162.544C205.135 163.529 205.75 164.223 206.705 164.223C207.447 164.223 208.024 163.87 208.313 163.395C208.376 163.298 208.414 163.176 208.414 163.006C208.414 161.655 207.899 160.62 206.742 160.62C205.802 160.62 205.135 161.423 205.135 162.544ZM204.732 167.097C204.971 167.121 205.248 167.097 205.624 167.06C206.265 166.975 206.868 166.719 207.333 166.293C207.874 165.818 208.263 165.124 208.414 164.187H208.376C207.924 164.723 207.27 165.04 206.453 165.04C204.984 165.04 204.043 163.967 204.043 162.616C204.043 161.119 205.16 159.804 206.831 159.804C208.501 159.804 209.532 161.119 209.532 163.14C209.532 164.881 208.929 166.098 208.125 166.854C207.496 167.45 206.63 167.815 205.75 167.913C205.349 167.973 204.996 167.985 204.732 167.973V167.097Z" fill="white"/>
<path d="M171.214 147.301V144.659C171.214 144.245 171.226 143.83 171.251 143.417H171.214C170.963 143.88 170.762 144.22 170.536 144.585L168.539 147.275V147.301H171.214ZM171.214 150.295V148.14H167.42V147.434L171.064 142.381H172.257V147.301H173.399V148.14H172.257V150.295H171.214Z" fill="white"/>
<path d="M190.727 143.282H187.612L187.297 145.315C187.486 145.291 187.661 145.266 187.963 145.266C188.59 145.266 189.22 145.401 189.721 145.693C190.362 146.046 190.89 146.727 190.89 147.726C190.89 149.273 189.621 150.429 187.849 150.429C186.958 150.429 186.204 150.186 185.814 149.942L186.091 149.126C186.43 149.321 187.096 149.564 187.836 149.564C188.88 149.564 189.772 148.907 189.772 147.848C189.759 146.825 189.056 146.095 187.423 146.095C186.958 146.095 186.594 146.143 186.293 146.18L186.82 142.381H190.727V143.282Z" fill="white"/>
<path d="M208.44 147.702C208.44 146.57 207.774 145.888 206.756 145.888C206.092 145.888 205.476 146.289 205.173 146.861C205.098 146.984 205.048 147.142 205.048 147.337C205.073 148.639 205.688 149.6 206.844 149.6C207.799 149.6 208.44 148.834 208.44 147.702ZM208.754 143.136C208.527 143.124 208.239 143.136 207.925 143.185C206.191 143.465 205.275 144.694 205.086 145.997H205.123C205.513 145.497 206.191 145.084 207.096 145.084C208.54 145.084 209.558 146.095 209.558 147.641C209.558 149.09 208.54 150.429 206.844 150.429C205.098 150.429 203.955 149.114 203.955 147.056C203.955 145.497 204.534 144.269 205.337 143.489C206.016 142.844 206.921 142.442 207.95 142.321C208.277 142.271 208.552 142.259 208.754 142.259V143.136Z" fill="white"/>
<path d="M170.197 126.554H170.172L168.752 127.297L168.539 126.48L170.322 125.555H171.264V133.469H170.197V126.554Z" fill="white"/>
<path d="M185.852 133.469V132.812L186.718 131.996C188.803 130.073 189.745 129.05 189.758 127.856C189.758 127.054 189.355 126.311 188.137 126.311C187.395 126.311 186.78 126.676 186.403 126.98L186.051 126.225C186.616 125.762 187.42 125.422 188.363 125.422C190.123 125.422 190.863 126.591 190.863 127.722C190.863 129.184 189.771 130.365 188.049 131.972L187.395 132.556V132.58H191.064V133.469H185.852Z" fill="white"/>
<path d="M204.356 132.24C204.669 132.434 205.399 132.738 206.165 132.738C207.584 132.738 208.023 131.861 208.011 131.204C207.998 130.097 206.969 129.622 205.9 129.622H205.285V128.818H205.9C206.705 128.818 207.724 128.416 207.724 127.479C207.724 126.846 207.308 126.285 206.29 126.285C205.636 126.285 205.009 126.566 204.657 126.809L204.368 126.03C204.795 125.725 205.624 125.422 206.504 125.422C208.112 125.422 208.84 126.347 208.84 127.308C208.84 128.125 208.338 128.818 207.334 129.171V129.196C208.338 129.391 209.155 130.121 209.155 131.229C209.155 132.495 208.137 133.603 206.178 133.603C205.261 133.603 204.457 133.323 204.055 133.067L204.356 132.24Z" fill="white"/>
<path d="M171.447 183.817C171.447 184.344 171.006 184.771 170.461 184.771C169.918 184.771 169.477 184.344 169.477 183.817C169.477 183.29 169.918 182.862 170.461 182.862C171.006 182.862 171.447 183.29 171.447 183.817Z" fill="white"/>
<path d="M230.262 138.283H225.079V133.259H223.746V138.283H218.562V139.574H223.746V144.598H225.079V139.574H230.262V138.283Z" fill="white"/>
<path d="M209.88 183.801L207.136 181.141L209.88 178.482L209.175 177.799L206.431 180.457L203.686 177.799L202.98 178.482L205.724 181.141L202.98 183.801L203.686 184.485L206.431 181.826L209.175 184.485L209.88 183.801Z" fill="white"/>
<path d="M228.433 164.622H219.752V163.334H228.433V164.622Z" fill="white"/>
<path d="M228.755 179.511H220.074V178.223H228.755V179.511Z" fill="white"/>
<path d="M228.755 182.755H220.074V181.466H228.755V182.755Z" fill="white"/>
<path d="M174.124 16.8662L174.101 16.8592C173.887 16.7843 173.672 16.7187 173.451 16.6579C173.376 16.6368 173.302 16.6146 173.227 16.5959C173.147 16.5748 173.068 16.5573 172.987 16.5385C172.906 16.5198 172.825 16.5011 172.744 16.4847C172.666 16.4683 172.589 16.4531 172.51 16.4391C172.423 16.4227 172.335 16.4075 172.247 16.3934C172.173 16.3817 172.098 16.37 172.023 16.3595C171.927 16.3466 171.831 16.3349 171.736 16.3244C171.665 16.3174 171.596 16.3092 171.526 16.3021C171.417 16.2916 171.305 16.2846 171.195 16.2776C171.137 16.274 171.079 16.2694 171.021 16.267C170.851 16.2588 170.68 16.2542 170.508 16.2542H91.7388C91.5556 16.2542 91.3734 16.2588 91.1923 16.267C90.8303 16.2858 90.473 16.3209 90.1212 16.3723C89.9454 16.3993 89.7711 16.4285 89.5983 16.4636C85.1038 17.3542 81.6435 20.9971 81.1721 25.4954C81.1357 25.8418 81.1172 26.1929 81.1172 26.5486V153.584V182.567C81.1172 187.022 84.0377 190.814 88.1242 192.248C88.1423 192.254 88.1608 192.26 88.1789 192.265C88.3815 192.336 88.5875 192.398 88.7955 192.457C88.8705 192.478 88.9451 192.5 89.0209 192.518C89.1001 192.539 89.1803 192.557 89.2605 192.575C89.3418 192.594 89.423 192.613 89.505 192.63C89.5823 192.646 89.6601 192.66 89.738 192.676C89.8254 192.691 89.9131 192.706 90.0012 192.721C90.0759 192.733 90.1508 192.744 90.226 192.755C90.3211 192.768 90.4167 192.779 90.5127 192.79C90.5825 192.798 90.6522 192.805 90.7223 192.812C90.8317 192.822 90.942 192.83 91.0526 192.836C91.1107 192.839 91.1684 192.845 91.2268 192.847C91.3966 192.855 91.567 192.86 91.7388 192.86H170.508C170.875 192.86 171.238 192.842 171.595 192.806C176.594 192.315 180.568 188.464 181.077 183.618C181.112 183.273 181.131 182.922 181.131 182.567V55.5304V26.5486C181.131 22.0936 178.21 18.2997 174.124 16.8662Z" fill="#F47458"/>
<path d="M175.983 178.83H86.2676V30.2852H175.983V178.83Z" fill="#F3FCFF"/>
<path d="M150.296 25.6152H112.103C112.048 25.6152 112.004 25.5725 112.004 25.5197V23.8491C112.004 23.7963 112.048 23.7536 112.103 23.7536H150.296C150.349 23.7536 150.393 23.7963 150.393 23.8491V25.5197C150.393 25.5725 150.349 25.6152 150.296 25.6152Z" fill="white"/>
<path d="M131.074 190.256C128.641 190.256 126.668 188.345 126.668 185.986C126.668 183.627 128.641 181.715 131.074 181.715C133.507 181.715 135.481 183.627 135.481 185.986C135.481 188.345 133.507 190.256 131.074 190.256Z" fill="#EC9988"/>
<path d="M175.983 178.83H86.2676V172.598H175.983V178.83Z" fill="#CEEEF3"/>
<path d="M153.576 38.166H109.206C108.961 35.7801 106.884 33.9156 104.357 33.9156H86.2695V30.2823H153.576V38.166Z" fill="#CEEEF3"/>
<path d="M44.0261 74.5234H42.7732C42.0389 73.0461 41.0257 70.306 40.7288 70.306C40.7189 70.306 40.7099 70.3093 40.7017 70.3159C40.066 70.79 41.6403 73.4905 41.3015 73.661C41.2926 73.6654 41.2832 73.6676 41.2733 73.6676C41.0937 73.6676 40.7624 72.946 40.3949 72.2244C40.0275 71.5028 39.6238 70.7801 39.2997 70.7801C39.2899 70.7801 39.2801 70.7812 39.2704 70.7823C38.605 70.8747 40.5362 73.661 40.3501 73.9074C40.3417 73.9184 40.3296 73.9239 40.3142 73.9239C40.1671 73.9239 39.7138 73.4454 39.2276 72.9658C38.7415 72.4873 38.2227 72.0088 37.9446 72.0088C37.8819 72.0088 37.8315 72.0341 37.7963 72.088C37.6093 72.3762 39.4381 74.1813 39.2893 74.5234H38.8596C38.6336 74.4486 38.3498 74.3133 38.0666 74.178C37.6416 73.9745 37.2182 73.771 36.9946 73.771C36.9239 73.771 36.8732 73.7919 36.8487 73.8381C36.7544 74.0196 37.1566 74.2341 37.6569 74.5234H26.4396C23.7482 74.5234 21.5664 72.4092 21.5664 69.8011V38.6392C21.5664 36.03 23.7482 33.9158 26.4396 33.9158H61.0981C61.3713 35.6351 61.6917 36.9551 61.8023 37.6877C62.4788 42.168 69.2522 62.9184 45.2112 73.9965C45.2525 73.8227 45.2405 73.7116 45.1525 73.6918C45.136 73.6874 45.1194 73.6852 45.1027 73.6852C44.8907 73.6852 44.6706 73.9866 44.4467 74.3408C44.3068 74.4024 44.168 74.4629 44.0261 74.5234Z" fill="#F4FAFD"/>
<path d="M81.1179 74.5234H45.0174C45.1088 74.3166 45.177 74.1362 45.2105 73.9965C69.2515 62.9184 62.4781 42.168 61.8016 37.6877C61.691 36.9551 61.3705 35.6351 61.0974 33.9158H81.1179V74.5234ZM44.3321 74.5234H44.0254C44.1673 74.4629 44.3061 74.4024 44.446 74.3408C44.4081 74.4002 44.3701 74.4618 44.3321 74.5234Z" fill="#EAF4FC"/>
<path d="M45.019 74.5234H44.3338C44.3718 74.4618 44.4097 74.4002 44.4476 74.3408C44.6715 73.9866 44.8917 73.6852 45.1036 73.6852C45.1204 73.6852 45.137 73.6874 45.1535 73.6918C45.2414 73.7116 45.2535 73.8227 45.2122 73.9965C45.1787 74.1362 45.1105 74.3166 45.019 74.5234ZM42.7742 74.5234H39.2903C39.4391 74.1813 37.6103 72.3762 37.7973 72.088C37.8325 72.0341 37.8829 72.0088 37.9456 72.0088C38.2237 72.0088 38.7425 72.4873 39.2286 72.9658C39.7148 73.4454 40.1681 73.9239 40.3152 73.9239C40.3306 73.9239 40.3427 73.9184 40.3511 73.9074C40.5372 73.661 38.606 70.8747 39.2714 70.7823C39.2811 70.7812 39.2909 70.7801 39.3007 70.7801C39.6248 70.7801 40.0285 71.5028 40.3959 72.2244C40.7634 72.946 41.0947 73.6676 41.2743 73.6676C41.2842 73.6676 41.2936 73.6654 41.3025 73.661C41.6413 73.4905 40.067 70.79 40.7027 70.3159C40.7109 70.3093 40.7199 70.306 40.7298 70.306C41.0267 70.306 42.0399 73.0461 42.7742 74.5234ZM38.8607 74.5234H37.6579C37.1576 74.2341 36.7554 74.0196 36.8497 73.8381C36.8742 73.7919 36.9249 73.771 36.9956 73.771C37.2192 73.771 37.6426 73.9745 38.0677 74.178C38.3508 74.3133 38.6346 74.4486 38.8607 74.5234Z" fill="#EC998C"/>
<path d="M81.1191 74.5234H86.2682V33.916H81.1191V74.5234Z" fill="#E97257"/>
<path d="M95.1652 83.8936C94.7679 83.8936 90.2665 77.881 87.784 74.5237H86.2695V33.9161V38.1665H109.206C109.222 38.3216 109.23 38.48 109.23 38.6395V69.8014C109.23 72.4095 107.048 74.5237 104.357 74.5237H94.3163C94.8211 78.2143 95.5373 83.8936 95.1652 83.8936Z" fill="#E8F7FD"/>
<path d="M109.206 38.166H86.2695V33.9156H104.357C106.884 33.9156 108.961 35.7801 109.206 38.166Z" fill="#C5E9F1"/>
<path d="M101.136 25.834H23.2208C20.5296 25.834 18.3477 27.948 18.3477 30.5565V61.7183C18.3477 64.3269 20.5296 66.442 23.2208 66.442H84.5635C87.0461 69.7986 91.5474 75.8115 91.9447 75.8115C92.3168 75.8115 91.6004 70.132 91.0957 66.442H101.136C103.828 66.442 106.009 64.3269 106.009 61.7183V30.5565C106.009 27.948 103.828 25.834 101.136 25.834Z" fill="#9BC1F9"/>
<path d="M64.7144 37.9941H26.5174C26.4572 37.9941 26.4082 37.9479 26.4082 37.8885V36.0427C26.4082 35.9844 26.4572 35.9371 26.5174 35.9371H64.7144C64.7748 35.9371 64.8237 35.9844 64.8237 36.0427V37.8885C64.8237 37.9479 64.7748 37.9941 64.7144 37.9941Z" fill="white"/>
<path d="M42.8478 43.4238H26.5174C26.4572 43.4238 26.4082 43.3765 26.4082 43.3182V41.4713C26.4082 41.413 26.4572 41.3657 26.5174 41.3657H42.8478C42.9082 41.3657 42.9572 41.413 42.9572 41.4713V43.3182C42.9572 43.3765 42.9082 43.4238 42.8478 43.4238Z" fill="white"/>
<path d="M96.2168 43.4238H44.9316C44.8712 43.4238 44.8223 43.3765 44.8223 43.3182V41.4713C44.8223 41.413 44.8712 41.3657 44.9316 41.3657H96.2168C96.2773 41.3657 96.3262 41.413 96.3262 41.4713V43.3182C96.3262 43.3765 96.2773 43.4238 96.2168 43.4238Z" fill="white"/>
<path d="M96.3731 37.9941H68.8592C68.7989 37.9941 68.75 37.9479 68.75 37.8885V36.0427C68.75 35.9844 68.7989 35.9371 68.8592 35.9371H96.3731C96.4334 35.9371 96.4824 35.9844 96.4824 36.0427V37.8885C96.4824 37.9479 96.4334 37.9941 96.3731 37.9941Z" fill="white"/>
<path d="M96.3729 54.0635H26.5174C26.4572 54.0635 26.4082 54.0173 26.4082 53.959V52.1121C26.4082 52.0538 26.4572 52.0065 26.5174 52.0065H96.3729C96.4333 52.0065 96.4823 52.0538 96.4823 52.1121V53.959C96.4823 54.0173 96.4333 54.0635 96.3729 54.0635Z" fill="white"/>
<path d="M62.4992 48.8516H26.5174C26.4572 48.8516 26.4082 48.8043 26.4082 48.746V46.9002C26.4082 46.8419 26.4572 46.7946 26.5174 46.7946H62.4992C62.5595 46.7946 62.6085 46.8419 62.6085 46.9002V48.746C62.6085 48.8043 62.5595 48.8516 62.4992 48.8516Z" fill="white"/>
<path d="M96.3716 48.8516H64.8183C64.758 48.8516 64.709 48.8043 64.709 48.746V46.9002C64.709 46.8419 64.758 46.7946 64.8183 46.7946H96.3716C96.432 46.7946 96.481 46.8419 96.481 46.9002V48.746C96.481 48.8043 96.432 48.8516 96.3716 48.8516Z" fill="white"/>
<path d="M165.059 16.9492H188.813C188.867 16.9492 188.911 16.9067 188.911 16.8545V15.2056C188.911 15.1534 188.867 15.1109 188.813 15.1109H165.059C165.004 15.1109 164.961 15.1534 164.961 15.2056V16.8545C164.961 16.9067 165.004 16.9492 165.059 16.9492Z" fill="white"/>
<path d="M204.086 42.5518C199.161 42.5518 196.836 40.4968 199.035 34.4612C201.642 27.3004 197.488 20.8756 188.911 15.5964V15.2057C188.911 15.1528 188.867 15.1117 188.812 15.1117H188.105C184.908 13.2301 181.146 11.4997 176.926 9.93832H227.535C229.941 9.93832 231.889 11.8273 231.889 14.1584V36.4589C230.029 36.9216 228.173 37.4048 226.347 37.8881C217.528 40.2207 209.332 42.5518 204.086 42.5518Z" fill="#F4FAFD"/>
<path d="M227.537 46.2168H181.133V26.5471C181.133 22.1757 178.321 18.4419 174.354 16.9495H188.814C188.869 16.9495 188.913 16.9069 188.913 16.8555V15.5966C197.49 20.8758 201.644 27.3006 199.037 34.4614C196.838 40.497 199.163 42.552 204.087 42.552C209.334 42.552 217.53 40.2209 226.349 37.8883C228.175 37.405 230.031 36.9218 231.891 36.4591V41.9982C231.891 44.3278 229.943 46.2168 227.537 46.2168ZM164.963 16.2532H153.574V14.1586C153.574 11.8275 155.524 9.93854 157.928 9.93854H176.928C181.148 11.5 184.91 13.2303 188.107 15.1119H165.061C165.006 15.1119 164.963 15.153 164.963 15.2059V16.2532Z" fill="#EAF4FC"/>
<path d="M181.131 46.2168H175.982V38.1668V30.283H153.572V16.2532H164.961V16.8547C164.961 16.9062 165.005 16.9483 165.059 16.9483H174.352C178.319 18.4415 181.131 22.1757 181.131 26.5477V46.2168Z" fill="#E97257"/>
<path d="M166.138 54.5879C165.805 54.5879 166.446 49.5142 166.897 46.2174H157.927C155.523 46.2174 153.572 44.3279 153.572 41.9981V38.1667H175.983V46.2174H172.733C170.515 49.2162 166.493 54.5879 166.138 54.5879Z" fill="#E8F7FD"/>
<path d="M175.983 38.168H153.572V30.2855H175.983V38.168Z" fill="#C5E9F1"/>
<path d="M188.813 16.9492H174.352H165.059C165.004 16.9492 164.961 16.9067 164.961 16.8545V16.2535V15.2056C164.961 15.1534 165.004 15.1109 165.059 15.1109H188.105H188.813C188.867 15.1109 188.911 15.1534 188.911 15.2056V15.5966V16.8545C188.911 16.9067 188.867 16.9492 188.813 16.9492Z" fill="#F4FAFD"/>
<path d="M160.803 2.71745H230.411C232.815 2.71745 234.764 4.60604 234.764 6.93745V34.7761C234.764 37.1075 232.815 38.9961 230.411 38.9961H175.607C173.39 41.9946 169.369 47.3662 169.013 47.3662C168.681 47.3662 169.321 42.2933 169.772 38.9961H160.803C158.396 38.9961 156.447 37.1075 156.447 34.7761V6.93745C156.447 4.60604 158.396 2.71745 160.803 2.71745Z" fill="#9BC1F9"/>
<path d="M204.647 13.582H225.732C225.785 13.582 225.83 13.539 225.83 13.4875V11.8381C225.83 11.7851 225.785 11.7435 225.732 11.7435H204.647C204.593 11.7435 204.549 11.7851 204.549 11.8381V13.4875C204.549 13.539 204.593 13.582 204.647 13.582Z" fill="white"/>
<path d="M211.553 19.585H225.732C225.785 19.585 225.83 19.5434 225.83 19.4904V17.841C225.83 17.7895 225.785 17.7465 225.732 17.7465H211.553C211.498 17.7465 211.455 17.7895 211.455 17.841V19.4904C211.455 19.5434 211.498 19.585 211.553 19.585Z" fill="white"/>
<path d="M192.124 19.5859H209.618C209.672 19.5859 209.716 19.5431 209.716 19.4923V17.8418C209.716 17.7897 209.672 17.7482 209.618 17.7482H192.124C192.07 17.7482 192.025 17.7897 192.025 17.8418V19.4923C192.025 19.5431 192.07 19.5859 192.124 19.5859Z" fill="white"/>
<path d="M165.166 19.585H189.692C189.748 19.585 189.791 19.5435 189.791 19.4911V17.8412C189.791 17.79 189.748 17.7473 189.692 17.7473H165.166C165.113 17.7473 165.068 17.79 165.068 17.8412V19.4911C165.068 19.5435 165.113 19.585 165.166 19.585Z" fill="white"/>
<path d="M165.06 13.5801H200.557C200.612 13.5801 200.655 13.539 200.655 13.4864V11.8367C200.655 11.7853 200.612 11.743 200.557 11.743H165.06C165.005 11.743 164.963 11.7853 164.963 11.8367V13.4864C164.963 13.539 165.005 13.5801 165.06 13.5801Z" fill="white"/>
<path d="M165.061 31.3418H225.732C225.785 31.3418 225.83 31.3002 225.83 31.2487V29.5993C225.83 29.5463 225.785 29.5047 225.732 29.5047H165.061C165.006 29.5047 164.963 29.5463 164.963 29.5993V31.2487C164.963 31.3002 165.006 31.3418 165.061 31.3418Z" fill="white"/>
<path d="M194.485 25.5332H225.733C225.786 25.5332 225.831 25.4917 225.831 25.4386V23.7893C225.831 23.7377 225.786 23.6947 225.733 23.6947H194.485C194.43 23.6947 194.387 23.7377 194.387 23.7893V25.4386C194.387 25.4917 194.43 25.5332 194.485 25.5332Z" fill="white"/>
<path d="M165.058 25.5342H192.727C192.78 25.5342 192.824 25.4921 192.824 25.4401V23.7907C192.824 23.7387 192.78 23.6954 192.727 23.6954H165.058C165.005 23.6954 164.961 23.7387 164.961 23.7907V25.4401C164.961 25.4921 165.005 25.5342 165.058 25.5342Z" fill="white"/>
<path d="M108.711 86.5988C108.711 86.5988 91.3221 89.0232 93.9794 105.233C96.4568 120.345 111.369 117.276 115.198 116.518C119.028 115.761 108.711 86.5988 108.711 86.5988Z" fill="#F7CC7F"/>
<path d="M115.197 116.518C116.981 116.166 115.697 109.655 113.816 102.796C107.414 104.008 100.282 105.361 94.2285 106.515C97.3218 120.166 111.48 117.254 115.197 116.518Z" fill="#E8BA70"/>
<path d="M118.715 119.321C118.715 119.321 122.535 132.492 121.529 142.725C120.591 152.269 121.998 153.86 125.671 153.557C129.344 153.254 138.254 151.133 138.411 147.725C138.567 144.316 136.926 126.819 130.752 117.428C124.577 108.035 118.715 119.321 118.715 119.321Z" fill="#96D9C9"/>
<path d="M124.651 113.827C122.202 115.417 118.715 119.321 118.715 119.321C118.715 119.321 122.535 132.492 121.529 142.725C120.591 152.269 121.998 153.86 125.671 153.557C127.018 153.446 129.07 153.09 131.135 152.517C132.601 129.06 126.336 116.482 124.651 113.827Z" fill="#50BFA5"/>
<path d="M161.386 54.6728C161.386 54.6728 132.547 74.9526 123.226 81.0885L117.775 88.9276L121.644 111.765L130.964 116.196L176.509 124.887L175.454 119.944L167.189 97.7894L162.968 72.5673L161.737 57.058L161.386 54.6728Z" fill="#96D9C9"/>
<path d="M167.19 97.7894L166.083 91.1771L119.994 102.018L121.645 111.765L130.965 116.196L176.51 124.887L175.455 119.944L167.19 97.7894Z" fill="#50BFA5"/>
<path d="M123.228 81.0888C123.228 81.0888 119.419 100.46 130.966 116.196C130.966 116.196 131.61 117.654 130.204 118.564L121.608 120.684C121.608 120.684 117.622 122.047 114.261 116.518C110.9 110.989 104.96 98.5667 108.477 84.8574C108.477 84.8574 109.336 81.146 114.026 80.464L120.279 79.3277C120.279 79.3277 123.053 78.9108 123.228 81.0888Z" fill="#3C8F7C"/>
<path d="M161.387 54.6727C161.387 54.6727 168.89 49.3332 173.229 49.4464C177.567 49.5597 181.903 55.1269 184.718 59.6725C187.53 64.2169 194.916 82.0543 195.621 94.0976C196.323 106.141 196.207 123.297 190.111 125.342C184.013 127.388 176.51 124.887 176.51 124.887C176.51 124.887 166.663 116.708 160.92 91.2571C155.175 65.8071 161.387 54.6727 161.387 54.6727Z" fill="#256653"/>
<path d="M185.79 126.023C185.79 126.023 192.804 117.219 189.23 93.4455C183.602 56.0159 169.418 50.3553 169.418 50.3553C169.418 50.3553 158.919 58.0834 168.949 94.2542C177.214 124.06 185.79 126.023 185.79 126.023Z" fill="#3C8F7C"/>
<path d="M165.59 79.0338C166.272 83.4399 167.347 88.4833 168.947 94.2543C169.748 97.1417 170.552 99.7663 171.35 102.154C175.711 100.691 182.766 97.0239 179.754 87.7212C176.962 79.1021 169.696 78.5744 165.59 79.0338Z" fill="#F7CC7F"/>
<path d="M168.95 94.2552C169.751 97.1426 170.555 99.7672 171.354 102.155C175.654 100.712 182.572 97.125 179.874 88.1046L168.02 90.7516C168.309 91.8892 168.618 93.0556 168.95 94.2552Z" fill="#E8BA70"/>
<path d="M120.4 120.833H120.469V120.831H120.4V120.833Z" fill="#3EA68B"/>
<path d="M120.469 120.833C121.171 120.833 121.606 120.685 121.606 120.685L127.213 119.301L121.606 120.685C121.606 120.685 121.171 120.833 120.469 120.833Z" fill="#3EA68B"/>
<path d="M114.344 116.652C114.316 116.608 114.289 116.563 114.262 116.518C114.196 116.41 114.13 116.3 114.062 116.187C114.13 116.3 114.196 116.41 114.262 116.518C114.289 116.563 114.316 116.608 114.344 116.652Z" fill="#B3A15E"/>
<path d="M130.965 116.196C130.959 116.188 130.952 116.178 130.945 116.169C130.952 116.179 130.958 116.186 130.965 116.196Z" fill="#3EA68B"/>
<path d="M114.055 116.181C114.053 116.177 114.051 116.174 114.049 116.17C114.051 116.174 114.054 116.177 114.055 116.181Z" fill="#B3A15E"/>
<path d="M130.94 116.162C130.936 116.156 130.93 116.147 130.926 116.141C130.93 116.148 130.935 116.155 130.94 116.162Z" fill="#3EA68B"/>
<path d="M114.044 116.155L114.043 116.153C114.044 116.155 114.043 116.153 114.044 116.155Z" fill="#B3A15E"/>
<path d="M130.922 116.134C130.918 116.128 130.913 116.12 130.908 116.114C130.913 116.121 130.918 116.127 130.922 116.134Z" fill="#3EA68B"/>
<path d="M130.901 116.107C130.895 116.099 130.888 116.09 130.881 116.081C130.888 116.09 130.894 116.099 130.901 116.107ZM130.88 116.08C130.875 116.071 130.869 116.062 130.862 116.054C130.868 116.062 130.875 116.071 130.88 116.08ZM130.856 116.047C130.852 116.039 130.847 116.034 130.843 116.027C130.847 116.034 130.852 116.04 130.856 116.047ZM130.837 116.019C130.831 116.012 130.827 116.006 130.822 115.999C130.827 116.005 130.831 116.012 130.837 116.019ZM130.816 115.992C130.804 115.973 130.791 115.956 130.778 115.938C130.791 115.956 130.804 115.973 130.816 115.992ZM130.773 115.931C130.769 115.925 130.763 115.917 130.758 115.911C130.763 115.917 130.769 115.925 130.773 115.931ZM130.754 115.904C130.748 115.896 130.742 115.889 130.737 115.881C130.742 115.889 130.748 115.896 130.754 115.904ZM130.734 115.876C130.721 115.859 130.707 115.84 130.695 115.821C130.707 115.84 130.721 115.859 130.734 115.876ZM130.691 115.816C130.685 115.809 130.679 115.801 130.674 115.794C130.68 115.802 130.685 115.809 130.691 115.816ZM130.671 115.788C130.665 115.781 130.659 115.772 130.654 115.764C130.659 115.773 130.665 115.781 130.671 115.788ZM130.651 115.761C130.638 115.742 130.624 115.724 130.611 115.705C130.624 115.724 130.638 115.742 130.651 115.761ZM130.609 115.703C130.603 115.694 130.597 115.685 130.591 115.676C130.597 115.685 130.603 115.694 130.609 115.703ZM130.589 115.674C130.569 115.645 130.549 115.616 130.528 115.588C130.549 115.617 130.569 115.645 130.589 115.674ZM130.527 115.587C130.521 115.578 130.515 115.567 130.508 115.559C130.515 115.568 130.52 115.577 130.527 115.587Z" fill="#3EA68B"/>
<path d="M124.051 101.064C124.049 101.056 124.047 101.047 124.045 101.038C124.047 101.047 124.05 101.056 124.051 101.064Z" fill="#73BCAA"/>
<path d="M130.508 115.559C127.174 110.82 125.193 105.783 124.051 101.065C125.193 105.783 127.174 110.82 130.508 115.559Z" fill="#3EA68B"/>
<path d="M120.468 120.833C120.446 120.833 120.423 120.833 120.4 120.832C118.979 120.812 116.536 120.177 114.342 116.652C114.315 116.608 114.288 116.563 114.26 116.518C114.194 116.41 114.128 116.3 114.061 116.187C114.059 116.184 114.058 116.182 114.057 116.18C114.055 116.177 114.053 116.173 114.051 116.17C114.047 116.165 114.044 116.16 114.042 116.155C114.041 116.154 114.042 116.155 114.041 116.154C114.034 116.143 114.028 116.132 114.021 116.119C112.372 113.345 110.206 109.046 108.809 103.826L124.045 101.038C124.047 101.047 124.048 101.056 124.05 101.065C125.192 105.783 127.173 110.82 130.508 115.558C130.514 115.567 130.521 115.578 130.527 115.587C130.528 115.587 130.528 115.587 130.528 115.588C130.549 115.616 130.569 115.645 130.588 115.674C130.59 115.674 130.59 115.675 130.591 115.676C130.596 115.685 130.603 115.694 130.609 115.703C130.61 115.703 130.61 115.704 130.611 115.705C130.624 115.724 130.637 115.742 130.651 115.761C130.651 115.762 130.652 115.763 130.653 115.764C130.659 115.772 130.665 115.781 130.67 115.788C130.672 115.791 130.673 115.792 130.674 115.794C130.678 115.801 130.685 115.809 130.691 115.816C130.692 115.818 130.693 115.82 130.694 115.821C130.707 115.84 130.721 115.859 130.734 115.876C130.734 115.878 130.735 115.88 130.737 115.881C130.742 115.889 130.748 115.896 130.754 115.904C130.755 115.906 130.756 115.908 130.758 115.91C130.763 115.917 130.768 115.925 130.773 115.931C130.775 115.934 130.776 115.936 130.778 115.938C130.791 115.956 130.804 115.973 130.816 115.992C130.819 115.994 130.82 115.996 130.822 115.998C130.827 116.006 130.831 116.012 130.837 116.019C130.838 116.022 130.84 116.024 130.842 116.027C130.847 116.034 130.852 116.039 130.856 116.047C130.858 116.049 130.86 116.051 130.862 116.053C130.869 116.062 130.874 116.071 130.88 116.08C130.881 116.08 130.881 116.08 130.881 116.081C130.888 116.09 130.895 116.099 130.901 116.107C130.903 116.11 130.905 116.113 130.906 116.115C130.911 116.121 130.915 116.128 130.92 116.134C130.922 116.137 130.924 116.14 130.927 116.143C130.931 116.148 130.937 116.157 130.94 116.162C130.943 116.165 130.944 116.167 130.946 116.169C130.953 116.178 130.96 116.188 130.965 116.196C130.965 116.196 131.114 116.53 131.114 116.978C131.114 117.466 130.937 118.09 130.204 118.564L127.214 119.301L121.607 120.685C121.607 120.685 121.172 120.833 120.47 120.833H120.468Z" fill="#2E7C69"/>
<path d="M277.94 38.3977L277.869 45.6934L282.656 41.341L297.745 31.4435L285.43 34.0375C285.43 34.0375 279.276 36.2898 278.97 36.6323C278.664 36.9745 277.94 38.3977 277.94 38.3977Z" fill="#DD513A"/>
<path d="M271.873 34.722L297.746 31.4433L277.942 38.3975L271.873 34.722Z" fill="#F47458"/>
<path d="M287.183 44.624L279.725 40.1531L297.745 31.4436L287.183 44.624Z" fill="#F47458"/>
<path d="M264.827 47.3004C265.571 46.2081 266.48 45.2276 267.529 44.3862L267.92 44.8449C266.92 45.6488 266.049 46.5854 265.34 47.6287L264.827 47.3004ZM257.695 50.3973C258.347 50.1161 259.536 49.628 260.18 49.5206C260.681 49.437 261.141 49.377 261.59 49.3369L261.646 49.9297C261.215 49.9686 260.77 50.0268 260.283 50.1076C259.861 50.178 259.008 50.4817 257.946 50.9412L257.695 50.3973ZM265.528 50.2739L265.445 50.2475L265.636 49.6814L265.725 49.7102C267.06 50.1506 268.222 51.0075 268.918 52.0613L268.399 52.3822C267.778 51.4398 266.731 50.6715 265.528 50.2739ZM262.982 53.6341C262.908 53.0671 262.908 52.4744 262.982 51.8721C263.022 51.5481 263.085 51.2159 263.167 50.8841L263.764 51.0238C263.687 51.3328 263.629 51.6419 263.593 51.9428C263.524 52.497 263.523 53.0409 263.591 53.5595C263.64 53.9278 263.728 54.2943 263.852 54.649L263.271 54.8418C263.13 54.4486 263.034 54.0423 262.982 53.6341ZM251.293 55.0236C252.179 54.0887 253.151 53.1855 254.184 52.339L254.58 52.7938C253.568 53.6241 252.614 54.5098 251.745 55.4263L251.293 55.0236ZM266.004 57.9539C265.965 57.9365 265.927 57.9184 265.89 57.9001L266.165 57.368C266.198 57.3841 266.232 57.3998 266.26 57.4127C266.26 57.4128 266.279 57.4188 266.324 57.424C266.664 57.4636 267.538 57.3587 267.991 57.0173C268.373 56.7304 268.659 56.326 268.839 55.8153L269.42 56.0094C269.203 56.6225 268.839 57.1336 268.368 57.4876C267.739 57.9612 266.68 58.065 266.251 58.0153C266.149 58.0036 266.069 57.9835 266.004 57.9539ZM246.816 61.4446C247.35 60.3036 248.015 59.165 248.795 58.0604L249.302 58.3963C248.542 59.4726 247.895 60.5811 247.374 61.6911L246.816 61.4446ZM245.13 68.5138C245.135 67.9332 245.173 67.3428 245.247 66.7586C245.312 66.2208 245.408 65.6757 245.531 65.1389L246.131 65.2672C246.012 65.7854 245.921 66.3109 245.856 66.8293C245.788 67.3918 245.748 67.9604 245.744 68.5195C245.741 68.6839 245.742 68.8481 245.746 69.0124L245.133 69.0254C245.13 68.852 245.128 68.68 245.13 68.5138Z" fill="#6DB1B5"/>
<path d="M271.226 42.9131C271.845 42.6655 272.478 42.4697 273.106 42.3311L272.97 41.7504C272.308 41.8963 271.643 42.1023 270.992 42.3625L271.226 42.9131Z" fill="#6DB1B5"/>
<path d="M207.276 114.792L206.962 115.065C206.8 115.205 206.556 115.199 206.417 115.052L200.835 109.104C200.697 108.956 200.715 108.722 200.878 108.583L201.192 108.309C201.353 108.169 201.597 108.174 201.734 108.322L207.318 114.271C207.457 114.418 207.437 114.651 207.276 114.792Z" fill="#13375B"/>
<path d="M226.202 109.96C225.455 109.371 219.686 111.826 219.759 112.68C219.831 113.534 215.731 121.816 215.731 121.816L208.647 116.341L208.644 116.342C208.581 116.144 207.91 114.016 207.877 113.634C207.843 113.235 206.646 112.535 206.089 112.639C205.533 112.742 206.565 113.417 206.634 113.542C206.818 113.879 206.104 114.006 206.104 114.006C206.104 114.006 204.056 112.917 204.014 112.277C203.971 111.636 203.548 110.295 203.105 110.575C202.877 110.72 202.879 111.673 202.949 112.124C202.819 111.611 202.633 111.033 202.451 110.974C202.12 110.87 201.956 111.278 202.016 111.479C202.076 111.679 202.61 113.856 202.774 114.102C202.931 114.341 206.238 116.922 206.713 117.483C206.713 117.483 215.878 127.636 216.531 127.901C217.102 128.134 219.145 124.635 221.073 122.313C223.003 119.99 228.534 111.797 226.202 109.96Z" fill="#F7A491"/>
<path d="M244.694 184.614C244.694 184.614 245.952 185.805 245.981 186.242C246.011 186.68 246.093 191.361 245.579 191.798C245.065 192.236 243.554 192.545 244.04 193.037C244.406 193.408 247.231 193.329 249.101 193.229C249.646 193.201 250.331 188.978 250.547 188.356C250.863 187.455 251.626 185.425 251.34 184.796C251.201 184.491 250.536 183.861 249.598 183.274C248.61 182.656 247.666 181.281 247.666 181.281L244.694 184.614Z" fill="#F48C7F"/>
<path d="M231.648 187.387L232.776 190.481C232.86 190.97 233.19 192.178 233.19 192.622C233.19 194.291 225.422 191.204 227.162 190.465C227.32 190.398 227.815 189.864 227.865 189.295C227.945 188.419 227.213 187.321 227.213 187.321L231.648 187.387Z" fill="#F7A491"/>
<path d="M219.461 129.935C219.461 129.935 218.894 135.466 218.894 135.549C218.894 144.496 217.064 161.973 217.413 163.655C218.262 167.758 227.4 188.688 227.4 188.688L232.338 188.116L225.903 163.056L228.272 152.97L231.624 133.032L219.461 129.935Z" fill="#355389"/>
<path d="M236.036 134.828L236.974 140.07L239.51 161.644L249.165 182.731C249.165 182.731 247.809 185.799 245.803 186.23L230.435 164.581L220.889 136.879L221.224 130.724L236.036 134.828Z" fill="#13375B"/>
<path d="M217.494 116.765L224.342 117.442C224.342 117.442 224.656 112.002 224.656 109.406C224.656 106.258 224.38 102.201 223.986 102.289C222.884 102.533 221.402 103.123 220.519 104.299C217.465 108.367 217.494 116.765 217.494 116.765Z" fill="#86B1F2"/>
<path d="M220.858 108.85C220.715 109.811 218.082 135.913 218.082 135.913C230.552 141.749 237.434 136.952 237.434 136.952C237.434 136.952 237.025 118.623 237.513 116.128C237.838 114.478 238.242 103.51 237.138 103.203C235.721 102.809 234.098 102.39 232.327 102.212C230.816 102.06 224.948 101.972 223.898 102.314C223.898 102.314 221.462 104.813 220.858 108.85Z" fill="#9BC1F9"/>
<path d="M249.536 183.244C249.536 183.244 246.635 191.164 245.498 191.546C245.197 191.648 243.749 191.906 243.476 192.526C243.394 192.713 243.476 193.337 243.476 193.337H249.526C249.526 193.337 250.291 189.848 250.594 188.314C250.594 188.314 252.195 184.568 252.017 184.228C251.838 183.887 249.536 183.244 249.536 183.244Z" fill="#184655"/>
<path d="M233.634 193.172L232.742 190.449C232.742 190.449 230.876 191.215 229.941 191.087C229.007 190.96 227.183 190.449 227.183 190.449C223.454 191.638 220.4 192.215 220.956 193.172H233.634Z" fill="#184655"/>
<path d="M216.532 127.901C216.504 127.89 216.402 127.813 216.343 127.765C216.565 125.208 216.525 122.731 215.697 121.893C215.716 121.853 215.898 121.48 216.087 121.093C217.047 121.812 217.502 123.724 217.323 126.826C217.312 127.039 217.249 127.202 217.197 127.468C216.919 127.764 216.666 127.956 216.532 127.901Z" fill="#F7A491"/>
<path d="M249.782 136.189C249.79 136.133 249.791 136.077 249.785 136.021C249.602 134.213 248.053 119.034 247.792 118.39C247.556 117.807 240.612 108.18 240.612 108.18L237.197 112.687L243.877 121.322C244.027 121.87 246.436 132.117 246.436 132.117C246.436 132.117 246.932 133.985 247.152 135.103C247.051 135.373 246.951 135.628 246.864 135.837C246.642 136.282 246.382 136.649 246.143 136.958C245.846 137.345 245.352 138.192 245.291 138.42C245.221 138.683 245.094 139.23 245.022 139.561C244.948 139.891 244.85 140.276 244.834 140.456C244.822 140.566 244.706 140.784 244.618 140.938C244.485 141.166 244.711 141.437 244.969 141.353C245.213 141.275 245.401 140.972 245.517 140.781C245.846 140.246 246.021 139.269 246.102 139.321C246.184 139.372 246.474 141.031 246.519 141.218C246.564 141.406 246.909 143.332 247.105 143.684C247.299 144.036 247.558 143.977 247.626 143.757C247.685 143.567 247.411 140.872 247.411 140.872C247.411 140.872 247.376 140.528 247.532 140.635C247.687 140.743 247.94 143.189 248.05 143.547C248.158 143.905 248.403 144.095 248.612 143.808C248.868 143.458 248.429 140.863 248.429 140.863C248.429 140.863 248.38 140.536 248.524 140.567C248.668 140.597 248.848 142.682 248.961 142.863C249.072 143.043 249.355 143.108 249.489 142.806C249.648 142.452 249.237 140.139 249.237 140.139C249.237 140.139 249.257 139.955 249.347 140.017C249.437 140.077 249.721 141.844 249.908 142.008C250.061 142.145 250.192 142.012 250.192 142.012C250.532 141.787 250.011 140.106 250.015 139.271C250.02 138.435 249.621 137.496 249.741 136.501C249.747 136.439 249.769 136.286 249.782 136.189Z" fill="#F8A492"/>
<path d="M246.036 114.277L240.104 118.138C240.104 118.138 236.76 113.315 234.964 111.598C232.715 109.448 235.784 102.859 237.233 103.231C240.472 104.065 246.036 114.277 246.036 114.277Z" fill="#9BC1F9"/>
<path d="M231.891 96.5691L232.777 102.237C232.777 102.237 229.537 108.987 227.602 108.402C225.979 107.91 226.978 101.938 226.978 101.938C226.978 101.938 227.861 98.7314 227.597 97.1265C227.332 95.5216 231.891 96.5691 231.891 96.5691Z" fill="#F7A491"/>
<path d="M227.597 97.1254C227.332 95.5204 231.89 96.568 231.89 96.568L231.964 97.0384C231.83 97.3531 231.668 97.6214 231.47 97.8283C230.452 98.8897 228.86 99.5278 227.484 99.5762C227.621 98.7104 227.706 97.7832 227.597 97.1254Z" fill="#F47458"/>
<path d="M232.638 88.55C232.767 88.5046 233.671 95.0061 231.954 96.7947C230.24 98.5832 226.897 99.1695 225.698 97.7603C224.373 96.2019 224.441 89.2144 227.106 87.3743C229.774 85.5342 232.638 88.55 232.638 88.55Z" fill="#F7A491"/>
<path d="M228.121 83.8974C230.182 84.3048 231.518 85.5257 232.009 86.0459C232.945 86.153 234.217 86.6543 235.53 88.7624C237.145 91.3541 235.952 94.2256 234.071 95.6346C232.192 97.044 232.218 98.6709 232.218 98.6709L231.92 97.8294C231.701 97.1914 231.611 96.5152 231.684 95.8465C231.729 95.445 231.818 95.0112 231.989 94.6543C232.44 93.7135 231.018 93.0883 230.619 92.3056C230.311 91.7027 230.297 90.3238 229.811 89.3274L229.233 88.5668C229.233 88.5668 227.899 87.5604 226.593 87.8445C225.289 88.1283 225.475 83.3748 228.121 83.8974Z" fill="#184655"/>
<path d="M230.705 93.4617C230.692 94.2549 231.062 94.9041 231.535 94.912C232.009 94.9198 232.402 94.2832 232.416 93.49C232.429 92.6968 232.057 92.0473 231.585 92.0397C231.112 92.0317 230.719 92.6684 230.705 93.4617Z" fill="#F7A491"/>
<path d="M227.922 95.2948L225.336 95.1652C225.336 95.1652 225.345 96.1199 226.479 96.2087C227.865 96.3171 227.922 95.2948 227.922 95.2948Z" fill="white"/>
<path d="M111.799 192.933L113.063 192.701L107.6 164.615L106.336 164.847L111.799 192.933Z" fill="#0E2E35"/>
<path d="M97.7064 193.06H96.1855L101.854 164.615L103.118 164.847L97.7064 193.06Z" fill="#0E2E35"/>
<path d="M83.7209 193.06L84.9558 193.074L79.5222 164.743L78.2578 164.975L83.7209 193.06Z" fill="#0E2E35"/>
<path d="M89.2398 126.308C84.233 126.827 77.7535 127.376 71.2488 138.073C64.1394 149.765 67.8818 167.231 73.4931 172.084C79.1042 176.937 97.4307 182.93 112.836 173.959C112.836 173.959 122.139 168.522 117.364 159.499C110.019 145.614 111.056 142.718 107.772 137.276C104.487 131.834 99.8678 125.204 89.2398 126.308Z" fill="#FAE0B2"/>
<path d="M71.2488 138.073C75.6885 130.772 80.1162 128.199 84.0723 127.135C82.542 128.671 80.9908 130.644 79.438 133.198C72.3288 144.89 76.0712 162.356 81.6823 167.209C86.6585 171.513 101.634 176.711 115.705 171.576C114.259 173.128 112.836 173.959 112.836 173.959C97.4308 182.93 79.1042 176.937 73.4931 172.084C67.8818 167.231 64.1394 149.765 71.2488 138.073Z" fill="#F7CC7F"/>
<path d="M105.313 144.079L106.6 147.82L102.678 146.325L105.313 144.079Z" fill="#F79C8D"/>
<path d="M101.27 132.945C101.532 132.955 102.248 133.187 103.296 135.099C104.634 137.541 106.589 144.919 106.589 144.919L100.753 147.019L100.002 145.479L98.7676 133.624C98.7676 133.624 101.198 132.942 101.27 132.945Z" fill="#DD513A"/>
<path d="M93.5534 131.881C95.2225 131.884 99.352 132.353 101.269 132.945C101.269 132.945 102.678 144.635 100.001 153.517C99.4021 155.506 100.497 161.761 100.497 161.761L83.2012 161.54C83.2012 161.54 85.2501 146.42 84.4782 143.978C83.7063 141.535 83.6879 133.024 83.6879 133.024C83.6879 133.024 83.8064 133.006 87.5738 132.378C89.3311 132.084 91.7713 131.879 93.5534 131.881Z" fill="#F47458"/>
<path d="M91.5389 183.457C91.5389 183.457 91.9216 187.722 92.6251 188.903C93.3285 190.084 92.588 192.093 92.551 192.368C92.514 192.644 91.0699 193.038 88.7743 192.801C86.4785 192.565 86.5155 192.053 86.7007 191.226C86.8859 190.399 88.1078 189.336 88.1817 188.549C88.2559 187.761 87.4782 184.927 87.4782 184.927L91.5389 183.457Z" fill="#F7A491"/>
<path d="M98.5457 158.24C98.5457 158.24 110.485 157.599 113.151 159.159C115.817 160.718 112.669 163.921 112.669 163.921C112.669 163.921 102.949 168.002 86.6764 168.91C82.823 169.124 82.4909 159.205 83.2114 158.385C83.9319 157.563 98.5457 158.24 98.5457 158.24Z" fill="#256653"/>
<path d="M88.4879 193.132C86.1241 192.889 86.4164 191.767 86.6069 190.916C86.7263 190.382 87.4045 189.754 87.8087 189.16C88.0201 189.322 88.3638 189.609 89.3903 189.903C90.4563 190.206 91.9177 189.605 92.8489 189.227C93.1808 190.421 93.1959 191.942 93.1649 192.173C93.1267 192.457 90.8518 193.375 88.4879 193.132Z" fill="#184655"/>
<path d="M89.7918 166.489C90.2686 169.975 92.6305 187.331 92.6305 187.331L87.1505 187.986C87.1505 187.986 80.4114 165.334 80.757 161.869C81.1026 158.404 83.6252 158.112 83.6252 158.112C83.6252 158.112 88.5292 157.26 89.7918 166.489Z" fill="#3C8F7C"/>
<path d="M83.4998 134.323C85.1169 133.737 85.9079 147.81 86.126 153.603C88.9897 153.869 93.9812 153.605 95.224 153.515C95.8085 153.472 97.1563 152.996 97.7377 152.922C98.3339 152.847 98.8737 152.808 99.1664 152.857C99.2735 152.875 102.258 154.054 102.514 154.313C102.831 154.633 103.687 155.442 103.542 155.792C103.397 156.142 101.896 154.817 101.896 154.817L101.162 154.419C102.075 155.282 103.819 156.417 103.567 156.83C103.322 157.234 101.751 156.081 100.63 155.296C101.591 156.134 102.785 157.636 102.51 157.869C102.263 158.079 100.904 156.342 99.4534 155.842C98.9147 155.657 98.3783 156.17 97.9558 156.232C97.6446 156.277 97.1645 156.374 96.8595 156.29L95.2879 155.86C94.7525 155.908 94.7389 156.213 94.1983 156.324C93.5707 156.453 92.5409 156.59 91.7415 156.778C87.1387 157.864 85.6034 158.368 84.1941 158.367C79.9255 158.365 79.6779 135.708 83.4998 134.323Z" fill="#F7A491"/>
<path d="M80.4314 147.535C80.1286 141.602 80.1729 134.289 83.6165 133.041C84.9752 132.549 87.3706 135.509 86.9398 147.656C85.1014 147.802 82.4025 147.92 80.4314 147.535Z" fill="#DD513A"/>
<path d="M99.6986 144.985H99.3478L94.0703 157.511L94.4337 157.458L99.6986 144.985Z" fill="#F79C8D"/>
<path d="M107.562 187.105C107.562 187.105 107.085 188.586 107.94 189.565C108.797 190.544 112.355 191.505 112.822 192.035C113.289 192.566 113.253 193.017 113.253 193.017L103.268 192.751L103.377 189.839L103.837 187.745L107.562 187.105Z" fill="#F7A491"/>
<path d="M108.564 190.054C108.564 190.054 105.998 191.056 104.759 190.463C103.518 189.869 103.556 189.705 103.197 189.926C102.838 190.147 102.711 192.877 102.711 192.877L113.939 193.196C114.72 193.179 115.116 192.623 114.48 192.147C114.045 191.821 113.543 191.602 113.257 191.444C112.378 190.958 108.564 190.054 108.564 190.054Z" fill="#184655"/>
<path d="M107.186 160.972C107.958 159.404 109.713 157.361 112.802 158.591C115.747 159.764 116.538 162.648 115.608 165.6C114.679 168.553 108.561 185.91 108.348 188.297L103.463 188.328C103.463 188.328 104.35 174.585 104.568 171.263C104.777 168.066 105.85 163.687 107.186 160.972Z" fill="#3C8F7C"/>
<path d="M115.117 144.986H98.7862C98.3545 144.986 97.965 145.239 97.8012 145.627L92.7731 157.511H83.7704C83.5185 157.511 83.3145 157.709 83.3145 157.952C83.3145 158.197 83.5185 158.395 83.7704 158.395H109.393C110.098 158.395 110.736 157.993 111.025 157.37L116.087 146.441C116.404 145.758 115.889 144.986 115.117 144.986Z" fill="black"/>
<path d="M106.323 151.906C106.212 152.44 105.731 152.797 105.249 152.704C104.767 152.61 104.465 152.102 104.576 151.568C104.686 151.034 105.167 150.677 105.648 150.77C106.131 150.864 106.433 151.373 106.323 151.906Z" fill="white"/>
<path d="M97.435 117.603C96.9429 117.444 96.4583 117.264 95.9905 117.046C95.4616 116.799 94.7762 116.51 94.3433 116.446C93.432 116.31 91.8664 116.401 91.0017 117.306C89.9246 118.435 88.0107 117.51 88.3962 123.421C88.8326 130.112 92.6842 129.377 92.7776 129.263C92.8711 129.15 96.2127 124.983 96.2127 124.983C96.2127 124.983 97.381 127.452 97.381 127.362C97.381 127.274 103.347 119.527 97.435 117.603Z" fill="#0E2E35"/>
<path d="M94.5125 129.758L94.8451 132.149C94.8451 132.149 95.5899 135.593 94.6316 136.257C93.6735 136.921 90.5566 132.051 90.5566 132.051L90.8858 125.993L94.5125 129.758Z" fill="#F7A491"/>
<path d="M90.7773 127.955C91.5689 130.022 93.4541 131.291 94.7922 131.784L94.5103 129.758L90.8836 125.993L90.7773 127.955Z" fill="#F47458"/>
<path d="M94.3157 119.4C96.3461 119.084 98.1676 120.661 98.1164 122.624C98.0947 123.478 98.0218 124.543 97.8385 125.69C97.397 128.45 95.4477 130.88 94.1588 130.663C92.8698 130.447 89.6266 128.066 90.1976 124.138C90.5502 121.714 92.185 119.733 94.3157 119.4Z" fill="#F7A491"/>
<path d="M91.092 124.607C90.9832 125.215 90.4798 125.637 89.9679 125.55C89.4559 125.464 89.1289 124.902 89.2377 124.296C89.3464 123.689 89.8497 123.267 90.3617 123.353C90.8738 123.439 91.2007 124.001 91.092 124.607Z" fill="#F7A491"/>
<path d="M90.3592 123.353C90.3592 123.353 91.9176 123.727 92.496 122.759C93.0744 121.79 95.1424 119.701 97.7713 120.568C100.401 121.433 95.4579 118.461 95.2475 118.461C95.0373 118.461 92.5135 118.445 92.5135 118.445C92.5135 118.445 90.5682 119.99 90.498 120.159C90.428 120.329 89.8672 122.181 89.8672 122.181L90.3592 123.353Z" fill="#0E2E35"/>
<path d="M93.2119 127.391L96.0475 127.915C96.0475 127.915 95.7769 128.946 94.5231 128.751C92.9941 128.513 93.2119 127.391 93.2119 127.391Z" fill="white"/>
<path d="M63.9091 96.8813L66.7448 97.4049C66.7448 97.4049 66.4743 98.4367 65.2204 98.2409C63.6914 98.0022 63.9091 96.8813 63.9091 96.8813Z" fill="white"/>
<path d="M293.542 180.933C291.068 181.149 288.623 181.589 286.219 182.198C281.837 183.311 277.62 184.955 273.47 186.702C271.43 187.561 269.377 188.408 267.377 189.349C266.442 189.789 265.5 190.23 264.638 190.795C263.478 191.555 261.664 193.078 261.443 193.319L262.397 193.347C263.048 192.834 265.438 190.885 268.754 189.342C276.615 185.684 284.781 181.933 293.548 181.002C293.594 180.997 293.588 180.929 293.542 180.933Z" fill="#3C8F7C"/>
</svg>
