<svg width="26" height="29" viewBox="0 0 26 29" fill="none" xmlns="http://www.w3.org/2000/svg">
<path d="M13.1327 28.325C10.6237 28.325 8.17114 27.4944 6.08504 25.9382C3.99893 24.382 2.37302 22.1701 1.41289 19.5823C0.452762 16.9944 0.201549 14.1468 0.691017 11.3995C1.18049 8.65228 2.38865 6.12877 4.16274 4.14811C5.93682 2.16745 8.19714 0.818598 10.6579 0.272135C13.1186 -0.274328 15.6692 0.00613644 17.9871 1.07806C20.3051 2.14999 22.2863 3.96523 23.6802 6.29424C25.0741 8.62325 25.818 11.3614 25.818 14.1625C25.818 17.9186 24.4816 21.5209 22.1026 24.1769C19.7236 26.8329 16.497 28.325 13.1327 28.325Z" fill="#38B1E7"/>
<path d="M13.132 24.4623C18.2272 24.4623 22.3577 19.8508 22.3577 14.1623C22.3577 8.47377 18.2272 3.8623 13.132 3.8623C8.03675 3.8623 3.90625 8.47377 3.90625 14.1623C3.90625 19.8508 8.03675 24.4623 13.132 24.4623Z" fill="#B7E3F6"/>
<path d="M16.0667 17.883C15.8198 17.8835 15.5793 17.7955 15.3805 17.6319L12.4456 15.1985C12.3005 15.0786 12.1827 14.9224 12.1015 14.7424C12.0204 14.5624 11.9783 14.3636 11.9785 14.1621V9.01211C11.9785 8.67064 12.1 8.34316 12.3163 8.10171C12.5326 7.86026 12.8259 7.72461 13.1317 7.72461C13.4376 7.72461 13.7309 7.86026 13.9472 8.10171C14.1635 8.34316 14.285 8.67064 14.285 9.01211V13.5184L16.7586 15.5655C16.9522 15.7276 17.0953 15.9537 17.1674 16.2116C17.2396 16.4695 17.2372 16.7463 17.1607 17.0026C17.0842 17.259 16.9373 17.482 16.741 17.64C16.5446 17.798 16.3087 17.883 16.0667 17.883Z" fill="#495660"/>
</svg>
