<svg width="25" height="25" viewBox="0 0 25 25" fill="none" xmlns="http://www.w3.org/2000/svg">
<path d="M6.25 16.8945L0.576771 15.7L0 13.9648L6.25 11.0352L12.5 13.9648L11.8488 15.7349L6.25 16.8945Z" fill="#1DE8F1"/>
<path d="M6.25 25L0 22.0703V13.9648L6.25 16.8945L7.8125 19.0505V22.895L6.25 25Z" fill="#00D0FF"/>
<path d="M12.5 22.0703L6.25 25V16.8945L12.5 13.9648V22.0703Z" fill="#00BBFF"/>
<path d="M18.75 16.8945L13.0768 15.7L12.5 13.9648L18.75 11.0352L25 13.9648L24.3488 15.7349L18.75 16.8945Z" fill="#FF0B69"/>
<path d="M18.75 25L12.5 22.0703V13.9648L18.75 16.8945L20.3125 19.0505V22.895L18.75 25Z" fill="#DD025B"/>
<path d="M25 22.0703L18.75 25V16.8945L25 13.9648V22.0703Z" fill="#9E0A48"/>
<path d="M12.5 5.85938L6.82677 4.66489L6.25 2.92969L12.5 0L18.75 2.92969L18.0988 4.69976L12.5 5.85938Z" fill="#7986E8"/>
<path d="M12.5 13.9648L6.25 11.0352V2.92969L12.5 5.85938L14.0625 7.9665V11.8598L12.5 13.9648Z" fill="#6E77E5"/>
<path d="M18.75 11.0352L12.5 13.9648V5.85938L18.75 2.92969V11.0352Z" fill="#4C5CE1"/>
</svg>
