<svg width="21" height="26" viewBox="0 0 21 26" fill="none" xmlns="http://www.w3.org/2000/svg">
<path d="M7.94055 1.56946H12.2859V2.30063H13.8552V1.4671C13.8554 0.658173 13.1976 0 12.3891 0H7.8374C7.02887 0 6.37109 0.658173 6.37109 1.4671V2.30063H7.94055V1.56946Z" fill="#D01D1D"/>
<path d="M17.478 8.51855H2.7459C2.34223 8.51855 2.02445 8.86292 2.05698 9.2654L3.28862 24.495C3.35726 25.3452 4.06641 26 4.91839 26H15.3053C16.1573 26 16.8665 25.3452 16.9351 24.4948L18.1667 9.2654C18.1995 8.86292 17.8817 8.51855 17.478 8.51855ZM6.31308 24.3756C6.29662 24.3766 6.28016 24.3772 6.26389 24.3772C5.85248 24.3772 5.50713 24.0568 5.48154 23.6407L4.70971 11.138C4.68312 10.7053 5.01221 10.333 5.44465 10.3064C5.87569 10.2802 6.24961 10.6085 6.27619 11.0414L7.04782 23.5441C7.0746 23.9767 6.74552 24.3488 6.31308 24.3756ZM10.9054 23.5925C10.9054 24.0257 10.5541 24.377 10.1207 24.377C9.68726 24.377 9.33596 24.0257 9.33596 23.5925V11.0896C9.33596 10.6561 9.68726 10.3048 10.1207 10.3048C10.5539 10.3048 10.9054 10.6561 10.9054 11.0896V23.5925ZM15.5142 11.1358L14.7773 23.6385C14.7529 24.0554 14.4069 24.377 13.9947 24.377C13.9793 24.377 13.9636 24.3766 13.9479 24.3758C13.5153 24.3502 13.1852 23.9789 13.2108 23.5462L13.9475 11.0433C13.9729 10.6107 14.3431 10.2806 14.7769 10.3062C15.2095 10.3316 15.5396 10.7031 15.5142 11.1358Z" fill="#D01D1D"/>
<path d="M20.1931 6.09695L19.6777 4.55209C19.5418 4.14485 19.1606 3.87012 18.7311 3.87012H1.49544C1.06618 3.87012 0.684727 4.14485 0.549046 4.55209L0.0336952 6.09695C-0.0656853 6.3949 0.0636482 6.69879 0.305057 6.85034C0.403446 6.91203 0.519886 6.94913 0.647831 6.94913H19.5789C19.7069 6.94913 19.8235 6.91203 19.9217 6.85014C20.1631 6.69859 20.2924 6.3947 20.1931 6.09695Z" fill="#D01D1D"/>
</svg>
