<svg width="238" height="177" viewBox="0 0 238 177" fill="none" xmlns="http://www.w3.org/2000/svg">
<path d="M9 173.5C9 175.433 60.2635 177 123.5 177C186.737 177 238 175.433 238 173.5C238 171.567 186.737 170 123.5 170C60.2635 170 9 171.567 9 173.5Z" fill="#D5DAEA"/>
<path d="M184.838 173.674H80.4375C79.2748 173.674 78.332 172.727 78.332 171.558V17.5427C78.332 16.3743 79.2748 15.427 80.4375 15.427H184.838C186.001 15.427 186.944 16.3743 186.944 17.5427V171.558C186.944 172.727 186.001 173.674 184.838 173.674Z" fill="#313057"/>
<path d="M182.985 173.674H78.584C77.4212 173.674 76.4785 172.727 76.4785 171.558V17.5427C76.4785 16.3743 77.4212 15.427 78.584 15.427H182.985C184.148 15.427 185.091 16.3743 185.091 17.5427V171.558C185.091 172.727 184.148 173.674 182.985 173.674Z" fill="#457CC2"/>
<path d="M85.666 166.824H179.613V22.2797H85.666V166.824Z" fill="#C1CAE3"/>
<path d="M83.8086 166.824H177.755V22.2797H83.8086V166.824Z" fill="white"/>
<path d="M153.592 25.5391H107.975V14.312C107.975 12.8517 109.153 11.6675 110.606 11.6675H150.96C152.413 11.6675 153.592 12.8517 153.592 14.312V25.5391Z" fill="#313057"/>
<path d="M130.784 17.0048C127.851 17.0048 125.474 14.6158 125.474 11.6692C125.474 8.72272 127.851 6.33418 130.784 6.33418C133.716 6.33418 136.093 8.72272 136.093 11.6692C136.093 14.6158 133.716 17.0048 130.784 17.0048ZM130.784 0.998613C124.918 0.998613 120.164 5.77567 120.164 11.6692C120.164 17.5623 124.918 22.3398 130.784 22.3398C136.648 22.3398 141.402 17.5623 141.402 11.6692C141.402 5.77567 136.648 0.998613 130.784 0.998613Z" fill="#313057"/>
<path d="M163.204 62.9621V62.6977H153.884C153.448 62.6966 153.095 62.3422 153.095 61.9043V52.5396C153.095 52.1016 153.448 51.7467 153.884 51.7462H163.204C163.64 51.7467 163.993 52.1016 163.994 52.5396V61.9043C163.993 62.3422 163.64 62.6966 163.204 62.6977V62.9621V63.2266C163.931 63.2266 164.52 62.6347 164.52 61.9043V52.5396C164.52 51.8091 163.931 51.2173 163.204 51.2173H153.884C153.157 51.2173 152.568 51.8091 152.568 52.5396V61.9043C152.568 62.6347 153.157 63.2266 153.884 63.2266H163.204V62.9621Z" fill="#D5DAEA"/>
<path d="M149.616 55.6277C151.501 57.5217 153.386 59.4162 155.271 61.3102C155.774 61.8153 156.628 61.8164 157.132 61.3102C161.549 56.8727 165.965 52.4347 170.382 47.9972C171.581 46.7918 169.72 44.9216 168.521 46.127C164.104 50.5645 159.688 55.0025 155.271 59.4406C155.891 59.4406 156.511 59.4406 157.132 59.4406C155.247 57.546 153.362 55.652 151.477 53.7575C150.278 52.5526 148.416 54.4223 149.616 55.6277Z" fill="#E46261"/>
<path d="M163.204 85.2336V84.9691H153.884C153.448 84.9681 153.095 84.6137 153.095 84.1758V74.811C153.095 74.3726 153.448 74.0182 153.884 74.0177H163.204C163.64 74.0182 163.993 74.3731 163.994 74.811V84.1758C163.993 84.6137 163.64 84.9681 163.204 84.9691V85.2336V85.498C163.931 85.4975 164.52 84.9062 164.52 84.1758V74.811C164.52 74.0806 163.931 73.4888 163.204 73.4888H153.884C153.157 73.4888 152.568 74.0806 152.568 74.811V84.1758C152.568 84.9062 153.157 85.498 153.884 85.498H163.204V85.2336Z" fill="#D5DAEA"/>
<path d="M149.616 77.9011C151.501 79.7951 153.386 81.6897 155.271 83.5837C155.774 84.0888 156.628 84.0898 157.132 83.5837C161.549 79.1462 165.965 74.7081 170.382 70.2701C171.581 69.0653 169.72 67.1951 168.521 68.4004C164.104 72.8379 159.688 77.276 155.271 81.714C155.891 81.714 156.511 81.714 157.132 81.714C155.247 79.8195 153.362 77.9255 151.477 76.0309C150.278 74.8261 148.416 76.6958 149.616 77.9011Z" fill="#E46261"/>
<path d="M163.204 106.474V106.209H153.884C153.448 106.209 153.095 105.854 153.095 105.416V96.0513C153.095 95.6133 153.448 95.259 153.884 95.2579H163.204C163.64 95.259 163.993 95.6133 163.994 96.0513V105.416C163.993 105.854 163.64 106.209 163.204 106.209V106.474V106.738C163.931 106.738 164.52 106.146 164.52 105.416V96.0513C164.52 95.3208 163.931 94.729 163.204 94.729H153.884C153.157 94.729 152.568 95.3208 152.568 96.0513V105.416C152.568 106.146 153.157 106.738 153.884 106.738H163.204V106.474Z" fill="#D5DAEA"/>
<path d="M149.616 99.1399C151.501 101.034 153.386 102.928 155.271 104.822C155.774 105.327 156.628 105.328 157.132 104.822C161.549 100.384 165.965 95.9464 170.382 91.5089C171.581 90.3036 169.72 88.4334 168.521 89.6387C164.104 94.0768 159.688 98.5143 155.271 102.952C155.891 102.952 156.511 102.952 157.132 102.952C155.247 101.058 153.362 99.1638 151.477 97.2698C150.278 96.0649 148.416 97.934 149.616 99.1399Z" fill="#E46261"/>
<path d="M163.204 128.056V127.791H153.884C153.448 127.79 153.095 127.436 153.095 126.998V117.633C153.095 117.195 153.448 116.84 153.884 116.84H163.204C163.64 116.84 163.993 117.195 163.994 117.633V126.998C163.993 127.436 163.64 127.79 163.204 127.791V128.056V128.32C163.931 128.32 164.52 127.728 164.52 126.998V117.633C164.52 116.903 163.931 116.311 163.204 116.311H153.884C153.157 116.311 152.568 116.903 152.568 117.633V126.998C152.568 127.728 153.157 128.32 153.884 128.32H163.204V128.056Z" fill="#D5DAEA"/>
<path d="M149.616 120.723C151.501 122.617 153.386 124.512 155.271 126.406C155.774 126.911 156.628 126.912 157.132 126.406C161.549 121.968 165.965 117.53 170.382 113.092C171.581 111.888 169.72 110.017 168.521 111.223C164.104 115.66 159.688 120.098 155.271 124.536C155.891 124.536 156.511 124.536 157.132 124.536C155.247 122.641 153.362 120.747 151.477 118.853C150.278 117.648 148.416 119.517 149.616 120.723Z" fill="#E46261"/>
<path d="M144.077 52.8574H96.915C96.6245 52.8574 96.3887 52.6205 96.3887 52.3285V51.4929C96.3887 51.2004 96.6245 50.964 96.915 50.964H144.077C144.369 50.964 144.604 51.2004 144.604 51.4929V52.3285C144.604 52.6205 144.369 52.8574 144.077 52.8574Z" fill="#C1CAE3"/>
<path d="M144.077 57.7383H96.915C96.6245 57.7383 96.3887 57.5013 96.3887 57.2094V56.3737C96.3887 56.0818 96.6245 55.8448 96.915 55.8448H144.077C144.369 55.8448 144.604 56.0818 144.604 56.3737V57.2094C144.604 57.5013 144.369 57.7383 144.077 57.7383Z" fill="#C1CAE3"/>
<path d="M132.71 62.6172H96.915C96.6245 62.6172 96.3887 62.3802 96.3887 62.0883V61.2526C96.3887 60.9601 96.6245 60.7237 96.915 60.7237H132.71C133 60.7237 133.236 60.9601 133.236 61.2526V62.0883C133.236 62.3802 133 62.6172 132.71 62.6172Z" fill="#C1CAE3"/>
<path d="M144.077 75.1289H96.915C96.6245 75.1289 96.3887 74.892 96.3887 74.6V73.7643C96.3887 73.4718 96.6245 73.2354 96.915 73.2354H144.077C144.369 73.2354 144.604 73.4718 144.604 73.7643V74.6C144.604 74.892 144.369 75.1289 144.077 75.1289Z" fill="#C1CAE3"/>
<path d="M144.077 80.0098H96.915C96.6245 80.0098 96.3887 79.7728 96.3887 79.4809V78.6452C96.3887 78.3532 96.6245 78.1163 96.915 78.1163H144.077C144.369 78.1163 144.604 78.3532 144.604 78.6452V79.4809C144.604 79.7728 144.369 80.0098 144.077 80.0098Z" fill="#C1CAE3"/>
<path d="M132.71 84.8887H96.915C96.6245 84.8887 96.3887 84.6523 96.3887 84.3598V83.5241C96.3887 83.2321 96.6245 82.9952 96.915 82.9952H132.71C133 82.9952 133.236 83.2321 133.236 83.5241V84.3598C133.236 84.6523 133 84.8887 132.71 84.8887Z" fill="#C1CAE3"/>
<path d="M144.077 96.3691H96.915C96.6245 96.3691 96.3887 96.1322 96.3887 95.8402V95.004C96.3887 94.7121 96.6245 94.4751 96.915 94.4751H144.077C144.369 94.4751 144.604 94.7121 144.604 95.004V95.8402C144.604 96.1322 144.369 96.3691 144.077 96.3691Z" fill="#C1CAE3"/>
<path d="M144.077 101.248H96.915C96.6245 101.248 96.3887 101.011 96.3887 100.719V99.8835C96.3887 99.591 96.6245 99.3546 96.915 99.3546H144.077C144.369 99.3546 144.604 99.591 144.604 99.8835V100.719C144.604 101.011 144.369 101.248 144.077 101.248Z" fill="#C1CAE3"/>
<path d="M132.71 106.129H96.915C96.6245 106.129 96.3887 105.892 96.3887 105.6V104.764C96.3887 104.472 96.6245 104.235 96.915 104.235H132.71C133 104.235 133.236 104.472 133.236 104.764V105.6C133.236 105.892 133 106.129 132.71 106.129Z" fill="#C1CAE3"/>
<path d="M144.077 117.953H96.915C96.6245 117.953 96.3887 117.716 96.3887 117.424V116.589C96.3887 116.296 96.6245 116.06 96.915 116.06H144.077C144.369 116.06 144.604 116.296 144.604 116.589V117.424C144.604 117.716 144.369 117.953 144.077 117.953Z" fill="#C1CAE3"/>
<path d="M144.077 122.832H96.915C96.6245 122.832 96.3887 122.595 96.3887 122.303V121.467C96.3887 121.175 96.6245 120.939 96.915 120.939H144.077C144.369 120.939 144.604 121.175 144.604 121.467V122.303C144.604 122.595 144.369 122.832 144.077 122.832Z" fill="#C1CAE3"/>
<path d="M132.71 127.711H96.915C96.6245 127.711 96.3887 127.475 96.3887 127.182V126.346C96.3887 126.054 96.6245 125.817 96.915 125.817H132.71C133 125.817 133.236 126.054 133.236 126.346V127.182C133.236 127.475 133 127.711 132.71 127.711Z" fill="#C1CAE3"/>
<path d="M82.1407 58.2165C84.5251 58.408 88.7802 60.0693 87.9338 63.2586C87.8965 63.3992 87.8433 63.5431 87.7344 63.6388C87.5864 63.7695 87.3727 63.7843 87.1759 63.7896C86.1121 63.8192 84.9567 63.7457 84.1429 63.0565C83.6318 62.6239 83.3113 61.9892 82.7686 61.5973C82.4554 61.3714 82.0854 61.2403 81.7217 61.1117C81.0911 60.8891 80.4605 60.6669 79.8299 60.4448C79.4962 60.3274 79.1193 60.1655 79.0182 59.8254C78.9077 59.4526 79.1956 59.0797 79.5083 58.8501C80.2531 58.3048 81.2221 58.1425 82.1407 58.2165Z" fill="#313057"/>
<path d="M26.7451 173.711L26.781 173.718C27.7758 173.921 28.7921 173.883 29.8015 173.891C31.6376 173.907 33.4675 173.924 35.3026 173.841C36.4306 173.79 36.8886 173.227 37.0986 172.176C37.317 171.081 37.3997 169.959 37.3428 168.843C37.337 168.735 37.3291 168.622 37.2718 168.529C37.1996 168.411 37.0628 168.353 36.9338 168.305C36.4869 168.141 36.0206 168.031 35.5479 167.978C35.2237 167.941 34.6272 167.823 34.3523 168.031C34.0798 168.236 33.8679 168.726 33.676 169.008C33.4313 169.369 33.1786 169.727 32.8671 170.033C32.2589 170.631 31.4618 171 30.6471 171.247C29.8323 171.494 28.9889 171.627 28.1603 171.822C27.5438 171.966 26.921 172.152 26.4097 172.527C26.1979 172.682 25.9919 172.911 26.0275 173.172C26.0706 173.49 26.4284 173.641 26.7451 173.711Z" fill="#313057"/>
<path d="M71.646 173.711L71.6102 173.718C70.6154 173.921 69.599 173.883 68.5899 173.891C66.7534 173.907 64.9238 173.924 63.0889 173.841C61.9609 173.79 61.5024 173.227 61.2929 172.176C61.0744 171.081 60.9918 169.959 61.0487 168.843C61.0539 168.735 61.0623 168.622 61.1192 168.529C61.1918 168.411 61.3282 168.353 61.4576 168.305C61.9045 168.141 62.3704 168.031 62.843 167.978C63.1678 167.941 63.7642 167.823 64.0389 168.031C64.3116 168.236 64.5237 168.726 64.7153 169.008C64.9601 169.369 65.2127 169.727 65.5244 170.033C66.1323 170.631 66.9298 171 67.744 171.247C68.5589 171.494 69.4026 171.627 70.2311 171.822C70.8475 171.966 71.4702 172.152 71.9818 172.527C72.1934 172.682 72.3998 172.911 72.364 173.172C72.3208 173.49 71.9629 173.641 71.646 173.711Z" fill="#313057"/>
<path d="M49.3869 51.1713C49.3685 51.4469 49.3385 51.7208 49.2748 51.9885C48.9858 53.1991 48.0952 54.0962 47.4414 55.1127C46.8835 55.9806 46.7614 57.0733 46.914 58.0793C47.2404 60.2372 48.5358 62.2661 49.9659 63.8602C50.2733 64.203 50.6244 64.6361 51.0192 64.8773C51.4755 65.1566 52.0961 65.3068 52.6014 65.475C54.0384 65.9547 55.527 66.2768 57.0329 66.4344C57.773 66.5116 58.5172 66.5434 59.261 66.5545C59.9421 66.5651 60.599 66.1737 61.208 65.8732C61.9102 65.5268 62.5819 65.1074 63.1587 64.5764C63.7746 64.0083 64.271 63.3245 64.7536 62.639C65.1274 62.108 65.5037 61.5542 65.64 60.9185C65.8022 60.16 65.609 59.3371 65.8901 58.6146C66.068 58.156 66.4185 57.7906 66.6838 57.3769C67.565 56.0044 66.3138 54.3389 67.0302 52.9098C67.4755 52.0213 68.3766 51.4739 68.7603 50.552C69.1235 49.6798 69.1135 48.6405 68.7556 47.7689C68.1613 46.3207 66.8128 45.309 65.3837 44.6822C63.7499 43.9661 61.6828 43.7265 60.3137 44.8737C60.0227 45.117 59.7789 45.4116 59.5031 45.6718C58.2025 46.8999 56.6765 46.8301 55.1222 46.7603C54.0347 46.7116 52.933 46.6624 51.8856 47.058C50.8302 47.4568 49.8933 48.2872 49.579 49.3752C49.4122 49.9548 49.4269 50.5678 49.3869 51.1713Z" fill="#313057"/>
<path d="M124.138 60.9136L104.377 57.9645L106.05 69.2031L124.138 60.9136Z" fill="#ECEBEF"/>
<path d="M116.526 63.5125C116.696 64.1937 116.981 64.821 117.378 65.3287C118.77 67.109 122.06 65.9269 123.701 65.1833C125.633 64.3074 126.991 62.6086 127.173 60.4554C127.223 59.8699 127.148 59.259 126.859 58.7486C126.219 57.6189 124.635 57.3867 123.486 57.1265C122.082 56.8091 120.602 56.7636 119.214 57.1815C116.78 57.9151 115.912 61.0599 116.526 63.5125Z" fill="#E46261"/>
<path d="M103.862 57.9394L15.9458 69.0929L14.8809 81.3926L105.652 69.3193L103.862 57.9394Z" fill="#F3BA13"/>
<path d="M14.0234 73.1445L15.9451 69.0931L15.6116 72.9457L14.0234 73.1445Z" fill="white"/>
<path d="M15.6113 72.9434L15.9448 69.0908L103.861 57.9373L104.474 61.8343L15.6113 72.9434Z" fill="#F7C637"/>
<path d="M14.8793 81.3926L14.4863 77.6104L15.2148 77.5168L14.8793 81.3926L23.7553 80.2121L14.8793 81.3926Z" fill="#D3D4DA"/>
<path d="M14.8809 81.3926L15.2164 77.5168L105.124 65.9608L105.652 69.3193L83.8109 72.224L76.4781 73.1993L23.7569 80.2121L14.8809 81.3926Z" fill="#D1A222"/>
<path d="M15.944 69.0939L17.5003 81.0381L5.22732 82.702C4.11232 82.8533 3.08627 82.0684 2.93515 80.9477L1.82341 72.7053C1.66903 71.5607 2.48674 70.5145 3.6299 70.3939L15.944 69.0939Z" fill="#6C92A2"/>
<path d="M6.70128 68.7022L8.6151 83.1085L2.29438 83.5586L0.242188 70.2133L6.70128 68.7022Z" fill="#C8656B"/>
<path d="M9.22656 68.5057L11.2103 83.416L14.8291 83.1325L12.7351 68.1789L12.2139 68.2524L14.2297 82.6491L11.6662 82.8501L9.7484 68.4354L9.22656 68.5057Z" fill="#567F8D"/>
<path d="M105.479 66.0099C104.405 66.3204 103.264 65.6265 102.93 64.4602C102.596 63.294 103.196 62.0976 104.271 61.7871C105.345 61.4767 106.486 62.1701 106.82 63.3363C107.154 64.5025 106.553 65.6994 105.479 66.0099Z" fill="#ECEBEF"/>
<path d="M105.868 69.2549C104.891 69.5374 103.886 69.0196 103.622 68.0988C103.359 67.1779 103.937 66.2026 104.914 65.9207C105.89 65.6383 106.895 66.1561 107.159 67.0769C107.422 67.9977 106.844 68.973 105.868 69.2549Z" fill="#ECEBEF"/>
<path d="M104.718 61.8406C103.742 62.1231 102.705 61.4942 102.402 60.4359C102.099 59.3775 102.645 58.2912 103.622 58.0093C104.598 57.7268 105.635 58.3557 105.938 59.414C106.241 60.4718 105.694 61.5587 104.718 61.8406Z" fill="#ECEBEF"/>
<path d="M38.8527 149.742C40.7887 141.713 42.5831 133.65 43.6184 125.46C43.9506 122.837 44.2706 120.21 44.6338 117.591C45.0265 114.755 45.4791 112.059 46.0392 108.035C46.2418 106.581 49.2353 106.607 50.6591 106.276C54.2137 105.449 57.8777 105.886 61.4828 105.946C61.8176 105.952 62.1823 105.92 62.555 105.888C63.6588 105.795 64.8294 105.701 65.4832 106.574C66.4169 107.822 66.3959 110.018 66.4796 111.499C67.2239 124.652 65.6521 137.781 65.2858 150.917C65.1321 156.435 65.2268 161.909 65.5 167.42C65.5537 168.51 65.2816 169.591 64.0462 169.751C63.4777 169.824 62.3208 169.771 61.8023 169.471C60.6338 168.796 59.9005 166.563 59.5 165.377C58.9241 163.671 58.6146 161.887 58.312 160.117C57.7508 156.838 57.4729 153.518 57.2513 150.201C56.5297 139.393 55.9701 132.417 56.7708 120.669C55.678 126.991 55.6996 131.12 53.7699 137.237C51.9398 143.037 49.2711 148.521 46.5108 153.922C44.9796 156.916 43.5237 159.952 41.8614 162.876C41.0314 164.337 40.1513 165.77 39.188 167.146C38.3427 168.354 37.6758 169.577 36.0903 169.764C35.4071 169.844 34.7169 169.763 34.034 169.681C33.8449 169.659 33.6263 169.617 33.5379 169.447C33.4818 169.34 33.4962 169.21 33.5137 169.091C33.9804 165.877 35.5677 162.74 36.4251 159.598C37.3163 156.333 38.059 153.03 38.8527 149.742Z" fill="#457CC2"/>
<path d="M44.7141 108.346C44.9157 108.202 45.1478 108.091 45.3778 107.997C45.8331 107.809 46.3048 107.661 46.7859 107.555C47.906 107.309 47.8117 107.98 48.0355 108.759C48.3065 109.702 48.8676 110.631 49.2266 111.55C49.6224 112.561 50.3404 113.441 49.1829 114.099C48.5934 114.434 47.9339 114.644 47.2596 114.711C47.128 114.725 46.9896 114.731 46.8675 114.679C46.7527 114.63 46.6653 114.533 46.5858 114.436C46.07 113.807 45.5668 113.114 45.0952 112.446C44.4214 111.491 43.874 110.672 44.0724 109.436C44.1088 109.209 44.1714 108.983 44.2904 108.787C44.3983 108.61 44.5456 108.466 44.7141 108.346Z" fill="#F2B49B"/>
<path d="M45.3179 115.163C46.7586 115.251 48.124 115.222 49.3741 114.417C50.5584 113.654 51.3716 112.502 51.9354 111.227C52.0717 110.919 51.6185 110.65 51.4811 110.96C50.9553 112.15 50.2168 113.243 49.1088 113.96C47.9471 114.713 46.6496 114.715 45.3179 114.634C44.9794 114.614 44.9805 115.143 45.3179 115.163Z" fill="#4F93D4"/>
<path d="M66.2562 117.143C63.3049 117.59 62.7375 112.799 62.4022 110.757C62.3469 110.422 61.84 110.564 61.8948 110.898C62.1948 112.725 62.5722 114.696 63.5328 116.311C64.216 117.46 65.0656 117.854 66.3962 117.653C66.7305 117.602 66.5884 117.093 66.2562 117.143Z" fill="#4F93D4"/>
<path d="M61.0483 168.844C60.6762 168.381 60.3635 167.776 60.1035 167.169C60.1046 167.129 60.1061 167.088 60.1083 167.048C60.3656 167.666 60.6788 168.292 61.0526 168.777C61.0505 168.799 61.0494 168.822 61.0483 168.844Z" fill="#BBCDD9"/>
<path d="M63.4492 169.779C62.8628 169.779 62.127 169.693 61.7427 169.471C61.4906 169.325 61.259 169.108 61.0469 168.843C61.0479 168.821 61.049 168.799 61.0511 168.776C61.2774 169.071 61.5269 169.313 61.7996 169.471C62.178 169.689 62.896 169.777 63.4776 169.779C63.4682 169.779 63.4587 169.779 63.4492 169.779Z" fill="#312F4F"/>
<path d="M46.0625 107.748C46.5973 106.582 49.276 106.584 50.5987 106.276C52.2741 105.886 53.9733 105.777 55.6797 105.777C55.6882 105.777 55.6961 105.777 55.7045 105.777C54.0096 105.778 52.3205 105.888 50.6561 106.276C49.3407 106.582 46.6857 106.582 46.1293 107.727C46.1072 107.734 46.0846 107.741 46.0625 107.748ZM61.5582 105.946C61.5319 105.946 61.5061 105.946 61.4798 105.946C61.474 105.946 61.4677 105.946 61.4619 105.945L61.5535 105.944C61.555 105.945 61.5566 105.946 61.5582 105.946Z" fill="#BBCDD9"/>
<path d="M63.4808 169.779C62.8992 169.777 62.1812 169.689 61.8027 169.471C61.5301 169.313 61.2806 169.071 61.0542 168.776C60.6805 168.291 60.3673 167.665 60.1099 167.047C60.2452 163.873 61.3853 160.617 62.0559 157.595C62.9165 153.721 63.4713 149.784 63.8129 145.83C64.4835 138.074 64.3388 130.178 64.203 122.467C64.1745 120.823 64.1324 119.12 63.4287 117.636C61.928 114.471 57.9718 114.968 55.0726 114.472C53.5409 114.21 52.0171 113.883 50.5264 113.444C51.1186 112.801 51.5786 112.039 51.937 111.228C52.0307 111.016 51.8465 110.823 51.677 110.823C51.6002 110.823 51.526 110.863 51.4828 110.96C51.1049 111.816 50.6175 112.621 49.9621 113.272C49.9126 113.256 49.8632 113.241 49.8142 113.225C49.8279 112.728 49.4689 112.163 49.2289 111.55C48.8699 110.631 48.3088 109.702 48.0377 108.759C47.8461 108.092 47.8877 107.504 47.1992 107.504C47.0845 107.504 46.9487 107.52 46.7881 107.555C46.5676 107.604 46.3491 107.661 46.1328 107.727C46.6892 106.582 49.3442 106.582 50.6596 106.275C52.3239 105.888 54.013 105.778 55.7079 105.777C57.6139 105.778 59.5288 105.914 61.4264 105.945L61.4653 105.945C61.4711 105.945 61.4774 105.945 61.4832 105.945C61.5096 105.946 61.5353 105.946 61.5617 105.946C63.4239 106.621 65.1378 107.754 66.2884 109.325C66.37 110.093 66.3869 110.862 66.4232 111.499C67.1669 124.652 65.5952 137.781 65.2294 150.917C65.0757 156.435 65.1699 161.908 65.4431 167.42C65.4973 168.51 65.2252 169.59 63.9898 169.75C63.8498 169.768 63.674 169.779 63.4808 169.779ZM62.1859 110.565C62.0328 110.565 61.8627 110.696 61.8959 110.897C62.1959 112.724 62.5733 114.695 63.534 116.31C64.1045 117.268 64.7904 117.702 65.7752 117.702C65.9705 117.702 66.1774 117.685 66.3974 117.652C66.7158 117.604 66.6016 117.138 66.3026 117.138C66.2879 117.138 66.2732 117.14 66.2574 117.142C66.1274 117.161 66.0016 117.171 65.8805 117.171C63.256 117.171 62.7239 112.708 62.4033 110.756C62.3812 110.623 62.2875 110.565 62.1859 110.565Z" fill="#4571AE"/>
<path d="M49.8149 113.225C49.0885 112.991 48.3716 112.729 47.6668 112.432C47.0262 112.163 46.1703 111.767 45.5234 111.225C45.6687 110.248 45.8214 109.198 45.9835 108.034C45.9977 107.932 46.0261 107.837 46.0667 107.748C46.0888 107.741 46.1114 107.734 46.1335 107.727C46.3498 107.661 46.5683 107.604 46.7888 107.555C46.9494 107.52 47.0852 107.503 47.1999 107.503C47.8884 107.503 47.8468 108.092 48.0384 108.759C48.3095 109.702 48.8706 110.631 49.2296 111.55C49.4696 112.163 49.8286 112.728 49.8149 113.225Z" fill="#CF9C89"/>
<path d="M50.5232 113.445C50.3348 113.39 50.1464 113.332 49.959 113.273C50.6143 112.622 51.1017 111.817 51.4797 110.962C51.5228 110.864 51.597 110.824 51.6739 110.824C51.8434 110.824 52.0276 111.017 51.9339 111.229C51.5755 112.041 51.1154 112.802 50.5232 113.445Z" fill="#4984BD"/>
<path d="M65.7741 117.703C64.7893 117.703 64.1034 117.269 63.5329 116.311C62.5722 114.696 62.1948 112.725 61.8948 110.898C61.8617 110.697 62.0317 110.566 62.1848 110.566C62.2864 110.566 62.3801 110.624 62.4022 110.758C62.7228 112.709 63.2549 117.172 65.8794 117.172C66.0005 117.172 66.1263 117.163 66.2563 117.143C66.2721 117.141 66.2868 117.139 66.3015 117.139C66.6005 117.139 66.7147 117.605 66.3963 117.653C66.1763 117.686 65.9694 117.703 65.7741 117.703Z" fill="#4984BD"/>
<path d="M67.7181 74.2331C67.3771 74.4245 67.0597 74.6498 66.7886 74.9344C65.6637 76.1191 66.0206 78.3627 67.5618 79.0376C69.4067 79.8452 71.6448 79.2952 73.4961 78.7843C77.906 77.5673 82.0532 75.6098 86.0562 73.4127C86.631 73.0975 87.5074 72.7325 88.159 72.2301C88.4733 71.9873 88.7291 71.7107 88.8791 71.3939L67.7181 74.2331Z" fill="#F2B49B"/>
<path d="M68.1999 82.2303C67.8689 80.5754 67.4067 78.9522 66.7624 77.3792C66.036 75.6048 64.8438 73.4738 63.1537 72.4483C61.5709 71.4872 58.4485 72.4049 56.692 72.8153C55.0371 73.2019 52.5516 73.7224 51.2094 74.8357C49.9698 75.8634 50.1092 78.4307 50.2582 79.9158C50.4298 81.6258 50.8456 83.304 50.9962 85.016C51.2715 88.1424 50.6561 91.2756 49.9198 94.3258C49.0381 97.9779 47.9769 101.592 46.5773 105.077C46.3705 105.594 46.1515 106.134 46.2083 106.686C46.3057 107.633 47.1579 108.301 47.9733 108.785C53.3406 111.977 59.9112 111.488 65.9397 111.19C66.4387 111.165 66.9667 111.125 67.3751 110.835C67.8852 110.473 68.0804 109.815 68.2178 109.203C68.9632 105.883 68.9884 102.448 68.9737 99.0447C68.949 93.5261 69.2948 87.7039 68.1999 82.2303Z" fill="#DFE8E9"/>
<path d="M58.9902 74.0883C57.7869 73.7191 56.5958 73.3082 55.4199 72.857C55.2983 72.8105 55.173 72.7607 55.0825 72.6671C54.8367 72.4143 54.8803 71.8516 54.8603 71.5205C54.8345 71.0862 54.8514 70.6504 54.8814 70.2167C54.9367 69.4228 55.0688 68.6279 55.063 67.8308C55.0588 67.1914 55.0609 66.5223 55.3509 65.9527C55.6988 65.2699 56.4173 64.8399 57.16 64.6616C57.9022 64.4834 58.677 64.5231 59.4392 64.5633C59.6597 64.5754 59.8982 64.5934 60.0671 64.7378C60.6325 65.2223 60.5009 66.1828 60.5719 66.8471C60.6756 67.816 60.893 68.7707 61.1036 69.7206C61.2015 70.1633 61.3378 70.5965 61.4441 71.037C61.5278 71.3835 61.7052 71.8457 61.5705 72.1848C61.272 72.939 60.6114 73.6308 59.9698 74.101C59.8829 74.1644 59.7903 74.2269 59.6845 74.2443C59.5745 74.2634 59.4629 74.2311 59.3566 74.1993C59.2344 74.1629 59.1123 74.1253 58.9902 74.0883Z" fill="#F2B49B"/>
<path d="M55.9483 69.8434C57.4485 70.8081 59.5513 71.3841 61.3336 70.8753C61.2625 70.4934 61.1862 70.1094 61.0999 69.7207C60.8893 68.7708 60.672 67.8161 60.5688 66.8472C60.4977 66.1829 60.6288 65.2224 60.0635 64.7379C59.8956 64.5935 59.6566 64.5755 59.436 64.5634C58.6733 64.5232 57.8991 64.4835 57.1564 64.6617C56.4142 64.84 55.6957 65.27 55.3478 65.9528C55.0572 66.5224 55.0556 67.1915 55.0598 67.8309C55.0625 68.2456 55.0414 68.6893 55.0156 69.1463C55.3099 69.3975 55.6199 69.6324 55.9483 69.8434Z" fill="#E79987"/>
<path d="M51.6826 61.5925C52.0721 64.355 53.5865 66.9984 55.952 68.5201C57.7622 69.6837 60.4508 70.2872 62.3937 69.0955C65.0008 67.4967 65.5255 63.614 65.4592 60.8256C65.3803 57.5284 64.0901 53.8372 60.9093 52.37C58.6733 51.3387 55.1698 51.2345 53.5712 53.385C51.9163 55.6112 51.2773 58.7142 51.6826 61.5925Z" fill="#F2B49B"/>
<path d="M82.4602 59.2639C83.7183 60.4312 84.6036 61.9137 83.3093 62.6817C82.8877 62.9319 82.3713 62.5379 82.1055 62.1243C81.8397 61.7112 81.5933 61.2003 81.1164 61.0902C80.7464 61.0046 80.3758 61.2008 80.0463 61.3901C78.8115 62.0999 77.5771 62.8086 76.3423 63.5184C76.1444 63.6316 75.9438 63.7464 75.7233 63.803C75.0337 63.9786 74.2895 63.5047 74.0073 62.8488C73.7247 62.1925 73.8347 61.4192 74.1363 60.7718C75.2085 58.4706 76.8118 58.2384 79.0826 58.1575C80.4274 58.1104 81.4591 58.3341 82.4602 59.2639Z" fill="#F2B49B"/>
<path d="M61.7618 52.2243C61.0822 52.3057 60.4211 52.5496 59.8542 52.9357C58.7162 53.71 58.0146 54.9809 56.9897 55.9012C56.0244 56.7681 54.8111 57.2917 53.641 57.8476C53.421 57.9523 53.1941 58.065 53.0441 58.257C52.852 58.5029 52.8183 58.8382 52.8372 59.1503C52.9435 60.9184 54.1226 62.484 53.2157 64.25C53.1215 64.4335 53.0046 64.6107 52.8399 64.7344C51.8334 65.4871 50.9318 63.5931 50.5754 62.9013C50.0433 61.8683 49.7169 60.7296 49.6053 59.5723C49.3822 57.2536 49.8317 54.1955 51.6797 52.6363C53.4699 51.1263 55.7312 50.1224 58.0919 50.1103C58.8836 50.106 59.7142 50.2171 60.4732 50.4392C60.9269 50.5715 61.2396 50.7523 61.5944 51.0501C61.806 51.2278 62.0155 51.3516 62.1781 51.587C62.2123 51.6367 62.4629 52.1994 62.445 52.1984C62.2171 52.1883 61.9886 52.1973 61.7618 52.2243Z" fill="#313057"/>
<path d="M58.1927 64.8406C59.196 64.7565 60.1677 64.774 61.1636 64.5486C62.1647 64.3228 63.1364 63.9658 64.0444 63.4866C64.0428 63.4877 63.9501 64.5592 63.917 64.6724C63.7906 65.1024 63.5922 65.5176 63.3274 65.8794C62.4689 67.0509 60.5209 67.3862 59.3013 66.6108C58.9765 66.4046 58.7017 66.1205 58.5028 65.7905C58.4654 65.7281 58.079 64.8506 58.1927 64.8406Z" fill="white"/>
<path d="M61.6962 56.9891C62.502 56.6125 63.5474 56.5215 64.1932 57.2366C64.4217 57.4889 64.7928 57.1139 64.5654 56.8627C63.7527 55.963 62.4452 56.0582 61.4309 56.5327C61.124 56.676 61.3909 57.1319 61.6962 56.9891Z" fill="#313057"/>
<path d="M35.4911 169.797C35.4901 169.797 35.489 169.797 35.488 169.797C35.489 169.797 35.4901 169.797 35.4911 169.797ZM35.4922 169.797C35.6806 169.797 35.8685 169.788 36.0559 169.767C35.8685 169.788 35.6806 169.797 35.4922 169.797ZM36.0638 169.766C36.0717 169.766 36.0801 169.765 36.088 169.764C36.0938 169.763 36.1001 169.762 36.1065 169.761C36.1001 169.762 36.0938 169.763 36.088 169.764C36.0801 169.765 36.0717 169.766 36.0638 169.766ZM34.1923 169.7C34.1882 169.7 34.1841 169.699 34.18 169.698C34.1841 169.699 34.1882 169.7 34.1923 169.7ZM34.1516 169.695C34.1426 169.694 34.1333 169.693 34.1241 169.692C34.1333 169.693 34.1426 169.694 34.1516 169.695ZM34.122 169.692C34.1107 169.691 34.0994 169.689 34.0879 169.687C34.0994 169.689 34.1107 169.691 34.122 169.692Z" fill="#312F4F"/>
<path d="M36.4434 159.525C36.4439 159.523 36.4444 159.522 36.4449 159.52C36.4444 159.522 36.4439 159.524 36.4434 159.525ZM36.4649 159.447C36.4649 159.446 36.4655 159.444 36.4655 159.444C36.4655 159.444 36.4649 159.446 36.4649 159.447ZM36.5034 159.304C36.5055 159.296 36.5076 159.289 36.5097 159.281C36.5076 159.289 36.5055 159.296 36.5034 159.304ZM36.5218 159.236C37.0218 157.38 37.475 155.514 37.9203 153.645C37.9209 153.644 37.9214 153.643 37.9219 153.642C37.4766 155.512 37.0218 157.38 36.5218 159.236Z" fill="#BBCDD9"/>
<path d="M35.4934 169.797C35.4924 169.797 35.4913 169.797 35.4903 169.797C35.0586 169.796 34.6254 169.751 34.1946 169.7C34.1905 169.7 34.1864 169.699 34.1823 169.698C34.1728 169.697 34.1634 169.696 34.154 169.695C34.1449 169.694 34.1356 169.693 34.1264 169.692C34.1256 169.692 34.1252 169.692 34.1243 169.692C34.113 169.691 34.1017 169.689 34.0902 169.687C34.0764 169.686 34.0624 169.684 34.0487 169.683C34.0439 169.682 34.039 169.682 34.034 169.681C33.8449 169.658 33.6263 169.617 33.5379 169.447C33.5089 169.392 33.4988 169.33 33.498 169.267C33.498 169.265 33.498 169.262 33.498 169.259C33.4983 169.202 33.5054 169.145 33.5137 169.09C33.9804 165.877 35.5677 162.74 36.4251 159.598C36.432 159.573 36.4388 159.549 36.4451 159.525C36.4456 159.523 36.4462 159.521 36.4467 159.519C36.4535 159.495 36.4599 159.47 36.4667 159.446C36.4667 159.445 36.4672 159.444 36.4672 159.443C36.4799 159.397 36.4925 159.35 36.5051 159.303C36.5072 159.296 36.5093 159.288 36.5114 159.28C36.5157 159.265 36.5199 159.25 36.5235 159.235C37.0236 157.379 37.4784 155.511 37.9237 153.642C38.9901 152.154 40.1397 150.723 41.3082 149.345C44.6227 145.434 48.1226 141.862 50.6044 137.319C52.8725 133.166 54.4663 128.592 55.7012 124.091C55.9723 123.102 56.1939 122.085 56.4965 121.112C56.5155 121.051 56.706 120.669 56.7708 120.669C55.678 126.991 55.6996 131.12 53.7699 137.237C53.6731 137.542 53.5741 137.847 53.4731 138.152C51.6576 143.615 49.1258 148.805 46.5108 153.921C45.087 156.705 43.7285 159.525 42.2088 162.257C42.0941 162.464 41.9783 162.67 41.8614 162.876C41.0314 164.336 40.1513 165.769 39.188 167.145C38.3453 168.349 37.681 169.567 36.1088 169.761C36.1025 169.762 36.0961 169.763 36.0903 169.764C36.0825 169.765 36.074 169.766 36.0661 169.766C36.0635 169.767 36.0609 169.767 36.0582 169.767C35.8709 169.788 35.6829 169.797 35.4945 169.797C35.494 169.797 35.494 169.797 35.4934 169.797Z" fill="#4571AE"/>
<path d="M56.7637 120.758C56.7655 120.728 56.7678 120.699 56.7702 120.669C56.7678 120.698 56.7661 120.728 56.7637 120.758Z" fill="#BBCDD9"/>
<path d="M56.7539 120.904C56.7571 120.855 56.7602 120.807 56.7634 120.758C56.7655 120.729 56.7671 120.699 56.7692 120.669C56.8029 120.67 56.7786 120.79 56.7539 120.904Z" fill="#4571AE"/>
<path d="M56.2957 82.9177C56.3078 83.7518 56.3205 84.5858 56.3331 85.4199C56.341 85.9462 56.3478 86.4804 56.2173 86.9902C56.0862 87.4996 55.7988 87.9915 55.3441 88.2517C54.3898 88.798 52.8859 87.9735 52.3485 87.1362C51.53 85.86 51.2384 84.4229 51.1895 82.9113C52.8917 82.9066 54.5935 82.9023 56.2952 82.8981L56.2957 82.9177Z" fill="#71C895"/>
<path d="M53.0332 63.5957C53.6569 64.6815 53.6222 65.8747 52.9563 66.2613C52.2894 66.648 51.244 66.081 50.6203 64.9957C49.996 63.9098 50.0308 62.7166 50.6971 62.33C51.363 61.9434 52.4089 62.5098 53.0332 63.5957Z" fill="#F2B49B"/>
<path d="M57.686 60.551C57.8376 61.2586 57.6581 61.897 57.2849 61.978C56.9117 62.0584 56.4869 61.5506 56.3348 60.8435C56.1837 60.1358 56.3632 59.4974 56.7364 59.4165C57.1096 59.3355 57.5344 59.8438 57.686 60.551Z" fill="#313057"/>
<path d="M63.6587 59.3553C63.7155 60.0762 63.4534 60.6855 63.0728 60.7156C62.6928 60.7458 62.338 60.1857 62.2812 59.4648C62.2243 58.7434 62.487 58.1341 62.8675 58.1039C63.2476 58.0738 63.6018 58.6339 63.6587 59.3553Z" fill="#313057"/>
<path d="M57.2743 57.4263C56.0016 57.285 54.8983 58.1831 54.4477 59.3155C54.3214 59.6318 54.8304 59.7688 54.9551 59.4562C55.3241 58.5306 56.2511 57.8414 57.2743 57.9552C57.6101 57.9922 57.6075 57.4627 57.2743 57.4263Z" fill="#313057"/>
<path d="M61.5635 71.6064L59.7676 74.178L62.4468 76.457V72.0729L61.5635 71.6064Z" fill="white"/>
<path d="M52.457 73.7154L54.912 72.0075L59.7677 74.1781L58.5145 77.3516L52.457 73.7154Z" fill="white"/>
<path d="M47.2928 108.998C45.9064 109.062 45.001 107.884 44.9542 106.45C44.9379 105.944 44.9442 105.436 44.9721 104.931C45.1889 100.949 46.8065 97.277 48.1971 93.6011C49.4093 90.3965 50.1521 86.9851 50.0589 83.544C49.9841 80.7885 49.4594 78.0265 48.4282 75.4672C48.4066 75.4132 48.3845 75.3561 48.395 75.299C48.404 75.2498 48.4361 75.2085 48.4677 75.1699C49.0983 74.4019 49.9526 73.9095 50.7879 73.4081C51.6959 72.8639 52.5707 72.3657 53.5876 72.0452C53.7682 71.9886 54.4446 71.7008 54.5814 71.7342C55.3868 71.9304 56.2737 74.4813 56.5921 75.1895C59.9314 82.6211 58.5834 91.4935 55.192 98.6537C53.5371 102.148 51.638 105.605 48.8646 108.29C48.6393 108.507 48.4008 108.725 48.1066 108.83C47.8208 108.932 47.5486 108.986 47.2928 108.998Z" fill="#313057"/>
<path d="M39.5874 88.5222C38.6405 90.1306 37.5172 91.8723 37.2082 93.6859C36.8119 96.003 37.4446 98.1874 38.1652 100.393C39.5206 104.543 41.5566 108.399 43.9426 112.012C44.0405 112.16 44.1721 112.326 44.3484 112.314C44.4347 112.308 44.5116 112.259 44.5837 112.211C45.7422 111.442 46.9018 110.672 48.0603 109.903C48.2435 109.781 48.4356 109.65 48.5283 109.45C48.6635 109.156 48.5456 108.814 48.4272 108.512C47.3755 105.844 46.3244 103.174 45.2727 100.506C44.81 99.3298 44.3421 98.135 44.2226 96.8768C44.0442 94.9997 44.6663 93.111 45.6554 91.5084C46.6444 89.9058 47.9851 88.5545 49.3631 87.274C49.8526 86.8192 50.3616 86.3537 50.638 85.7439C51.5233 83.7901 51.3764 81.5158 51.1812 79.4346C51.0769 78.3302 51.2406 74.6639 49.4984 74.7004C49.1757 74.7067 48.8888 74.9003 48.6341 75.0986C46.6407 76.6467 45.3322 78.8528 44.0757 81.0023C42.7177 83.3247 41.2555 85.5762 39.9338 87.9219C39.8222 88.1197 39.7064 88.3196 39.5874 88.5222Z" fill="#313057"/>
<path d="M69.6923 102.459C69.7718 97.0165 69.8523 91.5667 69.547 86.1295C69.4697 84.7533 69.3633 83.3798 69.2354 82.0078C69.1528 81.1171 69.0438 81.1573 69.6897 80.703C70.1639 80.3693 70.9798 80.2312 71.5272 80.0308C74.8549 78.8127 78.1826 77.5899 81.4877 76.311C84.4316 75.1717 87.3282 73.7241 89.4153 71.2758C86.3644 71.9375 83.2478 72.2278 80.1402 72.5172C75.9545 72.907 71.7573 73.2968 67.5547 73.1873C65.8425 73.1423 63.9718 72.853 62.4453 72.0713C63.0233 73.6384 63.7633 75.3817 63.8139 77.0446C63.8739 79.0216 64.0076 80.9976 64.076 82.9752C64.2102 86.8536 64.2734 90.7347 64.265 94.6153C64.2523 100.624 63.827 106.438 63.2601 112.404C64.5581 112.51 65.8735 112.391 67.1321 112.057C67.3542 111.998 67.5821 111.928 67.7548 111.775C67.9316 111.618 68.0295 111.394 68.119 111.175C68.7896 109.538 69.2891 107.825 69.5081 106.069C69.6571 104.873 69.6749 103.664 69.6923 102.459Z" fill="#313057"/>
<path d="M55.1909 98.6552C58.5823 91.4949 59.9303 82.6226 56.5911 75.191C56.2726 74.4828 55.3857 71.9319 54.5803 71.7357C54.4435 71.7023 53.7671 71.9901 53.5866 72.0466C53.5281 72.0652 53.4739 72.09 53.416 72.1096C53.4876 72.4523 53.6829 72.7067 53.8566 73.0918C54.1871 73.8259 54.3619 74.6219 54.5351 75.4068C55.3004 78.8795 55.4009 82.5009 54.814 86.0097C55.3167 85.9542 55.831 86.0145 56.3079 86.1848C56.2321 86.7316 55.8184 87.1611 55.5715 87.6546C55.0825 88.632 55.2683 89.7935 55.392 90.8798C55.7136 93.692 55.5336 96.5592 54.8735 99.3105C54.9793 99.0921 55.0872 98.8742 55.1909 98.6552Z" fill="#335C85"/>
<path d="M67.1505 86.696C66.7763 84.1884 66.4289 81.6767 66.0393 79.1707C65.7014 76.7928 64.9055 74.7153 63.8891 72.6435C63.387 72.4917 62.9001 72.3072 62.4453 72.0744C63.0233 73.6416 63.7633 75.3849 63.8139 77.0477C63.8739 79.0248 64.0076 81.0008 64.076 82.9783C64.2102 86.8568 64.2734 90.7373 64.265 94.6184C64.2629 95.6958 64.2434 96.7652 64.216 97.832C64.9545 95.5228 66.082 93.302 66.3836 90.8944C66.5641 89.4579 66.4431 88.0029 66.3215 86.5601C66.5773 86.6833 66.8689 86.7309 67.1505 86.696Z" fill="#335C85"/>
<path d="M60.2873 75.7098C62.1138 81.1205 61.6801 87.2563 61.4127 92.8833C61.1395 98.6383 59.7099 104.085 58.6692 109.721C58.6077 110.054 59.1151 110.196 59.1767 109.862C60.2278 104.171 61.6632 98.6907 61.939 92.8833C62.208 87.2124 62.6396 81.0338 60.7947 75.5691C60.6868 75.2486 60.1783 75.3861 60.2873 75.7098Z" fill="white"/>
<path d="M210.173 129.28L203.247 126.814L199.6 133.349L199.82 133.428C198.454 133.338 197.097 133.412 195.775 133.64L195.987 133.539L191.68 127.423L185.048 130.601L187.068 137.814L187.279 137.712C186.27 138.6 185.359 139.613 184.568 140.736L184.646 140.515L177.297 139.249L174.844 146.209L181.347 149.875L181.425 149.652C181.335 151.026 181.409 152.389 181.637 153.717L181.536 153.504L175.449 157.832L178.612 164.496L185.79 162.467L185.689 162.255C186.573 163.269 187.58 164.184 188.699 164.978L188.478 164.9L187.219 172.285L194.146 174.75L197.793 168.215L197.572 168.137C198.939 168.227 200.295 168.152 201.617 167.924L201.406 168.025L205.713 174.141L212.345 170.964L210.325 163.751L210.113 163.852C211.122 162.964 212.034 161.952 212.824 160.828L212.746 161.05L220.095 162.315L222.549 155.355L216.046 151.69L215.968 151.911C216.057 150.538 215.983 149.175 215.756 147.847L215.857 148.059L221.944 143.732L218.781 137.068L211.603 139.097L211.704 139.31C210.82 138.296 209.812 137.38 208.694 136.586L208.914 136.664L210.173 129.28Z" fill="#6C9CCD"/>
<path d="M203.708 136.564C211.523 139.345 215.614 147.966 212.846 155.818C210.078 163.67 201.499 167.781 193.685 164.999C185.87 162.218 181.779 153.598 184.547 145.746C187.315 137.894 195.894 133.783 203.708 136.564Z" fill="#A1BAE3"/>
<path d="M202.461 140.103C208.331 142.192 211.403 148.667 209.324 154.565C207.245 160.463 200.801 163.551 194.932 161.462C189.062 159.373 185.989 152.898 188.068 147C190.147 141.102 196.591 138.014 202.461 140.103Z" fill="#5D92C4"/>
<path d="M201.313 143.353C205.397 144.807 207.535 149.312 206.089 153.415C204.642 157.519 200.159 159.667 196.075 158.214C191.991 156.76 189.853 152.255 191.3 148.152C192.747 144.048 197.23 141.9 201.313 143.353Z" fill="white"/>
<path d="M200.071 96.323L195.639 94.1677L192.73 98.2493L192.871 98.318C191.968 98.1567 191.059 98.106 190.162 98.1599L190.31 98.1086L187.891 93.7155L183.241 95.3409L184.056 100.294L184.205 100.242C183.467 100.758 182.786 101.366 182.178 102.055L182.246 101.914L177.444 100.526L175.3 104.98L179.362 107.902L179.43 107.761C179.27 108.668 179.218 109.582 179.273 110.483L179.221 110.334L174.85 112.765L176.467 117.437L181.396 116.618L181.344 116.468C181.859 117.209 182.462 117.894 183.149 118.506L183.008 118.437L181.628 123.262L186.059 125.416L188.968 121.335L188.827 121.267C189.73 121.427 190.639 121.479 191.536 121.425L191.388 121.476L193.807 125.869L198.457 124.244L197.642 119.291L197.493 119.343C198.231 118.826 198.912 118.219 199.521 117.529L199.452 117.671L204.254 119.058L206.398 114.605L202.336 111.683L202.269 111.824C202.429 110.917 202.48 110.004 202.425 109.102L202.477 109.25L206.848 106.82L205.231 102.147L200.302 102.967L200.354 103.116C199.839 102.375 199.236 101.691 198.549 101.079L198.69 101.148L200.071 96.323Z" fill="#6C9CCD"/>
<path d="M195.231 100.694C200.231 103.126 202.322 109.17 199.903 114.194C197.483 119.219 191.468 121.32 186.468 118.889C181.468 116.458 179.376 110.413 181.796 105.389C184.215 100.365 190.23 98.2634 195.231 100.694Z" fill="#A1BAE3"/>
<path d="M194.139 102.961C197.894 104.787 199.466 109.327 197.648 113.1C195.831 116.874 191.313 118.453 187.557 116.627C183.801 114.801 182.23 110.261 184.047 106.487C185.865 102.713 190.383 101.134 194.139 102.961Z" fill="#5D92C4"/>
<path d="M193.137 105.037C195.75 106.308 196.843 109.466 195.579 112.092C194.314 114.718 191.171 115.816 188.557 114.545C185.945 113.275 184.851 110.116 186.116 107.491C187.38 104.865 190.524 103.767 193.137 105.037Z" fill="white"/>
</svg>
